G04 #@! TF.GenerationSoftware,KiCad,Pcbnew,5.1.0-unknown-9bfce26~82~ubuntu18.04.1*
G04 #@! TF.CreationDate,2019-03-14T11:14:55+02:00*
G04 #@! TF.ProjectId,OLIMEXINO-2560_Rev_B,4f4c494d-4558-4494-9e4f-2d323536305f,rev?*
G04 #@! TF.SameCoordinates,Original*
G04 #@! TF.FileFunction,Paste,Top*
G04 #@! TF.FilePolarity,Positive*
%FSLAX46Y46*%
G04 Gerber Fmt 4.6, Leading zero omitted, Abs format (unit mm)*
G04 Created by KiCad (PCBNEW 5.1.0-unknown-9bfce26~82~ubuntu18.04.1) date 2019-03-14 11:14:55*
%MOMM*%
%LPD*%
G04 APERTURE LIST*
%ADD10R,3.114000X1.722000*%
%ADD11R,1.289000X0.889000*%
%ADD12R,1.490900X0.889000*%
%ADD13R,0.980000X0.230000*%
%ADD14R,0.230000X0.980000*%
%ADD15R,2.139000X0.389000*%
%ADD16R,0.989000X1.089000*%
%ADD17R,0.789000X0.789000*%
%ADD18R,0.539000X0.489000*%
%ADD19R,0.489000X0.539000*%
%ADD20O,1.739000X4.489000*%
%ADD21R,1.005000X1.005000*%
%ADD22R,1.778000X1.270000*%
%ADD23R,1.513000X1.767000*%
%ADD24R,0.589000X0.589000*%
%ADD25R,1.989000X1.889000*%
%ADD26R,1.259000X1.513000*%
%ADD27R,1.513000X1.259000*%
%ADD28R,0.989000X1.389000*%
%ADD29R,1.389000X0.989000*%
%ADD30R,1.489000X3.089000*%
%ADD31R,1.489000X0.789000*%
%ADD32R,1.787320X2.386760*%
%ADD33R,0.539000X1.189000*%
%ADD34R,0.314000X1.259000*%
%ADD35R,1.089000X4.815000*%
%ADD36R,0.319000X0.789000*%
G04 APERTURE END LIST*
D10*
X45759000Y-67881500D03*
D11*
X43371500Y-69381500D03*
D12*
X43471500Y-67881500D03*
D11*
X43371500Y-66381500D03*
D13*
X53463600Y-63037800D03*
X53463600Y-63537800D03*
X53463600Y-64037800D03*
X53463600Y-64537800D03*
X53463600Y-65037800D03*
X53463600Y-65537800D03*
X53463600Y-66037800D03*
X53463600Y-66537800D03*
X53463600Y-67037800D03*
X53463600Y-67537800D03*
X53463600Y-68037800D03*
X53463600Y-68537800D03*
X53463600Y-69037800D03*
X53463600Y-69537800D03*
X53463600Y-70037800D03*
X53463600Y-70537800D03*
X53463600Y-71037800D03*
X53463600Y-71537800D03*
X53463600Y-72037800D03*
X53463600Y-72537800D03*
X53463600Y-73037800D03*
X53463600Y-73537800D03*
X53463600Y-74037800D03*
X53463600Y-74537800D03*
X53463600Y-75037800D03*
D14*
X55363600Y-76937800D03*
X55863600Y-76937800D03*
X56363600Y-76937800D03*
X56863600Y-76937800D03*
X57363600Y-76937800D03*
X57863600Y-76937800D03*
X58363600Y-76937800D03*
X58863600Y-76937800D03*
X59363600Y-76937800D03*
X59863600Y-76937800D03*
X60363600Y-76937800D03*
X60863600Y-76937800D03*
X61363600Y-76937800D03*
X61863600Y-76937800D03*
X62363600Y-76937800D03*
X62863600Y-76937800D03*
X63363600Y-76937800D03*
X63863600Y-76937800D03*
X64363600Y-76937800D03*
X64863600Y-76937800D03*
X65363600Y-76937800D03*
X65863600Y-76937800D03*
X66363600Y-76937800D03*
X66863600Y-76937800D03*
X67363600Y-76937800D03*
D13*
X69263600Y-75037800D03*
X69263600Y-74537800D03*
X69263600Y-74037800D03*
X69263600Y-73537800D03*
X69263600Y-73037800D03*
X69263600Y-72537800D03*
X69263600Y-72037800D03*
X69263600Y-71537800D03*
X69263600Y-71037800D03*
X69263600Y-70537800D03*
X69263600Y-70037800D03*
X69263600Y-69537800D03*
X69263600Y-69037800D03*
X69263600Y-68537800D03*
X69263600Y-68037800D03*
X69263600Y-67537800D03*
X69263600Y-67037800D03*
X69263600Y-66537800D03*
X69263600Y-66037800D03*
X69263600Y-65537800D03*
X69263600Y-65037800D03*
X69263600Y-64537800D03*
X69263600Y-64037800D03*
X69263600Y-63537800D03*
X69263600Y-63037800D03*
D14*
X67363600Y-61137800D03*
X66863600Y-61137800D03*
X66363600Y-61137800D03*
X65863600Y-61137800D03*
X65363600Y-61137800D03*
X64863600Y-61137800D03*
X64363600Y-61137800D03*
X63863600Y-61137800D03*
X63363600Y-61137800D03*
X62863600Y-61137800D03*
X62363600Y-61137800D03*
X61863600Y-61137800D03*
X61363600Y-61137800D03*
X60863600Y-61137800D03*
X60363600Y-61137800D03*
X59863600Y-61137800D03*
X59363600Y-61137800D03*
X58863600Y-61137800D03*
X58363600Y-61137800D03*
X57863600Y-61137800D03*
X57363600Y-61137800D03*
X56863600Y-61137800D03*
X56363600Y-61137800D03*
X55863600Y-61137800D03*
X55363600Y-61137800D03*
D15*
X29440000Y-55215000D03*
X29440000Y-55865000D03*
X29440000Y-56515000D03*
X29440000Y-57165000D03*
X29440000Y-57815000D03*
D16*
X25130000Y-55015000D03*
X25130000Y-58015000D03*
D17*
X93345000Y-48768000D03*
X93345000Y-50292000D03*
X27559001Y-47879000D03*
X26035001Y-47879000D03*
X27559000Y-49276000D03*
X26035000Y-49276000D03*
X27559000Y-50673000D03*
X26035000Y-50673000D03*
X27559001Y-46482000D03*
X26035001Y-46482000D03*
D18*
X93980000Y-45783500D03*
X93980000Y-46799500D03*
D19*
X40957500Y-73088500D03*
X41973500Y-73088500D03*
D18*
X97040700Y-45872400D03*
X97040700Y-46888400D03*
X98044000Y-46875700D03*
X98044000Y-45859700D03*
X42621200Y-64490600D03*
X42621200Y-63474600D03*
D19*
X92202000Y-59690000D03*
X91186000Y-59690000D03*
X92202000Y-60960000D03*
X91186000Y-60960000D03*
X92202000Y-62217300D03*
X91186000Y-62217300D03*
X41021000Y-89255600D03*
X40005000Y-89255600D03*
X30365700Y-46482000D03*
X29349700Y-46482000D03*
X30365700Y-47548800D03*
X29349700Y-47548800D03*
X40005000Y-92303600D03*
X41021000Y-92303600D03*
X32156400Y-50838100D03*
X31140400Y-50838100D03*
X30353000Y-50673000D03*
X29337000Y-50673000D03*
X30340300Y-49669700D03*
X29324300Y-49669700D03*
X29349700Y-48755300D03*
X30365700Y-48755300D03*
D18*
X37934900Y-65405000D03*
X37934900Y-66421000D03*
X37045900Y-65405000D03*
X37045900Y-66421000D03*
X36156900Y-65405000D03*
X36156900Y-66421000D03*
X48133000Y-70739000D03*
X48133000Y-71755000D03*
D20*
X48615000Y-75946000D03*
X45365000Y-75946000D03*
D18*
X96151700Y-45872400D03*
X96151700Y-46888400D03*
D21*
X37020500Y-71945500D03*
X37020500Y-73723500D03*
D22*
X32477000Y-90551000D03*
X38573000Y-90551000D03*
X38573000Y-92329000D03*
X32477000Y-92329000D03*
D19*
X43180000Y-73088500D03*
X44196000Y-73088500D03*
D21*
X34671000Y-52895500D03*
X34671000Y-54673500D03*
D23*
X45085000Y-79629000D03*
X42291000Y-79629000D03*
D21*
X41021000Y-61277500D03*
X39243000Y-61277500D03*
X47180500Y-79692500D03*
X48958500Y-79692500D03*
X41478200Y-67614800D03*
X41478200Y-69392800D03*
X35115500Y-51117500D03*
X33337500Y-51117500D03*
X32118300Y-60071000D03*
X33896300Y-60071000D03*
D19*
X53644800Y-81661000D03*
X54660800Y-81661000D03*
D24*
X42426000Y-61137800D03*
X43426000Y-61137800D03*
X44026200Y-51003200D03*
X45026200Y-51003200D03*
D18*
X62179200Y-83642200D03*
X62179200Y-82626200D03*
D19*
X29972000Y-90614500D03*
X30988000Y-90614500D03*
D25*
X39116000Y-84669000D03*
X39116000Y-79669000D03*
D26*
X32766000Y-55118000D03*
X32766000Y-53086000D03*
X38989000Y-71691499D03*
X38989000Y-73723499D03*
D27*
X39116000Y-77216000D03*
X37084000Y-77216000D03*
D28*
X97276920Y-48399700D03*
X95374460Y-48399700D03*
X96329500Y-50609500D03*
D29*
X40794940Y-64894460D03*
X40794940Y-62992000D03*
X38585140Y-63947040D03*
D30*
X34460000Y-70460000D03*
X34460000Y-64400000D03*
D31*
X25210000Y-63460000D03*
X25210000Y-64560000D03*
X25210000Y-65660000D03*
X25210000Y-66760000D03*
X25210000Y-67860000D03*
X25210000Y-68960000D03*
X25210000Y-70060000D03*
X25210000Y-71160000D03*
D32*
X60545980Y-81661000D03*
X56548020Y-81661000D03*
D21*
X43561000Y-71437500D03*
X45339000Y-71437500D03*
D33*
X43177500Y-77152499D03*
X42227500Y-77152499D03*
X41277500Y-77152499D03*
X41277500Y-74552299D03*
X42227500Y-74552299D03*
X43177500Y-74552299D03*
D34*
X36635500Y-59372500D03*
X37285500Y-59372500D03*
X37935500Y-59372500D03*
X38585500Y-59372500D03*
X39235500Y-59372500D03*
X39885500Y-59372500D03*
X40535500Y-59372500D03*
X41185500Y-59372500D03*
X41835500Y-59372500D03*
X42485500Y-59372500D03*
X42485500Y-52133500D03*
X41835500Y-52133500D03*
X41185500Y-52133500D03*
X40535500Y-52133500D03*
X39885500Y-52133500D03*
X39235500Y-52133500D03*
X38585500Y-52133500D03*
X37935500Y-52133500D03*
X37285500Y-52133500D03*
X36635500Y-52133500D03*
D35*
X46990000Y-62547500D03*
X46990000Y-53149500D03*
D19*
X65506600Y-58724800D03*
X64490600Y-58724800D03*
D18*
X71158100Y-70561200D03*
X71158100Y-69545200D03*
D19*
X54889400Y-59385200D03*
X55905400Y-59385200D03*
X54292500Y-78689200D03*
X53276500Y-78689200D03*
D18*
X52019200Y-67513200D03*
X52019200Y-68529200D03*
D21*
X94234000Y-52260500D03*
X96012000Y-52260500D03*
D36*
X37619700Y-69783200D03*
X36969700Y-69783200D03*
X36319700Y-69783200D03*
X36319700Y-67783200D03*
X36969700Y-67783200D03*
X37619700Y-67783200D03*
M02*
