G04 #@! TF.GenerationSoftware,KiCad,Pcbnew,5.1.0-unknown-9bfce26~82~ubuntu18.04.1*
G04 #@! TF.CreationDate,2019-03-14T11:14:55+02:00*
G04 #@! TF.ProjectId,OLIMEXINO-2560_Rev_B,4f4c494d-4558-4494-9e4f-2d323536305f,rev?*
G04 #@! TF.SameCoordinates,Original*
G04 #@! TF.FileFunction,Soldermask,Bot*
G04 #@! TF.FilePolarity,Negative*
%FSLAX46Y46*%
G04 Gerber Fmt 4.6, Leading zero omitted, Abs format (unit mm)*
G04 Created by KiCad (PCBNEW 5.1.0-unknown-9bfce26~82~ubuntu18.04.1) date 2019-03-14 11:14:55*
%MOMM*%
%LPD*%
G04 APERTURE LIST*
%ADD10C,1.500000*%
%ADD11O,6.700000X2.000000*%
%ADD12O,2.600000X1.624000*%
%ADD13O,2.900000X1.624000*%
%ADD14O,1.624000X2.600000*%
%ADD15C,3.400000*%
%ADD16C,1.776400*%
%ADD17R,1.776400X1.776400*%
%ADD18C,1.879600*%
%ADD19R,1.879600X1.879600*%
%ADD20C,0.650000*%
%ADD21O,1.900000X1.300000*%
%ADD22C,1.900000*%
%ADD23R,1.850000X1.850000*%
%ADD24C,0.901600*%
G04 APERTURE END LIST*
D10*
X32363800Y-80543400D03*
D11*
X25263800Y-85143400D03*
X25363800Y-75943400D03*
D12*
X34263800Y-81143400D03*
D13*
X32663800Y-84143400D03*
D14*
X34263800Y-77043400D03*
D15*
X77470000Y-86360000D03*
D16*
X45720000Y-91440000D03*
X48260000Y-91440000D03*
D17*
X60960000Y-91440000D03*
D16*
X63500000Y-91440000D03*
X66040000Y-91440000D03*
X68580000Y-91440000D03*
X71120000Y-91440000D03*
X73660000Y-91440000D03*
X34042540Y-43180000D03*
D17*
X73660000Y-43180000D03*
D16*
X71120000Y-43180000D03*
X68580000Y-43180000D03*
X66040000Y-43180000D03*
X63500000Y-43180000D03*
X60960000Y-43180000D03*
X58420000Y-43180000D03*
X55880000Y-43180000D03*
D17*
X51820000Y-43180000D03*
D16*
X49282540Y-43180000D03*
X46742540Y-43180000D03*
X44202540Y-43180000D03*
X41662540Y-43180000D03*
X39122540Y-43180000D03*
X50800000Y-91440000D03*
X53340000Y-91440000D03*
X36582540Y-43180000D03*
X43180000Y-91440000D03*
D17*
X55880000Y-91440000D03*
D16*
X78740000Y-43180000D03*
X88900000Y-43180000D03*
X86360000Y-43180000D03*
X83820000Y-43180000D03*
X81280000Y-43180000D03*
D17*
X91440000Y-43180000D03*
D16*
X78740000Y-91440000D03*
X76200000Y-91440000D03*
X91440000Y-91440000D03*
X88900000Y-91440000D03*
X86360000Y-91440000D03*
D17*
X83820000Y-91440000D03*
D16*
X81280000Y-63500000D03*
X81280000Y-55880000D03*
X81280000Y-66040000D03*
X81280000Y-58420000D03*
X81280000Y-60960000D03*
X81280000Y-50800000D03*
D17*
X81280000Y-48260000D03*
D16*
X81280000Y-53340000D03*
D17*
X83820000Y-48260000D03*
D16*
X83820000Y-63500000D03*
X83820000Y-50800000D03*
X83820000Y-60960000D03*
X83820000Y-58420000D03*
X83820000Y-53340000D03*
X83820000Y-66040000D03*
X83820000Y-55880000D03*
X88900000Y-55880000D03*
X88900000Y-66040000D03*
X88900000Y-53340000D03*
X88900000Y-60960000D03*
X88900000Y-63500000D03*
X88900000Y-50800000D03*
X88900000Y-58420000D03*
D17*
X88900000Y-48260000D03*
D16*
X88900000Y-73660000D03*
D17*
X81280000Y-68580000D03*
D16*
X88900000Y-78740000D03*
X83820000Y-76200000D03*
X81280000Y-83820000D03*
X83820000Y-86360000D03*
X81280000Y-71120000D03*
X88900000Y-83820000D03*
X81280000Y-81280000D03*
X83820000Y-73660000D03*
X83820000Y-81280000D03*
X83820000Y-83820000D03*
X88900000Y-71120000D03*
X81280000Y-78740000D03*
X88900000Y-86360000D03*
X88900000Y-76200000D03*
X83820000Y-71120000D03*
X81280000Y-73660000D03*
X83820000Y-78740000D03*
X81280000Y-86360000D03*
D17*
X88900000Y-68580000D03*
D16*
X81280000Y-76200000D03*
D17*
X83820000Y-68580000D03*
D16*
X88900000Y-81280000D03*
X91440000Y-76200000D03*
X91440000Y-71120000D03*
X91440000Y-86360000D03*
X91440000Y-78740000D03*
X91440000Y-83820000D03*
X91440000Y-81280000D03*
D17*
X91440000Y-68580000D03*
D16*
X91440000Y-73660000D03*
X45722540Y-45720000D03*
X38102540Y-45720000D03*
D17*
X50800000Y-45720000D03*
D16*
X43182540Y-45720000D03*
X48262540Y-45720000D03*
X35562540Y-45720000D03*
X33022540Y-45720000D03*
X40642540Y-45720000D03*
X58420000Y-45720000D03*
X55880000Y-45720000D03*
D17*
X73660000Y-45720000D03*
D16*
X60960000Y-45720000D03*
X63500000Y-45720000D03*
X66040000Y-45720000D03*
X68580000Y-45720000D03*
X71120000Y-45720000D03*
X58420000Y-54102000D03*
X60960000Y-54102000D03*
D17*
X55880000Y-54102000D03*
D16*
X58420000Y-51562000D03*
X60960000Y-51562000D03*
X55880000Y-51562000D03*
X76200000Y-66040000D03*
X76200000Y-68580000D03*
X73660000Y-66040000D03*
X73660000Y-68580000D03*
D17*
X73660000Y-63500000D03*
D16*
X76200000Y-63500000D03*
D15*
X26670000Y-43180000D03*
X26670000Y-91440000D03*
X77470000Y-86360000D03*
X77470000Y-58420000D03*
X96520000Y-43180000D03*
X96520000Y-91440000D03*
D18*
X43243500Y-83883500D03*
X45783500Y-83883500D03*
D19*
X48323500Y-83883500D03*
D18*
X34925000Y-88011000D03*
X32385000Y-88011000D03*
D19*
X29845000Y-88011000D03*
D20*
X28430000Y-54515000D03*
X28430000Y-58515000D03*
D21*
X26280000Y-52915000D03*
X29750000Y-52915000D03*
X29750000Y-60115000D03*
X26280000Y-60115000D03*
D22*
X96520000Y-64770000D03*
X93980000Y-64770000D03*
X96520000Y-62230000D03*
X93980000Y-62230000D03*
X96520000Y-59690000D03*
X93980000Y-59690000D03*
X96520000Y-57150000D03*
X93980000Y-57150000D03*
X96520000Y-54610000D03*
D23*
X93980000Y-54610000D03*
D24*
X35525000Y-90090000D03*
X35525000Y-92790000D03*
M02*
