M48
; DRILL file {KiCad 5.1.0-unknown-9bfce26~82~ubuntu18.04.1} date 14.03.2019 (чт) 11:11:31 EET
; FORMAT={-:-/ absolute / metric / decimal}
; #@! TF.CreationDate,2019-03-14T11:11:31+02:00
; #@! TF.GenerationSoftware,Kicad,Pcbnew,5.1.0-unknown-9bfce26~82~ubuntu18.04.1
; #@! TF.FileFunction,Plated,1,2,PTH
FMAT,2
METRIC
T1C0.400
T2C0.500
T3C0.600
T4C0.800
T5C1.000
T6C1.016
%
G90
G05
T1
X24.13Y-65.71
X25.095Y-47.892
X26.068Y-62.433
X27.584Y-65.608
X27.737Y-51.918
X31.128Y-56.998
X31.128Y-57.823
X31.598Y-53.835
X33.02Y-64.414
X33.045Y-70.434
X33.185Y-66.319
X34.011Y-74.168
X34.823Y-58.344
X35.671Y-54.713
X36.175Y-70.804
X36.297Y-55.566
X37.021Y-70.908
X37.897Y-54.648
X38.329Y-50.978
X38.334Y-67.188
X38.354Y-61.544
X38.367Y-48.273
X38.379Y-47.257
X38.938Y-70.472
X38.976Y-53.518
X39.154Y-65.583
X39.891Y-54.051
X40.49Y-54.953
X40.64Y-47.231
X41.186Y-53.95
X41.377Y-56.515
X42.481Y-56.832
X43.637Y-64.186
X45.009Y-57.48
X46.622Y-69.698
X47.041Y-90.424
X47.6Y-65.989
X48.057Y-59.436
X48.131Y-72.658
X48.133Y-69.926
X50.457Y-72.174
X50.813Y-82.182
X51.797Y-73.298
X51.857Y-72.42
X52.019Y-67.107
X52.019Y-68.986
X52.984Y-62.446
X53.873Y-50.952
X53.962Y-77.876
X54.178Y-56.142
X54.508Y-61.214
X54.912Y-66.879
X54.927Y-68.047
X55.124Y-78.103
X55.525Y-71.229
X55.776Y-67.965
X55.782Y-70.153
X55.867Y-75.4
X56.004Y-72.767
X56.185Y-71.768
X56.724Y-73.223
X56.845Y-59.385
X57.302Y-72.53
X57.904Y-73.134
X58.496Y-72.521
X59.074Y-73.228
X59.735Y-72.645
X60.273Y-73.313
X60.396Y-66.145
X60.795Y-65.011
X60.82Y-64.031
X60.892Y-72.56
X61.186Y-65.826
X61.316Y-67.136
X61.847Y-63.388
X62.339Y-75.935
X62.406Y-64.118
X62.691Y-63.27
X62.7Y-68.351
X62.825Y-64.903
X63.035Y-75.24
X63.434Y-65.499
X63.627Y-71.514
X63.983Y-64.834
X64.072Y-69.253
X64.213Y-72.225
X64.275Y-73.139
X64.479Y-64.134
X64.719Y-71.514
X64.732Y-78.194
X65.058Y-63.509
X65.082Y-85.337
X65.371Y-62.716
X65.817Y-55.429
X65.964Y-86.525
X66.769Y-55.146
X67.069Y-54.312
X67.64Y-66.434
X67.667Y-53.705
X67.869Y-68.813
X67.869Y-69.665
X68.246Y-54.55
X68.262Y-65.689
X68.824Y-53.622
X68.999Y-84.214
X69.431Y-54.321
X70.029Y-53.435
X70.399Y-66.416
X71.506Y-64.441
X72.009Y-68.593
X72.161Y-60.947
X72.657Y-70.98
X73.101Y-60.96
X74.435Y-61.392
X75.374Y-45.339
X76.999Y-77.953
X77.566Y-46.058
X77.838Y-79.819
X78.283Y-53.259
X78.308Y-45.301
X78.479Y-78.438
X78.753Y-77.508
X82.118Y-67.158
X82.133Y-62.466
X82.852Y-61.945
X84.935Y-69.838
X85.636Y-61.189
X85.979Y-63.538
X86.03Y-52.108
X86.251Y-65.71
X86.341Y-66.562
X86.645Y-68.58
X86.901Y-71.209
X87.053Y-74.583
X87.236Y-45.425
X88.042Y-45.146
X89.586Y-45.148
X90.463Y-46.056
X92.418Y-57.671
X93.256Y-73.66
X93.536Y-71.12
X93.84Y-68.58
X93.924Y-45.065
X98.323Y-44.78
T2
X55.537Y-86.487
X40.627Y-66.586
X65.862Y-82.296
X66.167Y-72.111
X47.828Y-49.174
X42.596Y-86.957
X94.374Y-89.167
X50.673Y-76.378
X65.646Y-65.126
X24.587Y-45.657
X31.496Y-47.003
X96.977Y-77.457
X53.619Y-80.162
X27.267Y-81.521
X26.759Y-72.377
X33.109Y-49.581
X63.132Y-49.759
X97.066Y-82.601
X32.944Y-58.382
X27.267Y-78.372
X31.699Y-72.365
X99.695Y-69.228
X36.322Y-49.581
X72.072Y-52.426
X96.99Y-72.936
X39.611Y-75.489
X31.75Y-75.578
X99.746Y-63.386
X70.726Y-81.216
X27.965Y-61.176
X72.301Y-76.276
X88.951Y-88.862
X50.635Y-88.214
X54.089Y-49.568
X99.631Y-54.978
X69.444Y-56.655
T5
X43.243Y-83.883
X45.783Y-83.883
X48.323Y-83.883
X93.98Y-54.61
X93.98Y-57.15
X93.98Y-59.69
X93.98Y-62.23
X93.98Y-64.77
X96.52Y-54.61
X96.52Y-57.15
X96.52Y-59.69
X96.52Y-62.23
X96.52Y-64.77
X29.845Y-88.011
X32.385Y-88.011
X34.925Y-88.011
T6
X33.023Y-45.72
X34.043Y-43.18
X35.563Y-45.72
X36.583Y-43.18
X38.103Y-45.72
X39.123Y-43.18
X40.643Y-45.72
X41.663Y-43.18
X43.18Y-91.44
X43.183Y-45.72
X44.203Y-43.18
X45.72Y-91.44
X45.723Y-45.72
X46.743Y-43.18
X48.26Y-91.44
X48.263Y-45.72
X49.283Y-43.18
X50.8Y-45.72
X50.8Y-91.44
X51.82Y-43.18
X53.34Y-91.44
X55.88Y-43.18
X55.88Y-45.72
X55.88Y-51.562
X55.88Y-54.102
X55.88Y-91.44
X58.42Y-43.18
X58.42Y-45.72
X58.42Y-51.562
X58.42Y-54.102
X60.96Y-43.18
X60.96Y-45.72
X60.96Y-51.562
X60.96Y-54.102
X60.96Y-91.44
X63.5Y-43.18
X63.5Y-45.72
X63.5Y-91.44
X66.04Y-43.18
X66.04Y-45.72
X66.04Y-91.44
X68.58Y-43.18
X68.58Y-45.72
X68.58Y-91.44
X71.12Y-43.18
X71.12Y-45.72
X71.12Y-91.44
X73.66Y-43.18
X73.66Y-45.72
X73.66Y-63.5
X73.66Y-66.04
X73.66Y-68.58
X73.66Y-91.44
X76.2Y-63.5
X76.2Y-66.04
X76.2Y-68.58
X76.2Y-91.44
X78.74Y-43.18
X78.74Y-91.44
X81.28Y-43.18
X81.28Y-48.26
X81.28Y-50.8
X81.28Y-53.34
X81.28Y-55.88
X81.28Y-58.42
X81.28Y-60.96
X81.28Y-63.5
X81.28Y-66.04
X81.28Y-68.58
X81.28Y-71.12
X81.28Y-73.66
X81.28Y-76.2
X81.28Y-78.74
X81.28Y-81.28
X81.28Y-83.82
X81.28Y-86.36
X83.82Y-43.18
X83.82Y-48.26
X83.82Y-50.8
X83.82Y-53.34
X83.82Y-55.88
X83.82Y-58.42
X83.82Y-60.96
X83.82Y-63.5
X83.82Y-66.04
X83.82Y-68.58
X83.82Y-71.12
X83.82Y-73.66
X83.82Y-76.2
X83.82Y-78.74
X83.82Y-81.28
X83.82Y-83.82
X83.82Y-86.36
X83.82Y-91.44
X86.36Y-43.18
X86.36Y-91.44
X88.9Y-43.18
X88.9Y-48.26
X88.9Y-50.8
X88.9Y-53.34
X88.9Y-55.88
X88.9Y-58.42
X88.9Y-60.96
X88.9Y-63.5
X88.9Y-66.04
X88.9Y-68.58
X88.9Y-71.12
X88.9Y-73.66
X88.9Y-76.2
X88.9Y-78.74
X88.9Y-81.28
X88.9Y-83.82
X88.9Y-86.36
X88.9Y-91.44
X91.44Y-43.18
X91.44Y-68.58
X91.44Y-71.12
X91.44Y-73.66
X91.44Y-76.2
X91.44Y-78.74
X91.44Y-81.28
X91.44Y-83.82
X91.44Y-86.36
X91.44Y-91.44
T3
G00X26.58Y-52.915
M15
G01X25.98Y-52.915
M16
G05
G00X26.58Y-60.115
M15
G01X25.98Y-60.115
M16
G05
G00X30.05Y-52.915
M15
G01X29.45Y-52.915
M16
G05
G00X30.05Y-60.115
M15
G01X29.45Y-60.115
M16
G05
T4
G00X32.064Y-84.143
M15
G01X33.264Y-84.143
M16
G05
G00X34.264Y-76.443
M15
G01X34.264Y-77.643
M16
G05
G00X33.664Y-81.143
M15
G01X34.864Y-81.143
M16
G05
T0
M30
