G04 #@! TF.GenerationSoftware,KiCad,Pcbnew,5.1.0-unknown-9bfce26~82~ubuntu18.04.1*
G04 #@! TF.CreationDate,2019-03-14T11:14:55+02:00*
G04 #@! TF.ProjectId,OLIMEXINO-2560_Rev_B,4f4c494d-4558-4494-9e4f-2d323536305f,rev?*
G04 #@! TF.SameCoordinates,Original*
G04 #@! TF.FileFunction,Soldermask,Top*
G04 #@! TF.FilePolarity,Negative*
%FSLAX46Y46*%
G04 Gerber Fmt 4.6, Leading zero omitted, Abs format (unit mm)*
G04 Created by KiCad (PCBNEW 5.1.0-unknown-9bfce26~82~ubuntu18.04.1) date 2019-03-14 11:14:55*
%MOMM*%
%LPD*%
G04 APERTURE LIST*
%ADD10C,1.500000*%
%ADD11O,6.700000X2.000000*%
%ADD12O,2.600000X1.624000*%
%ADD13O,2.900000X1.624000*%
%ADD14O,1.624000X2.600000*%
%ADD15C,3.400000*%
%ADD16C,1.776400*%
%ADD17R,1.776400X1.776400*%
%ADD18R,3.226600X1.834600*%
%ADD19R,1.401600X1.001600*%
%ADD20R,1.603500X1.001600*%
%ADD21C,1.879600*%
%ADD22R,1.879600X1.879600*%
%ADD23R,1.100000X0.350000*%
%ADD24R,0.350000X1.100000*%
%ADD25R,2.250000X0.500000*%
%ADD26C,0.650000*%
%ADD27R,1.100000X1.200000*%
%ADD28O,1.900000X1.300000*%
%ADD29R,0.901600X0.901600*%
%ADD30R,0.651600X0.601600*%
%ADD31R,0.601600X0.651600*%
%ADD32C,1.900000*%
%ADD33R,1.850000X1.850000*%
%ADD34O,1.850000X4.600000*%
%ADD35R,1.117600X1.117600*%
%ADD36C,1.254000*%
%ADD37R,1.625600X1.117600*%
%ADD38C,0.901600*%
%ADD39R,1.625600X1.879600*%
%ADD40R,0.600000X0.650000*%
%ADD41R,0.700000X0.700000*%
%ADD42R,0.650000X0.600000*%
%ADD43R,2.100000X2.000000*%
%ADD44R,1.371600X1.625600*%
%ADD45R,1.625600X1.371600*%
%ADD46R,1.101600X1.501600*%
%ADD47R,1.501600X1.101600*%
%ADD48R,1.601600X3.201600*%
%ADD49C,0.500000*%
%ADD50R,1.601600X0.901600*%
%ADD51R,1.898320X2.497760*%
%ADD52R,0.651600X1.301600*%
%ADD53R,0.426600X1.371600*%
%ADD54R,1.201600X4.927600*%
%ADD55R,0.430000X0.900000*%
G04 APERTURE END LIST*
D10*
X32363800Y-80543400D03*
D11*
X25263800Y-85143400D03*
X25363800Y-75943400D03*
D12*
X34263800Y-81143400D03*
D13*
X32663800Y-84143400D03*
D14*
X34263800Y-77043400D03*
D15*
X77470000Y-86360000D03*
D16*
X45720000Y-91440000D03*
X48260000Y-91440000D03*
D17*
X60960000Y-91440000D03*
D16*
X63500000Y-91440000D03*
X66040000Y-91440000D03*
X68580000Y-91440000D03*
X71120000Y-91440000D03*
X73660000Y-91440000D03*
X34042540Y-43180000D03*
D17*
X73660000Y-43180000D03*
D16*
X71120000Y-43180000D03*
X68580000Y-43180000D03*
X66040000Y-43180000D03*
X63500000Y-43180000D03*
X60960000Y-43180000D03*
X58420000Y-43180000D03*
X55880000Y-43180000D03*
D17*
X51820000Y-43180000D03*
D16*
X49282540Y-43180000D03*
X46742540Y-43180000D03*
X44202540Y-43180000D03*
X41662540Y-43180000D03*
X39122540Y-43180000D03*
X50800000Y-91440000D03*
X53340000Y-91440000D03*
X36582540Y-43180000D03*
X43180000Y-91440000D03*
D17*
X55880000Y-91440000D03*
D16*
X78740000Y-43180000D03*
X88900000Y-43180000D03*
X86360000Y-43180000D03*
X83820000Y-43180000D03*
X81280000Y-43180000D03*
D17*
X91440000Y-43180000D03*
D16*
X78740000Y-91440000D03*
X76200000Y-91440000D03*
X91440000Y-91440000D03*
X88900000Y-91440000D03*
X86360000Y-91440000D03*
D17*
X83820000Y-91440000D03*
D16*
X81280000Y-63500000D03*
X81280000Y-55880000D03*
X81280000Y-66040000D03*
X81280000Y-58420000D03*
X81280000Y-60960000D03*
X81280000Y-50800000D03*
D17*
X81280000Y-48260000D03*
D16*
X81280000Y-53340000D03*
D17*
X83820000Y-48260000D03*
D16*
X83820000Y-63500000D03*
X83820000Y-50800000D03*
X83820000Y-60960000D03*
X83820000Y-58420000D03*
X83820000Y-53340000D03*
X83820000Y-66040000D03*
X83820000Y-55880000D03*
X88900000Y-55880000D03*
X88900000Y-66040000D03*
X88900000Y-53340000D03*
X88900000Y-60960000D03*
X88900000Y-63500000D03*
X88900000Y-50800000D03*
X88900000Y-58420000D03*
D17*
X88900000Y-48260000D03*
D16*
X88900000Y-73660000D03*
D17*
X81280000Y-68580000D03*
D16*
X88900000Y-78740000D03*
X83820000Y-76200000D03*
X81280000Y-83820000D03*
X83820000Y-86360000D03*
X81280000Y-71120000D03*
X88900000Y-83820000D03*
X81280000Y-81280000D03*
X83820000Y-73660000D03*
X83820000Y-81280000D03*
X83820000Y-83820000D03*
X88900000Y-71120000D03*
X81280000Y-78740000D03*
X88900000Y-86360000D03*
X88900000Y-76200000D03*
X83820000Y-71120000D03*
X81280000Y-73660000D03*
X83820000Y-78740000D03*
X81280000Y-86360000D03*
D17*
X88900000Y-68580000D03*
D16*
X81280000Y-76200000D03*
D17*
X83820000Y-68580000D03*
D16*
X88900000Y-81280000D03*
X91440000Y-76200000D03*
X91440000Y-71120000D03*
X91440000Y-86360000D03*
X91440000Y-78740000D03*
X91440000Y-83820000D03*
X91440000Y-81280000D03*
D17*
X91440000Y-68580000D03*
D16*
X91440000Y-73660000D03*
X45722540Y-45720000D03*
X38102540Y-45720000D03*
D17*
X50800000Y-45720000D03*
D16*
X43182540Y-45720000D03*
X48262540Y-45720000D03*
X35562540Y-45720000D03*
X33022540Y-45720000D03*
X40642540Y-45720000D03*
X58420000Y-45720000D03*
X55880000Y-45720000D03*
D17*
X73660000Y-45720000D03*
D16*
X60960000Y-45720000D03*
X63500000Y-45720000D03*
X66040000Y-45720000D03*
X68580000Y-45720000D03*
X71120000Y-45720000D03*
X58420000Y-54102000D03*
X60960000Y-54102000D03*
D17*
X55880000Y-54102000D03*
D16*
X58420000Y-51562000D03*
X60960000Y-51562000D03*
X55880000Y-51562000D03*
X76200000Y-66040000D03*
X76200000Y-68580000D03*
X73660000Y-66040000D03*
X73660000Y-68580000D03*
D17*
X73660000Y-63500000D03*
D16*
X76200000Y-63500000D03*
D15*
X26670000Y-43180000D03*
X26670000Y-91440000D03*
X77470000Y-86360000D03*
X77470000Y-58420000D03*
X96520000Y-43180000D03*
X96520000Y-91440000D03*
D18*
X45759000Y-67881500D03*
D19*
X43371500Y-69381500D03*
D20*
X43471500Y-67881500D03*
D19*
X43371500Y-66381500D03*
D21*
X43243500Y-83883500D03*
X45783500Y-83883500D03*
D22*
X48323500Y-83883500D03*
D21*
X34925000Y-88011000D03*
X32385000Y-88011000D03*
D22*
X29845000Y-88011000D03*
D23*
X53463600Y-63037800D03*
X53463600Y-63537800D03*
X53463600Y-64037800D03*
X53463600Y-64537800D03*
X53463600Y-65037800D03*
X53463600Y-65537800D03*
X53463600Y-66037800D03*
X53463600Y-66537800D03*
X53463600Y-67037800D03*
X53463600Y-67537800D03*
X53463600Y-68037800D03*
X53463600Y-68537800D03*
X53463600Y-69037800D03*
X53463600Y-69537800D03*
X53463600Y-70037800D03*
X53463600Y-70537800D03*
X53463600Y-71037800D03*
X53463600Y-71537800D03*
X53463600Y-72037800D03*
X53463600Y-72537800D03*
X53463600Y-73037800D03*
X53463600Y-73537800D03*
X53463600Y-74037800D03*
X53463600Y-74537800D03*
X53463600Y-75037800D03*
D24*
X55363600Y-76937800D03*
X55863600Y-76937800D03*
X56363600Y-76937800D03*
X56863600Y-76937800D03*
X57363600Y-76937800D03*
X57863600Y-76937800D03*
X58363600Y-76937800D03*
X58863600Y-76937800D03*
X59363600Y-76937800D03*
X59863600Y-76937800D03*
X60363600Y-76937800D03*
X60863600Y-76937800D03*
X61363600Y-76937800D03*
X61863600Y-76937800D03*
X62363600Y-76937800D03*
X62863600Y-76937800D03*
X63363600Y-76937800D03*
X63863600Y-76937800D03*
X64363600Y-76937800D03*
X64863600Y-76937800D03*
X65363600Y-76937800D03*
X65863600Y-76937800D03*
X66363600Y-76937800D03*
X66863600Y-76937800D03*
X67363600Y-76937800D03*
D23*
X69263600Y-75037800D03*
X69263600Y-74537800D03*
X69263600Y-74037800D03*
X69263600Y-73537800D03*
X69263600Y-73037800D03*
X69263600Y-72537800D03*
X69263600Y-72037800D03*
X69263600Y-71537800D03*
X69263600Y-71037800D03*
X69263600Y-70537800D03*
X69263600Y-70037800D03*
X69263600Y-69537800D03*
X69263600Y-69037800D03*
X69263600Y-68537800D03*
X69263600Y-68037800D03*
X69263600Y-67537800D03*
X69263600Y-67037800D03*
X69263600Y-66537800D03*
X69263600Y-66037800D03*
X69263600Y-65537800D03*
X69263600Y-65037800D03*
X69263600Y-64537800D03*
X69263600Y-64037800D03*
X69263600Y-63537800D03*
X69263600Y-63037800D03*
D24*
X67363600Y-61137800D03*
X66863600Y-61137800D03*
X66363600Y-61137800D03*
X65863600Y-61137800D03*
X65363600Y-61137800D03*
X64863600Y-61137800D03*
X64363600Y-61137800D03*
X63863600Y-61137800D03*
X63363600Y-61137800D03*
X62863600Y-61137800D03*
X62363600Y-61137800D03*
X61863600Y-61137800D03*
X61363600Y-61137800D03*
X60863600Y-61137800D03*
X60363600Y-61137800D03*
X59863600Y-61137800D03*
X59363600Y-61137800D03*
X58863600Y-61137800D03*
X58363600Y-61137800D03*
X57863600Y-61137800D03*
X57363600Y-61137800D03*
X56863600Y-61137800D03*
X56363600Y-61137800D03*
X55863600Y-61137800D03*
X55363600Y-61137800D03*
D25*
X29440000Y-55215000D03*
X29440000Y-55865000D03*
X29440000Y-56515000D03*
X29440000Y-57165000D03*
X29440000Y-57815000D03*
D26*
X28430000Y-54515000D03*
X28430000Y-58515000D03*
D27*
X25130000Y-55015000D03*
X25130000Y-58015000D03*
D28*
X26280000Y-52915000D03*
X29750000Y-52915000D03*
X29750000Y-60115000D03*
X26280000Y-60115000D03*
D29*
X93345000Y-48768000D03*
X93345000Y-50292000D03*
X27559001Y-47879000D03*
X26035001Y-47879000D03*
X27559000Y-49276000D03*
X26035000Y-49276000D03*
X27559000Y-50673000D03*
X26035000Y-50673000D03*
X27559001Y-46482000D03*
X26035001Y-46482000D03*
D30*
X93980000Y-45783500D03*
X93980000Y-46799500D03*
D31*
X40957500Y-73088500D03*
X41973500Y-73088500D03*
D30*
X97040700Y-45872400D03*
X97040700Y-46888400D03*
X98044000Y-46875700D03*
X98044000Y-45859700D03*
X42621200Y-64490600D03*
X42621200Y-63474600D03*
D31*
X92202000Y-59690000D03*
X91186000Y-59690000D03*
X92202000Y-60960000D03*
X91186000Y-60960000D03*
X92202000Y-62217300D03*
X91186000Y-62217300D03*
X41021000Y-89255600D03*
X40005000Y-89255600D03*
X30365700Y-46482000D03*
X29349700Y-46482000D03*
X30365700Y-47548800D03*
X29349700Y-47548800D03*
X40005000Y-92303600D03*
X41021000Y-92303600D03*
X32156400Y-50838100D03*
X31140400Y-50838100D03*
X30353000Y-50673000D03*
X29337000Y-50673000D03*
X30340300Y-49669700D03*
X29324300Y-49669700D03*
X29349700Y-48755300D03*
X30365700Y-48755300D03*
D30*
X37934900Y-65405000D03*
X37934900Y-66421000D03*
X37045900Y-65405000D03*
X37045900Y-66421000D03*
X36156900Y-65405000D03*
X36156900Y-66421000D03*
X48133000Y-70739000D03*
X48133000Y-71755000D03*
D32*
X96520000Y-64770000D03*
X93980000Y-64770000D03*
X96520000Y-62230000D03*
X93980000Y-62230000D03*
X96520000Y-59690000D03*
X93980000Y-59690000D03*
X96520000Y-57150000D03*
X93980000Y-57150000D03*
X96520000Y-54610000D03*
D33*
X93980000Y-54610000D03*
D34*
X48615000Y-75946000D03*
X45365000Y-75946000D03*
D30*
X96151700Y-45872400D03*
X96151700Y-46888400D03*
D35*
X37020500Y-71945500D03*
X37020500Y-73723500D03*
D36*
X29984700Y-43726100D03*
X25514300Y-82321400D03*
X97053400Y-87630000D03*
X99593400Y-50584100D03*
D37*
X32477000Y-90551000D03*
X38573000Y-90551000D03*
X38573000Y-92329000D03*
X32477000Y-92329000D03*
D38*
X35525000Y-90090000D03*
X35525000Y-92790000D03*
D31*
X43180000Y-73088500D03*
X44196000Y-73088500D03*
D35*
X34671000Y-52895500D03*
X34671000Y-54673500D03*
D39*
X45085000Y-79629000D03*
X42291000Y-79629000D03*
D35*
X41021000Y-61277500D03*
X39243000Y-61277500D03*
X47180500Y-79692500D03*
X48958500Y-79692500D03*
X41478200Y-67614800D03*
X41478200Y-69392800D03*
X35115500Y-51117500D03*
X33337500Y-51117500D03*
X32118300Y-60071000D03*
X33896300Y-60071000D03*
D40*
X53644800Y-81661000D03*
X54660800Y-81661000D03*
D41*
X42426000Y-61137800D03*
X43426000Y-61137800D03*
X44026200Y-51003200D03*
X45026200Y-51003200D03*
D42*
X62179200Y-83642200D03*
X62179200Y-82626200D03*
D31*
X29972000Y-90614500D03*
X30988000Y-90614500D03*
D43*
X39116000Y-84669000D03*
X39116000Y-79669000D03*
D44*
X32766000Y-55118000D03*
X32766000Y-53086000D03*
X38989000Y-71691499D03*
X38989000Y-73723499D03*
D45*
X39116000Y-77216000D03*
X37084000Y-77216000D03*
D46*
X97276920Y-48399700D03*
X95374460Y-48399700D03*
X96329500Y-50609500D03*
D47*
X40794940Y-64894460D03*
X40794940Y-62992000D03*
X38585140Y-63947040D03*
D48*
X34460000Y-70460000D03*
X34460000Y-64400000D03*
D49*
X23490000Y-61770000D03*
X35290000Y-61770000D03*
X35290000Y-73040000D03*
X23490000Y-74130000D03*
D50*
X25210000Y-63460000D03*
X25210000Y-64560000D03*
X25210000Y-65660000D03*
X25210000Y-66760000D03*
X25210000Y-67860000D03*
X25210000Y-68960000D03*
X25210000Y-70060000D03*
X25210000Y-71160000D03*
D51*
X60545980Y-81661000D03*
X56548020Y-81661000D03*
D35*
X43561000Y-71437500D03*
X45339000Y-71437500D03*
D52*
X43177500Y-77152499D03*
X42227500Y-77152499D03*
X41277500Y-77152499D03*
X41277500Y-74552299D03*
X42227500Y-74552299D03*
X43177500Y-74552299D03*
D53*
X36635500Y-59372500D03*
X37285500Y-59372500D03*
X37935500Y-59372500D03*
X38585500Y-59372500D03*
X39235500Y-59372500D03*
X39885500Y-59372500D03*
X40535500Y-59372500D03*
X41185500Y-59372500D03*
X41835500Y-59372500D03*
X42485500Y-59372500D03*
X42485500Y-52133500D03*
X41835500Y-52133500D03*
X41185500Y-52133500D03*
X40535500Y-52133500D03*
X39885500Y-52133500D03*
X39235500Y-52133500D03*
X38585500Y-52133500D03*
X37935500Y-52133500D03*
X37285500Y-52133500D03*
X36635500Y-52133500D03*
D54*
X46990000Y-62547500D03*
X46990000Y-53149500D03*
D31*
X65506600Y-58724800D03*
X64490600Y-58724800D03*
D30*
X71158100Y-70561200D03*
X71158100Y-69545200D03*
D31*
X54889400Y-59385200D03*
X55905400Y-59385200D03*
X54292500Y-78689200D03*
X53276500Y-78689200D03*
D30*
X52019200Y-67513200D03*
X52019200Y-68529200D03*
D35*
X94234000Y-52260500D03*
X96012000Y-52260500D03*
D55*
X37619700Y-69783200D03*
X36969700Y-69783200D03*
X36319700Y-69783200D03*
X36319700Y-67783200D03*
X36969700Y-67783200D03*
X37619700Y-67783200D03*
M02*
