G04 #@! TF.GenerationSoftware,KiCad,Pcbnew,5.1.0-unknown-9bfce26~82~ubuntu18.04.1*
G04 #@! TF.CreationDate,2019-03-14T11:14:55+02:00*
G04 #@! TF.ProjectId,OLIMEXINO-2560_Rev_B,4f4c494d-4558-4494-9e4f-2d323536305f,rev?*
G04 #@! TF.SameCoordinates,Original*
G04 #@! TF.FileFunction,Profile,NP*
%FSLAX46Y46*%
G04 Gerber Fmt 4.6, Leading zero omitted, Abs format (unit mm)*
G04 Created by KiCad (PCBNEW 5.1.0-unknown-9bfce26~82~ubuntu18.04.1) date 2019-03-14 11:14:55*
%MOMM*%
%LPD*%
G04 APERTURE LIST*
%ADD10C,0.254000*%
G04 APERTURE END LIST*
D10*
X99801293Y-48021888D02*
X100855393Y-49075988D01*
X101600000Y-50774600D02*
X101600000Y-68808600D01*
X98425000Y-93980000D02*
X40005000Y-93980000D01*
X22860000Y-92710000D02*
X22860000Y-61595000D01*
X24130000Y-40640000D02*
X97790000Y-40640000D01*
X99060000Y-41910000D02*
G75*
G03X97790000Y-40640000I-1270000J0D01*
G01*
X99061467Y-46354925D02*
G75*
G03X99801293Y-48021888I2538146J128817D01*
G01*
X101597373Y-50774701D02*
G75*
G03X100855393Y-49075988I-2537760J-97067D01*
G01*
X98425000Y-93980000D02*
G75*
G03X99060000Y-93345000I0J635000D01*
G01*
X22860000Y-92710000D02*
G75*
G03X24130000Y-93980000I1270000J0D01*
G01*
X24130000Y-40640000D02*
G75*
G03X22860000Y-41910000I0J-1270000D01*
G01*
X99060000Y-41910000D02*
X99060000Y-46355000D01*
X99060000Y-73444100D02*
X99060000Y-74320400D01*
X100838000Y-70612000D02*
X99796600Y-71653400D01*
X99797523Y-71654498D02*
G75*
G03X99060000Y-73444100I1802477J-1789602D01*
G01*
X100838195Y-70612199D02*
G75*
G03X101600000Y-68808600I-1778195J1813759D01*
G01*
X99060000Y-74320400D02*
X99060000Y-93345000D01*
X24130000Y-93980000D02*
X31115000Y-93980000D01*
X31750000Y-93345000D02*
X39370000Y-93345000D01*
X24130000Y-60325000D02*
X24130000Y-52705000D01*
X22860000Y-51435000D02*
X22860000Y-41910000D01*
X24130000Y-52705000D02*
X22860000Y-51435000D01*
X22860000Y-61595000D02*
X24130000Y-60325000D01*
X31115000Y-93980000D02*
X31750000Y-93345000D01*
X39370000Y-93345000D02*
X40005000Y-93980000D01*
M02*
