G04 #@! TF.GenerationSoftware,KiCad,Pcbnew,5.1.0-unknown-9bfce26~82~ubuntu18.04.1*
G04 #@! TF.CreationDate,2019-03-14T11:14:55+02:00*
G04 #@! TF.ProjectId,OLIMEXINO-2560_Rev_B,4f4c494d-4558-4494-9e4f-2d323536305f,rev?*
G04 #@! TF.SameCoordinates,Original*
G04 #@! TF.FileFunction,Legend,Bot*
G04 #@! TF.FilePolarity,Positive*
%FSLAX46Y46*%
G04 Gerber Fmt 4.6, Leading zero omitted, Abs format (unit mm)*
G04 Created by KiCad (PCBNEW 5.1.0-unknown-9bfce26~82~ubuntu18.04.1) date 2019-03-14 11:14:55*
%MOMM*%
%LPD*%
G04 APERTURE LIST*
%ADD10C,0.150000*%
%ADD11C,0.300000*%
%ADD12C,0.250000*%
%ADD13C,0.254000*%
%ADD14C,0.400000*%
%ADD15C,0.700000*%
%ADD16C,0.500000*%
%ADD17C,0.100000*%
%ADD18C,0.508000*%
%ADD19C,0.127000*%
%ADD20C,0.200000*%
%ADD21C,0.420000*%
%ADD22C,0.370000*%
%ADD23C,0.380000*%
%ADD24C,1.000000*%
%ADD25C,0.120000*%
%ADD26C,0.152400*%
%ADD27C,0.203200*%
%ADD28C,0.350000*%
%ADD29C,0.180000*%
G04 APERTURE END LIST*
D10*
X24667809Y-64757571D02*
X24705904Y-64871857D01*
X24705904Y-65062333D01*
X24667809Y-65138523D01*
X24629714Y-65176619D01*
X24553523Y-65214714D01*
X24477333Y-65214714D01*
X24401142Y-65176619D01*
X24363047Y-65138523D01*
X24324952Y-65062333D01*
X24286857Y-64909952D01*
X24248761Y-64833761D01*
X24210666Y-64795666D01*
X24134476Y-64757571D01*
X24058285Y-64757571D01*
X23982095Y-64795666D01*
X23944000Y-64833761D01*
X23905904Y-64909952D01*
X23905904Y-65100428D01*
X23944000Y-65214714D01*
X24705904Y-65557571D02*
X23905904Y-65557571D01*
X23905904Y-65748047D01*
X23944000Y-65862333D01*
X24020190Y-65938523D01*
X24096380Y-65976619D01*
X24248761Y-66014714D01*
X24363047Y-66014714D01*
X24515428Y-65976619D01*
X24591619Y-65938523D01*
X24667809Y-65862333D01*
X24705904Y-65748047D01*
X24705904Y-65557571D01*
X24629714Y-66814714D02*
X24667809Y-66776619D01*
X24705904Y-66662333D01*
X24705904Y-66586142D01*
X24667809Y-66471857D01*
X24591619Y-66395666D01*
X24515428Y-66357571D01*
X24363047Y-66319476D01*
X24248761Y-66319476D01*
X24096380Y-66357571D01*
X24020190Y-66395666D01*
X23944000Y-66471857D01*
X23905904Y-66586142D01*
X23905904Y-66662333D01*
X23944000Y-66776619D01*
X23982095Y-66814714D01*
X24477333Y-67119476D02*
X24477333Y-67500428D01*
X24705904Y-67043285D02*
X23905904Y-67309952D01*
X24705904Y-67576619D01*
X24705904Y-68300428D02*
X24324952Y-68033761D01*
X24705904Y-67843285D02*
X23905904Y-67843285D01*
X23905904Y-68148047D01*
X23944000Y-68224238D01*
X23982095Y-68262333D01*
X24058285Y-68300428D01*
X24172571Y-68300428D01*
X24248761Y-68262333D01*
X24286857Y-68224238D01*
X24324952Y-68148047D01*
X24324952Y-67843285D01*
X24705904Y-68643285D02*
X23905904Y-68643285D01*
X23905904Y-68833761D01*
X23944000Y-68948047D01*
X24020190Y-69024238D01*
X24096380Y-69062333D01*
X24248761Y-69100428D01*
X24363047Y-69100428D01*
X24515428Y-69062333D01*
X24591619Y-69024238D01*
X24667809Y-68948047D01*
X24705904Y-68833761D01*
X24705904Y-68643285D01*
X25522571Y-64624238D02*
X25522571Y-65195666D01*
X25179714Y-64852809D02*
X26208285Y-64624238D01*
X25865428Y-65119476D02*
X25865428Y-64548047D01*
X26208285Y-64890904D02*
X25179714Y-65119476D01*
X25979714Y-65919476D02*
X26017809Y-65881380D01*
X26055904Y-65767095D01*
X26055904Y-65690904D01*
X26017809Y-65576619D01*
X25941619Y-65500428D01*
X25865428Y-65462333D01*
X25713047Y-65424238D01*
X25598761Y-65424238D01*
X25446380Y-65462333D01*
X25370190Y-65500428D01*
X25294000Y-65576619D01*
X25255904Y-65690904D01*
X25255904Y-65767095D01*
X25294000Y-65881380D01*
X25332095Y-65919476D01*
X26017809Y-66224238D02*
X26055904Y-66338523D01*
X26055904Y-66529000D01*
X26017809Y-66605190D01*
X25979714Y-66643285D01*
X25903523Y-66681380D01*
X25827333Y-66681380D01*
X25751142Y-66643285D01*
X25713047Y-66605190D01*
X25674952Y-66529000D01*
X25636857Y-66376619D01*
X25598761Y-66300428D01*
X25560666Y-66262333D01*
X25484476Y-66224238D01*
X25408285Y-66224238D01*
X25332095Y-66262333D01*
X25294000Y-66300428D01*
X25255904Y-66376619D01*
X25255904Y-66567095D01*
X25294000Y-66681380D01*
X25636857Y-67024238D02*
X25636857Y-67633761D01*
X25865428Y-67633761D02*
X25865428Y-67024238D01*
X26055904Y-68014714D02*
X25255904Y-68014714D01*
X25255904Y-68205190D01*
X25294000Y-68319476D01*
X25370190Y-68395666D01*
X25446380Y-68433761D01*
X25598761Y-68471857D01*
X25713047Y-68471857D01*
X25865428Y-68433761D01*
X25941619Y-68395666D01*
X26017809Y-68319476D01*
X26055904Y-68205190D01*
X26055904Y-68014714D01*
X25522571Y-69157571D02*
X26055904Y-69157571D01*
X25217809Y-68967095D02*
X25789238Y-68776619D01*
X25789238Y-69271857D01*
X65635142Y-51226428D02*
X65682761Y-51183571D01*
X65730380Y-51055000D01*
X65730380Y-50969285D01*
X65682761Y-50840714D01*
X65587523Y-50755000D01*
X65492285Y-50712142D01*
X65301809Y-50669285D01*
X65158952Y-50669285D01*
X64968476Y-50712142D01*
X64873238Y-50755000D01*
X64778000Y-50840714D01*
X64730380Y-50969285D01*
X64730380Y-51055000D01*
X64778000Y-51183571D01*
X64825619Y-51226428D01*
X65730380Y-51612142D02*
X64730380Y-51612142D01*
X65206571Y-51612142D02*
X65206571Y-52126428D01*
X65730380Y-52126428D02*
X64730380Y-52126428D01*
X64730380Y-52469285D02*
X64730380Y-53026428D01*
X65111333Y-52726428D01*
X65111333Y-52855000D01*
X65158952Y-52940714D01*
X65206571Y-52983571D01*
X65301809Y-53026428D01*
X65539904Y-53026428D01*
X65635142Y-52983571D01*
X65682761Y-52940714D01*
X65730380Y-52855000D01*
X65730380Y-52597857D01*
X65682761Y-52512142D01*
X65635142Y-52469285D01*
X65063714Y-53797857D02*
X65730380Y-53797857D01*
X64682761Y-53583571D02*
X65397047Y-53369285D01*
X65397047Y-53926428D01*
X65730380Y-54740714D02*
X65730380Y-54226428D01*
X65730380Y-54483571D02*
X64730380Y-54483571D01*
X64873238Y-54397857D01*
X64968476Y-54312142D01*
X65016095Y-54226428D01*
X96399190Y-45970904D02*
X96399190Y-46618523D01*
X96361095Y-46694714D01*
X96323000Y-46732809D01*
X96246809Y-46770904D01*
X96094428Y-46770904D01*
X96018238Y-46732809D01*
X95980142Y-46694714D01*
X95942047Y-46618523D01*
X95942047Y-45970904D01*
X95561095Y-46351857D02*
X95294428Y-46351857D01*
X95180142Y-46770904D02*
X95561095Y-46770904D01*
X95561095Y-45970904D01*
X95180142Y-45970904D01*
X94913476Y-45970904D02*
X94380142Y-46770904D01*
X94380142Y-45970904D02*
X94913476Y-46770904D01*
X94189666Y-45970904D02*
X93732523Y-45970904D01*
X93961095Y-46770904D02*
X93961095Y-45970904D01*
X98684904Y-47587571D02*
X98113476Y-47587571D01*
X98456333Y-47244714D02*
X98684904Y-48273285D01*
X98189666Y-47930428D02*
X98761095Y-47930428D01*
X98418238Y-48273285D02*
X98189666Y-47244714D01*
X97846809Y-48120904D02*
X97846809Y-47320904D01*
X97542047Y-47320904D01*
X97465857Y-47359000D01*
X97427761Y-47397095D01*
X97389666Y-47473285D01*
X97389666Y-47587571D01*
X97427761Y-47663761D01*
X97465857Y-47701857D01*
X97542047Y-47739952D01*
X97846809Y-47739952D01*
X97123000Y-47320904D02*
X96932523Y-48120904D01*
X96780142Y-47549476D01*
X96627761Y-48120904D01*
X96437285Y-47320904D01*
X95675380Y-48120904D02*
X95942047Y-47739952D01*
X96132523Y-48120904D02*
X96132523Y-47320904D01*
X95827761Y-47320904D01*
X95751571Y-47359000D01*
X95713476Y-47397095D01*
X95675380Y-47473285D01*
X95675380Y-47587571D01*
X95713476Y-47663761D01*
X95751571Y-47701857D01*
X95827761Y-47739952D01*
X96132523Y-47739952D01*
X95332523Y-47701857D02*
X95065857Y-47701857D01*
X94951571Y-48120904D02*
X95332523Y-48120904D01*
X95332523Y-47320904D01*
X94951571Y-47320904D01*
X94608714Y-47701857D02*
X93999190Y-47701857D01*
X93999190Y-47930428D02*
X94608714Y-47930428D01*
X93618238Y-48120904D02*
X93618238Y-47320904D01*
X93313476Y-47320904D01*
X93237285Y-47359000D01*
X93199190Y-47397095D01*
X93161095Y-47473285D01*
X93161095Y-47587571D01*
X93199190Y-47663761D01*
X93237285Y-47701857D01*
X93313476Y-47739952D01*
X93618238Y-47739952D01*
X92818238Y-48120904D02*
X92818238Y-47320904D01*
X92818238Y-47701857D02*
X92361095Y-47701857D01*
X92361095Y-48120904D02*
X92361095Y-47320904D01*
X92018238Y-47397095D02*
X91980142Y-47359000D01*
X91903952Y-47320904D01*
X91713476Y-47320904D01*
X91637285Y-47359000D01*
X91599190Y-47397095D01*
X91561095Y-47473285D01*
X91561095Y-47549476D01*
X91599190Y-47663761D01*
X92056333Y-48120904D01*
X91561095Y-48120904D01*
X98246809Y-49470904D02*
X98246809Y-48670904D01*
X98056333Y-48670904D01*
X97942047Y-48709000D01*
X97865857Y-48785190D01*
X97827761Y-48861380D01*
X97789666Y-49013761D01*
X97789666Y-49128047D01*
X97827761Y-49280428D01*
X97865857Y-49356619D01*
X97942047Y-49432809D01*
X98056333Y-49470904D01*
X98246809Y-49470904D01*
X97027761Y-49470904D02*
X97484904Y-49470904D01*
X97256333Y-49470904D02*
X97256333Y-48670904D01*
X97332523Y-48785190D01*
X97408714Y-48861380D01*
X97484904Y-48899476D01*
X96646809Y-49470904D02*
X96494428Y-49470904D01*
X96418238Y-49432809D01*
X96380142Y-49394714D01*
X96303952Y-49280428D01*
X96265857Y-49128047D01*
X96265857Y-48823285D01*
X96303952Y-48747095D01*
X96342047Y-48709000D01*
X96418238Y-48670904D01*
X96570619Y-48670904D01*
X96646809Y-48709000D01*
X96684904Y-48747095D01*
X96723000Y-48823285D01*
X96723000Y-49013761D01*
X96684904Y-49089952D01*
X96646809Y-49128047D01*
X96570619Y-49166142D01*
X96418238Y-49166142D01*
X96342047Y-49128047D01*
X96303952Y-49089952D01*
X96265857Y-49013761D01*
X95123000Y-49737571D02*
X95123000Y-48594714D01*
X93942047Y-49470904D02*
X93942047Y-48670904D01*
X93751571Y-48670904D01*
X93637285Y-48709000D01*
X93561095Y-48785190D01*
X93523000Y-48861380D01*
X93484904Y-49013761D01*
X93484904Y-49128047D01*
X93523000Y-49280428D01*
X93561095Y-49356619D01*
X93637285Y-49432809D01*
X93751571Y-49470904D01*
X93942047Y-49470904D01*
X92723000Y-49470904D02*
X93180142Y-49470904D01*
X92951571Y-49470904D02*
X92951571Y-48670904D01*
X93027761Y-48785190D01*
X93103952Y-48861380D01*
X93180142Y-48899476D01*
X92265857Y-49013761D02*
X92342047Y-48975666D01*
X92380142Y-48937571D01*
X92418238Y-48861380D01*
X92418238Y-48823285D01*
X92380142Y-48747095D01*
X92342047Y-48709000D01*
X92265857Y-48670904D01*
X92113476Y-48670904D01*
X92037285Y-48709000D01*
X91999190Y-48747095D01*
X91961095Y-48823285D01*
X91961095Y-48861380D01*
X91999190Y-48937571D01*
X92037285Y-48975666D01*
X92113476Y-49013761D01*
X92265857Y-49013761D01*
X92342047Y-49051857D01*
X92380142Y-49089952D01*
X92418238Y-49166142D01*
X92418238Y-49318523D01*
X92380142Y-49394714D01*
X92342047Y-49432809D01*
X92265857Y-49470904D01*
X92113476Y-49470904D01*
X92037285Y-49432809D01*
X91999190Y-49394714D01*
X91961095Y-49318523D01*
X91961095Y-49166142D01*
X91999190Y-49089952D01*
X92037285Y-49051857D01*
X92113476Y-49013761D01*
X98246809Y-50820904D02*
X98246809Y-50020904D01*
X98056333Y-50020904D01*
X97942047Y-50059000D01*
X97865857Y-50135190D01*
X97827761Y-50211380D01*
X97789666Y-50363761D01*
X97789666Y-50478047D01*
X97827761Y-50630428D01*
X97865857Y-50706619D01*
X97942047Y-50782809D01*
X98056333Y-50820904D01*
X98246809Y-50820904D01*
X97484904Y-50097095D02*
X97446809Y-50059000D01*
X97370619Y-50020904D01*
X97180142Y-50020904D01*
X97103952Y-50059000D01*
X97065857Y-50097095D01*
X97027761Y-50173285D01*
X97027761Y-50249476D01*
X97065857Y-50363761D01*
X97523000Y-50820904D01*
X97027761Y-50820904D01*
X96532523Y-50020904D02*
X96456333Y-50020904D01*
X96380142Y-50059000D01*
X96342047Y-50097095D01*
X96303952Y-50173285D01*
X96265857Y-50325666D01*
X96265857Y-50516142D01*
X96303952Y-50668523D01*
X96342047Y-50744714D01*
X96380142Y-50782809D01*
X96456333Y-50820904D01*
X96532523Y-50820904D01*
X96608714Y-50782809D01*
X96646809Y-50744714D01*
X96684904Y-50668523D01*
X96723000Y-50516142D01*
X96723000Y-50325666D01*
X96684904Y-50173285D01*
X96646809Y-50097095D01*
X96608714Y-50059000D01*
X96532523Y-50020904D01*
X95123000Y-51087571D02*
X95123000Y-49944714D01*
X93942047Y-50820904D02*
X93942047Y-50020904D01*
X93751571Y-50020904D01*
X93637285Y-50059000D01*
X93561095Y-50135190D01*
X93523000Y-50211380D01*
X93484904Y-50363761D01*
X93484904Y-50478047D01*
X93523000Y-50630428D01*
X93561095Y-50706619D01*
X93637285Y-50782809D01*
X93751571Y-50820904D01*
X93942047Y-50820904D01*
X93180142Y-50097095D02*
X93142047Y-50059000D01*
X93065857Y-50020904D01*
X92875380Y-50020904D01*
X92799190Y-50059000D01*
X92761095Y-50097095D01*
X92723000Y-50173285D01*
X92723000Y-50249476D01*
X92761095Y-50363761D01*
X93218238Y-50820904D01*
X92723000Y-50820904D01*
X91961095Y-50820904D02*
X92418238Y-50820904D01*
X92189666Y-50820904D02*
X92189666Y-50020904D01*
X92265857Y-50135190D01*
X92342047Y-50211380D01*
X92418238Y-50249476D01*
X98246809Y-52170904D02*
X98246809Y-51370904D01*
X98056333Y-51370904D01*
X97942047Y-51409000D01*
X97865857Y-51485190D01*
X97827761Y-51561380D01*
X97789666Y-51713761D01*
X97789666Y-51828047D01*
X97827761Y-51980428D01*
X97865857Y-52056619D01*
X97942047Y-52132809D01*
X98056333Y-52170904D01*
X98246809Y-52170904D01*
X97065857Y-51370904D02*
X97446809Y-51370904D01*
X97484904Y-51751857D01*
X97446809Y-51713761D01*
X97370619Y-51675666D01*
X97180142Y-51675666D01*
X97103952Y-51713761D01*
X97065857Y-51751857D01*
X97027761Y-51828047D01*
X97027761Y-52018523D01*
X97065857Y-52094714D01*
X97103952Y-52132809D01*
X97180142Y-52170904D01*
X97370619Y-52170904D01*
X97446809Y-52132809D01*
X97484904Y-52094714D01*
X96265857Y-52170904D02*
X96723000Y-52170904D01*
X96494428Y-52170904D02*
X96494428Y-51370904D01*
X96570619Y-51485190D01*
X96646809Y-51561380D01*
X96723000Y-51599476D01*
X95123000Y-52437571D02*
X95123000Y-51294714D01*
X93942047Y-52170904D02*
X93942047Y-51370904D01*
X93751571Y-51370904D01*
X93637285Y-51409000D01*
X93561095Y-51485190D01*
X93523000Y-51561380D01*
X93484904Y-51713761D01*
X93484904Y-51828047D01*
X93523000Y-51980428D01*
X93561095Y-52056619D01*
X93637285Y-52132809D01*
X93751571Y-52170904D01*
X93942047Y-52170904D01*
X92761095Y-51370904D02*
X93142047Y-51370904D01*
X93180142Y-51751857D01*
X93142047Y-51713761D01*
X93065857Y-51675666D01*
X92875380Y-51675666D01*
X92799190Y-51713761D01*
X92761095Y-51751857D01*
X92723000Y-51828047D01*
X92723000Y-52018523D01*
X92761095Y-52094714D01*
X92799190Y-52132809D01*
X92875380Y-52170904D01*
X93065857Y-52170904D01*
X93142047Y-52132809D01*
X93180142Y-52094714D01*
X92227761Y-51370904D02*
X92151571Y-51370904D01*
X92075380Y-51409000D01*
X92037285Y-51447095D01*
X91999190Y-51523285D01*
X91961095Y-51675666D01*
X91961095Y-51866142D01*
X91999190Y-52018523D01*
X92037285Y-52094714D01*
X92075380Y-52132809D01*
X92151571Y-52170904D01*
X92227761Y-52170904D01*
X92303952Y-52132809D01*
X92342047Y-52094714D01*
X92380142Y-52018523D01*
X92418238Y-51866142D01*
X92418238Y-51675666D01*
X92380142Y-51523285D01*
X92342047Y-51447095D01*
X92303952Y-51409000D01*
X92227761Y-51370904D01*
X98246809Y-53520904D02*
X98246809Y-52720904D01*
X98056333Y-52720904D01*
X97942047Y-52759000D01*
X97865857Y-52835190D01*
X97827761Y-52911380D01*
X97789666Y-53063761D01*
X97789666Y-53178047D01*
X97827761Y-53330428D01*
X97865857Y-53406619D01*
X97942047Y-53482809D01*
X98056333Y-53520904D01*
X98246809Y-53520904D01*
X97065857Y-52720904D02*
X97446809Y-52720904D01*
X97484904Y-53101857D01*
X97446809Y-53063761D01*
X97370619Y-53025666D01*
X97180142Y-53025666D01*
X97103952Y-53063761D01*
X97065857Y-53101857D01*
X97027761Y-53178047D01*
X97027761Y-53368523D01*
X97065857Y-53444714D01*
X97103952Y-53482809D01*
X97180142Y-53520904D01*
X97370619Y-53520904D01*
X97446809Y-53482809D01*
X97484904Y-53444714D01*
X96761095Y-52720904D02*
X96265857Y-52720904D01*
X96532523Y-53025666D01*
X96418238Y-53025666D01*
X96342047Y-53063761D01*
X96303952Y-53101857D01*
X96265857Y-53178047D01*
X96265857Y-53368523D01*
X96303952Y-53444714D01*
X96342047Y-53482809D01*
X96418238Y-53520904D01*
X96646809Y-53520904D01*
X96723000Y-53482809D01*
X96761095Y-53444714D01*
X95123000Y-53787571D02*
X95123000Y-52644714D01*
X93942047Y-53520904D02*
X93942047Y-52720904D01*
X93751571Y-52720904D01*
X93637285Y-52759000D01*
X93561095Y-52835190D01*
X93523000Y-52911380D01*
X93484904Y-53063761D01*
X93484904Y-53178047D01*
X93523000Y-53330428D01*
X93561095Y-53406619D01*
X93637285Y-53482809D01*
X93751571Y-53520904D01*
X93942047Y-53520904D01*
X92761095Y-52720904D02*
X93142047Y-52720904D01*
X93180142Y-53101857D01*
X93142047Y-53063761D01*
X93065857Y-53025666D01*
X92875380Y-53025666D01*
X92799190Y-53063761D01*
X92761095Y-53101857D01*
X92723000Y-53178047D01*
X92723000Y-53368523D01*
X92761095Y-53444714D01*
X92799190Y-53482809D01*
X92875380Y-53520904D01*
X93065857Y-53520904D01*
X93142047Y-53482809D01*
X93180142Y-53444714D01*
X92418238Y-52797095D02*
X92380142Y-52759000D01*
X92303952Y-52720904D01*
X92113476Y-52720904D01*
X92037285Y-52759000D01*
X91999190Y-52797095D01*
X91961095Y-52873285D01*
X91961095Y-52949476D01*
X91999190Y-53063761D01*
X92456333Y-53520904D01*
X91961095Y-53520904D01*
X92722571Y-65093809D02*
X92608285Y-65131904D01*
X92417809Y-65131904D01*
X92341619Y-65093809D01*
X92303523Y-65055714D01*
X92265428Y-64979523D01*
X92265428Y-64903333D01*
X92303523Y-64827142D01*
X92341619Y-64789047D01*
X92417809Y-64750952D01*
X92570190Y-64712857D01*
X92646380Y-64674761D01*
X92684476Y-64636666D01*
X92722571Y-64560476D01*
X92722571Y-64484285D01*
X92684476Y-64408095D01*
X92646380Y-64370000D01*
X92570190Y-64331904D01*
X92379714Y-64331904D01*
X92265428Y-64370000D01*
X91465428Y-65055714D02*
X91503523Y-65093809D01*
X91617809Y-65131904D01*
X91694000Y-65131904D01*
X91808285Y-65093809D01*
X91884476Y-65017619D01*
X91922571Y-64941428D01*
X91960666Y-64789047D01*
X91960666Y-64674761D01*
X91922571Y-64522380D01*
X91884476Y-64446190D01*
X91808285Y-64370000D01*
X91694000Y-64331904D01*
X91617809Y-64331904D01*
X91503523Y-64370000D01*
X91465428Y-64408095D01*
X91122571Y-65131904D02*
X91122571Y-64331904D01*
X90665428Y-65131904D02*
X91008285Y-64674761D01*
X90665428Y-64331904D02*
X91122571Y-64789047D01*
X92951142Y-62591904D02*
X92951142Y-61791904D01*
X92684476Y-62363333D01*
X92417809Y-61791904D01*
X92417809Y-62591904D01*
X92036857Y-62591904D02*
X92036857Y-61791904D01*
X91694000Y-62553809D02*
X91579714Y-62591904D01*
X91389238Y-62591904D01*
X91313047Y-62553809D01*
X91274952Y-62515714D01*
X91236857Y-62439523D01*
X91236857Y-62363333D01*
X91274952Y-62287142D01*
X91313047Y-62249047D01*
X91389238Y-62210952D01*
X91541619Y-62172857D01*
X91617809Y-62134761D01*
X91655904Y-62096666D01*
X91694000Y-62020476D01*
X91694000Y-61944285D01*
X91655904Y-61868095D01*
X91617809Y-61830000D01*
X91541619Y-61791904D01*
X91351142Y-61791904D01*
X91236857Y-61830000D01*
X90741619Y-61791904D02*
X90589238Y-61791904D01*
X90513047Y-61830000D01*
X90436857Y-61906190D01*
X90398761Y-62058571D01*
X90398761Y-62325238D01*
X90436857Y-62477619D01*
X90513047Y-62553809D01*
X90589238Y-62591904D01*
X90741619Y-62591904D01*
X90817809Y-62553809D01*
X90894000Y-62477619D01*
X90932095Y-62325238D01*
X90932095Y-62058571D01*
X90894000Y-61906190D01*
X90817809Y-61830000D01*
X90741619Y-61791904D01*
X92646380Y-60013809D02*
X92532095Y-60051904D01*
X92341619Y-60051904D01*
X92265428Y-60013809D01*
X92227333Y-59975714D01*
X92189238Y-59899523D01*
X92189238Y-59823333D01*
X92227333Y-59747142D01*
X92265428Y-59709047D01*
X92341619Y-59670952D01*
X92494000Y-59632857D01*
X92570190Y-59594761D01*
X92608285Y-59556666D01*
X92646380Y-59480476D01*
X92646380Y-59404285D01*
X92608285Y-59328095D01*
X92570190Y-59290000D01*
X92494000Y-59251904D01*
X92303523Y-59251904D01*
X92189238Y-59290000D01*
X91389238Y-59975714D02*
X91427333Y-60013809D01*
X91541619Y-60051904D01*
X91617809Y-60051904D01*
X91732095Y-60013809D01*
X91808285Y-59937619D01*
X91846380Y-59861428D01*
X91884476Y-59709047D01*
X91884476Y-59594761D01*
X91846380Y-59442380D01*
X91808285Y-59366190D01*
X91732095Y-59290000D01*
X91617809Y-59251904D01*
X91541619Y-59251904D01*
X91427333Y-59290000D01*
X91389238Y-59328095D01*
X90665428Y-60051904D02*
X91046380Y-60051904D01*
X91046380Y-59251904D01*
X92703523Y-56711904D02*
X92246380Y-56711904D01*
X92474952Y-57511904D02*
X92474952Y-56711904D01*
X92055904Y-56711904D02*
X91522571Y-57511904D01*
X91522571Y-56711904D02*
X92055904Y-57511904D01*
X91217809Y-57511904D02*
X91217809Y-56711904D01*
X91027333Y-56711904D01*
X90913047Y-56750000D01*
X90836857Y-56826190D01*
X90798761Y-56902380D01*
X90760666Y-57054761D01*
X90760666Y-57169047D01*
X90798761Y-57321428D01*
X90836857Y-57397619D01*
X90913047Y-57473809D01*
X91027333Y-57511904D01*
X91217809Y-57511904D01*
X92874952Y-54171904D02*
X92379714Y-54171904D01*
X92646380Y-54476666D01*
X92532095Y-54476666D01*
X92455904Y-54514761D01*
X92417809Y-54552857D01*
X92379714Y-54629047D01*
X92379714Y-54819523D01*
X92417809Y-54895714D01*
X92455904Y-54933809D01*
X92532095Y-54971904D01*
X92760666Y-54971904D01*
X92836857Y-54933809D01*
X92874952Y-54895714D01*
X92036857Y-54895714D02*
X91998761Y-54933809D01*
X92036857Y-54971904D01*
X92074952Y-54933809D01*
X92036857Y-54895714D01*
X92036857Y-54971904D01*
X91732095Y-54171904D02*
X91236857Y-54171904D01*
X91503523Y-54476666D01*
X91389238Y-54476666D01*
X91313047Y-54514761D01*
X91274952Y-54552857D01*
X91236857Y-54629047D01*
X91236857Y-54819523D01*
X91274952Y-54895714D01*
X91313047Y-54933809D01*
X91389238Y-54971904D01*
X91617809Y-54971904D01*
X91694000Y-54933809D01*
X91732095Y-54895714D01*
X91008285Y-54171904D02*
X90741619Y-54971904D01*
X90474952Y-54171904D01*
X99091733Y-65055714D02*
X99129828Y-65093809D01*
X99244114Y-65131904D01*
X99320304Y-65131904D01*
X99434590Y-65093809D01*
X99510780Y-65017619D01*
X99548876Y-64941428D01*
X99586971Y-64789047D01*
X99586971Y-64674761D01*
X99548876Y-64522380D01*
X99510780Y-64446190D01*
X99434590Y-64370000D01*
X99320304Y-64331904D01*
X99244114Y-64331904D01*
X99129828Y-64370000D01*
X99091733Y-64408095D01*
X98786971Y-65093809D02*
X98672685Y-65131904D01*
X98482209Y-65131904D01*
X98406019Y-65093809D01*
X98367923Y-65055714D01*
X98329828Y-64979523D01*
X98329828Y-64903333D01*
X98367923Y-64827142D01*
X98406019Y-64789047D01*
X98482209Y-64750952D01*
X98634590Y-64712857D01*
X98710780Y-64674761D01*
X98748876Y-64636666D01*
X98786971Y-64560476D01*
X98786971Y-64484285D01*
X98748876Y-64408095D01*
X98710780Y-64370000D01*
X98634590Y-64331904D01*
X98444114Y-64331904D01*
X98329828Y-64370000D01*
X100215542Y-62591904D02*
X100215542Y-61791904D01*
X99948876Y-62363333D01*
X99682209Y-61791904D01*
X99682209Y-62591904D01*
X99148876Y-61791904D02*
X98996495Y-61791904D01*
X98920304Y-61830000D01*
X98844114Y-61906190D01*
X98806019Y-62058571D01*
X98806019Y-62325238D01*
X98844114Y-62477619D01*
X98920304Y-62553809D01*
X98996495Y-62591904D01*
X99148876Y-62591904D01*
X99225066Y-62553809D01*
X99301257Y-62477619D01*
X99339352Y-62325238D01*
X99339352Y-62058571D01*
X99301257Y-61906190D01*
X99225066Y-61830000D01*
X99148876Y-61791904D01*
X98501257Y-62553809D02*
X98386971Y-62591904D01*
X98196495Y-62591904D01*
X98120304Y-62553809D01*
X98082209Y-62515714D01*
X98044114Y-62439523D01*
X98044114Y-62363333D01*
X98082209Y-62287142D01*
X98120304Y-62249047D01*
X98196495Y-62210952D01*
X98348876Y-62172857D01*
X98425066Y-62134761D01*
X98463161Y-62096666D01*
X98501257Y-62020476D01*
X98501257Y-61944285D01*
X98463161Y-61868095D01*
X98425066Y-61830000D01*
X98348876Y-61791904D01*
X98158400Y-61791904D01*
X98044114Y-61830000D01*
X97701257Y-62591904D02*
X97701257Y-61791904D01*
X99929828Y-60013809D02*
X99815542Y-60051904D01*
X99625066Y-60051904D01*
X99548876Y-60013809D01*
X99510780Y-59975714D01*
X99472685Y-59899523D01*
X99472685Y-59823333D01*
X99510780Y-59747142D01*
X99548876Y-59709047D01*
X99625066Y-59670952D01*
X99777447Y-59632857D01*
X99853638Y-59594761D01*
X99891733Y-59556666D01*
X99929828Y-59480476D01*
X99929828Y-59404285D01*
X99891733Y-59328095D01*
X99853638Y-59290000D01*
X99777447Y-59251904D01*
X99586971Y-59251904D01*
X99472685Y-59290000D01*
X99129828Y-60051904D02*
X99129828Y-59251904D01*
X98939352Y-59251904D01*
X98825066Y-59290000D01*
X98748876Y-59366190D01*
X98710780Y-59442380D01*
X98672685Y-59594761D01*
X98672685Y-59709047D01*
X98710780Y-59861428D01*
X98748876Y-59937619D01*
X98825066Y-60013809D01*
X98939352Y-60051904D01*
X99129828Y-60051904D01*
X98367923Y-59823333D02*
X97986971Y-59823333D01*
X98444114Y-60051904D02*
X98177447Y-59251904D01*
X97910780Y-60051904D01*
X99491733Y-57511904D02*
X99758400Y-57130952D01*
X99948876Y-57511904D02*
X99948876Y-56711904D01*
X99644114Y-56711904D01*
X99567923Y-56750000D01*
X99529828Y-56788095D01*
X99491733Y-56864285D01*
X99491733Y-56978571D01*
X99529828Y-57054761D01*
X99567923Y-57092857D01*
X99644114Y-57130952D01*
X99948876Y-57130952D01*
X99225066Y-56711904D02*
X98691733Y-57511904D01*
X98691733Y-56711904D02*
X99225066Y-57511904D01*
X98386971Y-57511904D02*
X98386971Y-56711904D01*
X98196495Y-56711904D01*
X98082209Y-56750000D01*
X98006019Y-56826190D01*
X97967923Y-56902380D01*
X97929828Y-57054761D01*
X97929828Y-57169047D01*
X97967923Y-57321428D01*
X98006019Y-57397619D01*
X98082209Y-57473809D01*
X98196495Y-57511904D01*
X98386971Y-57511904D01*
X99567923Y-54248100D02*
X99644114Y-54210004D01*
X99758400Y-54210004D01*
X99872685Y-54248100D01*
X99948876Y-54324290D01*
X99986971Y-54400480D01*
X100025066Y-54552861D01*
X100025066Y-54667147D01*
X99986971Y-54819528D01*
X99948876Y-54895719D01*
X99872685Y-54971909D01*
X99758400Y-55010004D01*
X99682209Y-55010004D01*
X99567923Y-54971909D01*
X99529828Y-54933814D01*
X99529828Y-54667147D01*
X99682209Y-54667147D01*
X99186971Y-55010004D02*
X99186971Y-54210004D01*
X98729828Y-55010004D01*
X98729828Y-54210004D01*
X98348876Y-55010004D02*
X98348876Y-54210004D01*
X98158400Y-54210004D01*
X98044114Y-54248100D01*
X97967923Y-54324290D01*
X97929828Y-54400480D01*
X97891733Y-54552861D01*
X97891733Y-54667147D01*
X97929828Y-54819528D01*
X97967923Y-54895719D01*
X98044114Y-54971909D01*
X98158400Y-55010004D01*
X98348876Y-55010004D01*
D11*
X75157700Y-82947771D02*
X74891033Y-82947771D01*
X74757700Y-83019200D01*
X74624366Y-83162057D01*
X74557700Y-83447771D01*
X74557700Y-83947771D01*
X74624366Y-84233485D01*
X74757700Y-84376342D01*
X74891033Y-84447771D01*
X75157700Y-84447771D01*
X75291033Y-84376342D01*
X75424366Y-84233485D01*
X75491033Y-83947771D01*
X75491033Y-83447771D01*
X75424366Y-83162057D01*
X75291033Y-83019200D01*
X75157700Y-82947771D01*
X73757700Y-84447771D02*
X73891033Y-84376342D01*
X73957700Y-84233485D01*
X73957700Y-82947771D01*
X73224366Y-84447771D02*
X73224366Y-83447771D01*
X73224366Y-82947771D02*
X73291033Y-83019200D01*
X73224366Y-83090628D01*
X73157700Y-83019200D01*
X73224366Y-82947771D01*
X73224366Y-83090628D01*
X72557700Y-84447771D02*
X72557700Y-83447771D01*
X72557700Y-83590628D02*
X72491033Y-83519200D01*
X72357700Y-83447771D01*
X72157700Y-83447771D01*
X72024366Y-83519200D01*
X71957700Y-83662057D01*
X71957700Y-84447771D01*
X71957700Y-83662057D02*
X71891033Y-83519200D01*
X71757700Y-83447771D01*
X71557700Y-83447771D01*
X71424366Y-83519200D01*
X71357700Y-83662057D01*
X71357700Y-84447771D01*
X70157700Y-84376342D02*
X70291033Y-84447771D01*
X70557700Y-84447771D01*
X70691033Y-84376342D01*
X70757700Y-84233485D01*
X70757700Y-83662057D01*
X70691033Y-83519200D01*
X70557700Y-83447771D01*
X70291033Y-83447771D01*
X70157700Y-83519200D01*
X70091033Y-83662057D01*
X70091033Y-83804914D01*
X70757700Y-83947771D01*
X69624366Y-84447771D02*
X68891033Y-83447771D01*
X69624366Y-83447771D02*
X68891033Y-84447771D01*
X68357700Y-84447771D02*
X68357700Y-83447771D01*
X68357700Y-82947771D02*
X68424366Y-83019200D01*
X68357700Y-83090628D01*
X68291033Y-83019200D01*
X68357700Y-82947771D01*
X68357700Y-83090628D01*
X67691033Y-83447771D02*
X67691033Y-84447771D01*
X67691033Y-83590628D02*
X67624366Y-83519200D01*
X67491033Y-83447771D01*
X67291033Y-83447771D01*
X67157700Y-83519200D01*
X67091033Y-83662057D01*
X67091033Y-84447771D01*
X66224366Y-84447771D02*
X66357700Y-84376342D01*
X66424366Y-84304914D01*
X66491033Y-84162057D01*
X66491033Y-83733485D01*
X66424366Y-83590628D01*
X66357700Y-83519200D01*
X66224366Y-83447771D01*
X66024366Y-83447771D01*
X65891033Y-83519200D01*
X65824366Y-83590628D01*
X65757700Y-83733485D01*
X65757700Y-84162057D01*
X65824366Y-84304914D01*
X65891033Y-84376342D01*
X66024366Y-84447771D01*
X66224366Y-84447771D01*
X65224366Y-83090628D02*
X65157700Y-83019200D01*
X65024366Y-82947771D01*
X64691033Y-82947771D01*
X64557700Y-83019200D01*
X64491033Y-83090628D01*
X64424366Y-83233485D01*
X64424366Y-83376342D01*
X64491033Y-83590628D01*
X65291033Y-84447771D01*
X64424366Y-84447771D01*
X63157700Y-82947771D02*
X63824366Y-82947771D01*
X63891033Y-83662057D01*
X63824366Y-83590628D01*
X63691033Y-83519200D01*
X63357700Y-83519200D01*
X63224366Y-83590628D01*
X63157700Y-83662057D01*
X63091033Y-83804914D01*
X63091033Y-84162057D01*
X63157700Y-84304914D01*
X63224366Y-84376342D01*
X63357700Y-84447771D01*
X63691033Y-84447771D01*
X63824366Y-84376342D01*
X63891033Y-84304914D01*
X61891033Y-82947771D02*
X62157700Y-82947771D01*
X62291033Y-83019200D01*
X62357700Y-83090628D01*
X62491033Y-83304914D01*
X62557700Y-83590628D01*
X62557700Y-84162057D01*
X62491033Y-84304914D01*
X62424366Y-84376342D01*
X62291033Y-84447771D01*
X62024366Y-84447771D01*
X61891033Y-84376342D01*
X61824366Y-84304914D01*
X61757700Y-84162057D01*
X61757700Y-83804914D01*
X61824366Y-83662057D01*
X61891033Y-83590628D01*
X62024366Y-83519200D01*
X62291033Y-83519200D01*
X62424366Y-83590628D01*
X62491033Y-83662057D01*
X62557700Y-83804914D01*
X60891033Y-82947771D02*
X60757700Y-82947771D01*
X60624366Y-83019200D01*
X60557700Y-83090628D01*
X60491033Y-83233485D01*
X60424366Y-83519200D01*
X60424366Y-83876342D01*
X60491033Y-84162057D01*
X60557700Y-84304914D01*
X60624366Y-84376342D01*
X60757700Y-84447771D01*
X60891033Y-84447771D01*
X61024366Y-84376342D01*
X61091033Y-84304914D01*
X61157700Y-84162057D01*
X61224366Y-83876342D01*
X61224366Y-83519200D01*
X61157700Y-83233485D01*
X61091033Y-83090628D01*
X61024366Y-83019200D01*
X60891033Y-82947771D01*
D12*
X51764357Y-83196995D02*
X52335785Y-83196995D01*
X52392928Y-83816042D01*
X52335785Y-83754138D01*
X52221500Y-83692233D01*
X51935785Y-83692233D01*
X51821500Y-83754138D01*
X51764357Y-83816042D01*
X51707214Y-83939852D01*
X51707214Y-84249376D01*
X51764357Y-84373185D01*
X51821500Y-84435090D01*
X51935785Y-84496995D01*
X52221500Y-84496995D01*
X52335785Y-84435090D01*
X52392928Y-84373185D01*
X51364357Y-83196995D02*
X50964357Y-84496995D01*
X50564357Y-83196995D01*
X41135785Y-83196995D02*
X40392928Y-83196995D01*
X40792928Y-83692233D01*
X40621500Y-83692233D01*
X40507214Y-83754138D01*
X40450071Y-83816042D01*
X40392928Y-83939852D01*
X40392928Y-84249376D01*
X40450071Y-84373185D01*
X40507214Y-84435090D01*
X40621500Y-84496995D01*
X40964357Y-84496995D01*
X41078642Y-84435090D01*
X41135785Y-84373185D01*
X39878642Y-84373185D02*
X39821500Y-84435090D01*
X39878642Y-84496995D01*
X39935785Y-84435090D01*
X39878642Y-84373185D01*
X39878642Y-84496995D01*
X39421500Y-83196995D02*
X38678642Y-83196995D01*
X39078642Y-83692233D01*
X38907214Y-83692233D01*
X38792928Y-83754138D01*
X38735785Y-83816042D01*
X38678642Y-83939852D01*
X38678642Y-84249376D01*
X38735785Y-84373185D01*
X38792928Y-84435090D01*
X38907214Y-84496995D01*
X39250071Y-84496995D01*
X39364357Y-84435090D01*
X39421500Y-84373185D01*
X38335785Y-83196995D02*
X37935785Y-84496995D01*
X37535785Y-83196995D01*
D11*
X30279671Y-79531471D02*
X30993957Y-79531471D01*
X31065385Y-80245757D01*
X30993957Y-80174328D01*
X30851100Y-80102900D01*
X30493957Y-80102900D01*
X30351100Y-80174328D01*
X30279671Y-80245757D01*
X30208242Y-80388614D01*
X30208242Y-80745757D01*
X30279671Y-80888614D01*
X30351100Y-80960042D01*
X30493957Y-81031471D01*
X30851100Y-81031471D01*
X30993957Y-80960042D01*
X31065385Y-80888614D01*
X29565385Y-80888614D02*
X29493957Y-80960042D01*
X29565385Y-81031471D01*
X29636814Y-80960042D01*
X29565385Y-80888614D01*
X29565385Y-81031471D01*
X28851100Y-80888614D02*
X28779671Y-80960042D01*
X28851100Y-81031471D01*
X28922528Y-80960042D01*
X28851100Y-80888614D01*
X28851100Y-81031471D01*
X27351100Y-81031471D02*
X28208242Y-81031471D01*
X27779671Y-81031471D02*
X27779671Y-79531471D01*
X27922528Y-79745757D01*
X28065385Y-79888614D01*
X28208242Y-79960042D01*
X25993957Y-79531471D02*
X26708242Y-79531471D01*
X26779671Y-80245757D01*
X26708242Y-80174328D01*
X26565385Y-80102900D01*
X26208242Y-80102900D01*
X26065385Y-80174328D01*
X25993957Y-80245757D01*
X25922528Y-80388614D01*
X25922528Y-80745757D01*
X25993957Y-80888614D01*
X26065385Y-80960042D01*
X26208242Y-81031471D01*
X26565385Y-81031471D01*
X26708242Y-80960042D01*
X26779671Y-80888614D01*
X25493957Y-79531471D02*
X24993957Y-81031471D01*
X24493957Y-79531471D01*
D12*
X59556328Y-76849314D02*
X60318233Y-77135028D01*
X59556328Y-77420742D01*
X58651566Y-77468361D02*
X58746804Y-77515980D01*
X58937280Y-77515980D01*
X59032519Y-77468361D01*
X59080138Y-77420742D01*
X59127757Y-77325504D01*
X59127757Y-77039790D01*
X59080138Y-76944552D01*
X59032519Y-76896933D01*
X58937280Y-76849314D01*
X58746804Y-76849314D01*
X58651566Y-76896933D01*
X58222995Y-76849314D02*
X57461090Y-77135028D01*
X58222995Y-77420742D01*
X57032519Y-76611219D02*
X56984900Y-76563600D01*
X56889661Y-76515980D01*
X56651566Y-76515980D01*
X56556328Y-76563600D01*
X56508709Y-76611219D01*
X56461090Y-76706457D01*
X56461090Y-76801695D01*
X56508709Y-76944552D01*
X57080138Y-77515980D01*
X56461090Y-77515980D01*
X55842042Y-76515980D02*
X55746804Y-76515980D01*
X55651566Y-76563600D01*
X55603947Y-76611219D01*
X55556328Y-76706457D01*
X55508709Y-76896933D01*
X55508709Y-77135028D01*
X55556328Y-77325504D01*
X55603947Y-77420742D01*
X55651566Y-77468361D01*
X55746804Y-77515980D01*
X55842042Y-77515980D01*
X55937280Y-77468361D01*
X55984900Y-77420742D01*
X56032519Y-77325504D01*
X56080138Y-77135028D01*
X56080138Y-76896933D01*
X56032519Y-76706457D01*
X55984900Y-76611219D01*
X55937280Y-76563600D01*
X55842042Y-76515980D01*
X54556328Y-77515980D02*
X55127757Y-77515980D01*
X54842042Y-77515980D02*
X54842042Y-76515980D01*
X54937280Y-76658838D01*
X55032519Y-76754076D01*
X55127757Y-76801695D01*
X54080138Y-77515980D02*
X53889661Y-77515980D01*
X53794423Y-77468361D01*
X53746804Y-77420742D01*
X53651566Y-77277885D01*
X53603947Y-77087409D01*
X53603947Y-76706457D01*
X53651566Y-76611219D01*
X53699185Y-76563600D01*
X53794423Y-76515980D01*
X53984900Y-76515980D01*
X54080138Y-76563600D01*
X54127757Y-76611219D01*
X54175376Y-76706457D01*
X54175376Y-76944552D01*
X54127757Y-77039790D01*
X54080138Y-77087409D01*
X53984900Y-77135028D01*
X53794423Y-77135028D01*
X53699185Y-77087409D01*
X53651566Y-77039790D01*
X53603947Y-76944552D01*
D11*
X57444328Y-66694795D02*
X57444328Y-65394795D01*
X56872900Y-66694795D02*
X56872900Y-65394795D01*
X56472900Y-66323366D01*
X56072900Y-65394795D01*
X56072900Y-66694795D01*
X55501471Y-66694795D02*
X55501471Y-65394795D01*
X55044328Y-65394795D01*
X54930042Y-65456700D01*
X54872900Y-65518604D01*
X54815757Y-65642414D01*
X54815757Y-65828128D01*
X54872900Y-65951938D01*
X54930042Y-66013842D01*
X55044328Y-66075747D01*
X55501471Y-66075747D01*
X54072900Y-65394795D02*
X53844328Y-65394795D01*
X53730042Y-65456700D01*
X53615757Y-65580509D01*
X53558614Y-65828128D01*
X53558614Y-66261461D01*
X53615757Y-66509080D01*
X53730042Y-66632890D01*
X53844328Y-66694795D01*
X54072900Y-66694795D01*
X54187185Y-66632890D01*
X54301471Y-66509080D01*
X54358614Y-66261461D01*
X54358614Y-65828128D01*
X54301471Y-65580509D01*
X54187185Y-65456700D01*
X54072900Y-65394795D01*
X52358614Y-66694795D02*
X52758614Y-66075747D01*
X53044328Y-66694795D02*
X53044328Y-65394795D01*
X52587185Y-65394795D01*
X52472900Y-65456700D01*
X52415757Y-65518604D01*
X52358614Y-65642414D01*
X52358614Y-65828128D01*
X52415757Y-65951938D01*
X52472900Y-66013842D01*
X52587185Y-66075747D01*
X53044328Y-66075747D01*
X52015757Y-65394795D02*
X51330042Y-65394795D01*
X51672900Y-66694795D02*
X51672900Y-65394795D01*
X50987185Y-66323366D02*
X50415757Y-66323366D01*
X51101471Y-66694795D02*
X50701471Y-65394795D01*
X50301471Y-66694795D01*
X49901471Y-66694795D02*
X49901471Y-65394795D01*
X49215757Y-66694795D01*
X49215757Y-65394795D01*
X48815757Y-65394795D02*
X48130042Y-65394795D01*
X48472900Y-66694795D02*
X48472900Y-65394795D01*
X46815757Y-66694795D02*
X46815757Y-65394795D01*
X46130042Y-66694795D01*
X46130042Y-65394795D01*
X45330042Y-65394795D02*
X45101471Y-65394795D01*
X44987185Y-65456700D01*
X44872900Y-65580509D01*
X44815757Y-65828128D01*
X44815757Y-66261461D01*
X44872900Y-66509080D01*
X44987185Y-66632890D01*
X45101471Y-66694795D01*
X45330042Y-66694795D01*
X45444328Y-66632890D01*
X45558614Y-66509080D01*
X45615757Y-66261461D01*
X45615757Y-65828128D01*
X45558614Y-65580509D01*
X45444328Y-65456700D01*
X45330042Y-65394795D01*
X44472900Y-65394795D02*
X43787185Y-65394795D01*
X44130042Y-66694795D02*
X44130042Y-65394795D01*
X43387185Y-66013842D02*
X42987185Y-66013842D01*
X42815757Y-66694795D02*
X43387185Y-66694795D01*
X43387185Y-65394795D01*
X42815757Y-65394795D01*
X42301471Y-66570985D02*
X42244328Y-66632890D01*
X42301471Y-66694795D01*
X42358614Y-66632890D01*
X42301471Y-66570985D01*
X42301471Y-66694795D01*
X42301471Y-65890033D02*
X42244328Y-65951938D01*
X42301471Y-66013842D01*
X42358614Y-65951938D01*
X42301471Y-65890033D01*
X42301471Y-66013842D01*
X70701471Y-67644795D02*
X70015757Y-67644795D01*
X70358614Y-68944795D02*
X70358614Y-67644795D01*
X69615757Y-68944795D02*
X69615757Y-67644795D01*
X69615757Y-68263842D02*
X68930042Y-68263842D01*
X68930042Y-68944795D02*
X68930042Y-67644795D01*
X68358614Y-68263842D02*
X67958614Y-68263842D01*
X67787185Y-68944795D02*
X68358614Y-68944795D01*
X68358614Y-67644795D01*
X67787185Y-67644795D01*
X66358614Y-67644795D02*
X66358614Y-68697176D01*
X66301471Y-68820985D01*
X66244328Y-68882890D01*
X66130042Y-68944795D01*
X65901471Y-68944795D01*
X65787185Y-68882890D01*
X65730042Y-68820985D01*
X65672899Y-68697176D01*
X65672899Y-67644795D01*
X65101471Y-68263842D02*
X64701471Y-68263842D01*
X64530042Y-68944795D02*
X65101471Y-68944795D01*
X65101471Y-67644795D01*
X64530042Y-67644795D01*
X64130042Y-67644795D02*
X63330042Y-68944795D01*
X63330042Y-67644795D02*
X64130042Y-68944795D01*
X63044328Y-67644795D02*
X62358614Y-67644795D01*
X62701471Y-68944795D02*
X62701471Y-67644795D01*
X61044328Y-68944795D02*
X61044328Y-67644795D01*
X60644328Y-68573366D01*
X60244328Y-67644795D01*
X60244328Y-68944795D01*
X59444328Y-67644795D02*
X59215757Y-67644795D01*
X59101471Y-67706700D01*
X58987185Y-67830509D01*
X58930042Y-68078128D01*
X58930042Y-68511461D01*
X58987185Y-68759080D01*
X59101471Y-68882890D01*
X59215757Y-68944795D01*
X59444328Y-68944795D01*
X59558614Y-68882890D01*
X59672900Y-68759080D01*
X59730042Y-68511461D01*
X59730042Y-68078128D01*
X59672900Y-67830509D01*
X59558614Y-67706700D01*
X59444328Y-67644795D01*
X58415757Y-68944795D02*
X58415757Y-67644795D01*
X58130042Y-67644795D01*
X57958614Y-67706700D01*
X57844328Y-67830509D01*
X57787185Y-67954319D01*
X57730042Y-68201938D01*
X57730042Y-68387652D01*
X57787185Y-68635271D01*
X57844328Y-68759080D01*
X57958614Y-68882890D01*
X58130042Y-68944795D01*
X58415757Y-68944795D01*
X57215757Y-67644795D02*
X57215757Y-68697176D01*
X57158614Y-68820985D01*
X57101471Y-68882890D01*
X56987185Y-68944795D01*
X56758614Y-68944795D01*
X56644328Y-68882890D01*
X56587185Y-68820985D01*
X56530042Y-68697176D01*
X56530042Y-67644795D01*
X55387185Y-68944795D02*
X55958614Y-68944795D01*
X55958614Y-67644795D01*
X54987185Y-68263842D02*
X54587185Y-68263842D01*
X54415757Y-68944795D02*
X54987185Y-68944795D01*
X54987185Y-67644795D01*
X54415757Y-67644795D01*
X53958614Y-68882890D02*
X53787185Y-68944795D01*
X53501471Y-68944795D01*
X53387185Y-68882890D01*
X53330042Y-68820985D01*
X53272900Y-68697176D01*
X53272900Y-68573366D01*
X53330042Y-68449557D01*
X53387185Y-68387652D01*
X53501471Y-68325747D01*
X53730042Y-68263842D01*
X53844328Y-68201938D01*
X53901471Y-68140033D01*
X53958614Y-68016223D01*
X53958614Y-67892414D01*
X53901471Y-67768604D01*
X53844328Y-67706700D01*
X53730042Y-67644795D01*
X53444328Y-67644795D01*
X53272900Y-67706700D01*
X51615757Y-67644795D02*
X51387185Y-67644795D01*
X51272900Y-67706700D01*
X51158614Y-67830509D01*
X51101471Y-68078128D01*
X51101471Y-68511461D01*
X51158614Y-68759080D01*
X51272900Y-68882890D01*
X51387185Y-68944795D01*
X51615757Y-68944795D01*
X51730042Y-68882890D01*
X51844328Y-68759080D01*
X51901471Y-68511461D01*
X51901471Y-68078128D01*
X51844328Y-67830509D01*
X51730042Y-67706700D01*
X51615757Y-67644795D01*
X50587185Y-68944795D02*
X50587185Y-67644795D01*
X50130042Y-67644795D01*
X50015757Y-67706700D01*
X49958614Y-67768604D01*
X49901471Y-67892414D01*
X49901471Y-68078128D01*
X49958614Y-68201938D01*
X50015757Y-68263842D01*
X50130042Y-68325747D01*
X50587185Y-68325747D01*
X49387185Y-68263842D02*
X48987185Y-68263842D01*
X48815757Y-68944795D02*
X49387185Y-68944795D01*
X49387185Y-67644795D01*
X48815757Y-67644795D01*
X47615757Y-68944795D02*
X48015757Y-68325747D01*
X48301471Y-68944795D02*
X48301471Y-67644795D01*
X47844328Y-67644795D01*
X47730042Y-67706700D01*
X47672900Y-67768604D01*
X47615757Y-67892414D01*
X47615757Y-68078128D01*
X47672900Y-68201938D01*
X47730042Y-68263842D01*
X47844328Y-68325747D01*
X48301471Y-68325747D01*
X47158614Y-68573366D02*
X46587185Y-68573366D01*
X47272900Y-68944795D02*
X46872900Y-67644795D01*
X46472900Y-68944795D01*
X46244328Y-67644795D02*
X45558614Y-67644795D01*
X45901471Y-68944795D02*
X45901471Y-67644795D01*
X45158614Y-68263842D02*
X44758614Y-68263842D01*
X44587185Y-68944795D02*
X45158614Y-68944795D01*
X45158614Y-67644795D01*
X44587185Y-67644795D01*
X43215757Y-68573366D02*
X42644328Y-68573366D01*
X43330042Y-68944795D02*
X42930042Y-67644795D01*
X42530042Y-68944795D01*
X42301471Y-67644795D02*
X41615757Y-67644795D01*
X41958614Y-68944795D02*
X41958614Y-67644795D01*
X40415757Y-67644795D02*
X39672900Y-67644795D01*
X40072900Y-68140033D01*
X39901471Y-68140033D01*
X39787185Y-68201938D01*
X39730042Y-68263842D01*
X39672900Y-68387652D01*
X39672900Y-68697176D01*
X39730042Y-68820985D01*
X39787185Y-68882890D01*
X39901471Y-68944795D01*
X40244328Y-68944795D01*
X40358614Y-68882890D01*
X40415757Y-68820985D01*
X39158614Y-68820985D02*
X39101471Y-68882890D01*
X39158614Y-68944795D01*
X39215757Y-68882890D01*
X39158614Y-68820985D01*
X39158614Y-68944795D01*
X38701471Y-67644795D02*
X37958614Y-67644795D01*
X38358614Y-68140033D01*
X38187185Y-68140033D01*
X38072900Y-68201938D01*
X38015757Y-68263842D01*
X37958614Y-68387652D01*
X37958614Y-68697176D01*
X38015757Y-68820985D01*
X38072900Y-68882890D01*
X38187185Y-68944795D01*
X38530042Y-68944795D01*
X38644328Y-68882890D01*
X38701471Y-68820985D01*
X37615757Y-67644795D02*
X37215757Y-68944795D01*
X36815757Y-67644795D01*
X34930042Y-68944795D02*
X35501471Y-68944795D01*
X35501471Y-67644795D01*
X34530042Y-68263842D02*
X34130042Y-68263842D01*
X33958614Y-68944795D02*
X34530042Y-68944795D01*
X34530042Y-67644795D01*
X33958614Y-67644795D01*
X33615757Y-67644795D02*
X33215757Y-68944795D01*
X32815757Y-67644795D01*
X32415757Y-68263842D02*
X32015757Y-68263842D01*
X31844328Y-68944795D02*
X32415757Y-68944795D01*
X32415757Y-67644795D01*
X31844328Y-67644795D01*
X30758614Y-68944795D02*
X31330042Y-68944795D01*
X31330042Y-67644795D01*
X30358614Y-68820985D02*
X30301471Y-68882890D01*
X30358614Y-68944795D01*
X30415757Y-68882890D01*
X30358614Y-68820985D01*
X30358614Y-68944795D01*
X30358614Y-68449557D02*
X30415757Y-67706700D01*
X30358614Y-67644795D01*
X30301471Y-67706700D01*
X30358614Y-68449557D01*
X30358614Y-67644795D01*
X29787185Y-68820985D02*
X29730042Y-68882890D01*
X29787185Y-68944795D01*
X29844328Y-68882890D01*
X29787185Y-68820985D01*
X29787185Y-68944795D01*
X29787185Y-68449557D02*
X29844328Y-67706700D01*
X29787185Y-67644795D01*
X29730042Y-67706700D01*
X29787185Y-68449557D01*
X29787185Y-67644795D01*
X29215757Y-68820985D02*
X29158614Y-68882890D01*
X29215757Y-68944795D01*
X29272899Y-68882890D01*
X29215757Y-68820985D01*
X29215757Y-68944795D01*
X29215757Y-68449557D02*
X29272899Y-67706700D01*
X29215757Y-67644795D01*
X29158614Y-67706700D01*
X29215757Y-68449557D01*
X29215757Y-67644795D01*
X75472900Y-71194795D02*
X75472900Y-69894795D01*
X74501471Y-70513842D02*
X74901471Y-70513842D01*
X74901471Y-71194795D02*
X74901471Y-69894795D01*
X74330042Y-69894795D01*
X73130042Y-69894795D02*
X72444328Y-69894795D01*
X72787185Y-71194795D02*
X72787185Y-69894795D01*
X72044328Y-71194795D02*
X72044328Y-69894795D01*
X72044328Y-70513842D02*
X71358614Y-70513842D01*
X71358614Y-71194795D02*
X71358614Y-69894795D01*
X70787185Y-70513842D02*
X70387185Y-70513842D01*
X70215757Y-71194795D02*
X70787185Y-71194795D01*
X70787185Y-69894795D01*
X70215757Y-69894795D01*
X68387185Y-70513842D02*
X68215757Y-70575747D01*
X68158614Y-70637652D01*
X68101471Y-70761461D01*
X68101471Y-70947176D01*
X68158614Y-71070985D01*
X68215757Y-71132890D01*
X68330042Y-71194795D01*
X68787185Y-71194795D01*
X68787185Y-69894795D01*
X68387185Y-69894795D01*
X68272899Y-69956700D01*
X68215757Y-70018604D01*
X68158614Y-70142414D01*
X68158614Y-70266223D01*
X68215757Y-70390033D01*
X68272899Y-70451938D01*
X68387185Y-70513842D01*
X68787185Y-70513842D01*
X67358614Y-69894795D02*
X67130042Y-69894795D01*
X67015757Y-69956700D01*
X66901471Y-70080509D01*
X66844328Y-70328128D01*
X66844328Y-70761461D01*
X66901471Y-71009080D01*
X67015757Y-71132890D01*
X67130042Y-71194795D01*
X67358614Y-71194795D01*
X67472899Y-71132890D01*
X67587185Y-71009080D01*
X67644328Y-70761461D01*
X67644328Y-70328128D01*
X67587185Y-70080509D01*
X67472899Y-69956700D01*
X67358614Y-69894795D01*
X66387185Y-70823366D02*
X65815757Y-70823366D01*
X66501471Y-71194795D02*
X66101471Y-69894795D01*
X65701471Y-71194795D01*
X64615757Y-71194795D02*
X65015757Y-70575747D01*
X65301471Y-71194795D02*
X65301471Y-69894795D01*
X64844328Y-69894795D01*
X64730042Y-69956700D01*
X64672899Y-70018604D01*
X64615757Y-70142414D01*
X64615757Y-70328128D01*
X64672899Y-70451938D01*
X64730042Y-70513842D01*
X64844328Y-70575747D01*
X65301471Y-70575747D01*
X64101471Y-71194795D02*
X64101471Y-69894795D01*
X63815757Y-69894795D01*
X63644328Y-69956700D01*
X63530042Y-70080509D01*
X63472899Y-70204319D01*
X63415757Y-70451938D01*
X63415757Y-70637652D01*
X63472899Y-70885271D01*
X63530042Y-71009080D01*
X63644328Y-71132890D01*
X63815757Y-71194795D01*
X64101471Y-71194795D01*
X61987185Y-71194795D02*
X61987185Y-69894795D01*
X61472899Y-71132890D02*
X61301471Y-71194795D01*
X61015757Y-71194795D01*
X60901471Y-71132890D01*
X60844328Y-71070985D01*
X60787185Y-70947176D01*
X60787185Y-70823366D01*
X60844328Y-70699557D01*
X60901471Y-70637652D01*
X61015757Y-70575747D01*
X61244328Y-70513842D01*
X61358614Y-70451938D01*
X61415757Y-70390033D01*
X61472899Y-70266223D01*
X61472899Y-70142414D01*
X61415757Y-70018604D01*
X61358614Y-69956700D01*
X61244328Y-69894795D01*
X60958614Y-69894795D01*
X60787185Y-69956700D01*
X59415757Y-71132890D02*
X59244328Y-71194795D01*
X58958614Y-71194795D01*
X58844328Y-71132890D01*
X58787185Y-71070985D01*
X58730042Y-70947176D01*
X58730042Y-70823366D01*
X58787185Y-70699557D01*
X58844328Y-70637652D01*
X58958614Y-70575747D01*
X59187185Y-70513842D01*
X59301471Y-70451938D01*
X59358614Y-70390033D01*
X59415757Y-70266223D01*
X59415757Y-70142414D01*
X59358614Y-70018604D01*
X59301471Y-69956700D01*
X59187185Y-69894795D01*
X58901471Y-69894795D01*
X58730042Y-69956700D01*
X58215757Y-70513842D02*
X57815757Y-70513842D01*
X57644328Y-71194795D02*
X58215757Y-71194795D01*
X58215757Y-69894795D01*
X57644328Y-69894795D01*
X57301471Y-69894795D02*
X56615757Y-69894795D01*
X56958614Y-71194795D02*
X56958614Y-69894795D01*
X55472899Y-69894795D02*
X54787185Y-69894795D01*
X55130042Y-71194795D02*
X55130042Y-69894795D01*
X54158614Y-69894795D02*
X53930042Y-69894795D01*
X53815757Y-69956700D01*
X53701471Y-70080509D01*
X53644328Y-70328128D01*
X53644328Y-70761461D01*
X53701471Y-71009080D01*
X53815757Y-71132890D01*
X53930042Y-71194795D01*
X54158614Y-71194795D01*
X54272899Y-71132890D01*
X54387185Y-71009080D01*
X54444328Y-70761461D01*
X54444328Y-70328128D01*
X54387185Y-70080509D01*
X54272899Y-69956700D01*
X54158614Y-69894795D01*
X51644328Y-69894795D02*
X52215757Y-69894795D01*
X52272899Y-70513842D01*
X52215757Y-70451938D01*
X52101471Y-70390033D01*
X51815757Y-70390033D01*
X51701471Y-70451938D01*
X51644328Y-70513842D01*
X51587185Y-70637652D01*
X51587185Y-70947176D01*
X51644328Y-71070985D01*
X51701471Y-71132890D01*
X51815757Y-71194795D01*
X52101471Y-71194795D01*
X52215757Y-71132890D01*
X52272899Y-71070985D01*
X51244328Y-69894795D02*
X50844328Y-71194795D01*
X50444328Y-69894795D01*
X48558614Y-71194795D02*
X49130042Y-71194795D01*
X49130042Y-69894795D01*
X48158614Y-70513842D02*
X47758614Y-70513842D01*
X47587185Y-71194795D02*
X48158614Y-71194795D01*
X48158614Y-69894795D01*
X47587185Y-69894795D01*
X47244328Y-69894795D02*
X46844328Y-71194795D01*
X46444328Y-69894795D01*
X46044328Y-70513842D02*
X45644328Y-70513842D01*
X45472899Y-71194795D02*
X46044328Y-71194795D01*
X46044328Y-69894795D01*
X45472899Y-69894795D01*
X44387185Y-71194795D02*
X44958614Y-71194795D01*
X44958614Y-69894795D01*
X43072899Y-71194795D02*
X43072899Y-69894795D01*
X42672899Y-70823366D01*
X42272899Y-69894795D01*
X42272899Y-71194795D01*
X41472899Y-69894795D02*
X41244328Y-69894795D01*
X41130042Y-69956700D01*
X41015757Y-70080509D01*
X40958614Y-70328128D01*
X40958614Y-70761461D01*
X41015757Y-71009080D01*
X41130042Y-71132890D01*
X41244328Y-71194795D01*
X41472899Y-71194795D01*
X41587185Y-71132890D01*
X41701471Y-71009080D01*
X41758614Y-70761461D01*
X41758614Y-70328128D01*
X41701471Y-70080509D01*
X41587185Y-69956700D01*
X41472899Y-69894795D01*
X40444328Y-71194795D02*
X40444328Y-69894795D01*
X40158614Y-69894795D01*
X39987185Y-69956700D01*
X39872899Y-70080509D01*
X39815757Y-70204319D01*
X39758614Y-70451938D01*
X39758614Y-70637652D01*
X39815757Y-70885271D01*
X39872899Y-71009080D01*
X39987185Y-71132890D01*
X40158614Y-71194795D01*
X40444328Y-71194795D01*
X39244328Y-70513842D02*
X38844328Y-70513842D01*
X38672899Y-71194795D02*
X39244328Y-71194795D01*
X39244328Y-69894795D01*
X38672899Y-69894795D01*
X37015757Y-69894795D02*
X36787185Y-69894795D01*
X36672899Y-69956700D01*
X36558614Y-70080509D01*
X36501471Y-70328128D01*
X36501471Y-70761461D01*
X36558614Y-71009080D01*
X36672899Y-71132890D01*
X36787185Y-71194795D01*
X37015757Y-71194795D01*
X37130042Y-71132890D01*
X37244328Y-71009080D01*
X37301471Y-70761461D01*
X37301471Y-70328128D01*
X37244328Y-70080509D01*
X37130042Y-69956700D01*
X37015757Y-69894795D01*
X35587185Y-70513842D02*
X35987185Y-70513842D01*
X35987185Y-71194795D02*
X35987185Y-69894795D01*
X35415757Y-69894795D01*
X33815757Y-69894795D02*
X33587185Y-69894795D01*
X33472899Y-69956700D01*
X33358614Y-70080509D01*
X33301471Y-70328128D01*
X33301471Y-70761461D01*
X33358614Y-71009080D01*
X33472899Y-71132890D01*
X33587185Y-71194795D01*
X33815757Y-71194795D01*
X33930042Y-71132890D01*
X34044328Y-71009080D01*
X34101471Y-70761461D01*
X34101471Y-70328128D01*
X34044328Y-70080509D01*
X33930042Y-69956700D01*
X33815757Y-69894795D01*
X32787185Y-71194795D02*
X32787185Y-69894795D01*
X32330042Y-69894795D01*
X32215757Y-69956700D01*
X32158614Y-70018604D01*
X32101471Y-70142414D01*
X32101471Y-70328128D01*
X32158614Y-70451938D01*
X32215757Y-70513842D01*
X32330042Y-70575747D01*
X32787185Y-70575747D01*
X31587185Y-70513842D02*
X31187185Y-70513842D01*
X31015757Y-71194795D02*
X31587185Y-71194795D01*
X31587185Y-69894795D01*
X31015757Y-69894795D01*
X29815757Y-71194795D02*
X30215757Y-70575747D01*
X30501471Y-71194795D02*
X30501471Y-69894795D01*
X30044328Y-69894795D01*
X29930042Y-69956700D01*
X29872899Y-70018604D01*
X29815757Y-70142414D01*
X29815757Y-70328128D01*
X29872899Y-70451938D01*
X29930042Y-70513842D01*
X30044328Y-70575747D01*
X30501471Y-70575747D01*
X29358614Y-70823366D02*
X28787185Y-70823366D01*
X29472899Y-71194795D02*
X29072899Y-69894795D01*
X28672899Y-71194795D01*
X28444328Y-69894795D02*
X27758614Y-69894795D01*
X28101471Y-71194795D02*
X28101471Y-69894795D01*
X27358614Y-71194795D02*
X27358614Y-69894795D01*
X26558614Y-69894795D02*
X26330042Y-69894795D01*
X26215757Y-69956700D01*
X26101471Y-70080509D01*
X26044328Y-70328128D01*
X26044328Y-70761461D01*
X26101471Y-71009080D01*
X26215757Y-71132890D01*
X26330042Y-71194795D01*
X26558614Y-71194795D01*
X26672899Y-71132890D01*
X26787185Y-71009080D01*
X26844328Y-70761461D01*
X26844328Y-70328128D01*
X26787185Y-70080509D01*
X26672899Y-69956700D01*
X26558614Y-69894795D01*
X25530042Y-71194795D02*
X25530042Y-69894795D01*
X24844328Y-71194795D01*
X24844328Y-69894795D01*
X24215757Y-71132890D02*
X24215757Y-71194795D01*
X24272899Y-71318604D01*
X24330042Y-71380509D01*
X66101471Y-73444795D02*
X66101471Y-72144795D01*
X65815757Y-72144795D01*
X65644328Y-72206700D01*
X65530042Y-72330509D01*
X65472900Y-72454319D01*
X65415757Y-72701938D01*
X65415757Y-72887652D01*
X65472900Y-73135271D01*
X65530042Y-73259080D01*
X65644328Y-73382890D01*
X65815757Y-73444795D01*
X66101471Y-73444795D01*
X64672900Y-72144795D02*
X64444328Y-72144795D01*
X64330042Y-72206700D01*
X64215757Y-72330509D01*
X64158614Y-72578128D01*
X64158614Y-73011461D01*
X64215757Y-73259080D01*
X64330042Y-73382890D01*
X64444328Y-73444795D01*
X64672900Y-73444795D01*
X64787185Y-73382890D01*
X64901471Y-73259080D01*
X64958614Y-73011461D01*
X64958614Y-72578128D01*
X64901471Y-72330509D01*
X64787185Y-72206700D01*
X64672900Y-72144795D01*
X62730042Y-73444795D02*
X62730042Y-72144795D01*
X62044328Y-73444795D01*
X62044328Y-72144795D01*
X61244328Y-72144795D02*
X61015757Y-72144795D01*
X60901471Y-72206700D01*
X60787185Y-72330509D01*
X60730042Y-72578128D01*
X60730042Y-73011461D01*
X60787185Y-73259080D01*
X60901471Y-73382890D01*
X61015757Y-73444795D01*
X61244328Y-73444795D01*
X61358614Y-73382890D01*
X61472900Y-73259080D01*
X61530042Y-73011461D01*
X61530042Y-72578128D01*
X61472900Y-72330509D01*
X61358614Y-72206700D01*
X61244328Y-72144795D01*
X60387185Y-72144795D02*
X59701471Y-72144795D01*
X60044328Y-73444795D02*
X60044328Y-72144795D01*
X57701471Y-73320985D02*
X57758614Y-73382890D01*
X57930042Y-73444795D01*
X58044328Y-73444795D01*
X58215757Y-73382890D01*
X58330042Y-73259080D01*
X58387185Y-73135271D01*
X58444328Y-72887652D01*
X58444328Y-72701938D01*
X58387185Y-72454319D01*
X58330042Y-72330509D01*
X58215757Y-72206700D01*
X58044328Y-72144795D01*
X57930042Y-72144795D01*
X57758614Y-72206700D01*
X57701471Y-72268604D01*
X56958614Y-72144795D02*
X56730042Y-72144795D01*
X56615757Y-72206700D01*
X56501471Y-72330509D01*
X56444328Y-72578128D01*
X56444328Y-73011461D01*
X56501471Y-73259080D01*
X56615757Y-73382890D01*
X56730042Y-73444795D01*
X56958614Y-73444795D01*
X57072900Y-73382890D01*
X57187185Y-73259080D01*
X57244328Y-73011461D01*
X57244328Y-72578128D01*
X57187185Y-72330509D01*
X57072900Y-72206700D01*
X56958614Y-72144795D01*
X55930042Y-73444795D02*
X55930042Y-72144795D01*
X55244328Y-73444795D01*
X55244328Y-72144795D01*
X54672900Y-73444795D02*
X54672900Y-72144795D01*
X53987185Y-73444795D01*
X53987185Y-72144795D01*
X53415757Y-72763842D02*
X53015757Y-72763842D01*
X52844328Y-73444795D02*
X53415757Y-73444795D01*
X53415757Y-72144795D01*
X52844328Y-72144795D01*
X51644328Y-73320985D02*
X51701471Y-73382890D01*
X51872900Y-73444795D01*
X51987185Y-73444795D01*
X52158614Y-73382890D01*
X52272900Y-73259080D01*
X52330042Y-73135271D01*
X52387185Y-72887652D01*
X52387185Y-72701938D01*
X52330042Y-72454319D01*
X52272900Y-72330509D01*
X52158614Y-72206700D01*
X51987185Y-72144795D01*
X51872900Y-72144795D01*
X51701471Y-72206700D01*
X51644328Y-72268604D01*
X51301471Y-72144795D02*
X50615757Y-72144795D01*
X50958614Y-73444795D02*
X50958614Y-72144795D01*
X49301471Y-72144795D02*
X49301471Y-73197176D01*
X49244328Y-73320985D01*
X49187185Y-73382890D01*
X49072900Y-73444795D01*
X48844328Y-73444795D01*
X48730042Y-73382890D01*
X48672900Y-73320985D01*
X48615757Y-73197176D01*
X48615757Y-72144795D01*
X48044328Y-72763842D02*
X47644328Y-72763842D01*
X47472900Y-73444795D02*
X48044328Y-73444795D01*
X48044328Y-72144795D01*
X47472900Y-72144795D01*
X47072900Y-72144795D02*
X46272900Y-73444795D01*
X46272900Y-72144795D02*
X47072900Y-73444795D01*
X45987185Y-72144795D02*
X45301471Y-72144795D01*
X45644328Y-73444795D02*
X45644328Y-72144795D01*
X43987185Y-73444795D02*
X43987185Y-72144795D01*
X43587185Y-73073366D01*
X43187185Y-72144795D01*
X43187185Y-73444795D01*
X42387185Y-72144795D02*
X42158614Y-72144795D01*
X42044328Y-72206700D01*
X41930042Y-72330509D01*
X41872900Y-72578128D01*
X41872900Y-73011461D01*
X41930042Y-73259080D01*
X42044328Y-73382890D01*
X42158614Y-73444795D01*
X42387185Y-73444795D01*
X42501471Y-73382890D01*
X42615757Y-73259080D01*
X42672900Y-73011461D01*
X42672900Y-72578128D01*
X42615757Y-72330509D01*
X42501471Y-72206700D01*
X42387185Y-72144795D01*
X41358614Y-73444795D02*
X41358614Y-72144795D01*
X41072900Y-72144795D01*
X40901471Y-72206700D01*
X40787185Y-72330509D01*
X40730042Y-72454319D01*
X40672900Y-72701938D01*
X40672900Y-72887652D01*
X40730042Y-73135271D01*
X40787185Y-73259080D01*
X40901471Y-73382890D01*
X41072900Y-73444795D01*
X41358614Y-73444795D01*
X40158614Y-72144795D02*
X40158614Y-73197176D01*
X40101471Y-73320985D01*
X40044328Y-73382890D01*
X39930042Y-73444795D01*
X39701471Y-73444795D01*
X39587185Y-73382890D01*
X39530042Y-73320985D01*
X39472900Y-73197176D01*
X39472900Y-72144795D01*
X38330042Y-73444795D02*
X38901471Y-73444795D01*
X38901471Y-72144795D01*
X37930042Y-72763842D02*
X37530042Y-72763842D01*
X37358614Y-73444795D02*
X37930042Y-73444795D01*
X37930042Y-72144795D01*
X37358614Y-72144795D01*
X36901471Y-73382890D02*
X36730042Y-73444795D01*
X36444328Y-73444795D01*
X36330042Y-73382890D01*
X36272900Y-73320985D01*
X36215757Y-73197176D01*
X36215757Y-73073366D01*
X36272900Y-72949557D01*
X36330042Y-72887652D01*
X36444328Y-72825747D01*
X36672900Y-72763842D01*
X36787185Y-72701938D01*
X36844328Y-72640033D01*
X36901471Y-72516223D01*
X36901471Y-72392414D01*
X36844328Y-72268604D01*
X36787185Y-72206700D01*
X36672900Y-72144795D01*
X36387185Y-72144795D01*
X36215757Y-72206700D01*
X35701471Y-73320985D02*
X35644328Y-73382890D01*
X35701471Y-73444795D01*
X35758614Y-73382890D01*
X35701471Y-73320985D01*
X35701471Y-73444795D01*
X35701471Y-72949557D02*
X35758614Y-72206700D01*
X35701471Y-72144795D01*
X35644328Y-72206700D01*
X35701471Y-72949557D01*
X35701471Y-72144795D01*
X35130042Y-73320985D02*
X35072900Y-73382890D01*
X35130042Y-73444795D01*
X35187185Y-73382890D01*
X35130042Y-73320985D01*
X35130042Y-73444795D01*
X35130042Y-72949557D02*
X35187185Y-72206700D01*
X35130042Y-72144795D01*
X35072900Y-72206700D01*
X35130042Y-72949557D01*
X35130042Y-72144795D01*
X34558614Y-73320985D02*
X34501471Y-73382890D01*
X34558614Y-73444795D01*
X34615757Y-73382890D01*
X34558614Y-73320985D01*
X34558614Y-73444795D01*
X34558614Y-72949557D02*
X34615757Y-72206700D01*
X34558614Y-72144795D01*
X34501471Y-72206700D01*
X34558614Y-72949557D01*
X34558614Y-72144795D01*
D13*
X26965123Y-56222295D02*
X26965123Y-55617533D01*
X27569885Y-55557057D01*
X27509409Y-55617533D01*
X27448933Y-55738485D01*
X27448933Y-56040866D01*
X27509409Y-56161819D01*
X27569885Y-56222295D01*
X27690838Y-56282771D01*
X27993219Y-56282771D01*
X28114171Y-56222295D01*
X28174647Y-56161819D01*
X28235123Y-56040866D01*
X28235123Y-55738485D01*
X28174647Y-55617533D01*
X28114171Y-55557057D01*
X26965123Y-56645628D02*
X28235123Y-57068961D01*
X26965123Y-57492295D01*
X30394123Y-54680152D02*
X30333647Y-54559200D01*
X30273171Y-54498723D01*
X30152219Y-54438247D01*
X29789361Y-54438247D01*
X29668409Y-54498723D01*
X29607933Y-54559200D01*
X29547457Y-54680152D01*
X29547457Y-54861580D01*
X29607933Y-54982533D01*
X29668409Y-55043009D01*
X29789361Y-55103485D01*
X30152219Y-55103485D01*
X30273171Y-55043009D01*
X30333647Y-54982533D01*
X30394123Y-54861580D01*
X30394123Y-54680152D01*
X29547457Y-55647771D02*
X30394123Y-55647771D01*
X29668409Y-55647771D02*
X29607933Y-55708247D01*
X29547457Y-55829200D01*
X29547457Y-56010628D01*
X29607933Y-56131580D01*
X29728885Y-56192057D01*
X30394123Y-56192057D01*
X30394123Y-56978247D02*
X30333647Y-56857295D01*
X30212695Y-56796819D01*
X29124123Y-56796819D01*
X29547457Y-57341104D02*
X30394123Y-57643485D01*
X29547457Y-57945866D02*
X30394123Y-57643485D01*
X30696504Y-57522533D01*
X30756980Y-57462057D01*
X30817457Y-57341104D01*
X30273171Y-58429676D02*
X30333647Y-58490152D01*
X30394123Y-58429676D01*
X30333647Y-58369200D01*
X30273171Y-58429676D01*
X30394123Y-58429676D01*
X29910314Y-58429676D02*
X29184600Y-58369200D01*
X29124123Y-58429676D01*
X29184600Y-58490152D01*
X29910314Y-58429676D01*
X29124123Y-58429676D01*
D11*
X78222400Y-81768071D02*
X78222400Y-80268071D01*
X77622400Y-81768071D02*
X77622400Y-80982357D01*
X77689066Y-80839500D01*
X77822400Y-80768071D01*
X78022400Y-80768071D01*
X78155733Y-80839500D01*
X78222400Y-80910928D01*
X77155733Y-80768071D02*
X76622400Y-80768071D01*
X76955733Y-80268071D02*
X76955733Y-81553785D01*
X76889066Y-81696642D01*
X76755733Y-81768071D01*
X76622400Y-81768071D01*
X76355733Y-80768071D02*
X75822400Y-80768071D01*
X76155733Y-80268071D02*
X76155733Y-81553785D01*
X76089066Y-81696642D01*
X75955733Y-81768071D01*
X75822400Y-81768071D01*
X75355733Y-80768071D02*
X75355733Y-82268071D01*
X75355733Y-80839500D02*
X75222400Y-80768071D01*
X74955733Y-80768071D01*
X74822400Y-80839500D01*
X74755733Y-80910928D01*
X74689066Y-81053785D01*
X74689066Y-81482357D01*
X74755733Y-81625214D01*
X74822400Y-81696642D01*
X74955733Y-81768071D01*
X75222400Y-81768071D01*
X75355733Y-81696642D01*
X74155733Y-81696642D02*
X74022400Y-81768071D01*
X73755733Y-81768071D01*
X73622400Y-81696642D01*
X73555733Y-81553785D01*
X73555733Y-81482357D01*
X73622400Y-81339500D01*
X73755733Y-81268071D01*
X73955733Y-81268071D01*
X74089066Y-81196642D01*
X74155733Y-81053785D01*
X74155733Y-80982357D01*
X74089066Y-80839500D01*
X73955733Y-80768071D01*
X73755733Y-80768071D01*
X73622400Y-80839500D01*
X72955733Y-81625214D02*
X72889066Y-81696642D01*
X72955733Y-81768071D01*
X73022400Y-81696642D01*
X72955733Y-81625214D01*
X72955733Y-81768071D01*
X72955733Y-80839500D02*
X72889066Y-80910928D01*
X72955733Y-80982357D01*
X73022400Y-80910928D01*
X72955733Y-80839500D01*
X72955733Y-80982357D01*
X71289066Y-80196642D02*
X72489066Y-82125214D01*
X69822400Y-80196642D02*
X71022400Y-82125214D01*
X69489066Y-80768071D02*
X69222400Y-81768071D01*
X68955733Y-81053785D01*
X68689066Y-81768071D01*
X68422400Y-80768071D01*
X68022400Y-80768071D02*
X67755733Y-81768071D01*
X67489066Y-81053785D01*
X67222400Y-81768071D01*
X66955733Y-80768071D01*
X66555733Y-80768071D02*
X66289066Y-81768071D01*
X66022400Y-81053785D01*
X65755733Y-81768071D01*
X65489066Y-80768071D01*
X64955733Y-81625214D02*
X64889066Y-81696642D01*
X64955733Y-81768071D01*
X65022400Y-81696642D01*
X64955733Y-81625214D01*
X64955733Y-81768071D01*
X64089066Y-81768071D02*
X64222400Y-81696642D01*
X64289066Y-81625214D01*
X64355733Y-81482357D01*
X64355733Y-81053785D01*
X64289066Y-80910928D01*
X64222400Y-80839500D01*
X64089066Y-80768071D01*
X63889066Y-80768071D01*
X63755733Y-80839500D01*
X63689066Y-80910928D01*
X63622400Y-81053785D01*
X63622400Y-81482357D01*
X63689066Y-81625214D01*
X63755733Y-81696642D01*
X63889066Y-81768071D01*
X64089066Y-81768071D01*
X62822400Y-81768071D02*
X62955733Y-81696642D01*
X63022400Y-81553785D01*
X63022400Y-80268071D01*
X62289066Y-81768071D02*
X62289066Y-80768071D01*
X62289066Y-80268071D02*
X62355733Y-80339500D01*
X62289066Y-80410928D01*
X62222400Y-80339500D01*
X62289066Y-80268071D01*
X62289066Y-80410928D01*
X61622400Y-81768071D02*
X61622400Y-80768071D01*
X61622400Y-80910928D02*
X61555733Y-80839500D01*
X61422400Y-80768071D01*
X61222400Y-80768071D01*
X61089066Y-80839500D01*
X61022400Y-80982357D01*
X61022400Y-81768071D01*
X61022400Y-80982357D02*
X60955733Y-80839500D01*
X60822400Y-80768071D01*
X60622400Y-80768071D01*
X60489066Y-80839500D01*
X60422400Y-80982357D01*
X60422400Y-81768071D01*
X59222400Y-81696642D02*
X59355733Y-81768071D01*
X59622400Y-81768071D01*
X59755733Y-81696642D01*
X59822400Y-81553785D01*
X59822400Y-80982357D01*
X59755733Y-80839500D01*
X59622400Y-80768071D01*
X59355733Y-80768071D01*
X59222400Y-80839500D01*
X59155733Y-80982357D01*
X59155733Y-81125214D01*
X59822400Y-81268071D01*
X58689066Y-81768071D02*
X57955733Y-80768071D01*
X58689066Y-80768071D02*
X57955733Y-81768071D01*
X57422400Y-81625214D02*
X57355733Y-81696642D01*
X57422400Y-81768071D01*
X57489066Y-81696642D01*
X57422400Y-81625214D01*
X57422400Y-81768071D01*
X56155733Y-81696642D02*
X56289066Y-81768071D01*
X56555733Y-81768071D01*
X56689066Y-81696642D01*
X56755733Y-81625214D01*
X56822400Y-81482357D01*
X56822400Y-81053785D01*
X56755733Y-80910928D01*
X56689066Y-80839500D01*
X56555733Y-80768071D01*
X56289066Y-80768071D01*
X56155733Y-80839500D01*
X55355733Y-81768071D02*
X55489066Y-81696642D01*
X55555733Y-81625214D01*
X55622400Y-81482357D01*
X55622400Y-81053785D01*
X55555733Y-80910928D01*
X55489066Y-80839500D01*
X55355733Y-80768071D01*
X55155733Y-80768071D01*
X55022400Y-80839500D01*
X54955733Y-80910928D01*
X54889066Y-81053785D01*
X54889066Y-81482357D01*
X54955733Y-81625214D01*
X55022400Y-81696642D01*
X55155733Y-81768071D01*
X55355733Y-81768071D01*
X54289066Y-81768071D02*
X54289066Y-80768071D01*
X54289066Y-80910928D02*
X54222400Y-80839500D01*
X54089066Y-80768071D01*
X53889066Y-80768071D01*
X53755733Y-80839500D01*
X53689066Y-80982357D01*
X53689066Y-81768071D01*
X53689066Y-80982357D02*
X53622400Y-80839500D01*
X53489066Y-80768071D01*
X53289066Y-80768071D01*
X53155733Y-80839500D01*
X53089066Y-80982357D01*
X53089066Y-81768071D01*
X51422400Y-80196642D02*
X52622400Y-82125214D01*
D13*
X87630000Y-46990000D02*
X90170000Y-46990000D01*
X90170000Y-46990000D02*
X90170000Y-87630000D01*
X77470000Y-41910000D02*
X92710000Y-41910000D01*
X92710000Y-41910000D02*
X92710000Y-44450000D01*
X92710000Y-44450000D02*
X77470000Y-44450000D01*
X77470000Y-44450000D02*
X77470000Y-41910000D01*
X80010000Y-57150000D02*
X80010000Y-46990000D01*
X85090000Y-87630000D02*
X80010000Y-87630000D01*
X87630000Y-46990000D02*
X87630000Y-87630000D01*
X82550000Y-90170000D02*
X92710000Y-90170000D01*
X92710000Y-90170000D02*
X92710000Y-92710000D01*
X87630000Y-92710000D02*
X82550000Y-92710000D01*
X82550000Y-92710000D02*
X82550000Y-90170000D01*
X80010000Y-46990000D02*
X85090000Y-46990000D01*
X85090000Y-46990000D02*
X85090000Y-87630000D01*
X92710000Y-67310000D02*
X87630000Y-67310000D01*
X92710000Y-87630000D02*
X92710000Y-67310000D01*
X80010000Y-90170000D02*
X80010000Y-92710000D01*
X80010000Y-67310000D02*
X85090000Y-67310000D01*
X74930000Y-41910000D02*
X74930000Y-44450000D01*
X80010000Y-85090000D02*
X80010000Y-59690000D01*
X82550000Y-46990000D02*
X82550000Y-87630000D01*
X74930000Y-44450000D02*
X74930000Y-48895000D01*
X54610000Y-44450000D02*
X54610000Y-49530000D01*
X54610000Y-50800000D02*
X54610000Y-54610000D01*
X62230000Y-50800000D02*
X62230000Y-54610000D01*
X54610000Y-52705000D02*
X62230000Y-52705000D01*
X73660000Y-50165000D02*
X63500000Y-50165000D01*
X72390000Y-41910000D02*
X74930000Y-41910000D01*
X54610000Y-41910000D02*
X72390000Y-41910000D01*
X74930000Y-48895000D02*
X73660000Y-50165000D01*
X74930000Y-41910000D02*
X74930000Y-44450000D01*
X72390000Y-44450000D02*
X54610000Y-44450000D01*
X74930000Y-44450000D02*
X72390000Y-44450000D01*
X72390000Y-44450000D02*
X72390000Y-41910000D01*
X74930000Y-44450000D02*
X74930000Y-48895000D01*
X54610000Y-44450000D02*
X54610000Y-41910000D01*
X51810000Y-50155000D02*
X31740000Y-50155000D01*
X53082540Y-48885000D02*
X51810000Y-50155000D01*
X53085000Y-44450000D02*
X53078460Y-48895000D01*
X53085000Y-44450000D02*
X50545000Y-44450000D01*
X53085000Y-41910000D02*
X53085000Y-44450000D01*
X50552540Y-41910000D02*
X53092540Y-41910000D01*
X50552540Y-44450000D02*
X50552540Y-41910000D01*
X50552540Y-44450000D02*
X31750000Y-44450000D01*
X31750000Y-41910000D02*
X50552540Y-41910000D01*
X31750000Y-41905000D02*
X31750000Y-50160000D01*
X80010000Y-90170000D02*
X80010000Y-92710000D01*
X80010000Y-92710000D02*
X62230000Y-92710000D01*
X62230000Y-90170000D02*
X80010000Y-90170000D01*
X62210000Y-90180000D02*
X62210000Y-92720000D01*
X59670000Y-90170000D02*
X62210000Y-90170000D01*
X62230000Y-92710000D02*
X59690000Y-92710000D01*
X59660000Y-92710000D02*
X59660000Y-90170000D01*
X59660000Y-90170000D02*
X59660000Y-86360000D01*
X59645000Y-86360000D02*
X60915000Y-85090000D01*
X60910000Y-85080000D02*
X74753000Y-85080000D01*
X56515000Y-85090000D02*
X57150000Y-85725000D01*
X57150000Y-90170000D02*
X57150000Y-85725000D01*
X57150000Y-90170000D02*
X57150000Y-92710000D01*
X44450000Y-90170000D02*
X57150000Y-90170000D01*
X57150000Y-92710000D02*
X44450000Y-92710000D01*
X44450000Y-90150000D02*
X44450000Y-92690000D01*
X44450000Y-92710000D02*
X41910000Y-92710000D01*
X41910000Y-90170000D02*
X44450000Y-90170000D01*
X41910000Y-92710000D02*
X41910000Y-90170000D01*
X41910000Y-90170000D02*
X41910000Y-85725000D01*
X41910000Y-85725000D02*
X42545000Y-85090000D01*
X42545000Y-85090000D02*
X56515000Y-85090000D01*
X87630000Y-87630000D02*
X92710000Y-87630000D01*
D14*
X75826247Y-76796900D02*
G75*
G03X75826247Y-76796900I-337447J0D01*
G01*
D15*
X75501500Y-76022200D02*
X74993500Y-75514200D01*
X73901300Y-75438000D02*
X73266300Y-76047600D01*
X73291700Y-78003400D02*
X73850500Y-78587600D01*
X71666100Y-78600300D02*
X72123300Y-78143100D01*
X70680300Y-78600300D02*
X71666100Y-78600300D01*
D14*
X70533824Y-78574900D02*
G75*
G03X70533824Y-78574900I-366324J0D01*
G01*
D15*
X70167500Y-75882500D02*
X70167500Y-77482700D01*
D14*
X70528318Y-75349100D02*
G75*
G03X70528318Y-75349100I-373518J0D01*
G01*
X69295259Y-78549500D02*
G75*
G03X69295259Y-78549500I-359659J0D01*
G01*
D15*
X68948300Y-78041500D02*
X68948300Y-75450700D01*
X68948300Y-75450700D02*
X68110100Y-75450700D01*
X68110100Y-75450700D02*
X67500500Y-75958700D01*
X67398900Y-76746100D02*
X67398900Y-76034900D01*
X67322700Y-75958700D02*
X66687700Y-75450700D01*
D14*
X67769818Y-77279500D02*
G75*
G03X67769818Y-77279500I-370918J0D01*
G01*
D15*
X66687700Y-75450700D02*
X65798700Y-75450700D01*
D14*
X66149229Y-78562200D02*
G75*
G03X66149229Y-78562200I-363229J0D01*
G01*
X60286166Y-78651100D02*
G75*
G03X60286166Y-78651100I-329466J0D01*
G01*
D15*
X60286900Y-78295500D02*
X61125100Y-77482700D01*
D16*
X61633100Y-77381100D02*
X61099700Y-77381100D01*
D15*
X62776100Y-78600300D02*
X61633100Y-77482700D01*
X64096900Y-78600300D02*
X62776100Y-78600300D01*
X64528700Y-78168500D02*
X64096900Y-78600300D01*
X64528700Y-75933300D02*
X64528700Y-78168500D01*
X64528700Y-75907900D02*
X64046100Y-75399900D01*
X63998000Y-75425300D02*
X62776100Y-75425300D01*
X62776100Y-75425300D02*
X61683900Y-76492100D01*
D16*
X61658500Y-76606400D02*
X61099700Y-76606400D01*
D15*
X60236100Y-75615800D02*
X61099700Y-76509500D01*
D14*
X60227235Y-75260200D02*
G75*
G03X60227235Y-75260200I-359435J0D01*
G01*
D15*
X63309500Y-77000100D02*
X64528700Y-77000100D01*
D14*
X63161159Y-77000100D02*
G75*
G03X63161159Y-77000100I-359659J0D01*
G01*
D15*
X74930000Y-78613000D02*
X73888600Y-78613000D01*
X75488800Y-78054200D02*
X75488800Y-77292200D01*
X75501500Y-78041500D02*
X74917300Y-78613000D01*
X75501500Y-76073000D02*
X75501500Y-76314300D01*
X73279000Y-76034900D02*
X73279000Y-77965300D01*
X73901300Y-75425300D02*
X74904600Y-75425300D01*
X65786000Y-75438000D02*
X65786000Y-78041500D01*
X72123300Y-78155800D02*
X72123300Y-75425300D01*
D17*
X72123300Y-75082400D02*
X72402700Y-75082400D01*
X72428100Y-75082400D02*
X72428100Y-78232000D01*
X72415400Y-75082400D02*
X72428100Y-75082400D01*
X72402700Y-75082400D02*
X72415400Y-75082400D01*
X72288400Y-75171300D02*
X72351900Y-75158600D01*
X71805800Y-75082400D02*
X71805800Y-78117700D01*
X72110600Y-75082400D02*
X71805800Y-75082400D01*
X71983600Y-75158600D02*
X71869300Y-75158600D01*
X70485000Y-75768200D02*
X70485000Y-77787500D01*
X69850000Y-77787500D02*
X69850000Y-75768200D01*
X69875400Y-77787500D02*
X69850000Y-77787500D01*
X70485000Y-77787500D02*
X69875400Y-77787500D01*
X70345300Y-77724000D02*
X70408800Y-77724000D01*
X70002400Y-77724000D02*
X69913500Y-77724000D01*
X69265800Y-78130400D02*
X69265800Y-75145900D01*
X68021200Y-75133200D02*
X67437000Y-75615800D01*
X69265800Y-75133200D02*
X68021200Y-75133200D01*
X69113400Y-75196700D02*
X69189600Y-75196700D01*
X65455800Y-78155800D02*
X65455800Y-75145900D01*
X66776600Y-75133200D02*
X67398900Y-75628500D01*
X66751200Y-75133200D02*
X66776600Y-75133200D01*
X65455800Y-75133200D02*
X66751200Y-75133200D01*
X65455800Y-75145900D02*
X65455800Y-75133200D01*
X65608200Y-75209400D02*
X65506600Y-75209400D01*
X62661800Y-75095100D02*
X61404500Y-76339700D01*
X62712600Y-75095100D02*
X62661800Y-75095100D01*
X64084200Y-75095100D02*
X62712600Y-75095100D01*
D13*
X41579356Y-60501771D02*
G75*
G02X41325800Y-61112400I-865696J1511D01*
G01*
X40132820Y-59006580D02*
G75*
G02X40640000Y-60037980I-991420J-1127920D01*
G01*
X41050140Y-61142446D02*
G75*
G02X40640000Y-60045600I1118940J1043506D01*
G01*
X41327588Y-61241191D02*
G75*
G02X41023540Y-61114940I752J431051D01*
G01*
X40761140Y-61235013D02*
G75*
G02X40259000Y-60439300I709440J1003993D01*
G01*
X39879595Y-59100466D02*
G75*
G02X40233600Y-60091320I-1408755J-1061974D01*
G01*
X40412727Y-61240703D02*
G75*
G02X40213280Y-61216540I-1327J824263D01*
G01*
X40211297Y-61215853D02*
G75*
G02X39631620Y-60942220I205183J1185493D01*
G01*
X39607746Y-60920374D02*
G75*
G02X39293800Y-60162440I757934J757934D01*
G01*
X39294083Y-60162887D02*
G75*
G02X39364920Y-59794140I992857J447D01*
G01*
X39428948Y-58859536D02*
G75*
G02X39364920Y-59794140I-1478808J-368184D01*
G01*
X40730800Y-58880911D02*
G75*
G02X41452800Y-59524900I-601340J-1400909D01*
G01*
X41506594Y-59620721D02*
G75*
G02X41706800Y-60375800I-1323794J-755079D01*
G01*
X41708674Y-60376301D02*
G75*
G02X41622980Y-60820300I-1195674J501D01*
G01*
X41752520Y-61495012D02*
G75*
G02X41460420Y-61374020I0J413092D01*
G01*
X42109934Y-61345354D02*
G75*
G02X41752520Y-61493400I-357414J357414D01*
G01*
X42483058Y-61511110D02*
G75*
G02X42214800Y-60858400I653762J650170D01*
G01*
X42720778Y-62128680D02*
G75*
G02X42214800Y-60904120I1228842J1224560D01*
G01*
X46285179Y-57589586D02*
G75*
G02X44942760Y-57805320I-1812319J6992786D01*
G01*
X43160930Y-58379334D02*
G75*
G02X44424600Y-57878980I2134890J-3545866D01*
G01*
X42094441Y-59457165D02*
G75*
G02X43149520Y-58386980I3831299J-2722035D01*
G01*
X42213955Y-60731469D02*
G75*
G02X42334180Y-59794140I762845J378529D01*
G01*
X42505273Y-59605556D02*
G75*
G02X45059600Y-58336180I3654147J-4148444D01*
G01*
X47396341Y-57525178D02*
G75*
G02X45369480Y-58275220I-2631381J3997218D01*
G01*
X42662349Y-61816959D02*
G75*
G02X42214800Y-60731400I1086611J1083019D01*
G01*
X42088560Y-59079643D02*
G75*
G02X42148760Y-58402220I3049780J70363D01*
G01*
X42295536Y-57798985D02*
G75*
G02X44345860Y-56286400I2144304J-760715D01*
G01*
X48209752Y-56141922D02*
G75*
G02X46494700Y-56481980I-1268012J1900222D01*
G01*
X46183733Y-60065413D02*
G75*
G02X44317920Y-60731400I-1738813J1924813D01*
G01*
X48204264Y-57645847D02*
G75*
G02X46222920Y-60027820I-8344044J4925607D01*
G01*
X42491660Y-60454540D02*
G75*
G02X43210480Y-60457080I358140J-360680D01*
G01*
X43802300Y-60733466D02*
G75*
G02X43263820Y-60510420I0J761526D01*
G01*
X44119800Y-64541400D02*
G75*
G02X42595800Y-63017400I0J1524000D01*
G01*
X57454800Y-63017400D02*
G75*
G02X55930800Y-64541400I-1524000J0D01*
G01*
X55930800Y-61493400D02*
G75*
G02X57454800Y-63017400I0J-1524000D01*
G01*
X42595800Y-63017400D02*
G75*
G02X44119800Y-61493400I1524000J0D01*
G01*
X40563800Y-61112400D02*
X40055800Y-61112400D01*
X40436800Y-60985400D02*
X39801800Y-60985400D01*
X40309800Y-60858400D02*
X39674800Y-60858400D01*
X40309800Y-60731400D02*
X39547800Y-60731400D01*
X40259000Y-60604400D02*
X39420800Y-60604400D01*
X40182800Y-60477400D02*
X39420800Y-60477400D01*
X40182800Y-60350400D02*
X39420800Y-60350400D01*
X40182800Y-60223400D02*
X39420800Y-60223400D01*
X40182800Y-60096400D02*
X39420800Y-60096400D01*
X40182800Y-59969400D02*
X39420800Y-59969400D01*
X40182800Y-59842400D02*
X39420800Y-59842400D01*
X40182800Y-59715400D02*
X39547800Y-59715400D01*
X40055800Y-59588400D02*
X39547800Y-59588400D01*
X40055800Y-59461400D02*
X39547800Y-59461400D01*
X39674800Y-58953400D02*
X39674800Y-59461400D01*
X39801800Y-58953400D02*
X39801800Y-59461400D01*
X39928800Y-58572400D02*
X39420800Y-58572400D01*
X40055800Y-58699400D02*
X39420800Y-58699400D01*
X40309800Y-58826400D02*
X39547800Y-58826400D01*
X39801800Y-58953400D02*
X40690800Y-58953400D01*
X39674800Y-58953400D02*
X39801800Y-58953400D01*
X39547800Y-58953400D02*
X39674800Y-58953400D01*
X40309800Y-59080400D02*
X40817800Y-59080400D01*
X40436800Y-59207400D02*
X41071800Y-59207400D01*
X40436800Y-59334400D02*
X41198800Y-59334400D01*
X40563800Y-59461400D02*
X41325800Y-59461400D01*
X40563800Y-59588400D02*
X41452800Y-59588400D01*
X40690800Y-59715400D02*
X41452800Y-59715400D01*
X40690800Y-59842400D02*
X41452800Y-59842400D01*
X40690800Y-59969400D02*
X41579800Y-59969400D01*
X40690800Y-60096400D02*
X41579800Y-60096400D01*
X41452800Y-60858400D02*
X40944800Y-60858400D01*
X41452800Y-60731400D02*
X40817800Y-60731400D01*
X41579800Y-60604400D02*
X40817800Y-60604400D01*
X41579800Y-60477400D02*
X40817800Y-60477400D01*
X41452800Y-60350400D02*
X40817800Y-60350400D01*
X40944800Y-60223400D02*
X40944800Y-60731400D01*
X40690800Y-60223400D02*
X41198800Y-61112400D01*
X40944800Y-60223400D02*
X40690800Y-60223400D01*
X41325800Y-60223400D02*
X40944800Y-60223400D01*
X41452800Y-60858400D02*
X41452800Y-60985400D01*
X41452800Y-60731400D02*
X41452800Y-60858400D01*
X41452800Y-60350400D02*
X41452800Y-60731400D01*
X41452800Y-60223400D02*
X41452800Y-60350400D01*
X41325800Y-60223400D02*
X41325800Y-60858400D01*
X41452800Y-60223400D02*
X41325800Y-60223400D01*
X41579800Y-60223400D02*
X41452800Y-60223400D01*
X41579800Y-60477400D02*
X41579800Y-60223400D01*
X41579800Y-60500260D02*
X41579800Y-60477400D01*
X40640000Y-60045600D02*
X40640000Y-60037980D01*
X41023540Y-61114940D02*
X41051480Y-61142880D01*
D18*
X44373800Y-59715400D02*
X45643800Y-59461400D01*
X43992800Y-59842400D02*
X44373800Y-59715400D01*
X43865800Y-59715400D02*
X43992800Y-59842400D01*
X43865800Y-59588400D02*
X43865800Y-59715400D01*
X44373800Y-59334400D02*
X43865800Y-59588400D01*
X44627800Y-59334400D02*
X44373800Y-59334400D01*
X45643800Y-59080400D02*
X44627800Y-59334400D01*
X46151800Y-59080400D02*
X45643800Y-59080400D01*
X46278800Y-59207400D02*
X46151800Y-59080400D01*
X46151800Y-59334400D02*
X46278800Y-59207400D01*
X45516800Y-59842400D02*
X46151800Y-59334400D01*
X45008800Y-59969400D02*
X45516800Y-59842400D01*
X44627800Y-60096400D02*
X45008800Y-59969400D01*
X43992800Y-60096400D02*
X44627800Y-60096400D01*
X43611800Y-59969400D02*
X43992800Y-60096400D01*
X43357800Y-59969400D02*
X43611800Y-59969400D01*
X43230800Y-59715400D02*
X43357800Y-59969400D01*
X43357800Y-59588400D02*
X43230800Y-59715400D01*
X43992800Y-59080400D02*
X43357800Y-59588400D01*
X45008800Y-58826400D02*
X43992800Y-59080400D01*
X46151800Y-58699400D02*
X45008800Y-58826400D01*
X46278800Y-58699400D02*
X46151800Y-58699400D01*
X46405800Y-58826400D02*
X46278800Y-58699400D01*
X47167800Y-58191400D02*
X46405800Y-58826400D01*
X46532800Y-58191400D02*
X47294800Y-57810400D01*
X45796200Y-58445400D02*
X46532800Y-58191400D01*
X45186600Y-58445400D02*
X45796200Y-58445400D01*
X43789600Y-58928000D02*
X45186600Y-58445400D01*
X43103800Y-59334400D02*
X43789600Y-58928000D01*
X42595800Y-59842400D02*
X43103800Y-59334400D01*
X42341800Y-60350400D02*
X42595800Y-59842400D01*
X42595800Y-60096400D02*
X42341800Y-60350400D01*
X42976800Y-59969400D02*
X42595800Y-60096400D01*
X43738800Y-60477400D02*
X42976800Y-59969400D01*
X44627800Y-60477400D02*
X43738800Y-60477400D01*
X45516800Y-60223400D02*
X44627800Y-60477400D01*
X46024800Y-59842400D02*
X45516800Y-60223400D01*
X46913800Y-58953400D02*
X46024800Y-59842400D01*
X47167800Y-58572400D02*
X46913800Y-58953400D01*
X47548800Y-58064400D02*
X47167800Y-58572400D01*
X47678340Y-57556400D02*
X48056800Y-56669940D01*
X47678340Y-57937400D02*
X47678340Y-57556400D01*
X48056800Y-57429400D02*
X47678340Y-57937400D01*
X48183800Y-56921400D02*
X48056800Y-57429400D01*
X48691800Y-56032400D02*
X48183800Y-56921400D01*
X43103800Y-57556400D02*
X44754800Y-57556400D01*
X43230800Y-57175400D02*
X48183800Y-57099200D01*
X43230800Y-57429400D02*
X43230800Y-57175400D01*
X43230800Y-56921400D02*
X43230800Y-57175400D01*
X47802800Y-56921400D02*
X43230800Y-56921400D01*
X47294800Y-57048400D02*
X47802800Y-56921400D01*
X46024800Y-57429400D02*
X47294800Y-57048400D01*
X44881800Y-57556400D02*
X46024800Y-57429400D01*
X44754800Y-57556400D02*
X44881800Y-57556400D01*
X44246800Y-57556400D02*
X44754800Y-57556400D01*
X43611800Y-57937400D02*
X44246800Y-57556400D01*
X43230800Y-57429400D02*
X42849800Y-57937400D01*
X43484800Y-57937400D02*
X43230800Y-57429400D01*
X42849800Y-58318400D02*
X43484800Y-57937400D01*
X42341800Y-58953400D02*
X42849800Y-58318400D01*
X42468800Y-57937400D02*
X42341800Y-58953400D01*
X42722800Y-57429400D02*
X42468800Y-57937400D01*
X43230800Y-56921400D02*
X42722800Y-57429400D01*
X43865800Y-56540400D02*
X43230800Y-56921400D01*
X45516800Y-56540400D02*
X43865800Y-56540400D01*
X46532800Y-56669940D02*
X45516800Y-56540400D01*
X47678340Y-56669940D02*
X46532800Y-56669940D01*
D13*
X48691800Y-56032400D02*
X47678340Y-56669940D01*
X40233600Y-60048140D02*
X40259000Y-60439300D01*
X41313100Y-61239400D02*
X41325800Y-61239400D01*
X40411400Y-61239400D02*
X40767000Y-61239400D01*
X39608760Y-60919360D02*
X39631620Y-60942220D01*
X39293800Y-58318400D02*
X39428420Y-58856880D01*
X40309800Y-58699400D02*
X39293800Y-58318400D01*
X40731440Y-58879740D02*
X40309800Y-58699400D01*
X41506140Y-59618880D02*
X41452800Y-59524900D01*
X41325800Y-61239400D02*
X41622980Y-60820300D01*
X41460420Y-61374020D02*
X41325800Y-61239400D01*
X42214800Y-61239400D02*
X42110660Y-61346080D01*
X42976800Y-62001400D02*
X42486580Y-61511180D01*
X42214800Y-60904120D02*
X42214800Y-60858400D01*
X42849800Y-62128400D02*
X42341800Y-61366400D01*
X46291500Y-57589420D02*
X47678340Y-57175400D01*
X44424600Y-57878980D02*
X44942760Y-57805320D01*
X43149520Y-58386980D02*
X43157140Y-58381900D01*
X42090340Y-59461400D02*
X42092880Y-59458860D01*
X42504360Y-59606180D02*
X42334180Y-59794140D01*
X45369480Y-58275220D02*
X45059600Y-58336180D01*
X47678340Y-57175400D02*
X47396400Y-57523380D01*
X42849800Y-62001400D02*
X42664380Y-61815980D01*
X42191940Y-60685680D02*
X42214800Y-60731400D01*
X42090340Y-59080400D02*
X42090340Y-59461400D01*
X42296080Y-57802780D02*
X42148760Y-58402220D01*
X46494700Y-56481980D02*
X44345860Y-56286400D01*
X49072800Y-55524400D02*
X48211740Y-56144160D01*
X44317920Y-60731400D02*
X43802300Y-60731400D01*
X46222920Y-60027820D02*
X46187360Y-60063380D01*
X49072800Y-55524400D02*
X48206660Y-57640220D01*
X42491660Y-60457080D02*
X42214800Y-60731400D01*
X43263820Y-60510420D02*
X43210480Y-60457080D01*
X55930800Y-64541400D02*
X44119800Y-64541400D01*
X44119800Y-61493400D02*
X55930800Y-61493400D01*
D10*
X33708600Y-65850300D02*
X33708600Y-66612300D01*
X38280600Y-65850300D02*
X33708600Y-65850300D01*
X38280600Y-66612300D02*
X38280600Y-65850300D01*
X33708600Y-66612300D02*
X38280600Y-66612300D01*
X33759400Y-65901100D02*
X38179000Y-65901100D01*
X38229800Y-66002700D02*
X33759400Y-66002700D01*
X33759400Y-66155100D02*
X38179000Y-66155100D01*
X33759400Y-66307500D02*
X38179000Y-66307500D01*
X38229800Y-66053500D02*
X33810200Y-66053500D01*
X38229800Y-66205900D02*
X33759400Y-66205900D01*
X33810200Y-66409100D02*
X38179000Y-66409100D01*
X38229800Y-66510700D02*
X33810200Y-66510700D01*
D13*
X38074600Y-61074300D02*
X33883600Y-65265300D01*
X37947600Y-65138300D02*
X33883600Y-61201300D01*
X36931600Y-64757300D02*
X35534600Y-64757300D01*
X36931600Y-64757300D02*
X37185600Y-61709300D01*
X37439600Y-61582300D02*
X34518600Y-61582300D01*
X36423600Y-65138300D02*
X36423600Y-64884300D01*
X36931600Y-65138300D02*
X36423600Y-65138300D01*
X36931600Y-64757300D02*
X36931600Y-65138300D01*
X35026600Y-64249300D02*
X34899600Y-62217300D01*
X35428209Y-64757300D02*
G75*
G03X35428209Y-64757300I-401609J0D01*
G01*
X36804600Y-60947300D02*
X36804600Y-61455300D01*
X36931600Y-60947300D02*
X36804600Y-60947300D01*
X36931600Y-61455300D02*
X36931600Y-60947300D01*
X34518600Y-62090300D02*
X34518600Y-61582300D01*
X34899600Y-62090300D02*
X34518600Y-62090300D01*
X34899600Y-61582300D02*
X34899600Y-62090300D01*
X34772600Y-61709300D02*
X34772600Y-61836300D01*
X34772600Y-61582300D02*
X34645600Y-61963300D01*
X34772600Y-61709300D02*
X34772600Y-61836300D01*
X34645600Y-61709300D02*
X34645600Y-62090300D01*
X34772600Y-61709300D02*
X34645600Y-61709300D01*
X34772600Y-62090300D02*
X34772600Y-61709300D01*
X36169600Y-62471300D02*
X36169600Y-62090300D01*
X35280600Y-62471300D02*
X36169600Y-62471300D01*
X35280600Y-62090300D02*
X35280600Y-62471300D01*
X36169600Y-62090300D02*
X35280600Y-62090300D01*
X36042600Y-62217300D02*
X35407600Y-62217300D01*
X35788600Y-60693300D02*
X36169600Y-60693300D01*
X35788600Y-60820300D02*
X35788600Y-60693300D01*
X36169600Y-60820300D02*
X35788600Y-60820300D01*
X36169600Y-60693300D02*
X36169600Y-60820300D01*
X34899600Y-61455300D02*
G75*
G02X37185600Y-61455300I1143000J-1143000D01*
G01*
D19*
X35153600Y-64757300D02*
G75*
G03X35153600Y-64757300I-127000J0D01*
G01*
D13*
X42302537Y-56271160D02*
G75*
G03X42302537Y-56271160I-1802237J0D01*
G01*
D20*
X39339520Y-57434480D02*
X41772840Y-55013860D01*
D21*
X65920620Y-64424560D02*
X65369440Y-63002160D01*
D22*
X66266060Y-64239140D02*
X65948560Y-64444880D01*
D14*
X67056000Y-64787780D02*
X66276220Y-64256920D01*
D23*
X67632580Y-64249300D02*
X67068700Y-64787780D01*
D22*
X67617340Y-64249300D02*
X67083940Y-63416180D01*
X67442080Y-62489080D02*
X67083940Y-63373000D01*
X68419980Y-62247780D02*
X67470020Y-62466220D01*
D23*
X68409820Y-61470540D02*
X68414900Y-62257940D01*
D22*
X68422520Y-61457840D02*
X67403980Y-61277500D01*
X67373500Y-61241940D02*
X67025520Y-60375800D01*
X67602100Y-59474100D02*
X67045840Y-60325000D01*
D23*
X67612260Y-59451240D02*
X67111880Y-58917840D01*
D22*
X67063620Y-58892440D02*
X66235580Y-59545220D01*
X66174620Y-59535060D02*
X65328800Y-59128660D01*
X65069720Y-58094880D02*
X65275460Y-59108340D01*
X65077340Y-58082180D02*
X64292480Y-58082180D01*
X64310260Y-58102500D02*
X64096900Y-59121040D01*
X64096900Y-59121040D02*
X63195200Y-59570620D01*
X63182500Y-59565540D02*
X62278260Y-58931100D01*
X62278260Y-58933080D02*
X61724540Y-59479180D01*
X61724540Y-59481720D02*
X62341760Y-60271660D01*
X62341760Y-60271660D02*
X62001400Y-61208920D01*
X62001400Y-61208920D02*
X60919360Y-61437520D01*
X60919360Y-61437520D02*
X60919360Y-62273180D01*
X60919360Y-62273180D02*
X61932820Y-62443360D01*
X61932820Y-62443360D02*
X62339220Y-63355220D01*
X62288420Y-64803020D02*
X63124080Y-64236600D01*
X63124080Y-64236600D02*
X63461900Y-64422020D01*
X63461900Y-64422020D02*
X64035940Y-62981840D01*
X64025780Y-62979300D02*
G75*
G02X63654940Y-61114940I746760J1117600D01*
G01*
X63644780Y-61130180D02*
G75*
G02X65570100Y-60932060I1061720J-863600D01*
G01*
X65595500Y-60957460D02*
G75*
G02X65519300Y-62811660I-965200J-889000D01*
G01*
X62339220Y-63355220D02*
X61719460Y-64241680D01*
X62273180Y-64795400D02*
X61719460Y-64249300D01*
D10*
X65839340Y-64604900D02*
X65189100Y-62936120D01*
X66222880Y-64401700D02*
X65877440Y-64622680D01*
X66235580Y-64391540D02*
X67061080Y-64955420D01*
X67068700Y-64963040D02*
X67790060Y-64269620D01*
X67797680Y-64267080D02*
X67200780Y-63403480D01*
X68559680Y-62359540D02*
X67487800Y-62555120D01*
X68559680Y-61366400D02*
X68559680Y-62351920D01*
X68562220Y-61363860D02*
X67391280Y-61160660D01*
X67492880Y-61165740D02*
X67157600Y-60332620D01*
X67754500Y-59481720D02*
X67160140Y-60335160D01*
X67774820Y-59446160D02*
X67101720Y-58732420D01*
X67089020Y-58729880D02*
X66118740Y-59446160D01*
X66154300Y-59377580D02*
X65250060Y-58999120D01*
X65166240Y-57983120D02*
X65366900Y-59009280D01*
X65156080Y-57975500D02*
X64190880Y-57975500D01*
X64190880Y-57975500D02*
X63964820Y-59146440D01*
X63974980Y-59065160D02*
X63169800Y-59402980D01*
X63289180Y-59451240D02*
X62278260Y-58778140D01*
X62273180Y-58775600D02*
X61579760Y-59466480D01*
X61574680Y-59474100D02*
X62278260Y-60464700D01*
X62189360Y-60355480D02*
X61823600Y-61224160D01*
X60886340Y-62125860D02*
X61993780Y-62349380D01*
X60802520Y-61384180D02*
X60805060Y-62341760D01*
X61940440Y-62572900D02*
X60817760Y-62362080D01*
X61836300Y-62539880D02*
X62217300Y-63520320D01*
X61869320Y-64175640D02*
X62354460Y-64706500D01*
X62265560Y-64950340D02*
X61582300Y-64259460D01*
X63152020Y-64335660D02*
X62275720Y-64955420D01*
X62288420Y-64640460D02*
X63108840Y-64112140D01*
X62971680Y-64307720D02*
X63500000Y-64635380D01*
X63500000Y-64635380D02*
X63886080Y-63654940D01*
X63891160Y-62956440D02*
X63362840Y-64338200D01*
X68267580Y-61554360D02*
X68267580Y-62204600D01*
X68409820Y-61610240D02*
X67294760Y-61363860D01*
X66880740Y-60342780D02*
X67266820Y-61341000D01*
X66875660Y-60347860D02*
X67477640Y-59438540D01*
X67119500Y-58994040D02*
X66235580Y-59715400D01*
X63847980Y-63014860D02*
X63670180Y-62892940D01*
X63670180Y-62892940D02*
X63294260Y-62181740D01*
X63294260Y-62181740D02*
X63294260Y-61663580D01*
X63289180Y-61676280D02*
X63522860Y-61003180D01*
X63522860Y-61003180D02*
X64033400Y-60573920D01*
X64033400Y-60573920D02*
X64848740Y-60413900D01*
X64848740Y-60406280D02*
X65719960Y-60835540D01*
X65719960Y-60835540D02*
X66139060Y-61567060D01*
X66144140Y-61572140D02*
X66012060Y-62395100D01*
X66006980Y-62425580D02*
X65913000Y-62595760D01*
X66006980Y-62425580D02*
X65913000Y-62595760D01*
X65783460Y-62646560D02*
X65524380Y-62984380D01*
X65415160Y-62760860D02*
X65189100Y-62936120D01*
X63914020Y-62763400D02*
X64168020Y-62928500D01*
X64051180Y-63218060D02*
X64173100Y-62933580D01*
X66230500Y-59712860D02*
X65247520Y-59220100D01*
X65900300Y-62626240D02*
X65592960Y-62892940D01*
D24*
X66916300Y-64056260D02*
X66062860Y-63035180D01*
X67952620Y-61851540D02*
X66535300Y-61790580D01*
X66967100Y-59565540D02*
X65905380Y-60672980D01*
X64706500Y-58590180D02*
X64701420Y-60104020D01*
X62440820Y-59646820D02*
X63553340Y-60713620D01*
X61450220Y-61831220D02*
X62918340Y-61917580D01*
X66240660Y-63883540D02*
X65874900Y-63121540D01*
X66906140Y-62984380D02*
X66342260Y-62504320D01*
X67155060Y-62339220D02*
X66448940Y-62212220D01*
X66829940Y-61094620D02*
X66387980Y-61254640D01*
X66654680Y-60614560D02*
X66197480Y-60904120D01*
X65656460Y-59837320D02*
X65481200Y-60195460D01*
X65222120Y-59578240D02*
X65054480Y-60187840D01*
X63957200Y-59593480D02*
X64178180Y-60279280D01*
X63370460Y-59844940D02*
X63789560Y-60431680D01*
X62501780Y-60713620D02*
X63157100Y-61079380D01*
X62260480Y-61407040D02*
X62981840Y-61554360D01*
X63096140Y-62565280D02*
X62486540Y-62671960D01*
X63416180Y-62984380D02*
X62798960Y-63312040D01*
X63530480Y-63121540D02*
X62349380Y-64135000D01*
X63530480Y-63030100D02*
X63197740Y-63761620D01*
D10*
X85413904Y-86169523D02*
X85413904Y-85788571D01*
X85794857Y-85750476D01*
X85756761Y-85788571D01*
X85718666Y-85864761D01*
X85718666Y-86055238D01*
X85756761Y-86131428D01*
X85794857Y-86169523D01*
X85871047Y-86207619D01*
X86061523Y-86207619D01*
X86137714Y-86169523D01*
X86175809Y-86131428D01*
X86213904Y-86055238D01*
X86213904Y-85864761D01*
X86175809Y-85788571D01*
X86137714Y-85750476D01*
X85413904Y-86474285D02*
X85413904Y-86969523D01*
X85718666Y-86702857D01*
X85718666Y-86817142D01*
X85756761Y-86893333D01*
X85794857Y-86931428D01*
X85871047Y-86969523D01*
X86061523Y-86969523D01*
X86137714Y-86931428D01*
X86175809Y-86893333D01*
X86213904Y-86817142D01*
X86213904Y-86588571D01*
X86175809Y-86512380D01*
X86137714Y-86474285D01*
X79013095Y-47650476D02*
X78975000Y-47688571D01*
X78936904Y-47764761D01*
X78936904Y-47955238D01*
X78975000Y-48031428D01*
X79013095Y-48069523D01*
X79089285Y-48107619D01*
X79165476Y-48107619D01*
X79279761Y-48069523D01*
X79736904Y-47612380D01*
X79736904Y-48107619D01*
X79013095Y-48412380D02*
X78975000Y-48450476D01*
X78936904Y-48526666D01*
X78936904Y-48717142D01*
X78975000Y-48793333D01*
X79013095Y-48831428D01*
X79089285Y-48869523D01*
X79165476Y-48869523D01*
X79279761Y-48831428D01*
X79736904Y-48374285D01*
X79736904Y-48869523D01*
X79013095Y-55270476D02*
X78975000Y-55308571D01*
X78936904Y-55384761D01*
X78936904Y-55575238D01*
X78975000Y-55651428D01*
X79013095Y-55689523D01*
X79089285Y-55727619D01*
X79165476Y-55727619D01*
X79279761Y-55689523D01*
X79736904Y-55232380D01*
X79736904Y-55727619D01*
X78936904Y-56451428D02*
X78936904Y-56070476D01*
X79317857Y-56032380D01*
X79279761Y-56070476D01*
X79241666Y-56146666D01*
X79241666Y-56337142D01*
X79279761Y-56413333D01*
X79317857Y-56451428D01*
X79394047Y-56489523D01*
X79584523Y-56489523D01*
X79660714Y-56451428D01*
X79698809Y-56413333D01*
X79736904Y-56337142D01*
X79736904Y-56146666D01*
X79698809Y-56070476D01*
X79660714Y-56032380D01*
X85413904Y-50152380D02*
X85413904Y-50647619D01*
X85718666Y-50380952D01*
X85718666Y-50495238D01*
X85756761Y-50571428D01*
X85794857Y-50609523D01*
X85871047Y-50647619D01*
X86061523Y-50647619D01*
X86137714Y-50609523D01*
X86175809Y-50571428D01*
X86213904Y-50495238D01*
X86213904Y-50266666D01*
X86175809Y-50190476D01*
X86137714Y-50152380D01*
X86213904Y-51028571D02*
X86213904Y-51180952D01*
X86175809Y-51257142D01*
X86137714Y-51295238D01*
X86023428Y-51371428D01*
X85871047Y-51409523D01*
X85566285Y-51409523D01*
X85490095Y-51371428D01*
X85452000Y-51333333D01*
X85413904Y-51257142D01*
X85413904Y-51104761D01*
X85452000Y-51028571D01*
X85490095Y-50990476D01*
X85566285Y-50952380D01*
X85756761Y-50952380D01*
X85832952Y-50990476D01*
X85871047Y-51028571D01*
X85909142Y-51104761D01*
X85909142Y-51257142D01*
X85871047Y-51333333D01*
X85832952Y-51371428D01*
X85756761Y-51409523D01*
X87356904Y-75209523D02*
X86556904Y-75209523D01*
X86556904Y-75514285D01*
X86595000Y-75590476D01*
X86633095Y-75628571D01*
X86709285Y-75666666D01*
X86823571Y-75666666D01*
X86899761Y-75628571D01*
X86937857Y-75590476D01*
X86975952Y-75514285D01*
X86975952Y-75209523D01*
X86595000Y-76428571D02*
X86556904Y-76352380D01*
X86556904Y-76238095D01*
X86595000Y-76123809D01*
X86671190Y-76047619D01*
X86747380Y-76009523D01*
X86899761Y-75971428D01*
X87014047Y-75971428D01*
X87166428Y-76009523D01*
X87242619Y-76047619D01*
X87318809Y-76123809D01*
X87356904Y-76238095D01*
X87356904Y-76314285D01*
X87318809Y-76428571D01*
X87280714Y-76466666D01*
X87014047Y-76466666D01*
X87014047Y-76314285D01*
X86823571Y-77152380D02*
X87356904Y-77152380D01*
X86518809Y-76961904D02*
X87090238Y-76771428D01*
X87090238Y-77266666D01*
X78301904Y-44729523D02*
X78301904Y-45186666D01*
X79101904Y-44958095D02*
X78301904Y-44958095D01*
X78301904Y-45377142D02*
X79101904Y-45910476D01*
X78301904Y-45910476D02*
X79101904Y-45377142D01*
X78301904Y-46139047D02*
X78301904Y-46634285D01*
X78606666Y-46367619D01*
X78606666Y-46481904D01*
X78644761Y-46558095D01*
X78682857Y-46596190D01*
X78759047Y-46634285D01*
X78949523Y-46634285D01*
X79025714Y-46596190D01*
X79063809Y-46558095D01*
X79101904Y-46481904D01*
X79101904Y-46253333D01*
X79063809Y-46177142D01*
X79025714Y-46139047D01*
X87356904Y-60064761D02*
X86556904Y-60064761D01*
X86556904Y-60369523D01*
X86595000Y-60445714D01*
X86633095Y-60483809D01*
X86709285Y-60521904D01*
X86823571Y-60521904D01*
X86899761Y-60483809D01*
X86937857Y-60445714D01*
X86975952Y-60369523D01*
X86975952Y-60064761D01*
X86556904Y-61093333D02*
X87128333Y-61093333D01*
X87242619Y-61055238D01*
X87318809Y-60979047D01*
X87356904Y-60864761D01*
X87356904Y-60788571D01*
X86556904Y-61855238D02*
X86556904Y-61474285D01*
X86937857Y-61436190D01*
X86899761Y-61474285D01*
X86861666Y-61550476D01*
X86861666Y-61740952D01*
X86899761Y-61817142D01*
X86937857Y-61855238D01*
X87014047Y-61893333D01*
X87204523Y-61893333D01*
X87280714Y-61855238D01*
X87318809Y-61817142D01*
X87356904Y-61740952D01*
X87356904Y-61550476D01*
X87318809Y-61474285D01*
X87280714Y-61436190D01*
X85680571Y-53111428D02*
X86213904Y-53111428D01*
X85375809Y-52920952D02*
X85947238Y-52730476D01*
X85947238Y-53225714D01*
X85413904Y-53682857D02*
X85413904Y-53759047D01*
X85452000Y-53835238D01*
X85490095Y-53873333D01*
X85566285Y-53911428D01*
X85718666Y-53949523D01*
X85909142Y-53949523D01*
X86061523Y-53911428D01*
X86137714Y-53873333D01*
X86175809Y-53835238D01*
X86213904Y-53759047D01*
X86213904Y-53682857D01*
X86175809Y-53606666D01*
X86137714Y-53568571D01*
X86061523Y-53530476D01*
X85909142Y-53492380D01*
X85718666Y-53492380D01*
X85566285Y-53530476D01*
X85490095Y-53568571D01*
X85452000Y-53606666D01*
X85413904Y-53682857D01*
X87356904Y-67589523D02*
X86556904Y-67589523D01*
X86556904Y-67894285D01*
X86595000Y-67970476D01*
X86633095Y-68008571D01*
X86709285Y-68046666D01*
X86823571Y-68046666D01*
X86899761Y-68008571D01*
X86937857Y-67970476D01*
X86975952Y-67894285D01*
X86975952Y-67589523D01*
X87356904Y-68389523D02*
X86556904Y-68389523D01*
X86556904Y-68580000D01*
X86595000Y-68694285D01*
X86671190Y-68770476D01*
X86747380Y-68808571D01*
X86899761Y-68846666D01*
X87014047Y-68846666D01*
X87166428Y-68808571D01*
X87242619Y-68770476D01*
X87318809Y-68694285D01*
X87356904Y-68580000D01*
X87356904Y-68389523D01*
X86823571Y-69532380D02*
X87356904Y-69532380D01*
X86518809Y-69341904D02*
X87090238Y-69151428D01*
X87090238Y-69646666D01*
X85680571Y-70891428D02*
X86213904Y-70891428D01*
X85375809Y-70700952D02*
X85947238Y-70510476D01*
X85947238Y-71005714D01*
X85413904Y-71234285D02*
X85413904Y-71767619D01*
X86213904Y-71424761D01*
D25*
X78873333Y-41718666D02*
X79273333Y-41718666D01*
X79073333Y-41718666D02*
X79073333Y-41018666D01*
X79140000Y-41118666D01*
X79206666Y-41185333D01*
X79273333Y-41218666D01*
X78273333Y-41252000D02*
X78273333Y-41718666D01*
X78440000Y-40985333D02*
X78606666Y-41485333D01*
X78173333Y-41485333D01*
D10*
X81641904Y-45205714D02*
X81260952Y-44939047D01*
X81641904Y-44748571D02*
X80841904Y-44748571D01*
X80841904Y-45053333D01*
X80880000Y-45129523D01*
X80918095Y-45167619D01*
X80994285Y-45205714D01*
X81108571Y-45205714D01*
X81184761Y-45167619D01*
X81222857Y-45129523D01*
X81260952Y-45053333D01*
X81260952Y-44748571D01*
X80841904Y-45472380D02*
X81641904Y-46005714D01*
X80841904Y-46005714D02*
X81641904Y-45472380D01*
X80841904Y-46234285D02*
X80841904Y-46729523D01*
X81146666Y-46462857D01*
X81146666Y-46577142D01*
X81184761Y-46653333D01*
X81222857Y-46691428D01*
X81299047Y-46729523D01*
X81489523Y-46729523D01*
X81565714Y-46691428D01*
X81603809Y-46653333D01*
X81641904Y-46577142D01*
X81641904Y-46348571D01*
X81603809Y-46272380D01*
X81565714Y-46234285D01*
D25*
X83953333Y-41718666D02*
X84353333Y-41718666D01*
X84153333Y-41718666D02*
X84153333Y-41018666D01*
X84220000Y-41118666D01*
X84286666Y-41185333D01*
X84353333Y-41218666D01*
X83353333Y-41018666D02*
X83486666Y-41018666D01*
X83553333Y-41052000D01*
X83586666Y-41085333D01*
X83653333Y-41185333D01*
X83686666Y-41318666D01*
X83686666Y-41585333D01*
X83653333Y-41652000D01*
X83620000Y-41685333D01*
X83553333Y-41718666D01*
X83420000Y-41718666D01*
X83353333Y-41685333D01*
X83320000Y-41652000D01*
X83286666Y-41585333D01*
X83286666Y-41418666D01*
X83320000Y-41352000D01*
X83353333Y-41318666D01*
X83420000Y-41285333D01*
X83553333Y-41285333D01*
X83620000Y-41318666D01*
X83653333Y-41352000D01*
X83686666Y-41418666D01*
D10*
X87356904Y-62604761D02*
X86556904Y-62604761D01*
X86556904Y-62909523D01*
X86595000Y-62985714D01*
X86633095Y-63023809D01*
X86709285Y-63061904D01*
X86823571Y-63061904D01*
X86899761Y-63023809D01*
X86937857Y-62985714D01*
X86975952Y-62909523D01*
X86975952Y-62604761D01*
X86556904Y-63633333D02*
X87128333Y-63633333D01*
X87242619Y-63595238D01*
X87318809Y-63519047D01*
X87356904Y-63404761D01*
X87356904Y-63328571D01*
X86556904Y-64357142D02*
X86556904Y-64204761D01*
X86595000Y-64128571D01*
X86633095Y-64090476D01*
X86747380Y-64014285D01*
X86899761Y-63976190D01*
X87204523Y-63976190D01*
X87280714Y-64014285D01*
X87318809Y-64052380D01*
X87356904Y-64128571D01*
X87356904Y-64280952D01*
X87318809Y-64357142D01*
X87280714Y-64395238D01*
X87204523Y-64433333D01*
X87014047Y-64433333D01*
X86937857Y-64395238D01*
X86899761Y-64357142D01*
X86861666Y-64280952D01*
X86861666Y-64128571D01*
X86899761Y-64052380D01*
X86937857Y-64014285D01*
X87014047Y-63976190D01*
X85680571Y-58191428D02*
X86213904Y-58191428D01*
X85375809Y-58000952D02*
X85947238Y-57810476D01*
X85947238Y-58305714D01*
X85490095Y-58572380D02*
X85452000Y-58610476D01*
X85413904Y-58686666D01*
X85413904Y-58877142D01*
X85452000Y-58953333D01*
X85490095Y-58991428D01*
X85566285Y-59029523D01*
X85642476Y-59029523D01*
X85756761Y-58991428D01*
X86213904Y-58534285D01*
X86213904Y-59029523D01*
X87356904Y-47250476D02*
X86556904Y-47250476D01*
X86556904Y-47555238D01*
X86595000Y-47631428D01*
X86633095Y-47669523D01*
X86709285Y-47707619D01*
X86823571Y-47707619D01*
X86899761Y-47669523D01*
X86937857Y-47631428D01*
X86975952Y-47555238D01*
X86975952Y-47250476D01*
X87356904Y-48050476D02*
X86556904Y-48050476D01*
X86937857Y-48050476D02*
X86937857Y-48507619D01*
X87356904Y-48507619D02*
X86556904Y-48507619D01*
X86633095Y-48850476D02*
X86595000Y-48888571D01*
X86556904Y-48964761D01*
X86556904Y-49155238D01*
X86595000Y-49231428D01*
X86633095Y-49269523D01*
X86709285Y-49307619D01*
X86785476Y-49307619D01*
X86899761Y-49269523D01*
X87356904Y-48812380D01*
X87356904Y-49307619D01*
X87356904Y-85407619D02*
X86556904Y-85407619D01*
X86556904Y-85712380D01*
X86595000Y-85788571D01*
X86633095Y-85826666D01*
X86709285Y-85864761D01*
X86823571Y-85864761D01*
X86899761Y-85826666D01*
X86937857Y-85788571D01*
X86975952Y-85712380D01*
X86975952Y-85407619D01*
X86937857Y-86207619D02*
X86937857Y-86474285D01*
X87356904Y-86588571D02*
X87356904Y-86207619D01*
X86556904Y-86207619D01*
X86556904Y-86588571D01*
X86633095Y-86893333D02*
X86595000Y-86931428D01*
X86556904Y-87007619D01*
X86556904Y-87198095D01*
X86595000Y-87274285D01*
X86633095Y-87312380D01*
X86709285Y-87350476D01*
X86785476Y-87350476D01*
X86899761Y-87312380D01*
X87356904Y-86855238D01*
X87356904Y-87350476D01*
X85413904Y-81089523D02*
X85413904Y-80708571D01*
X85794857Y-80670476D01*
X85756761Y-80708571D01*
X85718666Y-80784761D01*
X85718666Y-80975238D01*
X85756761Y-81051428D01*
X85794857Y-81089523D01*
X85871047Y-81127619D01*
X86061523Y-81127619D01*
X86137714Y-81089523D01*
X86175809Y-81051428D01*
X86213904Y-80975238D01*
X86213904Y-80784761D01*
X86175809Y-80708571D01*
X86137714Y-80670476D01*
X86213904Y-81889523D02*
X86213904Y-81432380D01*
X86213904Y-81660952D02*
X85413904Y-81660952D01*
X85528190Y-81584761D01*
X85604380Y-81508571D01*
X85642476Y-81432380D01*
X85680571Y-65811428D02*
X86213904Y-65811428D01*
X85375809Y-65620952D02*
X85947238Y-65430476D01*
X85947238Y-65925714D01*
X85413904Y-66611428D02*
X85413904Y-66230476D01*
X85794857Y-66192380D01*
X85756761Y-66230476D01*
X85718666Y-66306666D01*
X85718666Y-66497142D01*
X85756761Y-66573333D01*
X85794857Y-66611428D01*
X85871047Y-66649523D01*
X86061523Y-66649523D01*
X86137714Y-66611428D01*
X86175809Y-66573333D01*
X86213904Y-66497142D01*
X86213904Y-66306666D01*
X86175809Y-66230476D01*
X86137714Y-66192380D01*
X85680571Y-60731428D02*
X86213904Y-60731428D01*
X85375809Y-60540952D02*
X85947238Y-60350476D01*
X85947238Y-60845714D01*
X85413904Y-61074285D02*
X85413904Y-61569523D01*
X85718666Y-61302857D01*
X85718666Y-61417142D01*
X85756761Y-61493333D01*
X85794857Y-61531428D01*
X85871047Y-61569523D01*
X86061523Y-61569523D01*
X86137714Y-61531428D01*
X86175809Y-61493333D01*
X86213904Y-61417142D01*
X86213904Y-61188571D01*
X86175809Y-61112380D01*
X86137714Y-61074285D01*
X87356904Y-80327619D02*
X86556904Y-80327619D01*
X86556904Y-80632380D01*
X86595000Y-80708571D01*
X86633095Y-80746666D01*
X86709285Y-80784761D01*
X86823571Y-80784761D01*
X86899761Y-80746666D01*
X86937857Y-80708571D01*
X86975952Y-80632380D01*
X86975952Y-80327619D01*
X86937857Y-81127619D02*
X86937857Y-81394285D01*
X87356904Y-81508571D02*
X87356904Y-81127619D01*
X86556904Y-81127619D01*
X86556904Y-81508571D01*
X86556904Y-81775238D02*
X86556904Y-82308571D01*
X87356904Y-81965714D01*
X87356904Y-54984761D02*
X86556904Y-54984761D01*
X86556904Y-55289523D01*
X86595000Y-55365714D01*
X86633095Y-55403809D01*
X86709285Y-55441904D01*
X86823571Y-55441904D01*
X86899761Y-55403809D01*
X86937857Y-55365714D01*
X86975952Y-55289523D01*
X86975952Y-54984761D01*
X86556904Y-56013333D02*
X87128333Y-56013333D01*
X87242619Y-55975238D01*
X87318809Y-55899047D01*
X87356904Y-55784761D01*
X87356904Y-55708571D01*
X86556904Y-56318095D02*
X86556904Y-56813333D01*
X86861666Y-56546666D01*
X86861666Y-56660952D01*
X86899761Y-56737142D01*
X86937857Y-56775238D01*
X87014047Y-56813333D01*
X87204523Y-56813333D01*
X87280714Y-56775238D01*
X87318809Y-56737142D01*
X87356904Y-56660952D01*
X87356904Y-56432380D01*
X87318809Y-56356190D01*
X87280714Y-56318095D01*
X85680571Y-55651428D02*
X86213904Y-55651428D01*
X85375809Y-55460952D02*
X85947238Y-55270476D01*
X85947238Y-55765714D01*
X86213904Y-56489523D02*
X86213904Y-56032380D01*
X86213904Y-56260952D02*
X85413904Y-56260952D01*
X85528190Y-56184761D01*
X85604380Y-56108571D01*
X85642476Y-56032380D01*
D13*
X79300500Y-88063571D02*
X79300500Y-88607857D01*
X79627071Y-87954714D02*
X78484071Y-88335714D01*
X79627071Y-88716714D01*
X78484071Y-88988857D02*
X78484071Y-89750857D01*
X79627071Y-89261000D01*
D10*
X91763809Y-87928571D02*
X91801904Y-88042857D01*
X91801904Y-88233333D01*
X91763809Y-88309523D01*
X91725714Y-88347619D01*
X91649523Y-88385714D01*
X91573333Y-88385714D01*
X91497142Y-88347619D01*
X91459047Y-88309523D01*
X91420952Y-88233333D01*
X91382857Y-88080952D01*
X91344761Y-88004761D01*
X91306666Y-87966666D01*
X91230476Y-87928571D01*
X91154285Y-87928571D01*
X91078095Y-87966666D01*
X91040000Y-88004761D01*
X91001904Y-88080952D01*
X91001904Y-88271428D01*
X91040000Y-88385714D01*
X91801904Y-88728571D02*
X91001904Y-88728571D01*
X91001904Y-88919047D01*
X91040000Y-89033333D01*
X91116190Y-89109523D01*
X91192380Y-89147619D01*
X91344761Y-89185714D01*
X91459047Y-89185714D01*
X91611428Y-89147619D01*
X91687619Y-89109523D01*
X91763809Y-89033333D01*
X91801904Y-88919047D01*
X91801904Y-88728571D01*
X91573333Y-89490476D02*
X91573333Y-89871428D01*
X91801904Y-89414285D02*
X91001904Y-89680952D01*
X91801904Y-89947619D01*
X85680571Y-75971428D02*
X86213904Y-75971428D01*
X85375809Y-75780952D02*
X85947238Y-75590476D01*
X85947238Y-76085714D01*
X86213904Y-76428571D02*
X86213904Y-76580952D01*
X86175809Y-76657142D01*
X86137714Y-76695238D01*
X86023428Y-76771428D01*
X85871047Y-76809523D01*
X85566285Y-76809523D01*
X85490095Y-76771428D01*
X85452000Y-76733333D01*
X85413904Y-76657142D01*
X85413904Y-76504761D01*
X85452000Y-76428571D01*
X85490095Y-76390476D01*
X85566285Y-76352380D01*
X85756761Y-76352380D01*
X85832952Y-76390476D01*
X85871047Y-76428571D01*
X85909142Y-76504761D01*
X85909142Y-76657142D01*
X85871047Y-76733333D01*
X85832952Y-76771428D01*
X85756761Y-76809523D01*
D25*
X86493333Y-41718666D02*
X86893333Y-41718666D01*
X86693333Y-41718666D02*
X86693333Y-41018666D01*
X86760000Y-41118666D01*
X86826666Y-41185333D01*
X86893333Y-41218666D01*
X86260000Y-41018666D02*
X85793333Y-41018666D01*
X86093333Y-41718666D01*
D10*
X94303809Y-41332380D02*
X94341904Y-41446666D01*
X94341904Y-41637142D01*
X94303809Y-41713333D01*
X94265714Y-41751428D01*
X94189523Y-41789523D01*
X94113333Y-41789523D01*
X94037142Y-41751428D01*
X93999047Y-41713333D01*
X93960952Y-41637142D01*
X93922857Y-41484761D01*
X93884761Y-41408571D01*
X93846666Y-41370476D01*
X93770476Y-41332380D01*
X93694285Y-41332380D01*
X93618095Y-41370476D01*
X93580000Y-41408571D01*
X93541904Y-41484761D01*
X93541904Y-41675238D01*
X93580000Y-41789523D01*
X93922857Y-42132380D02*
X93922857Y-42399047D01*
X94341904Y-42513333D02*
X94341904Y-42132380D01*
X93541904Y-42132380D01*
X93541904Y-42513333D01*
X94341904Y-43313333D02*
X93960952Y-43046666D01*
X94341904Y-42856190D02*
X93541904Y-42856190D01*
X93541904Y-43160952D01*
X93580000Y-43237142D01*
X93618095Y-43275238D01*
X93694285Y-43313333D01*
X93808571Y-43313333D01*
X93884761Y-43275238D01*
X93922857Y-43237142D01*
X93960952Y-43160952D01*
X93960952Y-42856190D01*
X94341904Y-43656190D02*
X93541904Y-43656190D01*
X94113333Y-43999047D02*
X94113333Y-44380000D01*
X94341904Y-43922857D02*
X93541904Y-44189523D01*
X94341904Y-44456190D01*
X94341904Y-45103809D02*
X94341904Y-44722857D01*
X93541904Y-44722857D01*
X78936904Y-83172380D02*
X78936904Y-83667619D01*
X79241666Y-83400952D01*
X79241666Y-83515238D01*
X79279761Y-83591428D01*
X79317857Y-83629523D01*
X79394047Y-83667619D01*
X79584523Y-83667619D01*
X79660714Y-83629523D01*
X79698809Y-83591428D01*
X79736904Y-83515238D01*
X79736904Y-83286666D01*
X79698809Y-83210476D01*
X79660714Y-83172380D01*
X78936904Y-84353333D02*
X78936904Y-84200952D01*
X78975000Y-84124761D01*
X79013095Y-84086666D01*
X79127380Y-84010476D01*
X79279761Y-83972380D01*
X79584523Y-83972380D01*
X79660714Y-84010476D01*
X79698809Y-84048571D01*
X79736904Y-84124761D01*
X79736904Y-84277142D01*
X79698809Y-84353333D01*
X79660714Y-84391428D01*
X79584523Y-84429523D01*
X79394047Y-84429523D01*
X79317857Y-84391428D01*
X79279761Y-84353333D01*
X79241666Y-84277142D01*
X79241666Y-84124761D01*
X79279761Y-84048571D01*
X79317857Y-84010476D01*
X79394047Y-83972380D01*
X85680571Y-63271428D02*
X86213904Y-63271428D01*
X85375809Y-63080952D02*
X85947238Y-62890476D01*
X85947238Y-63385714D01*
X85680571Y-64033333D02*
X86213904Y-64033333D01*
X85375809Y-63842857D02*
X85947238Y-63652380D01*
X85947238Y-64147619D01*
X78936904Y-80632380D02*
X78936904Y-81127619D01*
X79241666Y-80860952D01*
X79241666Y-80975238D01*
X79279761Y-81051428D01*
X79317857Y-81089523D01*
X79394047Y-81127619D01*
X79584523Y-81127619D01*
X79660714Y-81089523D01*
X79698809Y-81051428D01*
X79736904Y-80975238D01*
X79736904Y-80746666D01*
X79698809Y-80670476D01*
X79660714Y-80632380D01*
X78936904Y-81851428D02*
X78936904Y-81470476D01*
X79317857Y-81432380D01*
X79279761Y-81470476D01*
X79241666Y-81546666D01*
X79241666Y-81737142D01*
X79279761Y-81813333D01*
X79317857Y-81851428D01*
X79394047Y-81889523D01*
X79584523Y-81889523D01*
X79660714Y-81851428D01*
X79698809Y-81813333D01*
X79736904Y-81737142D01*
X79736904Y-81546666D01*
X79698809Y-81470476D01*
X79660714Y-81432380D01*
X79013095Y-62890476D02*
X78975000Y-62928571D01*
X78936904Y-63004761D01*
X78936904Y-63195238D01*
X78975000Y-63271428D01*
X79013095Y-63309523D01*
X79089285Y-63347619D01*
X79165476Y-63347619D01*
X79279761Y-63309523D01*
X79736904Y-62852380D01*
X79736904Y-63347619D01*
X79279761Y-63804761D02*
X79241666Y-63728571D01*
X79203571Y-63690476D01*
X79127380Y-63652380D01*
X79089285Y-63652380D01*
X79013095Y-63690476D01*
X78975000Y-63728571D01*
X78936904Y-63804761D01*
X78936904Y-63957142D01*
X78975000Y-64033333D01*
X79013095Y-64071428D01*
X79089285Y-64109523D01*
X79127380Y-64109523D01*
X79203571Y-64071428D01*
X79241666Y-64033333D01*
X79279761Y-63957142D01*
X79279761Y-63804761D01*
X79317857Y-63728571D01*
X79355952Y-63690476D01*
X79432142Y-63652380D01*
X79584523Y-63652380D01*
X79660714Y-63690476D01*
X79698809Y-63728571D01*
X79736904Y-63804761D01*
X79736904Y-63957142D01*
X79698809Y-64033333D01*
X79660714Y-64071428D01*
X79584523Y-64109523D01*
X79432142Y-64109523D01*
X79355952Y-64071428D01*
X79317857Y-64033333D01*
X79279761Y-63957142D01*
X87356904Y-82867619D02*
X86556904Y-82867619D01*
X86556904Y-83172380D01*
X86595000Y-83248571D01*
X86633095Y-83286666D01*
X86709285Y-83324761D01*
X86823571Y-83324761D01*
X86899761Y-83286666D01*
X86937857Y-83248571D01*
X86975952Y-83172380D01*
X86975952Y-82867619D01*
X86937857Y-83667619D02*
X86937857Y-83934285D01*
X87356904Y-84048571D02*
X87356904Y-83667619D01*
X86556904Y-83667619D01*
X86556904Y-84048571D01*
X86556904Y-84734285D02*
X86556904Y-84581904D01*
X86595000Y-84505714D01*
X86633095Y-84467619D01*
X86747380Y-84391428D01*
X86899761Y-84353333D01*
X87204523Y-84353333D01*
X87280714Y-84391428D01*
X87318809Y-84429523D01*
X87356904Y-84505714D01*
X87356904Y-84658095D01*
X87318809Y-84734285D01*
X87280714Y-84772380D01*
X87204523Y-84810476D01*
X87014047Y-84810476D01*
X86937857Y-84772380D01*
X86899761Y-84734285D01*
X86861666Y-84658095D01*
X86861666Y-84505714D01*
X86899761Y-84429523D01*
X86937857Y-84391428D01*
X87014047Y-84353333D01*
X79521095Y-57810476D02*
X79483000Y-57848571D01*
X79444904Y-57924761D01*
X79444904Y-58115238D01*
X79483000Y-58191428D01*
X79521095Y-58229523D01*
X79597285Y-58267619D01*
X79673476Y-58267619D01*
X79787761Y-58229523D01*
X80244904Y-57772380D01*
X80244904Y-58267619D01*
X79444904Y-58953333D02*
X79444904Y-58800952D01*
X79483000Y-58724761D01*
X79521095Y-58686666D01*
X79635380Y-58610476D01*
X79787761Y-58572380D01*
X80092523Y-58572380D01*
X80168714Y-58610476D01*
X80206809Y-58648571D01*
X80244904Y-58724761D01*
X80244904Y-58877142D01*
X80206809Y-58953333D01*
X80168714Y-58991428D01*
X80092523Y-59029523D01*
X79902047Y-59029523D01*
X79825857Y-58991428D01*
X79787761Y-58953333D01*
X79749666Y-58877142D01*
X79749666Y-58724761D01*
X79787761Y-58648571D01*
X79825857Y-58610476D01*
X79902047Y-58572380D01*
X85960000Y-88290476D02*
X85921904Y-88214285D01*
X85921904Y-88100000D01*
X85960000Y-87985714D01*
X86036190Y-87909523D01*
X86112380Y-87871428D01*
X86264761Y-87833333D01*
X86379047Y-87833333D01*
X86531428Y-87871428D01*
X86607619Y-87909523D01*
X86683809Y-87985714D01*
X86721904Y-88100000D01*
X86721904Y-88176190D01*
X86683809Y-88290476D01*
X86645714Y-88328571D01*
X86379047Y-88328571D01*
X86379047Y-88176190D01*
X86721904Y-88671428D02*
X85921904Y-88671428D01*
X86721904Y-89128571D01*
X85921904Y-89128571D01*
X86721904Y-89509523D02*
X85921904Y-89509523D01*
X85921904Y-89700000D01*
X85960000Y-89814285D01*
X86036190Y-89890476D01*
X86112380Y-89928571D01*
X86264761Y-89966666D01*
X86379047Y-89966666D01*
X86531428Y-89928571D01*
X86607619Y-89890476D01*
X86683809Y-89814285D01*
X86721904Y-89700000D01*
X86721904Y-89509523D01*
X79013095Y-65430476D02*
X78975000Y-65468571D01*
X78936904Y-65544761D01*
X78936904Y-65735238D01*
X78975000Y-65811428D01*
X79013095Y-65849523D01*
X79089285Y-65887619D01*
X79165476Y-65887619D01*
X79279761Y-65849523D01*
X79736904Y-65392380D01*
X79736904Y-65887619D01*
X79736904Y-66268571D02*
X79736904Y-66420952D01*
X79698809Y-66497142D01*
X79660714Y-66535238D01*
X79546428Y-66611428D01*
X79394047Y-66649523D01*
X79089285Y-66649523D01*
X79013095Y-66611428D01*
X78975000Y-66573333D01*
X78936904Y-66497142D01*
X78936904Y-66344761D01*
X78975000Y-66268571D01*
X79013095Y-66230476D01*
X79089285Y-66192380D01*
X79279761Y-66192380D01*
X79355952Y-66230476D01*
X79394047Y-66268571D01*
X79432142Y-66344761D01*
X79432142Y-66497142D01*
X79394047Y-66573333D01*
X79355952Y-66611428D01*
X79279761Y-66649523D01*
X79013095Y-50190476D02*
X78975000Y-50228571D01*
X78936904Y-50304761D01*
X78936904Y-50495238D01*
X78975000Y-50571428D01*
X79013095Y-50609523D01*
X79089285Y-50647619D01*
X79165476Y-50647619D01*
X79279761Y-50609523D01*
X79736904Y-50152380D01*
X79736904Y-50647619D01*
X78936904Y-50914285D02*
X78936904Y-51409523D01*
X79241666Y-51142857D01*
X79241666Y-51257142D01*
X79279761Y-51333333D01*
X79317857Y-51371428D01*
X79394047Y-51409523D01*
X79584523Y-51409523D01*
X79660714Y-51371428D01*
X79698809Y-51333333D01*
X79736904Y-51257142D01*
X79736904Y-51028571D01*
X79698809Y-50952380D01*
X79660714Y-50914285D01*
D13*
X76263500Y-88063571D02*
X76263500Y-88607857D01*
X76590071Y-87954714D02*
X75447071Y-88335714D01*
X76590071Y-88716714D01*
X75447071Y-89587571D02*
X75447071Y-89369857D01*
X75501500Y-89261000D01*
X75555928Y-89206571D01*
X75719214Y-89097714D01*
X75936928Y-89043285D01*
X76372357Y-89043285D01*
X76481214Y-89097714D01*
X76535642Y-89152142D01*
X76590071Y-89261000D01*
X76590071Y-89478714D01*
X76535642Y-89587571D01*
X76481214Y-89642000D01*
X76372357Y-89696428D01*
X76100214Y-89696428D01*
X75991357Y-89642000D01*
X75936928Y-89587571D01*
X75882500Y-89478714D01*
X75882500Y-89261000D01*
X75936928Y-89152142D01*
X75991357Y-89097714D01*
X76100214Y-89043285D01*
X74234523Y-47322619D02*
X72964523Y-47322619D01*
X72964523Y-47625000D01*
X73025000Y-47806428D01*
X73145952Y-47927380D01*
X73266904Y-47987857D01*
X73508809Y-48048333D01*
X73690238Y-48048333D01*
X73932142Y-47987857D01*
X74053095Y-47927380D01*
X74174047Y-47806428D01*
X74234523Y-47625000D01*
X74234523Y-47322619D01*
X72964523Y-48834523D02*
X72964523Y-48955476D01*
X73025000Y-49076428D01*
X73085476Y-49136904D01*
X73206428Y-49197380D01*
X73448333Y-49257857D01*
X73750714Y-49257857D01*
X73992619Y-49197380D01*
X74113571Y-49136904D01*
X74174047Y-49076428D01*
X74234523Y-48955476D01*
X74234523Y-48834523D01*
X74174047Y-48713571D01*
X74113571Y-48653095D01*
X73992619Y-48592619D01*
X73750714Y-48532142D01*
X73448333Y-48532142D01*
X73206428Y-48592619D01*
X73085476Y-48653095D01*
X73025000Y-48713571D01*
X72964523Y-48834523D01*
X66614523Y-47322619D02*
X65344523Y-47322619D01*
X65344523Y-47625000D01*
X65405000Y-47806428D01*
X65525952Y-47927380D01*
X65646904Y-47987857D01*
X65888809Y-48048333D01*
X66070238Y-48048333D01*
X66312142Y-47987857D01*
X66433095Y-47927380D01*
X66554047Y-47806428D01*
X66614523Y-47625000D01*
X66614523Y-47322619D01*
X65344523Y-48471666D02*
X65344523Y-49257857D01*
X65828333Y-48834523D01*
X65828333Y-49015952D01*
X65888809Y-49136904D01*
X65949285Y-49197380D01*
X66070238Y-49257857D01*
X66372619Y-49257857D01*
X66493571Y-49197380D01*
X66554047Y-49136904D01*
X66614523Y-49015952D01*
X66614523Y-48653095D01*
X66554047Y-48532142D01*
X66493571Y-48471666D01*
X62804523Y-50679047D02*
X63832619Y-50679047D01*
X63953571Y-50739523D01*
X64014047Y-50800000D01*
X64074523Y-50920952D01*
X64074523Y-51162857D01*
X64014047Y-51283809D01*
X63953571Y-51344285D01*
X63832619Y-51404761D01*
X62804523Y-51404761D01*
X63711666Y-51949047D02*
X63711666Y-52553809D01*
X64074523Y-51828095D02*
X62804523Y-52251428D01*
X64074523Y-52674761D01*
X64074523Y-53823809D02*
X63469761Y-53400476D01*
X64074523Y-53098095D02*
X62804523Y-53098095D01*
X62804523Y-53581904D01*
X62865000Y-53702857D01*
X62925476Y-53763333D01*
X63046428Y-53823809D01*
X63227857Y-53823809D01*
X63348809Y-53763333D01*
X63409285Y-53702857D01*
X63469761Y-53581904D01*
X63469761Y-53098095D01*
X62804523Y-54186666D02*
X62804523Y-54912380D01*
X64074523Y-54549523D02*
X62804523Y-54549523D01*
D10*
X61398095Y-56165714D02*
X61436190Y-56203809D01*
X61550476Y-56241904D01*
X61626666Y-56241904D01*
X61740952Y-56203809D01*
X61817142Y-56127619D01*
X61855238Y-56051428D01*
X61893333Y-55899047D01*
X61893333Y-55784761D01*
X61855238Y-55632380D01*
X61817142Y-55556190D01*
X61740952Y-55480000D01*
X61626666Y-55441904D01*
X61550476Y-55441904D01*
X61436190Y-55480000D01*
X61398095Y-55518095D01*
X61169523Y-55441904D02*
X60712380Y-55441904D01*
X60940952Y-56241904D02*
X60940952Y-55441904D01*
X60483809Y-56203809D02*
X60369523Y-56241904D01*
X60179047Y-56241904D01*
X60102857Y-56203809D01*
X60064761Y-56165714D01*
X60026666Y-56089523D01*
X60026666Y-56013333D01*
X60064761Y-55937142D01*
X60102857Y-55899047D01*
X60179047Y-55860952D01*
X60331428Y-55822857D01*
X60407619Y-55784761D01*
X60445714Y-55746666D01*
X60483809Y-55670476D01*
X60483809Y-55594285D01*
X60445714Y-55518095D01*
X60407619Y-55480000D01*
X60331428Y-55441904D01*
X60140952Y-55441904D01*
X60026666Y-55480000D01*
X61969523Y-50399904D02*
X61969523Y-49599904D01*
X61779047Y-49599904D01*
X61664761Y-49638000D01*
X61588571Y-49714190D01*
X61550476Y-49790380D01*
X61512380Y-49942761D01*
X61512380Y-50057047D01*
X61550476Y-50209428D01*
X61588571Y-50285619D01*
X61664761Y-50361809D01*
X61779047Y-50399904D01*
X61969523Y-50399904D01*
X60712380Y-50323714D02*
X60750476Y-50361809D01*
X60864761Y-50399904D01*
X60940952Y-50399904D01*
X61055238Y-50361809D01*
X61131428Y-50285619D01*
X61169523Y-50209428D01*
X61207619Y-50057047D01*
X61207619Y-49942761D01*
X61169523Y-49790380D01*
X61131428Y-49714190D01*
X61055238Y-49638000D01*
X60940952Y-49599904D01*
X60864761Y-49599904D01*
X60750476Y-49638000D01*
X60712380Y-49676095D01*
X60369523Y-50399904D02*
X60369523Y-49599904D01*
X60179047Y-49599904D01*
X60064761Y-49638000D01*
X59988571Y-49714190D01*
X59950476Y-49790380D01*
X59912380Y-49942761D01*
X59912380Y-50057047D01*
X59950476Y-50209428D01*
X59988571Y-50285619D01*
X60064761Y-50361809D01*
X60179047Y-50399904D01*
X60369523Y-50399904D01*
D13*
X64074523Y-47322619D02*
X62804523Y-47322619D01*
X62804523Y-47625000D01*
X62865000Y-47806428D01*
X62985952Y-47927380D01*
X63106904Y-47987857D01*
X63348809Y-48048333D01*
X63530238Y-48048333D01*
X63772142Y-47987857D01*
X63893095Y-47927380D01*
X64014047Y-47806428D01*
X64074523Y-47625000D01*
X64074523Y-47322619D01*
X63227857Y-49136904D02*
X64074523Y-49136904D01*
X62744047Y-48834523D02*
X63651190Y-48532142D01*
X63651190Y-49318333D01*
D10*
X56794285Y-50399904D02*
X56794285Y-49599904D01*
X56603809Y-49599904D01*
X56489523Y-49638000D01*
X56413333Y-49714190D01*
X56375238Y-49790380D01*
X56337142Y-49942761D01*
X56337142Y-50057047D01*
X56375238Y-50209428D01*
X56413333Y-50285619D01*
X56489523Y-50361809D01*
X56603809Y-50399904D01*
X56794285Y-50399904D01*
X56108571Y-49599904D02*
X55651428Y-49599904D01*
X55880000Y-50399904D02*
X55880000Y-49599904D01*
X54927619Y-50399904D02*
X55194285Y-50018952D01*
X55384761Y-50399904D02*
X55384761Y-49599904D01*
X55080000Y-49599904D01*
X55003809Y-49638000D01*
X54965714Y-49676095D01*
X54927619Y-49752285D01*
X54927619Y-49866571D01*
X54965714Y-49942761D01*
X55003809Y-49980857D01*
X55080000Y-50018952D01*
X55384761Y-50018952D01*
X59410476Y-56241904D02*
X59410476Y-55441904D01*
X59220000Y-55441904D01*
X59105714Y-55480000D01*
X59029523Y-55556190D01*
X58991428Y-55632380D01*
X58953333Y-55784761D01*
X58953333Y-55899047D01*
X58991428Y-56051428D01*
X59029523Y-56127619D01*
X59105714Y-56203809D01*
X59220000Y-56241904D01*
X59410476Y-56241904D01*
X58648571Y-56203809D02*
X58534285Y-56241904D01*
X58343809Y-56241904D01*
X58267619Y-56203809D01*
X58229523Y-56165714D01*
X58191428Y-56089523D01*
X58191428Y-56013333D01*
X58229523Y-55937142D01*
X58267619Y-55899047D01*
X58343809Y-55860952D01*
X58496190Y-55822857D01*
X58572380Y-55784761D01*
X58610476Y-55746666D01*
X58648571Y-55670476D01*
X58648571Y-55594285D01*
X58610476Y-55518095D01*
X58572380Y-55480000D01*
X58496190Y-55441904D01*
X58305714Y-55441904D01*
X58191428Y-55480000D01*
X57391428Y-56241904D02*
X57658095Y-55860952D01*
X57848571Y-56241904D02*
X57848571Y-55441904D01*
X57543809Y-55441904D01*
X57467619Y-55480000D01*
X57429523Y-55518095D01*
X57391428Y-55594285D01*
X57391428Y-55708571D01*
X57429523Y-55784761D01*
X57467619Y-55822857D01*
X57543809Y-55860952D01*
X57848571Y-55860952D01*
D13*
X61534523Y-47322619D02*
X60264523Y-47322619D01*
X60264523Y-47625000D01*
X60325000Y-47806428D01*
X60445952Y-47927380D01*
X60566904Y-47987857D01*
X60808809Y-48048333D01*
X60990238Y-48048333D01*
X61232142Y-47987857D01*
X61353095Y-47927380D01*
X61474047Y-47806428D01*
X61534523Y-47625000D01*
X61534523Y-47322619D01*
X60264523Y-49197380D02*
X60264523Y-48592619D01*
X60869285Y-48532142D01*
X60808809Y-48592619D01*
X60748333Y-48713571D01*
X60748333Y-49015952D01*
X60808809Y-49136904D01*
X60869285Y-49197380D01*
X60990238Y-49257857D01*
X61292619Y-49257857D01*
X61413571Y-49197380D01*
X61474047Y-49136904D01*
X61534523Y-49015952D01*
X61534523Y-48713571D01*
X61474047Y-48592619D01*
X61413571Y-48532142D01*
X69154523Y-47322619D02*
X67884523Y-47322619D01*
X67884523Y-47625000D01*
X67945000Y-47806428D01*
X68065952Y-47927380D01*
X68186904Y-47987857D01*
X68428809Y-48048333D01*
X68610238Y-48048333D01*
X68852142Y-47987857D01*
X68973095Y-47927380D01*
X69094047Y-47806428D01*
X69154523Y-47625000D01*
X69154523Y-47322619D01*
X68005476Y-48532142D02*
X67945000Y-48592619D01*
X67884523Y-48713571D01*
X67884523Y-49015952D01*
X67945000Y-49136904D01*
X68005476Y-49197380D01*
X68126428Y-49257857D01*
X68247380Y-49257857D01*
X68428809Y-49197380D01*
X69154523Y-48471666D01*
X69154523Y-49257857D01*
D26*
X34162000Y-47021285D02*
X34162000Y-47384142D01*
X34379714Y-46948714D02*
X33617714Y-47202714D01*
X34379714Y-47456714D01*
X34379714Y-48146142D02*
X34016857Y-47892142D01*
X34379714Y-47710714D02*
X33617714Y-47710714D01*
X33617714Y-48001000D01*
X33654000Y-48073571D01*
X33690285Y-48109857D01*
X33762857Y-48146142D01*
X33871714Y-48146142D01*
X33944285Y-48109857D01*
X33980571Y-48073571D01*
X34016857Y-48001000D01*
X34016857Y-47710714D01*
X33980571Y-48472714D02*
X33980571Y-48726714D01*
X34379714Y-48835571D02*
X34379714Y-48472714D01*
X33617714Y-48472714D01*
X33617714Y-48835571D01*
X33980571Y-49416142D02*
X33980571Y-49162142D01*
X34379714Y-49162142D02*
X33617714Y-49162142D01*
X33617714Y-49525000D01*
D27*
X35820540Y-47480904D02*
X35772159Y-47384142D01*
X35772159Y-47239000D01*
X35820540Y-47093857D01*
X35917301Y-46997095D01*
X36014063Y-46948714D01*
X36207587Y-46900333D01*
X36352730Y-46900333D01*
X36546254Y-46948714D01*
X36643016Y-46997095D01*
X36739778Y-47093857D01*
X36788159Y-47239000D01*
X36788159Y-47335761D01*
X36739778Y-47480904D01*
X36691397Y-47529285D01*
X36352730Y-47529285D01*
X36352730Y-47335761D01*
X36788159Y-47964714D02*
X35772159Y-47964714D01*
X36788159Y-48545285D01*
X35772159Y-48545285D01*
X36788159Y-49029095D02*
X35772159Y-49029095D01*
X35772159Y-49271000D01*
X35820540Y-49416142D01*
X35917301Y-49512904D01*
X36014063Y-49561285D01*
X36207587Y-49609666D01*
X36352730Y-49609666D01*
X36546254Y-49561285D01*
X36643016Y-49512904D01*
X36739778Y-49416142D01*
X36788159Y-49271000D01*
X36788159Y-49029095D01*
X39328159Y-47021285D02*
X38312159Y-47021285D01*
X38312159Y-47263190D01*
X38360540Y-47408333D01*
X38457301Y-47505095D01*
X38554063Y-47553476D01*
X38747587Y-47601857D01*
X38892730Y-47601857D01*
X39086254Y-47553476D01*
X39183016Y-47505095D01*
X39279778Y-47408333D01*
X39328159Y-47263190D01*
X39328159Y-47021285D01*
X39328159Y-48569476D02*
X39328159Y-47988904D01*
X39328159Y-48279190D02*
X38312159Y-48279190D01*
X38457301Y-48182428D01*
X38554063Y-48085666D01*
X38602444Y-47988904D01*
X38312159Y-48908142D02*
X38312159Y-49537095D01*
X38699206Y-49198428D01*
X38699206Y-49343571D01*
X38747587Y-49440333D01*
X38795968Y-49488714D01*
X38892730Y-49537095D01*
X39134635Y-49537095D01*
X39231397Y-49488714D01*
X39279778Y-49440333D01*
X39328159Y-49343571D01*
X39328159Y-49053285D01*
X39279778Y-48956523D01*
X39231397Y-48908142D01*
X41868159Y-47021285D02*
X40852159Y-47021285D01*
X40852159Y-47263190D01*
X40900540Y-47408333D01*
X40997301Y-47505095D01*
X41094063Y-47553476D01*
X41287587Y-47601857D01*
X41432730Y-47601857D01*
X41626254Y-47553476D01*
X41723016Y-47505095D01*
X41819778Y-47408333D01*
X41868159Y-47263190D01*
X41868159Y-47021285D01*
X41868159Y-48569476D02*
X41868159Y-47988904D01*
X41868159Y-48279190D02*
X40852159Y-48279190D01*
X40997301Y-48182428D01*
X41094063Y-48085666D01*
X41142444Y-47988904D01*
X40948920Y-48956523D02*
X40900540Y-49004904D01*
X40852159Y-49101666D01*
X40852159Y-49343571D01*
X40900540Y-49440333D01*
X40948920Y-49488714D01*
X41045682Y-49537095D01*
X41142444Y-49537095D01*
X41287587Y-49488714D01*
X41868159Y-48908142D01*
X41868159Y-49537095D01*
X44394619Y-47021285D02*
X43378619Y-47021285D01*
X43378619Y-47263190D01*
X43427000Y-47408333D01*
X43523761Y-47505095D01*
X43620523Y-47553476D01*
X43814047Y-47601857D01*
X43959190Y-47601857D01*
X44152714Y-47553476D01*
X44249476Y-47505095D01*
X44346238Y-47408333D01*
X44394619Y-47263190D01*
X44394619Y-47021285D01*
X44394619Y-48569476D02*
X44394619Y-47988904D01*
X44394619Y-48279190D02*
X43378619Y-48279190D01*
X43523761Y-48182428D01*
X43620523Y-48085666D01*
X43668904Y-47988904D01*
X44394619Y-49537095D02*
X44394619Y-48956523D01*
X44394619Y-49246809D02*
X43378619Y-49246809D01*
X43523761Y-49150047D01*
X43620523Y-49053285D01*
X43668904Y-48956523D01*
X46919619Y-47021285D02*
X45903619Y-47021285D01*
X45903619Y-47263190D01*
X45952000Y-47408333D01*
X46048761Y-47505095D01*
X46145523Y-47553476D01*
X46339047Y-47601857D01*
X46484190Y-47601857D01*
X46677714Y-47553476D01*
X46774476Y-47505095D01*
X46871238Y-47408333D01*
X46919619Y-47263190D01*
X46919619Y-47021285D01*
X46919619Y-48569476D02*
X46919619Y-47988904D01*
X46919619Y-48279190D02*
X45903619Y-48279190D01*
X46048761Y-48182428D01*
X46145523Y-48085666D01*
X46193904Y-47988904D01*
X45903619Y-49198428D02*
X45903619Y-49295190D01*
X45952000Y-49391952D01*
X46000380Y-49440333D01*
X46097142Y-49488714D01*
X46290666Y-49537095D01*
X46532571Y-49537095D01*
X46726095Y-49488714D01*
X46822857Y-49440333D01*
X46871238Y-49391952D01*
X46919619Y-49295190D01*
X46919619Y-49198428D01*
X46871238Y-49101666D01*
X46822857Y-49053285D01*
X46726095Y-49004904D01*
X46532571Y-48956523D01*
X46290666Y-48956523D01*
X46097142Y-49004904D01*
X46000380Y-49053285D01*
X45952000Y-49101666D01*
X45903619Y-49198428D01*
D13*
X49730063Y-47317619D02*
X48460063Y-47317619D01*
X48460063Y-47620000D01*
X48520540Y-47801428D01*
X48641492Y-47922380D01*
X48762444Y-47982857D01*
X49004349Y-48043333D01*
X49185778Y-48043333D01*
X49427682Y-47982857D01*
X49548635Y-47922380D01*
X49669587Y-47801428D01*
X49730063Y-47620000D01*
X49730063Y-47317619D01*
X49730063Y-48648095D02*
X49730063Y-48890000D01*
X49669587Y-49010952D01*
X49609111Y-49071428D01*
X49427682Y-49192380D01*
X49185778Y-49252857D01*
X48701968Y-49252857D01*
X48581016Y-49192380D01*
X48520540Y-49131904D01*
X48460063Y-49010952D01*
X48460063Y-48769047D01*
X48520540Y-48648095D01*
X48581016Y-48587619D01*
X48701968Y-48527142D01*
X49004349Y-48527142D01*
X49125301Y-48587619D01*
X49185778Y-48648095D01*
X49246254Y-48769047D01*
X49246254Y-49010952D01*
X49185778Y-49131904D01*
X49125301Y-49192380D01*
X49004349Y-49252857D01*
X52267523Y-47292619D02*
X50997523Y-47292619D01*
X50997523Y-47595000D01*
X51058000Y-47776428D01*
X51178952Y-47897380D01*
X51299904Y-47957857D01*
X51541809Y-48018333D01*
X51723238Y-48018333D01*
X51965142Y-47957857D01*
X52086095Y-47897380D01*
X52207047Y-47776428D01*
X52267523Y-47595000D01*
X52267523Y-47292619D01*
X51541809Y-48744047D02*
X51481333Y-48623095D01*
X51420857Y-48562619D01*
X51299904Y-48502142D01*
X51239428Y-48502142D01*
X51118476Y-48562619D01*
X51058000Y-48623095D01*
X50997523Y-48744047D01*
X50997523Y-48985952D01*
X51058000Y-49106904D01*
X51118476Y-49167380D01*
X51239428Y-49227857D01*
X51299904Y-49227857D01*
X51420857Y-49167380D01*
X51481333Y-49106904D01*
X51541809Y-48985952D01*
X51541809Y-48744047D01*
X51602285Y-48623095D01*
X51662761Y-48562619D01*
X51783714Y-48502142D01*
X52025619Y-48502142D01*
X52146571Y-48562619D01*
X52207047Y-48623095D01*
X52267523Y-48744047D01*
X52267523Y-48985952D01*
X52207047Y-49106904D01*
X52146571Y-49167380D01*
X52025619Y-49227857D01*
X51783714Y-49227857D01*
X51662761Y-49167380D01*
X51602285Y-49106904D01*
X51541809Y-48985952D01*
X79300500Y-88063571D02*
X79300500Y-88607857D01*
X79627071Y-87954714D02*
X78484071Y-88335714D01*
X79627071Y-88716714D01*
X78484071Y-88988857D02*
X78484071Y-89750857D01*
X79627071Y-89261000D01*
X76263500Y-88063571D02*
X76263500Y-88607857D01*
X76590071Y-87954714D02*
X75447071Y-88335714D01*
X76590071Y-88716714D01*
X75447071Y-89587571D02*
X75447071Y-89369857D01*
X75501500Y-89261000D01*
X75555928Y-89206571D01*
X75719214Y-89097714D01*
X75936928Y-89043285D01*
X76372357Y-89043285D01*
X76481214Y-89097714D01*
X76535642Y-89152142D01*
X76590071Y-89261000D01*
X76590071Y-89478714D01*
X76535642Y-89587571D01*
X76481214Y-89642000D01*
X76372357Y-89696428D01*
X76100214Y-89696428D01*
X75991357Y-89642000D01*
X75936928Y-89587571D01*
X75882500Y-89478714D01*
X75882500Y-89261000D01*
X75936928Y-89152142D01*
X75991357Y-89097714D01*
X76100214Y-89043285D01*
X73871666Y-87472857D02*
X73871666Y-88077619D01*
X74234523Y-87351904D02*
X72964523Y-87775238D01*
X74234523Y-88198571D01*
X72964523Y-89226666D02*
X72964523Y-88621904D01*
X73569285Y-88561428D01*
X73508809Y-88621904D01*
X73448333Y-88742857D01*
X73448333Y-89045238D01*
X73508809Y-89166190D01*
X73569285Y-89226666D01*
X73690238Y-89287142D01*
X73992619Y-89287142D01*
X74113571Y-89226666D01*
X74174047Y-89166190D01*
X74234523Y-89045238D01*
X74234523Y-88742857D01*
X74174047Y-88621904D01*
X74113571Y-88561428D01*
X71321666Y-87472857D02*
X71321666Y-88077619D01*
X71684523Y-87351904D02*
X70414523Y-87775238D01*
X71684523Y-88198571D01*
X70837857Y-89166190D02*
X71684523Y-89166190D01*
X70354047Y-88863809D02*
X71261190Y-88561428D01*
X71261190Y-89347619D01*
X68791666Y-87472857D02*
X68791666Y-88077619D01*
X69154523Y-87351904D02*
X67884523Y-87775238D01*
X69154523Y-88198571D01*
X67884523Y-88500952D02*
X67884523Y-89287142D01*
X68368333Y-88863809D01*
X68368333Y-89045238D01*
X68428809Y-89166190D01*
X68489285Y-89226666D01*
X68610238Y-89287142D01*
X68912619Y-89287142D01*
X69033571Y-89226666D01*
X69094047Y-89166190D01*
X69154523Y-89045238D01*
X69154523Y-88682380D01*
X69094047Y-88561428D01*
X69033571Y-88500952D01*
X66221666Y-87472857D02*
X66221666Y-88077619D01*
X66584523Y-87351904D02*
X65314523Y-87775238D01*
X66584523Y-88198571D01*
X65435476Y-88561428D02*
X65375000Y-88621904D01*
X65314523Y-88742857D01*
X65314523Y-89045238D01*
X65375000Y-89166190D01*
X65435476Y-89226666D01*
X65556428Y-89287142D01*
X65677380Y-89287142D01*
X65858809Y-89226666D01*
X66584523Y-88500952D01*
X66584523Y-89287142D01*
X63711666Y-87472857D02*
X63711666Y-88077619D01*
X64074523Y-87351904D02*
X62804523Y-87775238D01*
X64074523Y-88198571D01*
X64074523Y-89287142D02*
X64074523Y-88561428D01*
X64074523Y-88924285D02*
X62804523Y-88924285D01*
X62985952Y-88803333D01*
X63106904Y-88682380D01*
X63167380Y-88561428D01*
X61171666Y-87472857D02*
X61171666Y-88077619D01*
X61534523Y-87351904D02*
X60264523Y-87775238D01*
X61534523Y-88198571D01*
X60264523Y-88863809D02*
X60264523Y-88984761D01*
X60325000Y-89105714D01*
X60385476Y-89166190D01*
X60506428Y-89226666D01*
X60748333Y-89287142D01*
X61050714Y-89287142D01*
X61292619Y-89226666D01*
X61413571Y-89166190D01*
X61474047Y-89105714D01*
X61534523Y-88984761D01*
X61534523Y-88863809D01*
X61474047Y-88742857D01*
X61413571Y-88682380D01*
X61292619Y-88621904D01*
X61050714Y-88561428D01*
X60748333Y-88561428D01*
X60506428Y-88621904D01*
X60385476Y-88682380D01*
X60325000Y-88742857D01*
X60264523Y-88863809D01*
D26*
X72076571Y-86487000D02*
X71713714Y-86487000D01*
X72149142Y-86704714D02*
X71895142Y-85942714D01*
X71641142Y-86704714D01*
X71387142Y-86704714D02*
X71387142Y-85942714D01*
X70951714Y-86704714D01*
X70951714Y-85942714D01*
X70625142Y-86487000D02*
X70262285Y-86487000D01*
X70697714Y-86704714D02*
X70443714Y-85942714D01*
X70189714Y-86704714D01*
X69572857Y-86704714D02*
X69935714Y-86704714D01*
X69935714Y-85942714D01*
X69173714Y-85942714D02*
X69028571Y-85942714D01*
X68956000Y-85979000D01*
X68883428Y-86051571D01*
X68847142Y-86196714D01*
X68847142Y-86450714D01*
X68883428Y-86595857D01*
X68956000Y-86668428D01*
X69028571Y-86704714D01*
X69173714Y-86704714D01*
X69246285Y-86668428D01*
X69318857Y-86595857D01*
X69355142Y-86450714D01*
X69355142Y-86196714D01*
X69318857Y-86051571D01*
X69246285Y-85979000D01*
X69173714Y-85942714D01*
X68121428Y-85979000D02*
X68194000Y-85942714D01*
X68302857Y-85942714D01*
X68411714Y-85979000D01*
X68484285Y-86051571D01*
X68520571Y-86124142D01*
X68556857Y-86269285D01*
X68556857Y-86378142D01*
X68520571Y-86523285D01*
X68484285Y-86595857D01*
X68411714Y-86668428D01*
X68302857Y-86704714D01*
X68230285Y-86704714D01*
X68121428Y-86668428D01*
X68085142Y-86632142D01*
X68085142Y-86378142D01*
X68230285Y-86378142D01*
X67178000Y-86704714D02*
X67178000Y-85942714D01*
X66815142Y-86704714D02*
X66815142Y-85942714D01*
X66379714Y-86704714D01*
X66379714Y-85942714D01*
X63443714Y-86487000D02*
X63080857Y-86487000D01*
X63516285Y-86704714D02*
X63262285Y-85942714D01*
X63008285Y-86704714D01*
X62318857Y-86704714D02*
X62572857Y-86341857D01*
X62754285Y-86704714D02*
X62754285Y-85942714D01*
X62464000Y-85942714D01*
X62391428Y-85979000D01*
X62355142Y-86015285D01*
X62318857Y-86087857D01*
X62318857Y-86196714D01*
X62355142Y-86269285D01*
X62391428Y-86305571D01*
X62464000Y-86341857D01*
X62754285Y-86341857D01*
X61992285Y-86305571D02*
X61738285Y-86305571D01*
X61629428Y-86704714D02*
X61992285Y-86704714D01*
X61992285Y-85942714D01*
X61629428Y-85942714D01*
X61048857Y-86305571D02*
X61302857Y-86305571D01*
X61302857Y-86704714D02*
X61302857Y-85942714D01*
X60940000Y-85942714D01*
X51119857Y-86323714D02*
X51119857Y-85561714D01*
X50829571Y-85561714D01*
X50757000Y-85598000D01*
X50720714Y-85634285D01*
X50684428Y-85706857D01*
X50684428Y-85815714D01*
X50720714Y-85888285D01*
X50757000Y-85924571D01*
X50829571Y-85960857D01*
X51119857Y-85960857D01*
X50212714Y-85561714D02*
X50067571Y-85561714D01*
X49995000Y-85598000D01*
X49922428Y-85670571D01*
X49886142Y-85815714D01*
X49886142Y-86069714D01*
X49922428Y-86214857D01*
X49995000Y-86287428D01*
X50067571Y-86323714D01*
X50212714Y-86323714D01*
X50285285Y-86287428D01*
X50357857Y-86214857D01*
X50394142Y-86069714D01*
X50394142Y-85815714D01*
X50357857Y-85670571D01*
X50285285Y-85598000D01*
X50212714Y-85561714D01*
X49632142Y-85561714D02*
X49450714Y-86323714D01*
X49305571Y-85779428D01*
X49160428Y-86323714D01*
X48979000Y-85561714D01*
X48688714Y-85924571D02*
X48434714Y-85924571D01*
X48325857Y-86323714D02*
X48688714Y-86323714D01*
X48688714Y-85561714D01*
X48325857Y-85561714D01*
X47563857Y-86323714D02*
X47817857Y-85960857D01*
X47999285Y-86323714D02*
X47999285Y-85561714D01*
X47709000Y-85561714D01*
X47636428Y-85598000D01*
X47600142Y-85634285D01*
X47563857Y-85706857D01*
X47563857Y-85815714D01*
X47600142Y-85888285D01*
X47636428Y-85924571D01*
X47709000Y-85960857D01*
X47999285Y-85960857D01*
D27*
X55282979Y-87267238D02*
X56298979Y-87605904D01*
X55282979Y-87944571D01*
X56298979Y-88283238D02*
X55282979Y-88283238D01*
X56298979Y-88767047D02*
X55282979Y-88767047D01*
X56298979Y-89347619D01*
X55282979Y-89347619D01*
X52952000Y-87405904D02*
X52903619Y-87309142D01*
X52903619Y-87164000D01*
X52952000Y-87018857D01*
X53048761Y-86922095D01*
X53145523Y-86873714D01*
X53339047Y-86825333D01*
X53484190Y-86825333D01*
X53677714Y-86873714D01*
X53774476Y-86922095D01*
X53871238Y-87018857D01*
X53919619Y-87164000D01*
X53919619Y-87260761D01*
X53871238Y-87405904D01*
X53822857Y-87454285D01*
X53484190Y-87454285D01*
X53484190Y-87260761D01*
X53919619Y-87889714D02*
X52903619Y-87889714D01*
X53919619Y-88470285D01*
X52903619Y-88470285D01*
X53919619Y-88954095D02*
X52903619Y-88954095D01*
X52903619Y-89196000D01*
X52952000Y-89341142D01*
X53048761Y-89437904D01*
X53145523Y-89486285D01*
X53339047Y-89534666D01*
X53484190Y-89534666D01*
X53677714Y-89486285D01*
X53774476Y-89437904D01*
X53871238Y-89341142D01*
X53919619Y-89196000D01*
X53919619Y-88954095D01*
X50452000Y-87305904D02*
X50403619Y-87209142D01*
X50403619Y-87064000D01*
X50452000Y-86918857D01*
X50548761Y-86822095D01*
X50645523Y-86773714D01*
X50839047Y-86725333D01*
X50984190Y-86725333D01*
X51177714Y-86773714D01*
X51274476Y-86822095D01*
X51371238Y-86918857D01*
X51419619Y-87064000D01*
X51419619Y-87160761D01*
X51371238Y-87305904D01*
X51322857Y-87354285D01*
X50984190Y-87354285D01*
X50984190Y-87160761D01*
X51419619Y-87789714D02*
X50403619Y-87789714D01*
X51419619Y-88370285D01*
X50403619Y-88370285D01*
X51419619Y-88854095D02*
X50403619Y-88854095D01*
X50403619Y-89096000D01*
X50452000Y-89241142D01*
X50548761Y-89337904D01*
X50645523Y-89386285D01*
X50839047Y-89434666D01*
X50984190Y-89434666D01*
X51177714Y-89386285D01*
X51274476Y-89337904D01*
X51371238Y-89241142D01*
X51419619Y-89096000D01*
X51419619Y-88854095D01*
X47828079Y-88436476D02*
X47828079Y-87952666D01*
X48311888Y-87904285D01*
X48263507Y-87952666D01*
X48215126Y-88049428D01*
X48215126Y-88291333D01*
X48263507Y-88388095D01*
X48311888Y-88436476D01*
X48408650Y-88484857D01*
X48650555Y-88484857D01*
X48747317Y-88436476D01*
X48795698Y-88388095D01*
X48844079Y-88291333D01*
X48844079Y-88049428D01*
X48795698Y-87952666D01*
X48747317Y-87904285D01*
X47828079Y-88775142D02*
X48844079Y-89113809D01*
X47828079Y-89452476D01*
X45163619Y-86380190D02*
X45163619Y-87009142D01*
X45550666Y-86670476D01*
X45550666Y-86815619D01*
X45599047Y-86912380D01*
X45647428Y-86960761D01*
X45744190Y-87009142D01*
X45986095Y-87009142D01*
X46082857Y-86960761D01*
X46131238Y-86912380D01*
X46179619Y-86815619D01*
X46179619Y-86525333D01*
X46131238Y-86428571D01*
X46082857Y-86380190D01*
X46082857Y-87444571D02*
X46131238Y-87492952D01*
X46179619Y-87444571D01*
X46131238Y-87396190D01*
X46082857Y-87444571D01*
X46179619Y-87444571D01*
X45163619Y-87831619D02*
X45163619Y-88460571D01*
X45550666Y-88121904D01*
X45550666Y-88267047D01*
X45599047Y-88363809D01*
X45647428Y-88412190D01*
X45744190Y-88460571D01*
X45986095Y-88460571D01*
X46082857Y-88412190D01*
X46131238Y-88363809D01*
X46179619Y-88267047D01*
X46179619Y-87976761D01*
X46131238Y-87880000D01*
X46082857Y-87831619D01*
X45163619Y-88750857D02*
X46179619Y-89089523D01*
X45163619Y-89428190D01*
X43639619Y-87708619D02*
X43155809Y-87369952D01*
X43639619Y-87128047D02*
X42623619Y-87128047D01*
X42623619Y-87515095D01*
X42672000Y-87611857D01*
X42720380Y-87660238D01*
X42817142Y-87708619D01*
X42962285Y-87708619D01*
X43059047Y-87660238D01*
X43107428Y-87611857D01*
X43155809Y-87515095D01*
X43155809Y-87128047D01*
X43591238Y-88095666D02*
X43639619Y-88240809D01*
X43639619Y-88482714D01*
X43591238Y-88579476D01*
X43542857Y-88627857D01*
X43446095Y-88676238D01*
X43349333Y-88676238D01*
X43252571Y-88627857D01*
X43204190Y-88579476D01*
X43155809Y-88482714D01*
X43107428Y-88289190D01*
X43059047Y-88192428D01*
X43010666Y-88144047D01*
X42913904Y-88095666D01*
X42817142Y-88095666D01*
X42720380Y-88144047D01*
X42672000Y-88192428D01*
X42623619Y-88289190D01*
X42623619Y-88531095D01*
X42672000Y-88676238D01*
X42623619Y-88966523D02*
X42623619Y-89547095D01*
X43639619Y-89256809D02*
X42623619Y-89256809D01*
D13*
X71694523Y-47322619D02*
X70424523Y-47322619D01*
X70424523Y-47625000D01*
X70485000Y-47806428D01*
X70605952Y-47927380D01*
X70726904Y-47987857D01*
X70968809Y-48048333D01*
X71150238Y-48048333D01*
X71392142Y-47987857D01*
X71513095Y-47927380D01*
X71634047Y-47806428D01*
X71694523Y-47625000D01*
X71694523Y-47322619D01*
X71694523Y-49257857D02*
X71694523Y-48532142D01*
X71694523Y-48895000D02*
X70424523Y-48895000D01*
X70605952Y-48774047D01*
X70726904Y-48653095D01*
X70787380Y-48532142D01*
X58867523Y-47322619D02*
X57597523Y-47322619D01*
X57597523Y-47625000D01*
X57658000Y-47806428D01*
X57778952Y-47927380D01*
X57899904Y-47987857D01*
X58141809Y-48048333D01*
X58323238Y-48048333D01*
X58565142Y-47987857D01*
X58686095Y-47927380D01*
X58807047Y-47806428D01*
X58867523Y-47625000D01*
X58867523Y-47322619D01*
X57597523Y-49136904D02*
X57597523Y-48895000D01*
X57658000Y-48774047D01*
X57718476Y-48713571D01*
X57899904Y-48592619D01*
X58141809Y-48532142D01*
X58625619Y-48532142D01*
X58746571Y-48592619D01*
X58807047Y-48653095D01*
X58867523Y-48774047D01*
X58867523Y-49015952D01*
X58807047Y-49136904D01*
X58746571Y-49197380D01*
X58625619Y-49257857D01*
X58323238Y-49257857D01*
X58202285Y-49197380D01*
X58141809Y-49136904D01*
X58081333Y-49015952D01*
X58081333Y-48774047D01*
X58141809Y-48653095D01*
X58202285Y-48592619D01*
X58323238Y-48532142D01*
X56327523Y-47322619D02*
X55057523Y-47322619D01*
X55057523Y-47625000D01*
X55118000Y-47806428D01*
X55238952Y-47927380D01*
X55359904Y-47987857D01*
X55601809Y-48048333D01*
X55783238Y-48048333D01*
X56025142Y-47987857D01*
X56146095Y-47927380D01*
X56267047Y-47806428D01*
X56327523Y-47625000D01*
X56327523Y-47322619D01*
X55057523Y-48471666D02*
X55057523Y-49318333D01*
X56327523Y-48774047D01*
D10*
X94551428Y-68713333D02*
X94170476Y-68713333D01*
X94627619Y-68941904D02*
X94360952Y-68141904D01*
X94094285Y-68941904D01*
X93713333Y-68484761D02*
X93789523Y-68446666D01*
X93827619Y-68408571D01*
X93865714Y-68332380D01*
X93865714Y-68294285D01*
X93827619Y-68218095D01*
X93789523Y-68180000D01*
X93713333Y-68141904D01*
X93560952Y-68141904D01*
X93484761Y-68180000D01*
X93446666Y-68218095D01*
X93408571Y-68294285D01*
X93408571Y-68332380D01*
X93446666Y-68408571D01*
X93484761Y-68446666D01*
X93560952Y-68484761D01*
X93713333Y-68484761D01*
X93789523Y-68522857D01*
X93827619Y-68560952D01*
X93865714Y-68637142D01*
X93865714Y-68789523D01*
X93827619Y-68865714D01*
X93789523Y-68903809D01*
X93713333Y-68941904D01*
X93560952Y-68941904D01*
X93484761Y-68903809D01*
X93446666Y-68865714D01*
X93408571Y-68789523D01*
X93408571Y-68637142D01*
X93446666Y-68560952D01*
X93484761Y-68522857D01*
X93560952Y-68484761D01*
X94551428Y-71253333D02*
X94170476Y-71253333D01*
X94627619Y-71481904D02*
X94360952Y-70681904D01*
X94094285Y-71481904D01*
X93789523Y-71481904D02*
X93637142Y-71481904D01*
X93560952Y-71443809D01*
X93522857Y-71405714D01*
X93446666Y-71291428D01*
X93408571Y-71139047D01*
X93408571Y-70834285D01*
X93446666Y-70758095D01*
X93484761Y-70720000D01*
X93560952Y-70681904D01*
X93713333Y-70681904D01*
X93789523Y-70720000D01*
X93827619Y-70758095D01*
X93865714Y-70834285D01*
X93865714Y-71024761D01*
X93827619Y-71100952D01*
X93789523Y-71139047D01*
X93713333Y-71177142D01*
X93560952Y-71177142D01*
X93484761Y-71139047D01*
X93446666Y-71100952D01*
X93408571Y-71024761D01*
X95313380Y-73793333D02*
X94932428Y-73793333D01*
X95389571Y-74021904D02*
X95122904Y-73221904D01*
X94856238Y-74021904D01*
X94170523Y-74021904D02*
X94627666Y-74021904D01*
X94399095Y-74021904D02*
X94399095Y-73221904D01*
X94475285Y-73336190D01*
X94551476Y-73412380D01*
X94627666Y-73450476D01*
X93675285Y-73221904D02*
X93599095Y-73221904D01*
X93522904Y-73260000D01*
X93484809Y-73298095D01*
X93446714Y-73374285D01*
X93408619Y-73526666D01*
X93408619Y-73717142D01*
X93446714Y-73869523D01*
X93484809Y-73945714D01*
X93522904Y-73983809D01*
X93599095Y-74021904D01*
X93675285Y-74021904D01*
X93751476Y-73983809D01*
X93789571Y-73945714D01*
X93827666Y-73869523D01*
X93865761Y-73717142D01*
X93865761Y-73526666D01*
X93827666Y-73374285D01*
X93789571Y-73298095D01*
X93751476Y-73260000D01*
X93675285Y-73221904D01*
X95313380Y-76333333D02*
X94932428Y-76333333D01*
X95389571Y-76561904D02*
X95122904Y-75761904D01*
X94856238Y-76561904D01*
X94170523Y-76561904D02*
X94627666Y-76561904D01*
X94399095Y-76561904D02*
X94399095Y-75761904D01*
X94475285Y-75876190D01*
X94551476Y-75952380D01*
X94627666Y-75990476D01*
X93408619Y-76561904D02*
X93865761Y-76561904D01*
X93637190Y-76561904D02*
X93637190Y-75761904D01*
X93713380Y-75876190D01*
X93789571Y-75952380D01*
X93865761Y-75990476D01*
X95313380Y-78873333D02*
X94932428Y-78873333D01*
X95389571Y-79101904D02*
X95122904Y-78301904D01*
X94856238Y-79101904D01*
X94170523Y-79101904D02*
X94627666Y-79101904D01*
X94399095Y-79101904D02*
X94399095Y-78301904D01*
X94475285Y-78416190D01*
X94551476Y-78492380D01*
X94627666Y-78530476D01*
X93865761Y-78378095D02*
X93827666Y-78340000D01*
X93751476Y-78301904D01*
X93561000Y-78301904D01*
X93484809Y-78340000D01*
X93446714Y-78378095D01*
X93408619Y-78454285D01*
X93408619Y-78530476D01*
X93446714Y-78644761D01*
X93903857Y-79101904D01*
X93408619Y-79101904D01*
X95313380Y-81413333D02*
X94932428Y-81413333D01*
X95389571Y-81641904D02*
X95122904Y-80841904D01*
X94856238Y-81641904D01*
X94170523Y-81641904D02*
X94627666Y-81641904D01*
X94399095Y-81641904D02*
X94399095Y-80841904D01*
X94475285Y-80956190D01*
X94551476Y-81032380D01*
X94627666Y-81070476D01*
X93903857Y-80841904D02*
X93408619Y-80841904D01*
X93675285Y-81146666D01*
X93561000Y-81146666D01*
X93484809Y-81184761D01*
X93446714Y-81222857D01*
X93408619Y-81299047D01*
X93408619Y-81489523D01*
X93446714Y-81565714D01*
X93484809Y-81603809D01*
X93561000Y-81641904D01*
X93789571Y-81641904D01*
X93865761Y-81603809D01*
X93903857Y-81565714D01*
X95313380Y-83953333D02*
X94932428Y-83953333D01*
X95389571Y-84181904D02*
X95122904Y-83381904D01*
X94856238Y-84181904D01*
X94170523Y-84181904D02*
X94627666Y-84181904D01*
X94399095Y-84181904D02*
X94399095Y-83381904D01*
X94475285Y-83496190D01*
X94551476Y-83572380D01*
X94627666Y-83610476D01*
X93484809Y-83648571D02*
X93484809Y-84181904D01*
X93675285Y-83343809D02*
X93865761Y-83915238D01*
X93370523Y-83915238D01*
X95313380Y-86493333D02*
X94932428Y-86493333D01*
X95389571Y-86721904D02*
X95122904Y-85921904D01*
X94856238Y-86721904D01*
X94170523Y-86721904D02*
X94627666Y-86721904D01*
X94399095Y-86721904D02*
X94399095Y-85921904D01*
X94475285Y-86036190D01*
X94551476Y-86112380D01*
X94627666Y-86150476D01*
X93446714Y-85921904D02*
X93827666Y-85921904D01*
X93865761Y-86302857D01*
X93827666Y-86264761D01*
X93751476Y-86226666D01*
X93561000Y-86226666D01*
X93484809Y-86264761D01*
X93446714Y-86302857D01*
X93408619Y-86379047D01*
X93408619Y-86569523D01*
X93446714Y-86645714D01*
X93484809Y-86683809D01*
X93561000Y-86721904D01*
X93751476Y-86721904D01*
X93827666Y-86683809D01*
X93865761Y-86645714D01*
X79013095Y-52730476D02*
X78975000Y-52768571D01*
X78936904Y-52844761D01*
X78936904Y-53035238D01*
X78975000Y-53111428D01*
X79013095Y-53149523D01*
X79089285Y-53187619D01*
X79165476Y-53187619D01*
X79279761Y-53149523D01*
X79736904Y-52692380D01*
X79736904Y-53187619D01*
X79203571Y-53873333D02*
X79736904Y-53873333D01*
X78898809Y-53682857D02*
X79470238Y-53492380D01*
X79470238Y-53987619D01*
X79013095Y-60350476D02*
X78975000Y-60388571D01*
X78936904Y-60464761D01*
X78936904Y-60655238D01*
X78975000Y-60731428D01*
X79013095Y-60769523D01*
X79089285Y-60807619D01*
X79165476Y-60807619D01*
X79279761Y-60769523D01*
X79736904Y-60312380D01*
X79736904Y-60807619D01*
X78936904Y-61074285D02*
X78936904Y-61607619D01*
X79736904Y-61264761D01*
X78936904Y-67932380D02*
X78936904Y-68427619D01*
X79241666Y-68160952D01*
X79241666Y-68275238D01*
X79279761Y-68351428D01*
X79317857Y-68389523D01*
X79394047Y-68427619D01*
X79584523Y-68427619D01*
X79660714Y-68389523D01*
X79698809Y-68351428D01*
X79736904Y-68275238D01*
X79736904Y-68046666D01*
X79698809Y-67970476D01*
X79660714Y-67932380D01*
X78936904Y-68922857D02*
X78936904Y-68999047D01*
X78975000Y-69075238D01*
X79013095Y-69113333D01*
X79089285Y-69151428D01*
X79241666Y-69189523D01*
X79432142Y-69189523D01*
X79584523Y-69151428D01*
X79660714Y-69113333D01*
X79698809Y-69075238D01*
X79736904Y-68999047D01*
X79736904Y-68922857D01*
X79698809Y-68846666D01*
X79660714Y-68808571D01*
X79584523Y-68770476D01*
X79432142Y-68732380D01*
X79241666Y-68732380D01*
X79089285Y-68770476D01*
X79013095Y-68808571D01*
X78975000Y-68846666D01*
X78936904Y-68922857D01*
X78936904Y-70472380D02*
X78936904Y-70967619D01*
X79241666Y-70700952D01*
X79241666Y-70815238D01*
X79279761Y-70891428D01*
X79317857Y-70929523D01*
X79394047Y-70967619D01*
X79584523Y-70967619D01*
X79660714Y-70929523D01*
X79698809Y-70891428D01*
X79736904Y-70815238D01*
X79736904Y-70586666D01*
X79698809Y-70510476D01*
X79660714Y-70472380D01*
X79736904Y-71729523D02*
X79736904Y-71272380D01*
X79736904Y-71500952D02*
X78936904Y-71500952D01*
X79051190Y-71424761D01*
X79127380Y-71348571D01*
X79165476Y-71272380D01*
X78936904Y-73012380D02*
X78936904Y-73507619D01*
X79241666Y-73240952D01*
X79241666Y-73355238D01*
X79279761Y-73431428D01*
X79317857Y-73469523D01*
X79394047Y-73507619D01*
X79584523Y-73507619D01*
X79660714Y-73469523D01*
X79698809Y-73431428D01*
X79736904Y-73355238D01*
X79736904Y-73126666D01*
X79698809Y-73050476D01*
X79660714Y-73012380D01*
X79013095Y-73812380D02*
X78975000Y-73850476D01*
X78936904Y-73926666D01*
X78936904Y-74117142D01*
X78975000Y-74193333D01*
X79013095Y-74231428D01*
X79089285Y-74269523D01*
X79165476Y-74269523D01*
X79279761Y-74231428D01*
X79736904Y-73774285D01*
X79736904Y-74269523D01*
X78936904Y-75552380D02*
X78936904Y-76047619D01*
X79241666Y-75780952D01*
X79241666Y-75895238D01*
X79279761Y-75971428D01*
X79317857Y-76009523D01*
X79394047Y-76047619D01*
X79584523Y-76047619D01*
X79660714Y-76009523D01*
X79698809Y-75971428D01*
X79736904Y-75895238D01*
X79736904Y-75666666D01*
X79698809Y-75590476D01*
X79660714Y-75552380D01*
X78936904Y-76314285D02*
X78936904Y-76809523D01*
X79241666Y-76542857D01*
X79241666Y-76657142D01*
X79279761Y-76733333D01*
X79317857Y-76771428D01*
X79394047Y-76809523D01*
X79584523Y-76809523D01*
X79660714Y-76771428D01*
X79698809Y-76733333D01*
X79736904Y-76657142D01*
X79736904Y-76428571D01*
X79698809Y-76352380D01*
X79660714Y-76314285D01*
X78936904Y-78092380D02*
X78936904Y-78587619D01*
X79241666Y-78320952D01*
X79241666Y-78435238D01*
X79279761Y-78511428D01*
X79317857Y-78549523D01*
X79394047Y-78587619D01*
X79584523Y-78587619D01*
X79660714Y-78549523D01*
X79698809Y-78511428D01*
X79736904Y-78435238D01*
X79736904Y-78206666D01*
X79698809Y-78130476D01*
X79660714Y-78092380D01*
X79203571Y-79273333D02*
X79736904Y-79273333D01*
X78898809Y-79082857D02*
X79470238Y-78892380D01*
X79470238Y-79387619D01*
X79444904Y-85712380D02*
X79444904Y-86207619D01*
X79749666Y-85940952D01*
X79749666Y-86055238D01*
X79787761Y-86131428D01*
X79825857Y-86169523D01*
X79902047Y-86207619D01*
X80092523Y-86207619D01*
X80168714Y-86169523D01*
X80206809Y-86131428D01*
X80244904Y-86055238D01*
X80244904Y-85826666D01*
X80206809Y-85750476D01*
X80168714Y-85712380D01*
X79444904Y-86474285D02*
X79444904Y-87007619D01*
X80244904Y-86664761D01*
X85413904Y-47612380D02*
X85413904Y-48107619D01*
X85718666Y-47840952D01*
X85718666Y-47955238D01*
X85756761Y-48031428D01*
X85794857Y-48069523D01*
X85871047Y-48107619D01*
X86061523Y-48107619D01*
X86137714Y-48069523D01*
X86175809Y-48031428D01*
X86213904Y-47955238D01*
X86213904Y-47726666D01*
X86175809Y-47650476D01*
X86137714Y-47612380D01*
X85756761Y-48564761D02*
X85718666Y-48488571D01*
X85680571Y-48450476D01*
X85604380Y-48412380D01*
X85566285Y-48412380D01*
X85490095Y-48450476D01*
X85452000Y-48488571D01*
X85413904Y-48564761D01*
X85413904Y-48717142D01*
X85452000Y-48793333D01*
X85490095Y-48831428D01*
X85566285Y-48869523D01*
X85604380Y-48869523D01*
X85680571Y-48831428D01*
X85718666Y-48793333D01*
X85756761Y-48717142D01*
X85756761Y-48564761D01*
X85794857Y-48488571D01*
X85832952Y-48450476D01*
X85909142Y-48412380D01*
X86061523Y-48412380D01*
X86137714Y-48450476D01*
X86175809Y-48488571D01*
X86213904Y-48564761D01*
X86213904Y-48717142D01*
X86175809Y-48793333D01*
X86137714Y-48831428D01*
X86061523Y-48869523D01*
X85909142Y-48869523D01*
X85832952Y-48831428D01*
X85794857Y-48793333D01*
X85756761Y-48717142D01*
X85680571Y-68351428D02*
X86213904Y-68351428D01*
X85375809Y-68160952D02*
X85947238Y-67970476D01*
X85947238Y-68465714D01*
X85413904Y-69113333D02*
X85413904Y-68960952D01*
X85452000Y-68884761D01*
X85490095Y-68846666D01*
X85604380Y-68770476D01*
X85756761Y-68732380D01*
X86061523Y-68732380D01*
X86137714Y-68770476D01*
X86175809Y-68808571D01*
X86213904Y-68884761D01*
X86213904Y-69037142D01*
X86175809Y-69113333D01*
X86137714Y-69151428D01*
X86061523Y-69189523D01*
X85871047Y-69189523D01*
X85794857Y-69151428D01*
X85756761Y-69113333D01*
X85718666Y-69037142D01*
X85718666Y-68884761D01*
X85756761Y-68808571D01*
X85794857Y-68770476D01*
X85871047Y-68732380D01*
X85680571Y-73431428D02*
X86213904Y-73431428D01*
X85375809Y-73240952D02*
X85947238Y-73050476D01*
X85947238Y-73545714D01*
X85756761Y-73964761D02*
X85718666Y-73888571D01*
X85680571Y-73850476D01*
X85604380Y-73812380D01*
X85566285Y-73812380D01*
X85490095Y-73850476D01*
X85452000Y-73888571D01*
X85413904Y-73964761D01*
X85413904Y-74117142D01*
X85452000Y-74193333D01*
X85490095Y-74231428D01*
X85566285Y-74269523D01*
X85604380Y-74269523D01*
X85680571Y-74231428D01*
X85718666Y-74193333D01*
X85756761Y-74117142D01*
X85756761Y-73964761D01*
X85794857Y-73888571D01*
X85832952Y-73850476D01*
X85909142Y-73812380D01*
X86061523Y-73812380D01*
X86137714Y-73850476D01*
X86175809Y-73888571D01*
X86213904Y-73964761D01*
X86213904Y-74117142D01*
X86175809Y-74193333D01*
X86137714Y-74231428D01*
X86061523Y-74269523D01*
X85909142Y-74269523D01*
X85832952Y-74231428D01*
X85794857Y-74193333D01*
X85756761Y-74117142D01*
X85413904Y-78549523D02*
X85413904Y-78168571D01*
X85794857Y-78130476D01*
X85756761Y-78168571D01*
X85718666Y-78244761D01*
X85718666Y-78435238D01*
X85756761Y-78511428D01*
X85794857Y-78549523D01*
X85871047Y-78587619D01*
X86061523Y-78587619D01*
X86137714Y-78549523D01*
X86175809Y-78511428D01*
X86213904Y-78435238D01*
X86213904Y-78244761D01*
X86175809Y-78168571D01*
X86137714Y-78130476D01*
X85413904Y-79082857D02*
X85413904Y-79159047D01*
X85452000Y-79235238D01*
X85490095Y-79273333D01*
X85566285Y-79311428D01*
X85718666Y-79349523D01*
X85909142Y-79349523D01*
X86061523Y-79311428D01*
X86137714Y-79273333D01*
X86175809Y-79235238D01*
X86213904Y-79159047D01*
X86213904Y-79082857D01*
X86175809Y-79006666D01*
X86137714Y-78968571D01*
X86061523Y-78930476D01*
X85909142Y-78892380D01*
X85718666Y-78892380D01*
X85566285Y-78930476D01*
X85490095Y-78968571D01*
X85452000Y-79006666D01*
X85413904Y-79082857D01*
X85413904Y-83629523D02*
X85413904Y-83248571D01*
X85794857Y-83210476D01*
X85756761Y-83248571D01*
X85718666Y-83324761D01*
X85718666Y-83515238D01*
X85756761Y-83591428D01*
X85794857Y-83629523D01*
X85871047Y-83667619D01*
X86061523Y-83667619D01*
X86137714Y-83629523D01*
X86175809Y-83591428D01*
X86213904Y-83515238D01*
X86213904Y-83324761D01*
X86175809Y-83248571D01*
X86137714Y-83210476D01*
X85490095Y-83972380D02*
X85452000Y-84010476D01*
X85413904Y-84086666D01*
X85413904Y-84277142D01*
X85452000Y-84353333D01*
X85490095Y-84391428D01*
X85566285Y-84429523D01*
X85642476Y-84429523D01*
X85756761Y-84391428D01*
X86213904Y-83934285D01*
X86213904Y-84429523D01*
X87356904Y-49790476D02*
X86556904Y-49790476D01*
X86556904Y-50095238D01*
X86595000Y-50171428D01*
X86633095Y-50209523D01*
X86709285Y-50247619D01*
X86823571Y-50247619D01*
X86899761Y-50209523D01*
X86937857Y-50171428D01*
X86975952Y-50095238D01*
X86975952Y-49790476D01*
X87356904Y-50590476D02*
X86556904Y-50590476D01*
X86937857Y-50590476D02*
X86937857Y-51047619D01*
X87356904Y-51047619D02*
X86556904Y-51047619D01*
X86556904Y-51352380D02*
X86556904Y-51885714D01*
X87356904Y-51542857D01*
X87356904Y-52444761D02*
X86556904Y-52444761D01*
X86556904Y-52749523D01*
X86595000Y-52825714D01*
X86633095Y-52863809D01*
X86709285Y-52901904D01*
X86823571Y-52901904D01*
X86899761Y-52863809D01*
X86937857Y-52825714D01*
X86975952Y-52749523D01*
X86975952Y-52444761D01*
X86556904Y-53473333D02*
X87128333Y-53473333D01*
X87242619Y-53435238D01*
X87318809Y-53359047D01*
X87356904Y-53244761D01*
X87356904Y-53168571D01*
X86633095Y-53816190D02*
X86595000Y-53854285D01*
X86556904Y-53930476D01*
X86556904Y-54120952D01*
X86595000Y-54197142D01*
X86633095Y-54235238D01*
X86709285Y-54273333D01*
X86785476Y-54273333D01*
X86899761Y-54235238D01*
X87356904Y-53778095D01*
X87356904Y-54273333D01*
X87356904Y-57524761D02*
X86556904Y-57524761D01*
X86556904Y-57829523D01*
X86595000Y-57905714D01*
X86633095Y-57943809D01*
X86709285Y-57981904D01*
X86823571Y-57981904D01*
X86899761Y-57943809D01*
X86937857Y-57905714D01*
X86975952Y-57829523D01*
X86975952Y-57524761D01*
X86556904Y-58553333D02*
X87128333Y-58553333D01*
X87242619Y-58515238D01*
X87318809Y-58439047D01*
X87356904Y-58324761D01*
X87356904Y-58248571D01*
X86823571Y-59277142D02*
X87356904Y-59277142D01*
X86518809Y-59086666D02*
X87090238Y-58896190D01*
X87090238Y-59391428D01*
X87356904Y-65144761D02*
X86556904Y-65144761D01*
X86556904Y-65449523D01*
X86595000Y-65525714D01*
X86633095Y-65563809D01*
X86709285Y-65601904D01*
X86823571Y-65601904D01*
X86899761Y-65563809D01*
X86937857Y-65525714D01*
X86975952Y-65449523D01*
X86975952Y-65144761D01*
X86556904Y-66173333D02*
X87128333Y-66173333D01*
X87242619Y-66135238D01*
X87318809Y-66059047D01*
X87356904Y-65944761D01*
X87356904Y-65868571D01*
X86556904Y-66478095D02*
X86556904Y-67011428D01*
X87356904Y-66668571D01*
X87356904Y-70129523D02*
X86556904Y-70129523D01*
X86556904Y-70434285D01*
X86595000Y-70510476D01*
X86633095Y-70548571D01*
X86709285Y-70586666D01*
X86823571Y-70586666D01*
X86899761Y-70548571D01*
X86937857Y-70510476D01*
X86975952Y-70434285D01*
X86975952Y-70129523D01*
X87356904Y-70929523D02*
X86556904Y-70929523D01*
X86556904Y-71120000D01*
X86595000Y-71234285D01*
X86671190Y-71310476D01*
X86747380Y-71348571D01*
X86899761Y-71386666D01*
X87014047Y-71386666D01*
X87166428Y-71348571D01*
X87242619Y-71310476D01*
X87318809Y-71234285D01*
X87356904Y-71120000D01*
X87356904Y-70929523D01*
X86556904Y-72110476D02*
X86556904Y-71729523D01*
X86937857Y-71691428D01*
X86899761Y-71729523D01*
X86861666Y-71805714D01*
X86861666Y-71996190D01*
X86899761Y-72072380D01*
X86937857Y-72110476D01*
X87014047Y-72148571D01*
X87204523Y-72148571D01*
X87280714Y-72110476D01*
X87318809Y-72072380D01*
X87356904Y-71996190D01*
X87356904Y-71805714D01*
X87318809Y-71729523D01*
X87280714Y-71691428D01*
X87356904Y-72669523D02*
X86556904Y-72669523D01*
X86556904Y-72974285D01*
X86595000Y-73050476D01*
X86633095Y-73088571D01*
X86709285Y-73126666D01*
X86823571Y-73126666D01*
X86899761Y-73088571D01*
X86937857Y-73050476D01*
X86975952Y-72974285D01*
X86975952Y-72669523D01*
X87356904Y-73469523D02*
X86556904Y-73469523D01*
X86556904Y-73660000D01*
X86595000Y-73774285D01*
X86671190Y-73850476D01*
X86747380Y-73888571D01*
X86899761Y-73926666D01*
X87014047Y-73926666D01*
X87166428Y-73888571D01*
X87242619Y-73850476D01*
X87318809Y-73774285D01*
X87356904Y-73660000D01*
X87356904Y-73469523D01*
X86556904Y-74612380D02*
X86556904Y-74460000D01*
X86595000Y-74383809D01*
X86633095Y-74345714D01*
X86747380Y-74269523D01*
X86899761Y-74231428D01*
X87204523Y-74231428D01*
X87280714Y-74269523D01*
X87318809Y-74307619D01*
X87356904Y-74383809D01*
X87356904Y-74536190D01*
X87318809Y-74612380D01*
X87280714Y-74650476D01*
X87204523Y-74688571D01*
X87014047Y-74688571D01*
X86937857Y-74650476D01*
X86899761Y-74612380D01*
X86861666Y-74536190D01*
X86861666Y-74383809D01*
X86899761Y-74307619D01*
X86937857Y-74269523D01*
X87014047Y-74231428D01*
X87356904Y-77749523D02*
X86556904Y-77749523D01*
X86556904Y-78054285D01*
X86595000Y-78130476D01*
X86633095Y-78168571D01*
X86709285Y-78206666D01*
X86823571Y-78206666D01*
X86899761Y-78168571D01*
X86937857Y-78130476D01*
X86975952Y-78054285D01*
X86975952Y-77749523D01*
X86595000Y-78968571D02*
X86556904Y-78892380D01*
X86556904Y-78778095D01*
X86595000Y-78663809D01*
X86671190Y-78587619D01*
X86747380Y-78549523D01*
X86899761Y-78511428D01*
X87014047Y-78511428D01*
X87166428Y-78549523D01*
X87242619Y-78587619D01*
X87318809Y-78663809D01*
X87356904Y-78778095D01*
X87356904Y-78854285D01*
X87318809Y-78968571D01*
X87280714Y-79006666D01*
X87014047Y-79006666D01*
X87014047Y-78854285D01*
X86556904Y-79273333D02*
X86556904Y-79768571D01*
X86861666Y-79501904D01*
X86861666Y-79616190D01*
X86899761Y-79692380D01*
X86937857Y-79730476D01*
X87014047Y-79768571D01*
X87204523Y-79768571D01*
X87280714Y-79730476D01*
X87318809Y-79692380D01*
X87356904Y-79616190D01*
X87356904Y-79387619D01*
X87318809Y-79311428D01*
X87280714Y-79273333D01*
D25*
X81413333Y-41718666D02*
X81813333Y-41718666D01*
X81613333Y-41718666D02*
X81613333Y-41018666D01*
X81680000Y-41118666D01*
X81746666Y-41185333D01*
X81813333Y-41218666D01*
X80780000Y-41018666D02*
X81113333Y-41018666D01*
X81146666Y-41352000D01*
X81113333Y-41318666D01*
X81046666Y-41285333D01*
X80880000Y-41285333D01*
X80813333Y-41318666D01*
X80780000Y-41352000D01*
X80746666Y-41418666D01*
X80746666Y-41585333D01*
X80780000Y-41652000D01*
X80813333Y-41685333D01*
X80880000Y-41718666D01*
X81046666Y-41718666D01*
X81113333Y-41685333D01*
X81146666Y-41652000D01*
X89033333Y-41718666D02*
X89433333Y-41718666D01*
X89233333Y-41718666D02*
X89233333Y-41018666D01*
X89300000Y-41118666D01*
X89366666Y-41185333D01*
X89433333Y-41218666D01*
X88633333Y-41318666D02*
X88700000Y-41285333D01*
X88733333Y-41252000D01*
X88766666Y-41185333D01*
X88766666Y-41152000D01*
X88733333Y-41085333D01*
X88700000Y-41052000D01*
X88633333Y-41018666D01*
X88500000Y-41018666D01*
X88433333Y-41052000D01*
X88400000Y-41085333D01*
X88366666Y-41152000D01*
X88366666Y-41185333D01*
X88400000Y-41252000D01*
X88433333Y-41285333D01*
X88500000Y-41318666D01*
X88633333Y-41318666D01*
X88700000Y-41352000D01*
X88733333Y-41385333D01*
X88766666Y-41452000D01*
X88766666Y-41585333D01*
X88733333Y-41652000D01*
X88700000Y-41685333D01*
X88633333Y-41718666D01*
X88500000Y-41718666D01*
X88433333Y-41685333D01*
X88400000Y-41652000D01*
X88366666Y-41585333D01*
X88366666Y-41452000D01*
X88400000Y-41385333D01*
X88433333Y-41352000D01*
X88500000Y-41318666D01*
X91573333Y-41718666D02*
X91973333Y-41718666D01*
X91773333Y-41718666D02*
X91773333Y-41018666D01*
X91840000Y-41118666D01*
X91906666Y-41185333D01*
X91973333Y-41218666D01*
X91240000Y-41718666D02*
X91106666Y-41718666D01*
X91040000Y-41685333D01*
X91006666Y-41652000D01*
X90940000Y-41552000D01*
X90906666Y-41418666D01*
X90906666Y-41152000D01*
X90940000Y-41085333D01*
X90973333Y-41052000D01*
X91040000Y-41018666D01*
X91173333Y-41018666D01*
X91240000Y-41052000D01*
X91273333Y-41085333D01*
X91306666Y-41152000D01*
X91306666Y-41318666D01*
X91273333Y-41385333D01*
X91240000Y-41418666D01*
X91173333Y-41452000D01*
X91040000Y-41452000D01*
X90973333Y-41418666D01*
X90940000Y-41385333D01*
X90906666Y-41318666D01*
D10*
X83381904Y-44729523D02*
X83381904Y-45186666D01*
X84181904Y-44958095D02*
X83381904Y-44958095D01*
X83381904Y-45377142D02*
X84181904Y-45910476D01*
X83381904Y-45910476D02*
X84181904Y-45377142D01*
X83458095Y-46177142D02*
X83420000Y-46215238D01*
X83381904Y-46291428D01*
X83381904Y-46481904D01*
X83420000Y-46558095D01*
X83458095Y-46596190D01*
X83534285Y-46634285D01*
X83610476Y-46634285D01*
X83724761Y-46596190D01*
X84181904Y-46139047D01*
X84181904Y-46634285D01*
X86721904Y-45205714D02*
X86340952Y-44939047D01*
X86721904Y-44748571D02*
X85921904Y-44748571D01*
X85921904Y-45053333D01*
X85960000Y-45129523D01*
X85998095Y-45167619D01*
X86074285Y-45205714D01*
X86188571Y-45205714D01*
X86264761Y-45167619D01*
X86302857Y-45129523D01*
X86340952Y-45053333D01*
X86340952Y-44748571D01*
X85921904Y-45472380D02*
X86721904Y-46005714D01*
X85921904Y-46005714D02*
X86721904Y-45472380D01*
X85998095Y-46272380D02*
X85960000Y-46310476D01*
X85921904Y-46386666D01*
X85921904Y-46577142D01*
X85960000Y-46653333D01*
X85998095Y-46691428D01*
X86074285Y-46729523D01*
X86150476Y-46729523D01*
X86264761Y-46691428D01*
X86721904Y-46234285D01*
X86721904Y-46729523D01*
X88461904Y-44729523D02*
X88461904Y-45186666D01*
X89261904Y-44958095D02*
X88461904Y-44958095D01*
X88461904Y-45377142D02*
X89261904Y-45910476D01*
X88461904Y-45910476D02*
X89261904Y-45377142D01*
X89261904Y-46634285D02*
X89261904Y-46177142D01*
X89261904Y-46405714D02*
X88461904Y-46405714D01*
X88576190Y-46329523D01*
X88652380Y-46253333D01*
X88690476Y-46177142D01*
X91801904Y-45205714D02*
X91420952Y-44939047D01*
X91801904Y-44748571D02*
X91001904Y-44748571D01*
X91001904Y-45053333D01*
X91040000Y-45129523D01*
X91078095Y-45167619D01*
X91154285Y-45205714D01*
X91268571Y-45205714D01*
X91344761Y-45167619D01*
X91382857Y-45129523D01*
X91420952Y-45053333D01*
X91420952Y-44748571D01*
X91001904Y-45472380D02*
X91801904Y-46005714D01*
X91001904Y-46005714D02*
X91801904Y-45472380D01*
X91801904Y-46729523D02*
X91801904Y-46272380D01*
X91801904Y-46500952D02*
X91001904Y-46500952D01*
X91116190Y-46424761D01*
X91192380Y-46348571D01*
X91230476Y-46272380D01*
X83381904Y-87833333D02*
X84181904Y-88100000D01*
X83381904Y-88366666D01*
X84105714Y-89090476D02*
X84143809Y-89052380D01*
X84181904Y-88938095D01*
X84181904Y-88861904D01*
X84143809Y-88747619D01*
X84067619Y-88671428D01*
X83991428Y-88633333D01*
X83839047Y-88595238D01*
X83724761Y-88595238D01*
X83572380Y-88633333D01*
X83496190Y-88671428D01*
X83420000Y-88747619D01*
X83381904Y-88861904D01*
X83381904Y-88938095D01*
X83420000Y-89052380D01*
X83458095Y-89090476D01*
X84105714Y-89890476D02*
X84143809Y-89852380D01*
X84181904Y-89738095D01*
X84181904Y-89661904D01*
X84143809Y-89547619D01*
X84067619Y-89471428D01*
X83991428Y-89433333D01*
X83839047Y-89395238D01*
X83724761Y-89395238D01*
X83572380Y-89433333D01*
X83496190Y-89471428D01*
X83420000Y-89547619D01*
X83381904Y-89661904D01*
X83381904Y-89738095D01*
X83420000Y-89852380D01*
X83458095Y-89890476D01*
X89223809Y-87947619D02*
X89261904Y-88061904D01*
X89261904Y-88252380D01*
X89223809Y-88328571D01*
X89185714Y-88366666D01*
X89109523Y-88404761D01*
X89033333Y-88404761D01*
X88957142Y-88366666D01*
X88919047Y-88328571D01*
X88880952Y-88252380D01*
X88842857Y-88100000D01*
X88804761Y-88023809D01*
X88766666Y-87985714D01*
X88690476Y-87947619D01*
X88614285Y-87947619D01*
X88538095Y-87985714D01*
X88500000Y-88023809D01*
X88461904Y-88100000D01*
X88461904Y-88290476D01*
X88500000Y-88404761D01*
X89185714Y-89204761D02*
X89223809Y-89166666D01*
X89261904Y-89052380D01*
X89261904Y-88976190D01*
X89223809Y-88861904D01*
X89147619Y-88785714D01*
X89071428Y-88747619D01*
X88919047Y-88709523D01*
X88804761Y-88709523D01*
X88652380Y-88747619D01*
X88576190Y-88785714D01*
X88500000Y-88861904D01*
X88461904Y-88976190D01*
X88461904Y-89052380D01*
X88500000Y-89166666D01*
X88538095Y-89204761D01*
X89261904Y-89928571D02*
X89261904Y-89547619D01*
X88461904Y-89547619D01*
D25*
X89433333Y-92647333D02*
X89400000Y-92614000D01*
X89333333Y-92580666D01*
X89166666Y-92580666D01*
X89100000Y-92614000D01*
X89066666Y-92647333D01*
X89033333Y-92714000D01*
X89033333Y-92780666D01*
X89066666Y-92880666D01*
X89466666Y-93280666D01*
X89033333Y-93280666D01*
X88366666Y-93280666D02*
X88766666Y-93280666D01*
X88566666Y-93280666D02*
X88566666Y-92580666D01*
X88633333Y-92680666D01*
X88700000Y-92747333D01*
X88766666Y-92780666D01*
X91973333Y-92647333D02*
X91940000Y-92614000D01*
X91873333Y-92580666D01*
X91706666Y-92580666D01*
X91640000Y-92614000D01*
X91606666Y-92647333D01*
X91573333Y-92714000D01*
X91573333Y-92780666D01*
X91606666Y-92880666D01*
X92006666Y-93280666D01*
X91573333Y-93280666D01*
X91140000Y-92580666D02*
X91073333Y-92580666D01*
X91006666Y-92614000D01*
X90973333Y-92647333D01*
X90940000Y-92714000D01*
X90906666Y-92847333D01*
X90906666Y-93014000D01*
X90940000Y-93147333D01*
X90973333Y-93214000D01*
X91006666Y-93247333D01*
X91073333Y-93280666D01*
X91140000Y-93280666D01*
X91206666Y-93247333D01*
X91240000Y-93214000D01*
X91273333Y-93147333D01*
X91306666Y-93014000D01*
X91306666Y-92847333D01*
X91273333Y-92714000D01*
X91240000Y-92647333D01*
X91206666Y-92614000D01*
X91140000Y-92580666D01*
D10*
X94341904Y-90659047D02*
X93541904Y-90659047D01*
X93618095Y-91001904D02*
X93580000Y-91040000D01*
X93541904Y-91116190D01*
X93541904Y-91306666D01*
X93580000Y-91382857D01*
X93618095Y-91420952D01*
X93694285Y-91459047D01*
X93770476Y-91459047D01*
X93884761Y-91420952D01*
X94341904Y-90963809D01*
X94341904Y-91459047D01*
X94265714Y-92259047D02*
X94303809Y-92220952D01*
X94341904Y-92106666D01*
X94341904Y-92030476D01*
X94303809Y-91916190D01*
X94227619Y-91840000D01*
X94151428Y-91801904D01*
X93999047Y-91763809D01*
X93884761Y-91763809D01*
X93732380Y-91801904D01*
X93656190Y-91840000D01*
X93580000Y-91916190D01*
X93541904Y-92030476D01*
X93541904Y-92106666D01*
X93580000Y-92220952D01*
X93618095Y-92259047D01*
X56318095Y-56241904D02*
X56584761Y-55860952D01*
X56775238Y-56241904D02*
X56775238Y-55441904D01*
X56470476Y-55441904D01*
X56394285Y-55480000D01*
X56356190Y-55518095D01*
X56318095Y-55594285D01*
X56318095Y-55708571D01*
X56356190Y-55784761D01*
X56394285Y-55822857D01*
X56470476Y-55860952D01*
X56775238Y-55860952D01*
X56089523Y-55441904D02*
X55632380Y-55441904D01*
X55860952Y-56241904D02*
X55860952Y-55441904D01*
X55403809Y-56203809D02*
X55289523Y-56241904D01*
X55099047Y-56241904D01*
X55022857Y-56203809D01*
X54984761Y-56165714D01*
X54946666Y-56089523D01*
X54946666Y-56013333D01*
X54984761Y-55937142D01*
X55022857Y-55899047D01*
X55099047Y-55860952D01*
X55251428Y-55822857D01*
X55327619Y-55784761D01*
X55365714Y-55746666D01*
X55403809Y-55670476D01*
X55403809Y-55594285D01*
X55365714Y-55518095D01*
X55327619Y-55480000D01*
X55251428Y-55441904D01*
X55060952Y-55441904D01*
X54946666Y-55480000D01*
X58362857Y-50399904D02*
X58629523Y-50018952D01*
X58820000Y-50399904D02*
X58820000Y-49599904D01*
X58515238Y-49599904D01*
X58439047Y-49638000D01*
X58400952Y-49676095D01*
X58362857Y-49752285D01*
X58362857Y-49866571D01*
X58400952Y-49942761D01*
X58439047Y-49980857D01*
X58515238Y-50018952D01*
X58820000Y-50018952D01*
X58020000Y-50399904D02*
X58020000Y-49599904D01*
D28*
X55487993Y-63703200D02*
X55572660Y-63787866D01*
X55826660Y-63872533D01*
X55995993Y-63872533D01*
X56249993Y-63787866D01*
X56419326Y-63618533D01*
X56503993Y-63449200D01*
X56588660Y-63110533D01*
X56588660Y-62856533D01*
X56503993Y-62517866D01*
X56419326Y-62348533D01*
X56249993Y-62179200D01*
X55995993Y-62094533D01*
X55826660Y-62094533D01*
X55572660Y-62179200D01*
X55487993Y-62263866D01*
X54471993Y-63872533D02*
X54641326Y-63787866D01*
X54725993Y-63703200D01*
X54810660Y-63533866D01*
X54810660Y-63025866D01*
X54725993Y-62856533D01*
X54641326Y-62771866D01*
X54471993Y-62687200D01*
X54217993Y-62687200D01*
X54048660Y-62771866D01*
X53963993Y-62856533D01*
X53879326Y-63025866D01*
X53879326Y-63533866D01*
X53963993Y-63703200D01*
X54048660Y-63787866D01*
X54217993Y-63872533D01*
X54471993Y-63872533D01*
X53117326Y-63872533D02*
X53117326Y-62687200D01*
X53117326Y-62856533D02*
X53032660Y-62771866D01*
X52863326Y-62687200D01*
X52609326Y-62687200D01*
X52439993Y-62771866D01*
X52355326Y-62941200D01*
X52355326Y-63872533D01*
X52355326Y-62941200D02*
X52270660Y-62771866D01*
X52101326Y-62687200D01*
X51847326Y-62687200D01*
X51677993Y-62771866D01*
X51593326Y-62941200D01*
X51593326Y-63872533D01*
X50746660Y-62687200D02*
X50746660Y-64465200D01*
X50746660Y-62771866D02*
X50577326Y-62687200D01*
X50238660Y-62687200D01*
X50069326Y-62771866D01*
X49984660Y-62856533D01*
X49899993Y-63025866D01*
X49899993Y-63533866D01*
X49984660Y-63703200D01*
X50069326Y-63787866D01*
X50238660Y-63872533D01*
X50577326Y-63872533D01*
X50746660Y-63787866D01*
X48883993Y-63872533D02*
X49053326Y-63787866D01*
X49137993Y-63618533D01*
X49137993Y-62094533D01*
X48206660Y-63872533D02*
X48206660Y-62687200D01*
X48206660Y-62094533D02*
X48291326Y-62179200D01*
X48206660Y-62263866D01*
X48121993Y-62179200D01*
X48206660Y-62094533D01*
X48206660Y-62263866D01*
X46597993Y-63872533D02*
X46597993Y-62941200D01*
X46682660Y-62771866D01*
X46851993Y-62687200D01*
X47190660Y-62687200D01*
X47359993Y-62771866D01*
X46597993Y-63787866D02*
X46767326Y-63872533D01*
X47190660Y-63872533D01*
X47359993Y-63787866D01*
X47444660Y-63618533D01*
X47444660Y-63449200D01*
X47359993Y-63279866D01*
X47190660Y-63195200D01*
X46767326Y-63195200D01*
X46597993Y-63110533D01*
X45751326Y-62687200D02*
X45751326Y-63872533D01*
X45751326Y-62856533D02*
X45666660Y-62771866D01*
X45497326Y-62687200D01*
X45243326Y-62687200D01*
X45073993Y-62771866D01*
X44989326Y-62941200D01*
X44989326Y-63872533D01*
X44396660Y-62687200D02*
X43719326Y-62687200D01*
X44142660Y-62094533D02*
X44142660Y-63618533D01*
X44057993Y-63787866D01*
X43888660Y-63872533D01*
X43719326Y-63872533D01*
D16*
X54909434Y-60767481D02*
X55576100Y-59815100D01*
X56052291Y-60767481D02*
X56052291Y-58767481D01*
X55290386Y-58767481D01*
X55099910Y-58862720D01*
X55004672Y-58957958D01*
X54909434Y-59148434D01*
X54909434Y-59434148D01*
X55004672Y-59624624D01*
X55099910Y-59719862D01*
X55290386Y-59815100D01*
X56052291Y-59815100D01*
X53766577Y-60767481D02*
X53957053Y-60672243D01*
X54052291Y-60577005D01*
X54147529Y-60386529D01*
X54147529Y-59815100D01*
X54052291Y-59624624D01*
X53957053Y-59529386D01*
X53766577Y-59434148D01*
X53480862Y-59434148D01*
X53290386Y-59529386D01*
X53195148Y-59624624D01*
X53099910Y-59815100D01*
X53099910Y-60386529D01*
X53195148Y-60577005D01*
X53290386Y-60672243D01*
X53480862Y-60767481D01*
X53766577Y-60767481D01*
X52242767Y-60767481D02*
X52242767Y-58767481D01*
X52242767Y-59719862D02*
X51099910Y-59719862D01*
X51099910Y-60767481D02*
X51099910Y-58767481D01*
X50242767Y-60672243D02*
X49957053Y-60767481D01*
X49480862Y-60767481D01*
X49290386Y-60672243D01*
X49195148Y-60577005D01*
X49099910Y-60386529D01*
X49099910Y-60196053D01*
X49195148Y-60005577D01*
X49290386Y-59910339D01*
X49480862Y-59815100D01*
X49861815Y-59719862D01*
X50052291Y-59624624D01*
X50147529Y-59529386D01*
X50242767Y-59338910D01*
X50242767Y-59148434D01*
X50147529Y-58957958D01*
X50052291Y-58862720D01*
X49861815Y-58767481D01*
X49385624Y-58767481D01*
X49099910Y-58862720D01*
D10*
D13*
X41688568Y-57060527D02*
X41688568Y-55360527D01*
X41117140Y-55360527D01*
X40974282Y-55441480D01*
X40902854Y-55522432D01*
X40831425Y-55684337D01*
X40831425Y-55927194D01*
X40902854Y-56089099D01*
X40974282Y-56170051D01*
X41117140Y-56251003D01*
X41688568Y-56251003D01*
X40188568Y-57060527D02*
X40188568Y-55360527D01*
X40188568Y-56008146D02*
X40045711Y-55927194D01*
X39759997Y-55927194D01*
X39617140Y-56008146D01*
X39545711Y-56089099D01*
X39474282Y-56251003D01*
X39474282Y-56736718D01*
X39545711Y-56898622D01*
X39617140Y-56979575D01*
X39759997Y-57060527D01*
X40045711Y-57060527D01*
X40188568Y-56979575D01*
X69640098Y-66636679D02*
X69744860Y-66584298D01*
X69797240Y-66531917D01*
X69849621Y-66427155D01*
X69849621Y-66112869D01*
X69797240Y-66008107D01*
X69744860Y-65955726D01*
X69640098Y-65903345D01*
X69482955Y-65903345D01*
X69378193Y-65955726D01*
X69325812Y-66008107D01*
X69273431Y-66112869D01*
X69273431Y-66427155D01*
X69325812Y-66531917D01*
X69378193Y-66584298D01*
X69482955Y-66636679D01*
X69640098Y-66636679D01*
X68802002Y-65903345D02*
X68802002Y-67003345D01*
X68802002Y-65955726D02*
X68697240Y-65903345D01*
X68487717Y-65903345D01*
X68382955Y-65955726D01*
X68330574Y-66008107D01*
X68278193Y-66112869D01*
X68278193Y-66427155D01*
X68330574Y-66531917D01*
X68382955Y-66584298D01*
X68487717Y-66636679D01*
X68697240Y-66636679D01*
X68802002Y-66584298D01*
X67387717Y-66584298D02*
X67492479Y-66636679D01*
X67702002Y-66636679D01*
X67806764Y-66584298D01*
X67859145Y-66479536D01*
X67859145Y-66060488D01*
X67806764Y-65955726D01*
X67702002Y-65903345D01*
X67492479Y-65903345D01*
X67387717Y-65955726D01*
X67335336Y-66060488D01*
X67335336Y-66165250D01*
X67859145Y-66270012D01*
X66863907Y-65903345D02*
X66863907Y-66636679D01*
X66863907Y-66008107D02*
X66811526Y-65955726D01*
X66706764Y-65903345D01*
X66549621Y-65903345D01*
X66444860Y-65955726D01*
X66392479Y-66060488D01*
X66392479Y-66636679D01*
D29*
X65324597Y-66682880D02*
X65324597Y-65682880D01*
X64896025Y-66682880D02*
X64896025Y-66159071D01*
X64943644Y-66063833D01*
X65038882Y-66016214D01*
X65181740Y-66016214D01*
X65276978Y-66063833D01*
X65324597Y-66111452D01*
X63991263Y-66682880D02*
X63991263Y-66159071D01*
X64038882Y-66063833D01*
X64134120Y-66016214D01*
X64324597Y-66016214D01*
X64419835Y-66063833D01*
X63991263Y-66635261D02*
X64086501Y-66682880D01*
X64324597Y-66682880D01*
X64419835Y-66635261D01*
X64467454Y-66540023D01*
X64467454Y-66444785D01*
X64419835Y-66349547D01*
X64324597Y-66301928D01*
X64086501Y-66301928D01*
X63991263Y-66254309D01*
X63515073Y-66682880D02*
X63515073Y-66016214D01*
X63515073Y-66206690D02*
X63467454Y-66111452D01*
X63419835Y-66063833D01*
X63324597Y-66016214D01*
X63229359Y-66016214D01*
X62467454Y-66682880D02*
X62467454Y-65682880D01*
X62467454Y-66635261D02*
X62562692Y-66682880D01*
X62753168Y-66682880D01*
X62848406Y-66635261D01*
X62896025Y-66587642D01*
X62943644Y-66492404D01*
X62943644Y-66206690D01*
X62896025Y-66111452D01*
X62848406Y-66063833D01*
X62753168Y-66016214D01*
X62562692Y-66016214D01*
X62467454Y-66063833D01*
X62086501Y-66016214D02*
X61896025Y-66682880D01*
X61705549Y-66206690D01*
X61515073Y-66682880D01*
X61324597Y-66016214D01*
X60515073Y-66682880D02*
X60515073Y-66159071D01*
X60562692Y-66063833D01*
X60657930Y-66016214D01*
X60848406Y-66016214D01*
X60943644Y-66063833D01*
X60515073Y-66635261D02*
X60610311Y-66682880D01*
X60848406Y-66682880D01*
X60943644Y-66635261D01*
X60991263Y-66540023D01*
X60991263Y-66444785D01*
X60943644Y-66349547D01*
X60848406Y-66301928D01*
X60610311Y-66301928D01*
X60515073Y-66254309D01*
X60038882Y-66682880D02*
X60038882Y-66016214D01*
X60038882Y-66206690D02*
X59991263Y-66111452D01*
X59943644Y-66063833D01*
X59848406Y-66016214D01*
X59753168Y-66016214D01*
X59038882Y-66635261D02*
X59134120Y-66682880D01*
X59324597Y-66682880D01*
X59419835Y-66635261D01*
X59467454Y-66540023D01*
X59467454Y-66159071D01*
X59419835Y-66063833D01*
X59324597Y-66016214D01*
X59134120Y-66016214D01*
X59038882Y-66063833D01*
X58991263Y-66159071D01*
X58991263Y-66254309D01*
X59467454Y-66349547D01*
M02*
