G04 #@! TF.GenerationSoftware,KiCad,Pcbnew,5.1.0-unknown-9bfce26~82~ubuntu18.04.1*
G04 #@! TF.CreationDate,2019-03-14T11:14:55+02:00*
G04 #@! TF.ProjectId,OLIMEXINO-2560_Rev_B,4f4c494d-4558-4494-9e4f-2d323536305f,rev?*
G04 #@! TF.SameCoordinates,Original*
G04 #@! TF.FileFunction,Legend,Top*
G04 #@! TF.FilePolarity,Positive*
%FSLAX46Y46*%
G04 Gerber Fmt 4.6, Leading zero omitted, Abs format (unit mm)*
G04 Created by KiCad (PCBNEW 5.1.0-unknown-9bfce26~82~ubuntu18.04.1) date 2019-03-14 11:14:55*
%MOMM*%
%LPD*%
G04 APERTURE LIST*
%ADD10C,0.200000*%
%ADD11C,0.300000*%
%ADD12C,0.420000*%
%ADD13C,0.370000*%
%ADD14C,0.400000*%
%ADD15C,0.380000*%
%ADD16C,0.150000*%
%ADD17C,1.000000*%
%ADD18C,0.254000*%
%ADD19C,0.127000*%
%ADD20C,0.100000*%
%ADD21C,0.050000*%
%ADD22C,0.700000*%
%ADD23C,0.500000*%
%ADD24C,0.203200*%
%ADD25C,0.120000*%
%ADD26C,0.152400*%
G04 APERTURE END LIST*
D10*
X43421609Y-81240380D02*
X44040657Y-81240380D01*
X43707323Y-81621333D01*
X43850180Y-81621333D01*
X43945419Y-81668952D01*
X43993038Y-81716571D01*
X44040657Y-81811809D01*
X44040657Y-82049904D01*
X43993038Y-82145142D01*
X43945419Y-82192761D01*
X43850180Y-82240380D01*
X43564466Y-82240380D01*
X43469228Y-82192761D01*
X43421609Y-82145142D01*
X44469228Y-82145142D02*
X44516847Y-82192761D01*
X44469228Y-82240380D01*
X44421609Y-82192761D01*
X44469228Y-82145142D01*
X44469228Y-82240380D01*
X44850180Y-81240380D02*
X45469228Y-81240380D01*
X45135895Y-81621333D01*
X45278752Y-81621333D01*
X45373990Y-81668952D01*
X45421609Y-81716571D01*
X45469228Y-81811809D01*
X45469228Y-82049904D01*
X45421609Y-82145142D01*
X45373990Y-82192761D01*
X45278752Y-82240380D01*
X44993038Y-82240380D01*
X44897800Y-82192761D01*
X44850180Y-82145142D01*
X46612085Y-81192761D02*
X45754942Y-82478476D01*
X47421609Y-81240380D02*
X46945419Y-81240380D01*
X46897800Y-81716571D01*
X46945419Y-81668952D01*
X47040657Y-81621333D01*
X47278752Y-81621333D01*
X47373990Y-81668952D01*
X47421609Y-81716571D01*
X47469228Y-81811809D01*
X47469228Y-82049904D01*
X47421609Y-82145142D01*
X47373990Y-82192761D01*
X47278752Y-82240380D01*
X47040657Y-82240380D01*
X46945419Y-82192761D01*
X46897800Y-82145142D01*
X47754942Y-81240380D02*
X48088276Y-82240380D01*
X48421609Y-81240380D01*
D11*
X90936071Y-57752157D02*
X92150357Y-57752157D01*
X92293214Y-57680728D01*
X92364642Y-57609300D01*
X92436071Y-57466442D01*
X92436071Y-57180728D01*
X92364642Y-57037871D01*
X92293214Y-56966442D01*
X92150357Y-56895014D01*
X90936071Y-56895014D01*
X91650357Y-56180728D02*
X91650357Y-55680728D01*
X92436071Y-55466442D02*
X92436071Y-56180728D01*
X90936071Y-56180728D01*
X90936071Y-55466442D01*
X90936071Y-54966442D02*
X92436071Y-53966442D01*
X90936071Y-53966442D02*
X92436071Y-54966442D01*
X90936071Y-53609300D02*
X90936071Y-52752157D01*
X92436071Y-53180728D02*
X90936071Y-53180728D01*
D10*
X28212647Y-93314780D02*
X28212647Y-92648114D01*
X28212647Y-92838590D02*
X28255428Y-92743352D01*
X28298209Y-92695733D01*
X28383771Y-92648114D01*
X28469333Y-92648114D01*
X29111047Y-93267161D02*
X29025485Y-93314780D01*
X28854361Y-93314780D01*
X28768800Y-93267161D01*
X28726019Y-93171923D01*
X28726019Y-92790971D01*
X28768800Y-92695733D01*
X28854361Y-92648114D01*
X29025485Y-92648114D01*
X29111047Y-92695733D01*
X29153828Y-92790971D01*
X29153828Y-92886209D01*
X28726019Y-92981447D01*
X29496076Y-93267161D02*
X29581638Y-93314780D01*
X29752761Y-93314780D01*
X29838323Y-93267161D01*
X29881104Y-93171923D01*
X29881104Y-93124304D01*
X29838323Y-93029066D01*
X29752761Y-92981447D01*
X29624419Y-92981447D01*
X29538857Y-92933828D01*
X29496076Y-92838590D01*
X29496076Y-92790971D01*
X29538857Y-92695733D01*
X29624419Y-92648114D01*
X29752761Y-92648114D01*
X29838323Y-92695733D01*
X30608380Y-93267161D02*
X30522819Y-93314780D01*
X30351695Y-93314780D01*
X30266133Y-93267161D01*
X30223352Y-93171923D01*
X30223352Y-92790971D01*
X30266133Y-92695733D01*
X30351695Y-92648114D01*
X30522819Y-92648114D01*
X30608380Y-92695733D01*
X30651161Y-92790971D01*
X30651161Y-92886209D01*
X30223352Y-92981447D01*
X30907847Y-92648114D02*
X31250095Y-92648114D01*
X31036190Y-92314780D02*
X31036190Y-93171923D01*
X31078971Y-93267161D01*
X31164533Y-93314780D01*
X31250095Y-93314780D01*
D11*
X36914200Y-88867371D02*
X36914200Y-87367371D01*
X37414200Y-88438800D01*
X37914200Y-87367371D01*
X37914200Y-88867371D01*
X26935157Y-88337200D02*
X27649442Y-88337200D01*
X26792300Y-88765771D02*
X27292300Y-87265771D01*
X27792300Y-88765771D01*
D10*
X23572857Y-47449642D02*
X23744285Y-47449642D01*
X23830000Y-47492500D01*
X23915714Y-47578214D01*
X23958571Y-47749642D01*
X23958571Y-48049642D01*
X23915714Y-48221071D01*
X23830000Y-48306785D01*
X23744285Y-48349642D01*
X23572857Y-48349642D01*
X23487142Y-48306785D01*
X23401428Y-48221071D01*
X23358571Y-48049642D01*
X23358571Y-47749642D01*
X23401428Y-47578214D01*
X23487142Y-47492500D01*
X23572857Y-47449642D01*
X24344285Y-48349642D02*
X24344285Y-47449642D01*
X24858571Y-48349642D01*
X24858571Y-47449642D01*
X24408571Y-47016142D02*
X23980000Y-47016142D01*
X23980000Y-46116142D01*
X23444285Y-48910142D02*
X23958571Y-48910142D01*
X23701428Y-49810142D02*
X23701428Y-48910142D01*
X24172857Y-48910142D02*
X24772857Y-49810142D01*
X24772857Y-48910142D02*
X24172857Y-49810142D01*
X23980000Y-51207142D02*
X23680000Y-50778571D01*
X23465714Y-51207142D02*
X23465714Y-50307142D01*
X23808571Y-50307142D01*
X23894285Y-50350000D01*
X23937142Y-50392857D01*
X23980000Y-50478571D01*
X23980000Y-50607142D01*
X23937142Y-50692857D01*
X23894285Y-50735714D01*
X23808571Y-50778571D01*
X23465714Y-50778571D01*
X24280000Y-50307142D02*
X24880000Y-51207142D01*
X24880000Y-50307142D02*
X24280000Y-51207142D01*
X74498385Y-77898557D02*
X74098385Y-77327128D01*
X73812671Y-77898557D02*
X73812671Y-76698557D01*
X74269814Y-76698557D01*
X74384100Y-76755700D01*
X74441242Y-76812842D01*
X74498385Y-76927128D01*
X74498385Y-77098557D01*
X74441242Y-77212842D01*
X74384100Y-77269985D01*
X74269814Y-77327128D01*
X73812671Y-77327128D01*
X75469814Y-77841414D02*
X75355528Y-77898557D01*
X75126957Y-77898557D01*
X75012671Y-77841414D01*
X74955528Y-77727128D01*
X74955528Y-77269985D01*
X75012671Y-77155700D01*
X75126957Y-77098557D01*
X75355528Y-77098557D01*
X75469814Y-77155700D01*
X75526957Y-77269985D01*
X75526957Y-77384271D01*
X74955528Y-77498557D01*
X75926957Y-77098557D02*
X76212671Y-77898557D01*
X76498385Y-77098557D01*
X76955528Y-77784271D02*
X77012671Y-77841414D01*
X76955528Y-77898557D01*
X76898385Y-77841414D01*
X76955528Y-77784271D01*
X76955528Y-77898557D01*
X77926957Y-77269985D02*
X78098385Y-77327128D01*
X78155528Y-77384271D01*
X78212671Y-77498557D01*
X78212671Y-77669985D01*
X78155528Y-77784271D01*
X78098385Y-77841414D01*
X77984100Y-77898557D01*
X77526957Y-77898557D01*
X77526957Y-76698557D01*
X77926957Y-76698557D01*
X78041242Y-76755700D01*
X78098385Y-76812842D01*
X78155528Y-76927128D01*
X78155528Y-77041414D01*
X78098385Y-77155700D01*
X78041242Y-77212842D01*
X77926957Y-77269985D01*
X77526957Y-77269985D01*
D11*
X63577100Y-82922371D02*
X63843766Y-82922371D01*
X63977100Y-82993800D01*
X64110433Y-83136657D01*
X64177100Y-83422371D01*
X64177100Y-83922371D01*
X64110433Y-84208085D01*
X63977100Y-84350942D01*
X63843766Y-84422371D01*
X63577100Y-84422371D01*
X63443766Y-84350942D01*
X63310433Y-84208085D01*
X63243766Y-83922371D01*
X63243766Y-83422371D01*
X63310433Y-83136657D01*
X63443766Y-82993800D01*
X63577100Y-82922371D01*
X64977100Y-84422371D02*
X64843766Y-84350942D01*
X64777100Y-84208085D01*
X64777100Y-82922371D01*
X65510433Y-84422371D02*
X65510433Y-83422371D01*
X65510433Y-82922371D02*
X65443766Y-82993800D01*
X65510433Y-83065228D01*
X65577100Y-82993800D01*
X65510433Y-82922371D01*
X65510433Y-83065228D01*
X66177100Y-84422371D02*
X66177100Y-83422371D01*
X66177100Y-83565228D02*
X66243766Y-83493800D01*
X66377100Y-83422371D01*
X66577100Y-83422371D01*
X66710433Y-83493800D01*
X66777100Y-83636657D01*
X66777100Y-84422371D01*
X66777100Y-83636657D02*
X66843766Y-83493800D01*
X66977100Y-83422371D01*
X67177100Y-83422371D01*
X67310433Y-83493800D01*
X67377100Y-83636657D01*
X67377100Y-84422371D01*
X68577100Y-84350942D02*
X68443766Y-84422371D01*
X68177100Y-84422371D01*
X68043766Y-84350942D01*
X67977100Y-84208085D01*
X67977100Y-83636657D01*
X68043766Y-83493800D01*
X68177100Y-83422371D01*
X68443766Y-83422371D01*
X68577100Y-83493800D01*
X68643766Y-83636657D01*
X68643766Y-83779514D01*
X67977100Y-83922371D01*
X69110433Y-84422371D02*
X69843766Y-83422371D01*
X69110433Y-83422371D02*
X69843766Y-84422371D01*
X70377100Y-84422371D02*
X70377100Y-83422371D01*
X70377100Y-82922371D02*
X70310433Y-82993800D01*
X70377100Y-83065228D01*
X70443766Y-82993800D01*
X70377100Y-82922371D01*
X70377100Y-83065228D01*
X71043766Y-83422371D02*
X71043766Y-84422371D01*
X71043766Y-83565228D02*
X71110433Y-83493800D01*
X71243766Y-83422371D01*
X71443766Y-83422371D01*
X71577100Y-83493800D01*
X71643766Y-83636657D01*
X71643766Y-84422371D01*
X72510433Y-84422371D02*
X72377100Y-84350942D01*
X72310433Y-84279514D01*
X72243766Y-84136657D01*
X72243766Y-83708085D01*
X72310433Y-83565228D01*
X72377100Y-83493800D01*
X72510433Y-83422371D01*
X72710433Y-83422371D01*
X72843766Y-83493800D01*
X72910433Y-83565228D01*
X72977100Y-83708085D01*
X72977100Y-84136657D01*
X72910433Y-84279514D01*
X72843766Y-84350942D01*
X72710433Y-84422371D01*
X72510433Y-84422371D01*
X73510433Y-83065228D02*
X73577100Y-82993800D01*
X73710433Y-82922371D01*
X74043766Y-82922371D01*
X74177100Y-82993800D01*
X74243766Y-83065228D01*
X74310433Y-83208085D01*
X74310433Y-83350942D01*
X74243766Y-83565228D01*
X73443766Y-84422371D01*
X74310433Y-84422371D01*
X75577100Y-82922371D02*
X74910433Y-82922371D01*
X74843766Y-83636657D01*
X74910433Y-83565228D01*
X75043766Y-83493800D01*
X75377100Y-83493800D01*
X75510433Y-83565228D01*
X75577100Y-83636657D01*
X75643766Y-83779514D01*
X75643766Y-84136657D01*
X75577100Y-84279514D01*
X75510433Y-84350942D01*
X75377100Y-84422371D01*
X75043766Y-84422371D01*
X74910433Y-84350942D01*
X74843766Y-84279514D01*
X76843766Y-82922371D02*
X76577100Y-82922371D01*
X76443766Y-82993800D01*
X76377100Y-83065228D01*
X76243766Y-83279514D01*
X76177100Y-83565228D01*
X76177100Y-84136657D01*
X76243766Y-84279514D01*
X76310433Y-84350942D01*
X76443766Y-84422371D01*
X76710433Y-84422371D01*
X76843766Y-84350942D01*
X76910433Y-84279514D01*
X76977100Y-84136657D01*
X76977100Y-83779514D01*
X76910433Y-83636657D01*
X76843766Y-83565228D01*
X76710433Y-83493800D01*
X76443766Y-83493800D01*
X76310433Y-83565228D01*
X76243766Y-83636657D01*
X76177100Y-83779514D01*
X77843766Y-82922371D02*
X77977100Y-82922371D01*
X78110433Y-82993800D01*
X78177100Y-83065228D01*
X78243766Y-83208085D01*
X78310433Y-83493800D01*
X78310433Y-83850942D01*
X78243766Y-84136657D01*
X78177100Y-84279514D01*
X78110433Y-84350942D01*
X77977100Y-84422371D01*
X77843766Y-84422371D01*
X77710433Y-84350942D01*
X77643766Y-84279514D01*
X77577100Y-84136657D01*
X77510433Y-83850942D01*
X77510433Y-83493800D01*
X77577100Y-83208085D01*
X77643766Y-83065228D01*
X77710433Y-82993800D01*
X77843766Y-82922371D01*
D12*
X68767960Y-57787540D02*
X69319140Y-56365140D01*
D13*
X68422520Y-57602120D02*
X68740020Y-57807860D01*
D14*
X67632580Y-58150760D02*
X68412360Y-57619900D01*
D15*
X67056000Y-57612280D02*
X67619880Y-58150760D01*
D13*
X67071240Y-57612280D02*
X67604640Y-56779160D01*
X67246500Y-55852060D02*
X67604640Y-56735980D01*
X66268600Y-55610760D02*
X67218560Y-55829200D01*
D15*
X66278760Y-54833520D02*
X66273680Y-55620920D01*
D13*
X66266060Y-54820820D02*
X67284600Y-54640480D01*
X67315080Y-54604920D02*
X67663060Y-53738780D01*
X67086480Y-52837080D02*
X67642740Y-53687980D01*
D15*
X67076320Y-52814220D02*
X67576700Y-52280820D01*
D13*
X67624960Y-52255420D02*
X68453000Y-52908200D01*
X68513960Y-52898040D02*
X69359780Y-52491640D01*
X69618860Y-51457860D02*
X69413120Y-52471320D01*
X69611240Y-51445160D02*
X70396100Y-51445160D01*
X70378320Y-51465480D02*
X70591680Y-52484020D01*
X70591680Y-52484020D02*
X71493380Y-52933600D01*
X71506080Y-52928520D02*
X72410320Y-52294080D01*
X72410320Y-52296060D02*
X72964040Y-52842160D01*
X72964040Y-52844700D02*
X72346820Y-53634640D01*
X72346820Y-53634640D02*
X72687180Y-54571900D01*
X72687180Y-54571900D02*
X73769220Y-54800500D01*
X73769220Y-54800500D02*
X73769220Y-55636160D01*
X73769220Y-55636160D02*
X72755760Y-55806340D01*
X72755760Y-55806340D02*
X72349360Y-56718200D01*
X72400160Y-58166000D02*
X71564500Y-57599580D01*
X71564500Y-57599580D02*
X71226680Y-57785000D01*
X71226680Y-57785000D02*
X70652640Y-56344820D01*
X70662800Y-56342280D02*
G75*
G03X71033640Y-54477920I-746760J1117600D01*
G01*
X71043800Y-54493160D02*
G75*
G03X69118480Y-54295040I-1061720J-863600D01*
G01*
X69093080Y-54320440D02*
G75*
G03X69169280Y-56174640I965200J-889000D01*
G01*
X72349360Y-56718200D02*
X72969120Y-57604660D01*
X72415400Y-58158380D02*
X72969120Y-57612280D01*
D16*
X68849240Y-57967880D02*
X69499480Y-56299100D01*
X68465700Y-57764680D02*
X68811140Y-57985660D01*
X68453000Y-57754520D02*
X67627500Y-58318400D01*
X67619880Y-58326020D02*
X66898520Y-57632600D01*
X66890900Y-57630060D02*
X67487800Y-56766460D01*
X66128900Y-55722520D02*
X67200780Y-55918100D01*
X66128900Y-54729380D02*
X66128900Y-55714900D01*
X66126360Y-54726840D02*
X67297300Y-54523640D01*
X67195700Y-54528720D02*
X67530980Y-53695600D01*
X66934080Y-52844700D02*
X67528440Y-53698140D01*
X66913760Y-52809140D02*
X67586860Y-52095400D01*
X67599560Y-52092860D02*
X68569840Y-52809140D01*
X68534280Y-52740560D02*
X69438520Y-52362100D01*
X69522340Y-51346100D02*
X69321680Y-52372260D01*
X69532500Y-51338480D02*
X70497700Y-51338480D01*
X70497700Y-51338480D02*
X70723760Y-52509420D01*
X70713600Y-52428140D02*
X71518780Y-52765960D01*
X71399400Y-52814220D02*
X72410320Y-52141120D01*
X72415400Y-52138580D02*
X73108820Y-52829460D01*
X73113900Y-52837080D02*
X72410320Y-53827680D01*
X72499220Y-53718460D02*
X72864980Y-54587140D01*
X73802240Y-55488840D02*
X72694800Y-55712360D01*
X73886060Y-54747160D02*
X73883520Y-55704740D01*
X72748140Y-55935880D02*
X73870820Y-55725060D01*
X72852280Y-55902860D02*
X72471280Y-56883300D01*
X72819260Y-57538620D02*
X72334120Y-58069480D01*
X72423020Y-58313320D02*
X73106280Y-57622440D01*
X71536560Y-57698640D02*
X72412860Y-58318400D01*
X72400160Y-58003440D02*
X71579740Y-57475120D01*
X71716900Y-57670700D02*
X71188580Y-57998360D01*
X71188580Y-57998360D02*
X70802500Y-57017920D01*
X70797420Y-56319420D02*
X71325740Y-57701180D01*
X66421000Y-54917340D02*
X66421000Y-55567580D01*
X66278760Y-54973220D02*
X67393820Y-54726840D01*
X67807840Y-53705760D02*
X67421760Y-54703980D01*
X67812920Y-53710840D02*
X67210940Y-52801520D01*
X67569080Y-52357020D02*
X68453000Y-53078380D01*
X70840600Y-56377840D02*
X71018400Y-56255920D01*
X71018400Y-56255920D02*
X71394320Y-55544720D01*
X71394320Y-55544720D02*
X71394320Y-55026560D01*
X71399400Y-55039260D02*
X71165720Y-54366160D01*
X71165720Y-54366160D02*
X70655180Y-53936900D01*
X70655180Y-53936900D02*
X69839840Y-53776880D01*
X69839840Y-53769260D02*
X68968620Y-54198520D01*
X68968620Y-54198520D02*
X68549520Y-54930040D01*
X68544440Y-54935120D02*
X68676520Y-55758080D01*
X68681600Y-55788560D02*
X68775580Y-55958740D01*
X68681600Y-55788560D02*
X68775580Y-55958740D01*
X68905120Y-56009540D02*
X69164200Y-56347360D01*
X69273420Y-56123840D02*
X69499480Y-56299100D01*
X70774560Y-56126380D02*
X70520560Y-56291480D01*
X70637400Y-56581040D02*
X70515480Y-56296560D01*
X68458080Y-53075840D02*
X69441060Y-52583080D01*
X68788280Y-55989220D02*
X69095620Y-56255920D01*
D17*
X67772280Y-57419240D02*
X68625720Y-56398160D01*
X66735960Y-55214520D02*
X68153280Y-55153560D01*
X67721480Y-52928520D02*
X68783200Y-54035960D01*
X69982080Y-51953160D02*
X69987160Y-53467000D01*
X72247760Y-53009800D02*
X71135240Y-54076600D01*
X73238360Y-55194200D02*
X71770240Y-55280560D01*
X68447920Y-57246520D02*
X68813680Y-56484520D01*
X67782440Y-56347360D02*
X68346320Y-55867300D01*
X67533520Y-55702200D02*
X68239640Y-55575200D01*
X67858640Y-54457600D02*
X68300600Y-54617620D01*
X68033900Y-53977540D02*
X68491100Y-54267100D01*
X69032120Y-53200300D02*
X69207380Y-53558440D01*
X69466460Y-52941220D02*
X69634100Y-53550820D01*
X70731380Y-52956460D02*
X70510400Y-53642260D01*
X71318120Y-53207920D02*
X70899020Y-53794660D01*
X72186800Y-54076600D02*
X71531480Y-54442360D01*
X72428100Y-54770020D02*
X71706740Y-54917340D01*
X71592440Y-55928260D02*
X72202040Y-56034940D01*
X71272400Y-56347360D02*
X71889620Y-56675020D01*
X71158100Y-56484520D02*
X72339200Y-57497980D01*
X71158100Y-56393080D02*
X71490840Y-57124600D01*
D18*
X72390000Y-62230000D02*
X77470000Y-62230000D01*
X77470000Y-62230000D02*
X77470000Y-69850000D01*
X80010000Y-90170000D02*
X80010000Y-92710000D01*
X87630000Y-87630000D02*
X92710000Y-87630000D01*
X74930000Y-41910000D02*
X74930000Y-44450000D01*
X74930000Y-44450000D02*
X74930000Y-48895000D01*
X41910000Y-90170000D02*
X44450000Y-90170000D01*
X44450000Y-90170000D02*
X57150000Y-90170000D01*
X57150000Y-90170000D02*
X57150000Y-92710000D01*
X57150000Y-92710000D02*
X44450000Y-92710000D01*
X44450000Y-90170000D02*
X44450000Y-92710000D01*
X44450000Y-92710000D02*
X41910000Y-92710000D01*
X41910000Y-92710000D02*
X41910000Y-90170000D01*
X59690000Y-90170000D02*
X62230000Y-90170000D01*
X62230000Y-90170000D02*
X80010000Y-90170000D01*
X80010000Y-90170000D02*
X80010000Y-92710000D01*
X80010000Y-92710000D02*
X62230000Y-92710000D01*
X59690000Y-92710000D02*
X59690000Y-90170000D01*
X62230000Y-90170000D02*
X62230000Y-92710000D01*
X62230000Y-92710000D02*
X59690000Y-92710000D01*
X41910000Y-90170000D02*
X41910000Y-85725000D01*
X57150000Y-90170000D02*
X57150000Y-85725000D01*
X41910000Y-85725000D02*
X42545000Y-85090000D01*
X42545000Y-85090000D02*
X56515000Y-85090000D01*
X56515000Y-85090000D02*
X57150000Y-85725000D01*
X59690000Y-90170000D02*
X59690000Y-86360000D01*
X60960000Y-85090000D02*
X74803000Y-85090000D01*
X59690000Y-86360000D02*
X60960000Y-85090000D01*
X74930000Y-44450000D02*
X72390000Y-44450000D01*
X72390000Y-44450000D02*
X54610000Y-44450000D01*
X54610000Y-44450000D02*
X54610000Y-41910000D01*
X54610000Y-41910000D02*
X72390000Y-41910000D01*
X74930000Y-41910000D02*
X74930000Y-44450000D01*
X72390000Y-44450000D02*
X72390000Y-41910000D01*
X72390000Y-41910000D02*
X74930000Y-41910000D01*
X74930000Y-44450000D02*
X74930000Y-48895000D01*
X54610000Y-44450000D02*
X54610000Y-49530000D01*
X73660000Y-50165000D02*
X63500000Y-50165000D01*
X74930000Y-48895000D02*
X73660000Y-50165000D01*
X53092540Y-44450000D02*
X50552540Y-44450000D01*
X50552540Y-44450000D02*
X31750000Y-44450000D01*
X31750000Y-41910000D02*
X50552540Y-41910000D01*
X53092540Y-41910000D02*
X53092540Y-44450000D01*
X50552540Y-44450000D02*
X50552540Y-41910000D01*
X50552540Y-41910000D02*
X53092540Y-41910000D01*
X53092540Y-44450000D02*
X53086000Y-48895000D01*
X51820000Y-50165000D02*
X31750000Y-50165000D01*
X53092540Y-48895000D02*
X51820000Y-50165000D01*
X82550000Y-90170000D02*
X92710000Y-90170000D01*
X92710000Y-90170000D02*
X92710000Y-92710000D01*
X87630000Y-92710000D02*
X82550000Y-92710000D01*
X82550000Y-92710000D02*
X82550000Y-90170000D01*
X80010000Y-46990000D02*
X85090000Y-46990000D01*
X85090000Y-46990000D02*
X85090000Y-87630000D01*
X85090000Y-87630000D02*
X80010000Y-87630000D01*
X80010000Y-85090000D02*
X80010000Y-59690000D01*
X82550000Y-46990000D02*
X82550000Y-87630000D01*
X80010000Y-67310000D02*
X85090000Y-67310000D01*
X87630000Y-46990000D02*
X87630000Y-87630000D01*
X92710000Y-87630000D02*
X92710000Y-67310000D01*
X92710000Y-67310000D02*
X87630000Y-67310000D01*
X87630000Y-46990000D02*
X90170000Y-46990000D01*
X90170000Y-46990000D02*
X90170000Y-87630000D01*
X77470000Y-41910000D02*
X92710000Y-41910000D01*
X92710000Y-41910000D02*
X92710000Y-44450000D01*
X92710000Y-44450000D02*
X77470000Y-44450000D01*
X77470000Y-44450000D02*
X77470000Y-41910000D01*
X31750000Y-41910000D02*
X31750000Y-50165000D01*
X54610000Y-50800000D02*
X54610000Y-54610000D01*
X62230000Y-50800000D02*
X62230000Y-54610000D01*
X54610000Y-52705000D02*
X62230000Y-52705000D01*
X72390000Y-62230000D02*
X77470000Y-62230000D01*
X77470000Y-62230000D02*
X77470000Y-69850000D01*
X77470000Y-69850000D02*
X72390000Y-69850000D01*
X72390000Y-69850000D02*
X72390000Y-62230000D01*
X71755000Y-60960000D02*
X71755000Y-61595000D01*
X71755000Y-61595000D02*
X71120000Y-61595000D01*
X71120000Y-61595000D02*
X71120000Y-60960000D01*
X71120000Y-60960000D02*
X71755000Y-60960000D01*
X72390000Y-64770000D02*
X71755000Y-64770000D01*
X71755000Y-64770000D02*
X71755000Y-67310000D01*
X71755000Y-67310000D02*
X72390000Y-67310000D01*
X80010000Y-57150000D02*
X80010000Y-46990000D01*
D16*
X42721500Y-65381500D02*
G75*
G03X42721500Y-65381500I-200000J0D01*
G01*
X47521500Y-65381500D02*
X47021500Y-65381500D01*
X47521500Y-65881500D02*
X47521500Y-65381500D01*
X42821500Y-65381500D02*
X43021500Y-65381500D01*
X42521500Y-65881500D02*
X42521500Y-65681500D01*
X47521500Y-70381500D02*
X47021500Y-70381500D01*
X47521500Y-69881500D02*
X47521500Y-70381500D01*
X42521500Y-70381500D02*
X43021500Y-70381500D01*
X42521500Y-69881500D02*
X42521500Y-70381500D01*
D18*
X49593500Y-85153500D02*
X49593500Y-82613500D01*
X44513500Y-82867500D02*
X44259500Y-82613500D01*
X44767500Y-82613500D02*
X44513500Y-82867500D01*
X47307500Y-82613500D02*
X49085500Y-82613500D01*
X47053500Y-82867500D02*
X47307500Y-82613500D01*
X46799500Y-82613500D02*
X47053500Y-82867500D01*
X44767500Y-82613500D02*
X46799500Y-82613500D01*
X49085500Y-82613500D02*
X49593500Y-82613500D01*
X49339500Y-82613500D02*
X49593500Y-82867500D01*
X49593500Y-84899500D02*
X49339500Y-85153500D01*
X42227500Y-82613500D02*
X44259500Y-82613500D01*
X41973500Y-82867500D02*
X42227500Y-82613500D01*
X41973500Y-84899500D02*
X41973500Y-82867500D01*
X42227500Y-85153500D02*
X41973500Y-84899500D01*
X44259500Y-85153500D02*
X42227500Y-85153500D01*
X44513500Y-84899500D02*
X44259500Y-85153500D01*
X44767500Y-85153500D02*
X44513500Y-84899500D01*
X46799500Y-85153500D02*
X44767500Y-85153500D01*
X47053500Y-84899500D02*
X46799500Y-85153500D01*
X47307500Y-85153500D02*
X47053500Y-84899500D01*
X49339500Y-85153500D02*
X47307500Y-85153500D01*
X49593500Y-85153500D02*
X49339500Y-85153500D01*
X28575000Y-86741000D02*
X28575000Y-89281000D01*
X33655000Y-89027000D02*
X33909000Y-89281000D01*
X33401000Y-89281000D02*
X33655000Y-89027000D01*
X30861000Y-89281000D02*
X29083000Y-89281000D01*
X31115000Y-89027000D02*
X30861000Y-89281000D01*
X31369000Y-89281000D02*
X31115000Y-89027000D01*
X33401000Y-89281000D02*
X31369000Y-89281000D01*
X29083000Y-89281000D02*
X28575000Y-89281000D01*
X28829000Y-89281000D02*
X28575000Y-89027000D01*
X28575000Y-86995000D02*
X28829000Y-86741000D01*
X35941000Y-89281000D02*
X33909000Y-89281000D01*
X36195000Y-89027000D02*
X35941000Y-89281000D01*
X36195000Y-86995000D02*
X36195000Y-89027000D01*
X35941000Y-86741000D02*
X36195000Y-86995000D01*
X33909000Y-86741000D02*
X35941000Y-86741000D01*
X33655000Y-86995000D02*
X33909000Y-86741000D01*
X33401000Y-86741000D02*
X33655000Y-86995000D01*
X31369000Y-86741000D02*
X33401000Y-86741000D01*
X31115000Y-86995000D02*
X31369000Y-86741000D01*
X30861000Y-86741000D02*
X31115000Y-86995000D01*
X28829000Y-86741000D02*
X30861000Y-86741000D01*
X28575000Y-86741000D02*
X28829000Y-86741000D01*
X67613600Y-61787800D02*
X68613600Y-61787800D01*
X68613600Y-61787800D02*
X68613600Y-62787800D01*
X55113600Y-61787800D02*
X54113600Y-61787800D01*
X54113600Y-61787800D02*
X54113600Y-62787800D01*
X54113600Y-75287800D02*
X54113600Y-76287800D01*
X54113600Y-76287800D02*
X55113600Y-76287800D01*
X68613600Y-75287800D02*
X68613600Y-76287800D01*
X68613600Y-76287800D02*
X67613600Y-76287800D01*
X53363600Y-61037800D02*
X53863600Y-61037800D01*
X53863600Y-61037800D02*
X53863600Y-61537800D01*
X53863600Y-61537800D02*
X53363600Y-61537800D01*
X53363600Y-61537800D02*
X53363600Y-61037800D01*
D19*
X93929200Y-48133000D02*
X93929200Y-49149000D01*
X92710000Y-49149000D02*
X92710000Y-48133000D01*
D20*
X93345000Y-49790000D02*
X93345000Y-49270000D01*
X93235000Y-49620000D02*
X93455000Y-49620000D01*
X93235000Y-49620000D02*
X93335000Y-49510000D01*
X93455000Y-49620000D02*
X93355000Y-49520000D01*
X93235000Y-49430000D02*
X93455000Y-49430000D01*
D21*
X93590600Y-49352200D02*
X93700600Y-49482200D01*
X93699600Y-49483800D02*
X93689600Y-49403800D01*
X93699600Y-49483800D02*
X93619600Y-49483800D01*
X93699600Y-49699200D02*
X93619600Y-49699200D01*
X93699600Y-49699200D02*
X93689600Y-49619200D01*
X93569600Y-49559200D02*
X93679600Y-49689200D01*
D18*
X92773500Y-48120300D02*
X92900500Y-47967900D01*
X93865700Y-48120300D02*
X93738700Y-47980600D01*
X92900500Y-47967900D02*
X93726000Y-47967900D01*
X93827600Y-48133000D02*
X92786200Y-48133000D01*
D19*
X28194001Y-48463200D02*
X27178001Y-48463200D01*
X27178001Y-47244000D02*
X28194001Y-47244000D01*
D20*
X26537001Y-47879000D02*
X27057001Y-47879000D01*
X26707001Y-47769000D02*
X26707001Y-47989000D01*
X26707001Y-47769000D02*
X26817001Y-47869000D01*
X26707001Y-47989000D02*
X26807001Y-47889000D01*
X26897001Y-47769000D02*
X26897001Y-47989000D01*
D21*
X26974801Y-48124600D02*
X26844801Y-48234600D01*
X26843201Y-48233600D02*
X26923201Y-48223600D01*
X26843201Y-48233600D02*
X26843201Y-48153600D01*
X26627801Y-48233600D02*
X26627801Y-48153600D01*
X26627801Y-48233600D02*
X26707801Y-48223600D01*
X26767801Y-48103600D02*
X26637801Y-48213600D01*
D18*
X28206701Y-47307500D02*
X28359101Y-47434500D01*
X28206701Y-48399700D02*
X28346401Y-48272700D01*
X28359101Y-47434500D02*
X28359101Y-48260000D01*
X28194001Y-48361600D02*
X28194001Y-47320200D01*
D19*
X28194000Y-49860200D02*
X27178000Y-49860200D01*
X27178000Y-48641000D02*
X28194000Y-48641000D01*
D20*
X26537000Y-49276000D02*
X27057000Y-49276000D01*
X26707000Y-49166000D02*
X26707000Y-49386000D01*
X26707000Y-49166000D02*
X26817000Y-49266000D01*
X26707000Y-49386000D02*
X26807000Y-49286000D01*
X26897000Y-49166000D02*
X26897000Y-49386000D01*
D21*
X26974800Y-49521600D02*
X26844800Y-49631600D01*
X26843200Y-49630600D02*
X26923200Y-49620600D01*
X26843200Y-49630600D02*
X26843200Y-49550600D01*
X26627800Y-49630600D02*
X26627800Y-49550600D01*
X26627800Y-49630600D02*
X26707800Y-49620600D01*
X26767800Y-49500600D02*
X26637800Y-49610600D01*
D18*
X28206700Y-48704500D02*
X28359100Y-48831500D01*
X28206700Y-49796700D02*
X28346400Y-49669700D01*
X28359100Y-48831500D02*
X28359100Y-49657000D01*
X28194000Y-49758600D02*
X28194000Y-48717200D01*
D19*
X28194000Y-51257200D02*
X27178000Y-51257200D01*
X27178000Y-50038000D02*
X28194000Y-50038000D01*
D20*
X26537000Y-50673000D02*
X27057000Y-50673000D01*
X26707000Y-50563000D02*
X26707000Y-50783000D01*
X26707000Y-50563000D02*
X26817000Y-50663000D01*
X26707000Y-50783000D02*
X26807000Y-50683000D01*
X26897000Y-50563000D02*
X26897000Y-50783000D01*
D21*
X26974800Y-50918600D02*
X26844800Y-51028600D01*
X26843200Y-51027600D02*
X26923200Y-51017600D01*
X26843200Y-51027600D02*
X26843200Y-50947600D01*
X26627800Y-51027600D02*
X26627800Y-50947600D01*
X26627800Y-51027600D02*
X26707800Y-51017600D01*
X26767800Y-50897600D02*
X26637800Y-51007600D01*
D18*
X28206700Y-50101500D02*
X28359100Y-50228500D01*
X28206700Y-51193700D02*
X28346400Y-51066700D01*
X28359100Y-50228500D02*
X28359100Y-51054000D01*
X28194000Y-51155600D02*
X28194000Y-50114200D01*
D19*
X28194001Y-47066200D02*
X27178001Y-47066200D01*
X27178001Y-45847000D02*
X28194001Y-45847000D01*
D20*
X26537001Y-46482000D02*
X27057001Y-46482000D01*
X26707001Y-46372000D02*
X26707001Y-46592000D01*
X26707001Y-46372000D02*
X26817001Y-46472000D01*
X26707001Y-46592000D02*
X26807001Y-46492000D01*
X26897001Y-46372000D02*
X26897001Y-46592000D01*
D21*
X26974801Y-46727600D02*
X26844801Y-46837600D01*
X26843201Y-46836600D02*
X26923201Y-46826600D01*
X26843201Y-46836600D02*
X26843201Y-46756600D01*
X26627801Y-46836600D02*
X26627801Y-46756600D01*
X26627801Y-46836600D02*
X26707801Y-46826600D01*
X26767801Y-46706600D02*
X26637801Y-46816600D01*
D18*
X28206701Y-45910500D02*
X28359101Y-46037500D01*
X28206701Y-47002700D02*
X28346401Y-46875700D01*
X28359101Y-46037500D02*
X28359101Y-46863000D01*
X28194001Y-46964600D02*
X28194001Y-45923200D01*
X94424500Y-46291500D02*
X94424500Y-46545500D01*
X94424500Y-46291500D02*
X94424500Y-46037500D01*
X93535500Y-46291500D02*
X93535500Y-46037500D01*
X93535500Y-46291500D02*
X93535500Y-46545500D01*
X41465500Y-72644000D02*
X41719500Y-72644000D01*
X41465500Y-72644000D02*
X41211500Y-72644000D01*
X41465500Y-73533000D02*
X41211500Y-73533000D01*
X41465500Y-73533000D02*
X41719500Y-73533000D01*
X97485200Y-46380400D02*
X97485200Y-46634400D01*
X97485200Y-46380400D02*
X97485200Y-46126400D01*
X96596200Y-46380400D02*
X96596200Y-46126400D01*
X96596200Y-46380400D02*
X96596200Y-46634400D01*
X97599500Y-46367700D02*
X97599500Y-46113700D01*
X97599500Y-46367700D02*
X97599500Y-46621700D01*
X98488500Y-46367700D02*
X98488500Y-46621700D01*
X98488500Y-46367700D02*
X98488500Y-46113700D01*
X42176700Y-63982600D02*
X42176700Y-63728600D01*
X42176700Y-63982600D02*
X42176700Y-64236600D01*
X43065700Y-63982600D02*
X43065700Y-64236600D01*
X43065700Y-63982600D02*
X43065700Y-63728600D01*
X91694000Y-60134500D02*
X91440000Y-60134500D01*
X91694000Y-60134500D02*
X91948000Y-60134500D01*
X91694000Y-59245500D02*
X91948000Y-59245500D01*
X91694000Y-59245500D02*
X91440000Y-59245500D01*
X91694000Y-61404500D02*
X91440000Y-61404500D01*
X91694000Y-61404500D02*
X91948000Y-61404500D01*
X91694000Y-60515500D02*
X91948000Y-60515500D01*
X91694000Y-60515500D02*
X91440000Y-60515500D01*
X91694000Y-62661800D02*
X91440000Y-62661800D01*
X91694000Y-62661800D02*
X91948000Y-62661800D01*
X91694000Y-61772800D02*
X91948000Y-61772800D01*
X91694000Y-61772800D02*
X91440000Y-61772800D01*
X40513000Y-89700100D02*
X40259000Y-89700100D01*
X40513000Y-89700100D02*
X40767000Y-89700100D01*
X40513000Y-88811100D02*
X40767000Y-88811100D01*
X40513000Y-88811100D02*
X40259000Y-88811100D01*
X29857700Y-46926500D02*
X29603700Y-46926500D01*
X29857700Y-46926500D02*
X30111700Y-46926500D01*
X29857700Y-46037500D02*
X30111700Y-46037500D01*
X29857700Y-46037500D02*
X29603700Y-46037500D01*
X29857700Y-47993300D02*
X29603700Y-47993300D01*
X29857700Y-47993300D02*
X30111700Y-47993300D01*
X29857700Y-47104300D02*
X30111700Y-47104300D01*
X29857700Y-47104300D02*
X29603700Y-47104300D01*
X40513000Y-91859100D02*
X40767000Y-91859100D01*
X40513000Y-91859100D02*
X40259000Y-91859100D01*
X40513000Y-92748100D02*
X40259000Y-92748100D01*
X40513000Y-92748100D02*
X40767000Y-92748100D01*
X31648400Y-51282600D02*
X31394400Y-51282600D01*
X31648400Y-51282600D02*
X31902400Y-51282600D01*
X31648400Y-50393600D02*
X31902400Y-50393600D01*
X31648400Y-50393600D02*
X31394400Y-50393600D01*
X29845000Y-51117500D02*
X29591000Y-51117500D01*
X29845000Y-51117500D02*
X30099000Y-51117500D01*
X29845000Y-50228500D02*
X30099000Y-50228500D01*
X29845000Y-50228500D02*
X29591000Y-50228500D01*
X29832300Y-50114200D02*
X29578300Y-50114200D01*
X29832300Y-50114200D02*
X30086300Y-50114200D01*
X29832300Y-49225200D02*
X30086300Y-49225200D01*
X29832300Y-49225200D02*
X29578300Y-49225200D01*
X29857700Y-48310800D02*
X30111700Y-48310800D01*
X29857700Y-48310800D02*
X29603700Y-48310800D01*
X29857700Y-49199800D02*
X29603700Y-49199800D01*
X29857700Y-49199800D02*
X30111700Y-49199800D01*
X38379400Y-65913000D02*
X38379400Y-66167000D01*
X38379400Y-65913000D02*
X38379400Y-65659000D01*
X37490400Y-65913000D02*
X37490400Y-65659000D01*
X37490400Y-65913000D02*
X37490400Y-66167000D01*
X37490400Y-65913000D02*
X37490400Y-66167000D01*
X37490400Y-65913000D02*
X37490400Y-65659000D01*
X36601400Y-65913000D02*
X36601400Y-65659000D01*
X36601400Y-65913000D02*
X36601400Y-66167000D01*
X36601400Y-65913000D02*
X36601400Y-66167000D01*
X36601400Y-65913000D02*
X36601400Y-65659000D01*
X35712400Y-65913000D02*
X35712400Y-65659000D01*
X35712400Y-65913000D02*
X35712400Y-66167000D01*
X48577500Y-71247000D02*
X48577500Y-71501000D01*
X48577500Y-71247000D02*
X48577500Y-70993000D01*
X47688500Y-71247000D02*
X47688500Y-70993000D01*
X47688500Y-71247000D02*
X47688500Y-71501000D01*
X96596200Y-46380400D02*
X96596200Y-46634400D01*
X96596200Y-46380400D02*
X96596200Y-46126400D01*
X95707200Y-46380400D02*
X95707200Y-46126400D01*
X95707200Y-46380400D02*
X95707200Y-46634400D01*
X36258500Y-73342500D02*
X36258500Y-72326500D01*
X37782500Y-73342500D02*
X37782500Y-72326500D01*
D14*
X62554747Y-80314800D02*
G75*
G03X62554747Y-80314800I-337447J0D01*
G01*
D22*
X62204600Y-79540100D02*
X62712600Y-79032100D01*
X63804800Y-78955900D02*
X64439800Y-79565500D01*
X64414400Y-81521300D02*
X63855600Y-82105500D01*
X66040000Y-82118200D02*
X65582800Y-81661000D01*
X67025800Y-82118200D02*
X66040000Y-82118200D01*
D14*
X67904924Y-82092800D02*
G75*
G03X67904924Y-82092800I-366324J0D01*
G01*
D22*
X67538600Y-79400400D02*
X67538600Y-81000600D01*
D14*
X67924818Y-78867000D02*
G75*
G03X67924818Y-78867000I-373518J0D01*
G01*
X69130159Y-82067400D02*
G75*
G03X69130159Y-82067400I-359659J0D01*
G01*
D22*
X68757800Y-81559400D02*
X68757800Y-78968600D01*
X68757800Y-78968600D02*
X69596000Y-78968600D01*
X69596000Y-78968600D02*
X70205600Y-79476600D01*
X70307200Y-80264000D02*
X70307200Y-79552800D01*
X70383400Y-79476600D02*
X71018400Y-78968600D01*
D14*
X70678118Y-80797400D02*
G75*
G03X70678118Y-80797400I-370918J0D01*
G01*
D22*
X71018400Y-78968600D02*
X71907400Y-78968600D01*
D14*
X72283329Y-82080100D02*
G75*
G03X72283329Y-82080100I-363229J0D01*
G01*
X78078866Y-82169000D02*
G75*
G03X78078866Y-82169000I-329466J0D01*
G01*
D22*
X77419200Y-81813400D02*
X76581000Y-81000600D01*
D23*
X76073000Y-80899000D02*
X76606400Y-80899000D01*
D22*
X74930000Y-82118200D02*
X76073000Y-81000600D01*
X73609200Y-82118200D02*
X74930000Y-82118200D01*
X73177400Y-81686400D02*
X73609200Y-82118200D01*
X73177400Y-79451200D02*
X73177400Y-81686400D01*
X73177400Y-79425800D02*
X73660000Y-78917800D01*
X73708100Y-78943200D02*
X74930000Y-78943200D01*
X74930000Y-78943200D02*
X76022200Y-80010000D01*
D23*
X76047600Y-80124300D02*
X76606400Y-80124300D01*
D22*
X77470000Y-79133700D02*
X76606400Y-80027400D01*
D14*
X78197735Y-78778100D02*
G75*
G03X78197735Y-78778100I-359435J0D01*
G01*
D22*
X74396600Y-80518000D02*
X73177400Y-80518000D01*
D14*
X75264259Y-80518000D02*
G75*
G03X75264259Y-80518000I-359659J0D01*
G01*
D22*
X62776100Y-82130900D02*
X63817500Y-82130900D01*
X62217300Y-81572100D02*
X62217300Y-80810100D01*
X62204600Y-81559400D02*
X62788800Y-82130900D01*
X62204600Y-79590900D02*
X62204600Y-79832200D01*
X64427100Y-79552800D02*
X64427100Y-81483200D01*
X63804800Y-78943200D02*
X62801500Y-78943200D01*
X71920100Y-78955900D02*
X71920100Y-81559400D01*
X65582800Y-81673700D02*
X65582800Y-78943200D01*
D20*
X65582800Y-78600300D02*
X65303400Y-78600300D01*
X65278000Y-78600300D02*
X65278000Y-81749900D01*
X65290700Y-78600300D02*
X65278000Y-78600300D01*
X65303400Y-78600300D02*
X65290700Y-78600300D01*
X65417700Y-78689200D02*
X65354200Y-78676500D01*
X65900300Y-78600300D02*
X65900300Y-81635600D01*
X65595500Y-78600300D02*
X65900300Y-78600300D01*
X65722500Y-78676500D02*
X65836800Y-78676500D01*
X67221100Y-79286100D02*
X67221100Y-81305400D01*
X67856100Y-81305400D02*
X67856100Y-79286100D01*
X67830700Y-81305400D02*
X67856100Y-81305400D01*
X67221100Y-81305400D02*
X67830700Y-81305400D01*
X67360800Y-81241900D02*
X67297300Y-81241900D01*
X67703700Y-81241900D02*
X67792600Y-81241900D01*
X68440300Y-81648300D02*
X68440300Y-78663800D01*
X69684900Y-78651100D02*
X70269100Y-79133700D01*
X68440300Y-78651100D02*
X69684900Y-78651100D01*
X68592700Y-78714600D02*
X68516500Y-78714600D01*
X72250300Y-81673700D02*
X72250300Y-78663800D01*
X70929500Y-78651100D02*
X70307200Y-79146400D01*
X70954900Y-78651100D02*
X70929500Y-78651100D01*
X72250300Y-78651100D02*
X70954900Y-78651100D01*
X72250300Y-78663800D02*
X72250300Y-78651100D01*
X72097900Y-78727300D02*
X72199500Y-78727300D01*
X75044300Y-78613000D02*
X76301600Y-79857600D01*
X74993500Y-78613000D02*
X75044300Y-78613000D01*
X73621900Y-78613000D02*
X74993500Y-78613000D01*
D18*
X37875000Y-93290000D02*
X35725000Y-93290000D01*
X33175000Y-93290000D02*
X35315000Y-93290000D01*
X37875000Y-89590000D02*
X35815000Y-89590000D01*
X33175000Y-89590000D02*
X35245000Y-89590000D01*
X36775000Y-93290000D02*
X36775000Y-94300000D01*
X34275000Y-93290000D02*
X34275000Y-94280000D01*
X34125000Y-94300000D02*
X36935000Y-94300000D01*
X37874500Y-91300300D02*
X37874500Y-91617800D01*
X33175500Y-91287600D02*
X33175500Y-91605100D01*
X37874500Y-93284200D02*
X37874500Y-93030200D01*
X33175500Y-93284200D02*
X33175500Y-93017500D01*
X37874500Y-89595800D02*
X37874500Y-89875200D01*
X33175500Y-89595800D02*
X33175500Y-89862500D01*
X43688000Y-72644000D02*
X43942000Y-72644000D01*
X43688000Y-72644000D02*
X43434000Y-72644000D01*
X43688000Y-73533000D02*
X43434000Y-73533000D01*
X43688000Y-73533000D02*
X43942000Y-73533000D01*
X33909000Y-54292500D02*
X33909000Y-53276500D01*
X35433000Y-54292500D02*
X35433000Y-53276500D01*
X44450000Y-78486000D02*
X42926000Y-78486000D01*
X44450000Y-80772000D02*
X42926000Y-80772000D01*
X39624000Y-60515500D02*
X40640000Y-60515500D01*
X39624000Y-62039500D02*
X40640000Y-62039500D01*
X48577500Y-80454500D02*
X47561500Y-80454500D01*
X48577500Y-78930500D02*
X47561500Y-78930500D01*
X40716200Y-69011800D02*
X40716200Y-67995800D01*
X42240200Y-69011800D02*
X42240200Y-67995800D01*
X33718500Y-50355500D02*
X34734500Y-50355500D01*
X33718500Y-51879500D02*
X34734500Y-51879500D01*
X33515300Y-60833000D02*
X32499300Y-60833000D01*
X33515300Y-59309000D02*
X32499300Y-59309000D01*
D16*
X43276000Y-61587800D02*
X42576000Y-61587800D01*
X43276000Y-60687800D02*
X42576000Y-60687800D01*
X44876200Y-51453200D02*
X44176200Y-51453200D01*
X44876200Y-50553200D02*
X44176200Y-50553200D01*
D18*
X30480000Y-90170000D02*
X30734000Y-90170000D01*
X30480000Y-90170000D02*
X30226000Y-90170000D01*
X30480000Y-91059000D02*
X30226000Y-91059000D01*
X30480000Y-91059000D02*
X30734000Y-91059000D01*
X37266000Y-79919000D02*
X37266000Y-84419000D01*
X40966000Y-81039000D02*
X37266000Y-81039000D01*
X40966000Y-84419000D02*
X40966000Y-79919000D01*
X40966000Y-81479000D02*
X37266000Y-81479000D01*
D19*
X31877000Y-54533800D02*
X31877000Y-53695600D01*
X33655000Y-54533800D02*
X33655000Y-53695600D01*
X39878000Y-72275699D02*
X39878000Y-73113899D01*
X38100000Y-72275699D02*
X38100000Y-73113899D01*
X38531800Y-78105000D02*
X37693600Y-78105000D01*
X38531800Y-76327000D02*
X37693600Y-76327000D01*
D18*
X94904560Y-50142140D02*
X95615760Y-50142140D01*
X94904560Y-49303940D02*
X94904560Y-50142140D01*
X97749360Y-49303940D02*
X97749360Y-50142140D01*
X97038160Y-50142140D02*
X97749360Y-50142140D01*
X39052500Y-62522100D02*
X39052500Y-63233300D01*
X39890700Y-62522100D02*
X39052500Y-62522100D01*
X39890700Y-65366900D02*
X39052500Y-65366900D01*
X39052500Y-64655700D02*
X39052500Y-65366900D01*
X30167580Y-73037700D02*
X28460700Y-74129900D01*
X23492460Y-62212220D02*
X23492460Y-73698100D01*
X23921720Y-61770260D02*
X34858960Y-61770260D01*
X23921720Y-74129900D02*
X28440380Y-74129900D01*
X35288220Y-72308720D02*
X35288220Y-72608440D01*
X35288220Y-66210180D02*
X35288220Y-68658740D01*
X35288220Y-62202060D02*
X35288220Y-62671960D01*
X34858960Y-73037700D02*
X30167580Y-73037700D01*
D24*
X59121040Y-81661000D02*
X59121040Y-82359500D01*
X59121040Y-80962500D02*
X59121040Y-81661000D01*
X57972960Y-81661000D02*
X57972960Y-82359500D01*
X57972960Y-80962500D02*
X57972960Y-81661000D01*
X59121040Y-81661000D02*
X59446160Y-81661000D01*
X57972960Y-81661000D02*
X57673240Y-81661000D01*
X58745120Y-80962500D02*
X58348880Y-80962500D01*
X58745120Y-82359500D02*
X58745120Y-80962500D01*
X58348880Y-82359500D02*
X58745120Y-82359500D01*
X58348880Y-80962500D02*
X58348880Y-82359500D01*
D18*
X56047640Y-83108800D02*
X56047640Y-83258660D01*
X56047640Y-80063340D02*
X56047640Y-80213200D01*
X61046360Y-80063340D02*
X56047640Y-80063340D01*
X61046360Y-80213200D02*
X61046360Y-80063340D01*
X61046360Y-83258660D02*
X61046360Y-83108800D01*
X56047640Y-83258660D02*
X61046360Y-83258660D01*
X44958000Y-72199500D02*
X43942000Y-72199500D01*
X44958000Y-70675500D02*
X43942000Y-70675500D01*
D16*
X43310113Y-75603479D02*
G75*
G03X43310113Y-75603479I-158053J0D01*
G01*
D24*
X41706800Y-76660119D02*
X41800780Y-76660119D01*
X42654220Y-76660119D02*
X42748200Y-76660119D01*
X41706800Y-75042139D02*
X41800780Y-75042139D01*
X42654220Y-75042139D02*
X42748200Y-75042139D01*
X43649900Y-75042139D02*
X43649900Y-76662659D01*
X40805100Y-76662659D02*
X40805100Y-75042139D01*
D16*
X44199113Y-74714479D02*
G75*
G03X44199113Y-74714479I-158053J0D01*
G01*
D18*
X36131500Y-53022500D02*
X36131500Y-58483500D01*
X43370500Y-53022500D02*
X35750500Y-53022500D01*
X35750500Y-58483500D02*
X43370500Y-58483500D01*
X43370500Y-53022500D02*
X43370500Y-58483500D01*
X35750500Y-58483500D02*
X35750500Y-53022500D01*
D16*
X45339000Y-62801500D02*
X45720000Y-62801500D01*
X48641000Y-62801500D02*
X48260000Y-62801500D01*
X48641000Y-52895500D02*
X48260000Y-52895500D01*
X45339000Y-52895500D02*
X45720000Y-52895500D01*
X44450000Y-52133500D02*
X45720000Y-52133500D01*
X49530000Y-52133500D02*
X48260000Y-52133500D01*
X49530000Y-63563500D02*
X48260000Y-63563500D01*
X44450000Y-63563500D02*
X45720000Y-63563500D01*
X48641000Y-62801500D02*
X49276000Y-62166500D01*
X49276000Y-62166500D02*
X49276000Y-53530500D01*
X49276000Y-53530500D02*
X48641000Y-52895500D01*
X45339000Y-52895500D02*
X44704000Y-53530500D01*
X44704000Y-53530500D02*
X44704000Y-62166500D01*
X44704000Y-62166500D02*
X45339000Y-62801500D01*
X49530000Y-52133500D02*
X49530000Y-63563500D01*
X44450000Y-63563500D02*
X44450000Y-52133500D01*
D18*
X64998600Y-59169300D02*
X64744600Y-59169300D01*
X64998600Y-59169300D02*
X65252600Y-59169300D01*
X64998600Y-58280300D02*
X65252600Y-58280300D01*
X64998600Y-58280300D02*
X64744600Y-58280300D01*
X70713600Y-70053200D02*
X70713600Y-69799200D01*
X70713600Y-70053200D02*
X70713600Y-70307200D01*
X71602600Y-70053200D02*
X71602600Y-70307200D01*
X71602600Y-70053200D02*
X71602600Y-69799200D01*
X55397400Y-58940700D02*
X55651400Y-58940700D01*
X55397400Y-58940700D02*
X55143400Y-58940700D01*
X55397400Y-59829700D02*
X55143400Y-59829700D01*
X55397400Y-59829700D02*
X55651400Y-59829700D01*
X53784500Y-79133700D02*
X53530500Y-79133700D01*
X53784500Y-79133700D02*
X54038500Y-79133700D01*
X53784500Y-78244700D02*
X54038500Y-78244700D01*
X53784500Y-78244700D02*
X53530500Y-78244700D01*
X52463700Y-68021200D02*
X52463700Y-68275200D01*
X52463700Y-68021200D02*
X52463700Y-67767200D01*
X51574700Y-68021200D02*
X51574700Y-67767200D01*
X51574700Y-68021200D02*
X51574700Y-68275200D01*
X95631000Y-53022500D02*
X94615000Y-53022500D01*
X95631000Y-51498500D02*
X94615000Y-51498500D01*
D20*
X38219700Y-67583200D02*
X38219700Y-67333200D01*
X37969700Y-67583200D02*
X38219700Y-67583200D01*
X37969700Y-67333200D02*
X37969700Y-67583200D01*
X38219700Y-67333200D02*
X37969700Y-67333200D01*
X35819700Y-68033200D02*
X35819700Y-69533200D01*
X38169700Y-68033200D02*
X38169700Y-69533200D01*
D16*
X26054276Y-82495780D02*
X26054276Y-81495780D01*
X26435228Y-81495780D01*
X26530466Y-81543400D01*
X26578085Y-81591019D01*
X26625704Y-81686257D01*
X26625704Y-81829114D01*
X26578085Y-81924352D01*
X26530466Y-81971971D01*
X26435228Y-82019590D01*
X26054276Y-82019590D01*
X26959038Y-81495780D02*
X27197133Y-82495780D01*
X27387609Y-81781495D01*
X27578085Y-82495780D01*
X27816180Y-81495780D01*
X28768561Y-82495780D02*
X28435228Y-82019590D01*
X28197133Y-82495780D02*
X28197133Y-81495780D01*
X28578085Y-81495780D01*
X28673323Y-81543400D01*
X28720942Y-81591019D01*
X28768561Y-81686257D01*
X28768561Y-81829114D01*
X28720942Y-81924352D01*
X28673323Y-81971971D01*
X28578085Y-82019590D01*
X28197133Y-82019590D01*
X29720942Y-82495780D02*
X29149514Y-82495780D01*
X29435228Y-82495780D02*
X29435228Y-81495780D01*
X29339990Y-81638638D01*
X29244752Y-81733876D01*
X29149514Y-81781495D01*
X93408571Y-68713333D02*
X93789523Y-68713333D01*
X93332380Y-68941904D02*
X93599047Y-68141904D01*
X93865714Y-68941904D01*
X94246666Y-68484761D02*
X94170476Y-68446666D01*
X94132380Y-68408571D01*
X94094285Y-68332380D01*
X94094285Y-68294285D01*
X94132380Y-68218095D01*
X94170476Y-68180000D01*
X94246666Y-68141904D01*
X94399047Y-68141904D01*
X94475238Y-68180000D01*
X94513333Y-68218095D01*
X94551428Y-68294285D01*
X94551428Y-68332380D01*
X94513333Y-68408571D01*
X94475238Y-68446666D01*
X94399047Y-68484761D01*
X94246666Y-68484761D01*
X94170476Y-68522857D01*
X94132380Y-68560952D01*
X94094285Y-68637142D01*
X94094285Y-68789523D01*
X94132380Y-68865714D01*
X94170476Y-68903809D01*
X94246666Y-68941904D01*
X94399047Y-68941904D01*
X94475238Y-68903809D01*
X94513333Y-68865714D01*
X94551428Y-68789523D01*
X94551428Y-68637142D01*
X94513333Y-68560952D01*
X94475238Y-68522857D01*
X94399047Y-68484761D01*
D18*
X79311500Y-89716428D02*
X79311500Y-89172142D01*
X79638071Y-89825285D02*
X78495071Y-89444285D01*
X79638071Y-89063285D01*
X78495071Y-88791142D02*
X78495071Y-88029142D01*
X79638071Y-88519000D01*
D16*
X78936904Y-69227619D02*
X78936904Y-68732380D01*
X79241666Y-68999047D01*
X79241666Y-68884761D01*
X79279761Y-68808571D01*
X79317857Y-68770476D01*
X79394047Y-68732380D01*
X79584523Y-68732380D01*
X79660714Y-68770476D01*
X79698809Y-68808571D01*
X79736904Y-68884761D01*
X79736904Y-69113333D01*
X79698809Y-69189523D01*
X79660714Y-69227619D01*
X78936904Y-68237142D02*
X78936904Y-68160952D01*
X78975000Y-68084761D01*
X79013095Y-68046666D01*
X79089285Y-68008571D01*
X79241666Y-67970476D01*
X79432142Y-67970476D01*
X79584523Y-68008571D01*
X79660714Y-68046666D01*
X79698809Y-68084761D01*
X79736904Y-68160952D01*
X79736904Y-68237142D01*
X79698809Y-68313333D01*
X79660714Y-68351428D01*
X79584523Y-68389523D01*
X79432142Y-68427619D01*
X79241666Y-68427619D01*
X79089285Y-68389523D01*
X79013095Y-68351428D01*
X78975000Y-68313333D01*
X78936904Y-68237142D01*
X93408619Y-81413333D02*
X93789571Y-81413333D01*
X93332428Y-81641904D02*
X93599095Y-80841904D01*
X93865761Y-81641904D01*
X94551476Y-81641904D02*
X94094333Y-81641904D01*
X94322904Y-81641904D02*
X94322904Y-80841904D01*
X94246714Y-80956190D01*
X94170523Y-81032380D01*
X94094333Y-81070476D01*
X94818142Y-80841904D02*
X95313380Y-80841904D01*
X95046714Y-81146666D01*
X95161000Y-81146666D01*
X95237190Y-81184761D01*
X95275285Y-81222857D01*
X95313380Y-81299047D01*
X95313380Y-81489523D01*
X95275285Y-81565714D01*
X95237190Y-81603809D01*
X95161000Y-81641904D01*
X94932428Y-81641904D01*
X94856238Y-81603809D01*
X94818142Y-81565714D01*
X87356904Y-72110476D02*
X86556904Y-72110476D01*
X86556904Y-71805714D01*
X86595000Y-71729523D01*
X86633095Y-71691428D01*
X86709285Y-71653333D01*
X86823571Y-71653333D01*
X86899761Y-71691428D01*
X86937857Y-71729523D01*
X86975952Y-71805714D01*
X86975952Y-72110476D01*
X87356904Y-71310476D02*
X86556904Y-71310476D01*
X86556904Y-71120000D01*
X86595000Y-71005714D01*
X86671190Y-70929523D01*
X86747380Y-70891428D01*
X86899761Y-70853333D01*
X87014047Y-70853333D01*
X87166428Y-70891428D01*
X87242619Y-70929523D01*
X87318809Y-71005714D01*
X87356904Y-71120000D01*
X87356904Y-71310476D01*
X86556904Y-70129523D02*
X86556904Y-70510476D01*
X86937857Y-70548571D01*
X86899761Y-70510476D01*
X86861666Y-70434285D01*
X86861666Y-70243809D01*
X86899761Y-70167619D01*
X86937857Y-70129523D01*
X87014047Y-70091428D01*
X87204523Y-70091428D01*
X87280714Y-70129523D01*
X87318809Y-70167619D01*
X87356904Y-70243809D01*
X87356904Y-70434285D01*
X87318809Y-70510476D01*
X87280714Y-70548571D01*
X85413904Y-78930476D02*
X85413904Y-79311428D01*
X85794857Y-79349523D01*
X85756761Y-79311428D01*
X85718666Y-79235238D01*
X85718666Y-79044761D01*
X85756761Y-78968571D01*
X85794857Y-78930476D01*
X85871047Y-78892380D01*
X86061523Y-78892380D01*
X86137714Y-78930476D01*
X86175809Y-78968571D01*
X86213904Y-79044761D01*
X86213904Y-79235238D01*
X86175809Y-79311428D01*
X86137714Y-79349523D01*
X85413904Y-78397142D02*
X85413904Y-78320952D01*
X85452000Y-78244761D01*
X85490095Y-78206666D01*
X85566285Y-78168571D01*
X85718666Y-78130476D01*
X85909142Y-78130476D01*
X86061523Y-78168571D01*
X86137714Y-78206666D01*
X86175809Y-78244761D01*
X86213904Y-78320952D01*
X86213904Y-78397142D01*
X86175809Y-78473333D01*
X86137714Y-78511428D01*
X86061523Y-78549523D01*
X85909142Y-78587619D01*
X85718666Y-78587619D01*
X85566285Y-78549523D01*
X85490095Y-78511428D01*
X85452000Y-78473333D01*
X85413904Y-78397142D01*
X87356904Y-59315238D02*
X86556904Y-59315238D01*
X86556904Y-59010476D01*
X86595000Y-58934285D01*
X86633095Y-58896190D01*
X86709285Y-58858095D01*
X86823571Y-58858095D01*
X86899761Y-58896190D01*
X86937857Y-58934285D01*
X86975952Y-59010476D01*
X86975952Y-59315238D01*
X86556904Y-58286666D02*
X87128333Y-58286666D01*
X87242619Y-58324761D01*
X87318809Y-58400952D01*
X87356904Y-58515238D01*
X87356904Y-58591428D01*
X86823571Y-57562857D02*
X87356904Y-57562857D01*
X86518809Y-57753333D02*
X87090238Y-57943809D01*
X87090238Y-57448571D01*
X85413904Y-84010476D02*
X85413904Y-84391428D01*
X85794857Y-84429523D01*
X85756761Y-84391428D01*
X85718666Y-84315238D01*
X85718666Y-84124761D01*
X85756761Y-84048571D01*
X85794857Y-84010476D01*
X85871047Y-83972380D01*
X86061523Y-83972380D01*
X86137714Y-84010476D01*
X86175809Y-84048571D01*
X86213904Y-84124761D01*
X86213904Y-84315238D01*
X86175809Y-84391428D01*
X86137714Y-84429523D01*
X85490095Y-83667619D02*
X85452000Y-83629523D01*
X85413904Y-83553333D01*
X85413904Y-83362857D01*
X85452000Y-83286666D01*
X85490095Y-83248571D01*
X85566285Y-83210476D01*
X85642476Y-83210476D01*
X85756761Y-83248571D01*
X86213904Y-83705714D01*
X86213904Y-83210476D01*
X87356904Y-51809523D02*
X86556904Y-51809523D01*
X86556904Y-51504761D01*
X86595000Y-51428571D01*
X86633095Y-51390476D01*
X86709285Y-51352380D01*
X86823571Y-51352380D01*
X86899761Y-51390476D01*
X86937857Y-51428571D01*
X86975952Y-51504761D01*
X86975952Y-51809523D01*
X87356904Y-51009523D02*
X86556904Y-51009523D01*
X86937857Y-51009523D02*
X86937857Y-50552380D01*
X87356904Y-50552380D02*
X86556904Y-50552380D01*
X86556904Y-50247619D02*
X86556904Y-49714285D01*
X87356904Y-50057142D01*
X85680571Y-68808571D02*
X86213904Y-68808571D01*
X85375809Y-68999047D02*
X85947238Y-69189523D01*
X85947238Y-68694285D01*
X85413904Y-68046666D02*
X85413904Y-68199047D01*
X85452000Y-68275238D01*
X85490095Y-68313333D01*
X85604380Y-68389523D01*
X85756761Y-68427619D01*
X86061523Y-68427619D01*
X86137714Y-68389523D01*
X86175809Y-68351428D01*
X86213904Y-68275238D01*
X86213904Y-68122857D01*
X86175809Y-68046666D01*
X86137714Y-68008571D01*
X86061523Y-67970476D01*
X85871047Y-67970476D01*
X85794857Y-68008571D01*
X85756761Y-68046666D01*
X85718666Y-68122857D01*
X85718666Y-68275238D01*
X85756761Y-68351428D01*
X85794857Y-68389523D01*
X85871047Y-68427619D01*
X87356904Y-54235238D02*
X86556904Y-54235238D01*
X86556904Y-53930476D01*
X86595000Y-53854285D01*
X86633095Y-53816190D01*
X86709285Y-53778095D01*
X86823571Y-53778095D01*
X86899761Y-53816190D01*
X86937857Y-53854285D01*
X86975952Y-53930476D01*
X86975952Y-54235238D01*
X86556904Y-53206666D02*
X87128333Y-53206666D01*
X87242619Y-53244761D01*
X87318809Y-53320952D01*
X87356904Y-53435238D01*
X87356904Y-53511428D01*
X86633095Y-52863809D02*
X86595000Y-52825714D01*
X86556904Y-52749523D01*
X86556904Y-52559047D01*
X86595000Y-52482857D01*
X86633095Y-52444761D01*
X86709285Y-52406666D01*
X86785476Y-52406666D01*
X86899761Y-52444761D01*
X87356904Y-52901904D01*
X87356904Y-52406666D01*
X87356904Y-74650476D02*
X86556904Y-74650476D01*
X86556904Y-74345714D01*
X86595000Y-74269523D01*
X86633095Y-74231428D01*
X86709285Y-74193333D01*
X86823571Y-74193333D01*
X86899761Y-74231428D01*
X86937857Y-74269523D01*
X86975952Y-74345714D01*
X86975952Y-74650476D01*
X87356904Y-73850476D02*
X86556904Y-73850476D01*
X86556904Y-73660000D01*
X86595000Y-73545714D01*
X86671190Y-73469523D01*
X86747380Y-73431428D01*
X86899761Y-73393333D01*
X87014047Y-73393333D01*
X87166428Y-73431428D01*
X87242619Y-73469523D01*
X87318809Y-73545714D01*
X87356904Y-73660000D01*
X87356904Y-73850476D01*
X86556904Y-72707619D02*
X86556904Y-72860000D01*
X86595000Y-72936190D01*
X86633095Y-72974285D01*
X86747380Y-73050476D01*
X86899761Y-73088571D01*
X87204523Y-73088571D01*
X87280714Y-73050476D01*
X87318809Y-73012380D01*
X87356904Y-72936190D01*
X87356904Y-72783809D01*
X87318809Y-72707619D01*
X87280714Y-72669523D01*
X87204523Y-72631428D01*
X87014047Y-72631428D01*
X86937857Y-72669523D01*
X86899761Y-72707619D01*
X86861666Y-72783809D01*
X86861666Y-72936190D01*
X86899761Y-73012380D01*
X86937857Y-73050476D01*
X87014047Y-73088571D01*
X93408619Y-86493333D02*
X93789571Y-86493333D01*
X93332428Y-86721904D02*
X93599095Y-85921904D01*
X93865761Y-86721904D01*
X94551476Y-86721904D02*
X94094333Y-86721904D01*
X94322904Y-86721904D02*
X94322904Y-85921904D01*
X94246714Y-86036190D01*
X94170523Y-86112380D01*
X94094333Y-86150476D01*
X95275285Y-85921904D02*
X94894333Y-85921904D01*
X94856238Y-86302857D01*
X94894333Y-86264761D01*
X94970523Y-86226666D01*
X95161000Y-86226666D01*
X95237190Y-86264761D01*
X95275285Y-86302857D01*
X95313380Y-86379047D01*
X95313380Y-86569523D01*
X95275285Y-86645714D01*
X95237190Y-86683809D01*
X95161000Y-86721904D01*
X94970523Y-86721904D01*
X94894333Y-86683809D01*
X94856238Y-86645714D01*
X93408619Y-73793333D02*
X93789571Y-73793333D01*
X93332428Y-74021904D02*
X93599095Y-73221904D01*
X93865761Y-74021904D01*
X94551476Y-74021904D02*
X94094333Y-74021904D01*
X94322904Y-74021904D02*
X94322904Y-73221904D01*
X94246714Y-73336190D01*
X94170523Y-73412380D01*
X94094333Y-73450476D01*
X95046714Y-73221904D02*
X95122904Y-73221904D01*
X95199095Y-73260000D01*
X95237190Y-73298095D01*
X95275285Y-73374285D01*
X95313380Y-73526666D01*
X95313380Y-73717142D01*
X95275285Y-73869523D01*
X95237190Y-73945714D01*
X95199095Y-73983809D01*
X95122904Y-74021904D01*
X95046714Y-74021904D01*
X94970523Y-73983809D01*
X94932428Y-73945714D01*
X94894333Y-73869523D01*
X94856238Y-73717142D01*
X94856238Y-73526666D01*
X94894333Y-73374285D01*
X94932428Y-73298095D01*
X94970523Y-73260000D01*
X95046714Y-73221904D01*
X78936904Y-76847619D02*
X78936904Y-76352380D01*
X79241666Y-76619047D01*
X79241666Y-76504761D01*
X79279761Y-76428571D01*
X79317857Y-76390476D01*
X79394047Y-76352380D01*
X79584523Y-76352380D01*
X79660714Y-76390476D01*
X79698809Y-76428571D01*
X79736904Y-76504761D01*
X79736904Y-76733333D01*
X79698809Y-76809523D01*
X79660714Y-76847619D01*
X78936904Y-76085714D02*
X78936904Y-75590476D01*
X79241666Y-75857142D01*
X79241666Y-75742857D01*
X79279761Y-75666666D01*
X79317857Y-75628571D01*
X79394047Y-75590476D01*
X79584523Y-75590476D01*
X79660714Y-75628571D01*
X79698809Y-75666666D01*
X79736904Y-75742857D01*
X79736904Y-75971428D01*
X79698809Y-76047619D01*
X79660714Y-76085714D01*
X78936904Y-71767619D02*
X78936904Y-71272380D01*
X79241666Y-71539047D01*
X79241666Y-71424761D01*
X79279761Y-71348571D01*
X79317857Y-71310476D01*
X79394047Y-71272380D01*
X79584523Y-71272380D01*
X79660714Y-71310476D01*
X79698809Y-71348571D01*
X79736904Y-71424761D01*
X79736904Y-71653333D01*
X79698809Y-71729523D01*
X79660714Y-71767619D01*
X79736904Y-70510476D02*
X79736904Y-70967619D01*
X79736904Y-70739047D02*
X78936904Y-70739047D01*
X79051190Y-70815238D01*
X79127380Y-70891428D01*
X79165476Y-70967619D01*
X93408571Y-71253333D02*
X93789523Y-71253333D01*
X93332380Y-71481904D02*
X93599047Y-70681904D01*
X93865714Y-71481904D01*
X94170476Y-71481904D02*
X94322857Y-71481904D01*
X94399047Y-71443809D01*
X94437142Y-71405714D01*
X94513333Y-71291428D01*
X94551428Y-71139047D01*
X94551428Y-70834285D01*
X94513333Y-70758095D01*
X94475238Y-70720000D01*
X94399047Y-70681904D01*
X94246666Y-70681904D01*
X94170476Y-70720000D01*
X94132380Y-70758095D01*
X94094285Y-70834285D01*
X94094285Y-71024761D01*
X94132380Y-71100952D01*
X94170476Y-71139047D01*
X94246666Y-71177142D01*
X94399047Y-71177142D01*
X94475238Y-71139047D01*
X94513333Y-71100952D01*
X94551428Y-71024761D01*
D25*
X88366666Y-92647333D02*
X88400000Y-92614000D01*
X88466666Y-92580666D01*
X88633333Y-92580666D01*
X88700000Y-92614000D01*
X88733333Y-92647333D01*
X88766666Y-92714000D01*
X88766666Y-92780666D01*
X88733333Y-92880666D01*
X88333333Y-93280666D01*
X88766666Y-93280666D01*
X89433333Y-93280666D02*
X89033333Y-93280666D01*
X89233333Y-93280666D02*
X89233333Y-92580666D01*
X89166666Y-92680666D01*
X89100000Y-92747333D01*
X89033333Y-92780666D01*
X91306666Y-41718666D02*
X90906666Y-41718666D01*
X91106666Y-41718666D02*
X91106666Y-41018666D01*
X91040000Y-41118666D01*
X90973333Y-41185333D01*
X90906666Y-41218666D01*
X91640000Y-41718666D02*
X91773333Y-41718666D01*
X91840000Y-41685333D01*
X91873333Y-41652000D01*
X91940000Y-41552000D01*
X91973333Y-41418666D01*
X91973333Y-41152000D01*
X91940000Y-41085333D01*
X91906666Y-41052000D01*
X91840000Y-41018666D01*
X91706666Y-41018666D01*
X91640000Y-41052000D01*
X91606666Y-41085333D01*
X91573333Y-41152000D01*
X91573333Y-41318666D01*
X91606666Y-41385333D01*
X91640000Y-41418666D01*
X91706666Y-41452000D01*
X91840000Y-41452000D01*
X91906666Y-41418666D01*
X91940000Y-41385333D01*
X91973333Y-41318666D01*
D16*
X78936904Y-74307619D02*
X78936904Y-73812380D01*
X79241666Y-74079047D01*
X79241666Y-73964761D01*
X79279761Y-73888571D01*
X79317857Y-73850476D01*
X79394047Y-73812380D01*
X79584523Y-73812380D01*
X79660714Y-73850476D01*
X79698809Y-73888571D01*
X79736904Y-73964761D01*
X79736904Y-74193333D01*
X79698809Y-74269523D01*
X79660714Y-74307619D01*
X79013095Y-73507619D02*
X78975000Y-73469523D01*
X78936904Y-73393333D01*
X78936904Y-73202857D01*
X78975000Y-73126666D01*
X79013095Y-73088571D01*
X79089285Y-73050476D01*
X79165476Y-73050476D01*
X79279761Y-73088571D01*
X79736904Y-73545714D01*
X79736904Y-73050476D01*
X79444904Y-87007619D02*
X79444904Y-86512380D01*
X79749666Y-86779047D01*
X79749666Y-86664761D01*
X79787761Y-86588571D01*
X79825857Y-86550476D01*
X79902047Y-86512380D01*
X80092523Y-86512380D01*
X80168714Y-86550476D01*
X80206809Y-86588571D01*
X80244904Y-86664761D01*
X80244904Y-86893333D01*
X80206809Y-86969523D01*
X80168714Y-87007619D01*
X79444904Y-86245714D02*
X79444904Y-85712380D01*
X80244904Y-86055238D01*
D25*
X90906666Y-92647333D02*
X90940000Y-92614000D01*
X91006666Y-92580666D01*
X91173333Y-92580666D01*
X91240000Y-92614000D01*
X91273333Y-92647333D01*
X91306666Y-92714000D01*
X91306666Y-92780666D01*
X91273333Y-92880666D01*
X90873333Y-93280666D01*
X91306666Y-93280666D01*
X91740000Y-92580666D02*
X91806666Y-92580666D01*
X91873333Y-92614000D01*
X91906666Y-92647333D01*
X91940000Y-92714000D01*
X91973333Y-92847333D01*
X91973333Y-93014000D01*
X91940000Y-93147333D01*
X91906666Y-93214000D01*
X91873333Y-93247333D01*
X91806666Y-93280666D01*
X91740000Y-93280666D01*
X91673333Y-93247333D01*
X91640000Y-93214000D01*
X91606666Y-93147333D01*
X91573333Y-93014000D01*
X91573333Y-92847333D01*
X91606666Y-92714000D01*
X91640000Y-92647333D01*
X91673333Y-92614000D01*
X91740000Y-92580666D01*
D16*
X85413904Y-48907619D02*
X85413904Y-48412380D01*
X85718666Y-48679047D01*
X85718666Y-48564761D01*
X85756761Y-48488571D01*
X85794857Y-48450476D01*
X85871047Y-48412380D01*
X86061523Y-48412380D01*
X86137714Y-48450476D01*
X86175809Y-48488571D01*
X86213904Y-48564761D01*
X86213904Y-48793333D01*
X86175809Y-48869523D01*
X86137714Y-48907619D01*
X85756761Y-47955238D02*
X85718666Y-48031428D01*
X85680571Y-48069523D01*
X85604380Y-48107619D01*
X85566285Y-48107619D01*
X85490095Y-48069523D01*
X85452000Y-48031428D01*
X85413904Y-47955238D01*
X85413904Y-47802857D01*
X85452000Y-47726666D01*
X85490095Y-47688571D01*
X85566285Y-47650476D01*
X85604380Y-47650476D01*
X85680571Y-47688571D01*
X85718666Y-47726666D01*
X85756761Y-47802857D01*
X85756761Y-47955238D01*
X85794857Y-48031428D01*
X85832952Y-48069523D01*
X85909142Y-48107619D01*
X86061523Y-48107619D01*
X86137714Y-48069523D01*
X86175809Y-48031428D01*
X86213904Y-47955238D01*
X86213904Y-47802857D01*
X86175809Y-47726666D01*
X86137714Y-47688571D01*
X86061523Y-47650476D01*
X85909142Y-47650476D01*
X85832952Y-47688571D01*
X85794857Y-47726666D01*
X85756761Y-47802857D01*
X87356904Y-66935238D02*
X86556904Y-66935238D01*
X86556904Y-66630476D01*
X86595000Y-66554285D01*
X86633095Y-66516190D01*
X86709285Y-66478095D01*
X86823571Y-66478095D01*
X86899761Y-66516190D01*
X86937857Y-66554285D01*
X86975952Y-66630476D01*
X86975952Y-66935238D01*
X86556904Y-65906666D02*
X87128333Y-65906666D01*
X87242619Y-65944761D01*
X87318809Y-66020952D01*
X87356904Y-66135238D01*
X87356904Y-66211428D01*
X86556904Y-65601904D02*
X86556904Y-65068571D01*
X87356904Y-65411428D01*
D18*
X76263500Y-89716428D02*
X76263500Y-89172142D01*
X76590071Y-89825285D02*
X75447071Y-89444285D01*
X76590071Y-89063285D01*
X75447071Y-88192428D02*
X75447071Y-88410142D01*
X75501500Y-88519000D01*
X75555928Y-88573428D01*
X75719214Y-88682285D01*
X75936928Y-88736714D01*
X76372357Y-88736714D01*
X76481214Y-88682285D01*
X76535642Y-88627857D01*
X76590071Y-88519000D01*
X76590071Y-88301285D01*
X76535642Y-88192428D01*
X76481214Y-88138000D01*
X76372357Y-88083571D01*
X76100214Y-88083571D01*
X75991357Y-88138000D01*
X75936928Y-88192428D01*
X75882500Y-88301285D01*
X75882500Y-88519000D01*
X75936928Y-88627857D01*
X75991357Y-88682285D01*
X76100214Y-88736714D01*
D16*
X97194666Y-81231904D02*
X97194666Y-80755714D01*
X97480380Y-81327142D02*
X96480380Y-80993809D01*
X97480380Y-80660476D01*
X97480380Y-80327142D02*
X96480380Y-80327142D01*
X97480380Y-79755714D01*
X96480380Y-79755714D01*
X97194666Y-79327142D02*
X97194666Y-78850952D01*
X97480380Y-79422380D02*
X96480380Y-79089047D01*
X97480380Y-78755714D01*
X97480380Y-77946190D02*
X97480380Y-78422380D01*
X96480380Y-78422380D01*
X96480380Y-77422380D02*
X96480380Y-77231904D01*
X96528000Y-77136666D01*
X96623238Y-77041428D01*
X96813714Y-76993809D01*
X97147047Y-76993809D01*
X97337523Y-77041428D01*
X97432761Y-77136666D01*
X97480380Y-77231904D01*
X97480380Y-77422380D01*
X97432761Y-77517619D01*
X97337523Y-77612857D01*
X97147047Y-77660476D01*
X96813714Y-77660476D01*
X96623238Y-77612857D01*
X96528000Y-77517619D01*
X96480380Y-77422380D01*
X96528000Y-76041428D02*
X96480380Y-76136666D01*
X96480380Y-76279523D01*
X96528000Y-76422380D01*
X96623238Y-76517619D01*
X96718476Y-76565238D01*
X96908952Y-76612857D01*
X97051809Y-76612857D01*
X97242285Y-76565238D01*
X97337523Y-76517619D01*
X97432761Y-76422380D01*
X97480380Y-76279523D01*
X97480380Y-76184285D01*
X97432761Y-76041428D01*
X97385142Y-75993809D01*
X97051809Y-75993809D01*
X97051809Y-76184285D01*
X97480380Y-74803333D02*
X96480380Y-74803333D01*
X97480380Y-74327142D02*
X96480380Y-74327142D01*
X97480380Y-73755714D01*
X96480380Y-73755714D01*
X79013095Y-53949523D02*
X78975000Y-53911428D01*
X78936904Y-53835238D01*
X78936904Y-53644761D01*
X78975000Y-53568571D01*
X79013095Y-53530476D01*
X79089285Y-53492380D01*
X79165476Y-53492380D01*
X79279761Y-53530476D01*
X79736904Y-53987619D01*
X79736904Y-53492380D01*
X79203571Y-52806666D02*
X79736904Y-52806666D01*
X78898809Y-52997142D02*
X79470238Y-53187619D01*
X79470238Y-52692380D01*
X83381904Y-89966666D02*
X84181904Y-89700000D01*
X83381904Y-89433333D01*
X84105714Y-88709523D02*
X84143809Y-88747619D01*
X84181904Y-88861904D01*
X84181904Y-88938095D01*
X84143809Y-89052380D01*
X84067619Y-89128571D01*
X83991428Y-89166666D01*
X83839047Y-89204761D01*
X83724761Y-89204761D01*
X83572380Y-89166666D01*
X83496190Y-89128571D01*
X83420000Y-89052380D01*
X83381904Y-88938095D01*
X83381904Y-88861904D01*
X83420000Y-88747619D01*
X83458095Y-88709523D01*
X84105714Y-87909523D02*
X84143809Y-87947619D01*
X84181904Y-88061904D01*
X84181904Y-88138095D01*
X84143809Y-88252380D01*
X84067619Y-88328571D01*
X83991428Y-88366666D01*
X83839047Y-88404761D01*
X83724761Y-88404761D01*
X83572380Y-88366666D01*
X83496190Y-88328571D01*
X83420000Y-88252380D01*
X83381904Y-88138095D01*
X83381904Y-88061904D01*
X83420000Y-87947619D01*
X83458095Y-87909523D01*
D25*
X88766666Y-41718666D02*
X88366666Y-41718666D01*
X88566666Y-41718666D02*
X88566666Y-41018666D01*
X88500000Y-41118666D01*
X88433333Y-41185333D01*
X88366666Y-41218666D01*
X89166666Y-41318666D02*
X89100000Y-41285333D01*
X89066666Y-41252000D01*
X89033333Y-41185333D01*
X89033333Y-41152000D01*
X89066666Y-41085333D01*
X89100000Y-41052000D01*
X89166666Y-41018666D01*
X89300000Y-41018666D01*
X89366666Y-41052000D01*
X89400000Y-41085333D01*
X89433333Y-41152000D01*
X89433333Y-41185333D01*
X89400000Y-41252000D01*
X89366666Y-41285333D01*
X89300000Y-41318666D01*
X89166666Y-41318666D01*
X89100000Y-41352000D01*
X89066666Y-41385333D01*
X89033333Y-41452000D01*
X89033333Y-41585333D01*
X89066666Y-41652000D01*
X89100000Y-41685333D01*
X89166666Y-41718666D01*
X89300000Y-41718666D01*
X89366666Y-41685333D01*
X89400000Y-41652000D01*
X89433333Y-41585333D01*
X89433333Y-41452000D01*
X89400000Y-41385333D01*
X89366666Y-41352000D01*
X89300000Y-41318666D01*
D16*
X87356904Y-79730476D02*
X86556904Y-79730476D01*
X86556904Y-79425714D01*
X86595000Y-79349523D01*
X86633095Y-79311428D01*
X86709285Y-79273333D01*
X86823571Y-79273333D01*
X86899761Y-79311428D01*
X86937857Y-79349523D01*
X86975952Y-79425714D01*
X86975952Y-79730476D01*
X86595000Y-78511428D02*
X86556904Y-78587619D01*
X86556904Y-78701904D01*
X86595000Y-78816190D01*
X86671190Y-78892380D01*
X86747380Y-78930476D01*
X86899761Y-78968571D01*
X87014047Y-78968571D01*
X87166428Y-78930476D01*
X87242619Y-78892380D01*
X87318809Y-78816190D01*
X87356904Y-78701904D01*
X87356904Y-78625714D01*
X87318809Y-78511428D01*
X87280714Y-78473333D01*
X87014047Y-78473333D01*
X87014047Y-78625714D01*
X86556904Y-78206666D02*
X86556904Y-77711428D01*
X86861666Y-77978095D01*
X86861666Y-77863809D01*
X86899761Y-77787619D01*
X86937857Y-77749523D01*
X87014047Y-77711428D01*
X87204523Y-77711428D01*
X87280714Y-77749523D01*
X87318809Y-77787619D01*
X87356904Y-77863809D01*
X87356904Y-78092380D01*
X87318809Y-78168571D01*
X87280714Y-78206666D01*
X93408619Y-76333333D02*
X93789571Y-76333333D01*
X93332428Y-76561904D02*
X93599095Y-75761904D01*
X93865761Y-76561904D01*
X94551476Y-76561904D02*
X94094333Y-76561904D01*
X94322904Y-76561904D02*
X94322904Y-75761904D01*
X94246714Y-75876190D01*
X94170523Y-75952380D01*
X94094333Y-75990476D01*
X95313380Y-76561904D02*
X94856238Y-76561904D01*
X95084809Y-76561904D02*
X95084809Y-75761904D01*
X95008619Y-75876190D01*
X94932428Y-75952380D01*
X94856238Y-75990476D01*
X89223809Y-89852380D02*
X89261904Y-89738095D01*
X89261904Y-89547619D01*
X89223809Y-89471428D01*
X89185714Y-89433333D01*
X89109523Y-89395238D01*
X89033333Y-89395238D01*
X88957142Y-89433333D01*
X88919047Y-89471428D01*
X88880952Y-89547619D01*
X88842857Y-89700000D01*
X88804761Y-89776190D01*
X88766666Y-89814285D01*
X88690476Y-89852380D01*
X88614285Y-89852380D01*
X88538095Y-89814285D01*
X88500000Y-89776190D01*
X88461904Y-89700000D01*
X88461904Y-89509523D01*
X88500000Y-89395238D01*
X89185714Y-88595238D02*
X89223809Y-88633333D01*
X89261904Y-88747619D01*
X89261904Y-88823809D01*
X89223809Y-88938095D01*
X89147619Y-89014285D01*
X89071428Y-89052380D01*
X88919047Y-89090476D01*
X88804761Y-89090476D01*
X88652380Y-89052380D01*
X88576190Y-89014285D01*
X88500000Y-88938095D01*
X88461904Y-88823809D01*
X88461904Y-88747619D01*
X88500000Y-88633333D01*
X88538095Y-88595238D01*
X89261904Y-87871428D02*
X89261904Y-88252380D01*
X88461904Y-88252380D01*
X94341904Y-92220952D02*
X93541904Y-92220952D01*
X93618095Y-91878095D02*
X93580000Y-91840000D01*
X93541904Y-91763809D01*
X93541904Y-91573333D01*
X93580000Y-91497142D01*
X93618095Y-91459047D01*
X93694285Y-91420952D01*
X93770476Y-91420952D01*
X93884761Y-91459047D01*
X94341904Y-91916190D01*
X94341904Y-91420952D01*
X94265714Y-90620952D02*
X94303809Y-90659047D01*
X94341904Y-90773333D01*
X94341904Y-90849523D01*
X94303809Y-90963809D01*
X94227619Y-91040000D01*
X94151428Y-91078095D01*
X93999047Y-91116190D01*
X93884761Y-91116190D01*
X93732380Y-91078095D01*
X93656190Y-91040000D01*
X93580000Y-90963809D01*
X93541904Y-90849523D01*
X93541904Y-90773333D01*
X93580000Y-90659047D01*
X93618095Y-90620952D01*
X85680571Y-73888571D02*
X86213904Y-73888571D01*
X85375809Y-74079047D02*
X85947238Y-74269523D01*
X85947238Y-73774285D01*
X85756761Y-73355238D02*
X85718666Y-73431428D01*
X85680571Y-73469523D01*
X85604380Y-73507619D01*
X85566285Y-73507619D01*
X85490095Y-73469523D01*
X85452000Y-73431428D01*
X85413904Y-73355238D01*
X85413904Y-73202857D01*
X85452000Y-73126666D01*
X85490095Y-73088571D01*
X85566285Y-73050476D01*
X85604380Y-73050476D01*
X85680571Y-73088571D01*
X85718666Y-73126666D01*
X85756761Y-73202857D01*
X85756761Y-73355238D01*
X85794857Y-73431428D01*
X85832952Y-73469523D01*
X85909142Y-73507619D01*
X86061523Y-73507619D01*
X86137714Y-73469523D01*
X86175809Y-73431428D01*
X86213904Y-73355238D01*
X86213904Y-73202857D01*
X86175809Y-73126666D01*
X86137714Y-73088571D01*
X86061523Y-73050476D01*
X85909142Y-73050476D01*
X85832952Y-73088571D01*
X85794857Y-73126666D01*
X85756761Y-73202857D01*
X78936904Y-79387619D02*
X78936904Y-78892380D01*
X79241666Y-79159047D01*
X79241666Y-79044761D01*
X79279761Y-78968571D01*
X79317857Y-78930476D01*
X79394047Y-78892380D01*
X79584523Y-78892380D01*
X79660714Y-78930476D01*
X79698809Y-78968571D01*
X79736904Y-79044761D01*
X79736904Y-79273333D01*
X79698809Y-79349523D01*
X79660714Y-79387619D01*
X79203571Y-78206666D02*
X79736904Y-78206666D01*
X78898809Y-78397142D02*
X79470238Y-78587619D01*
X79470238Y-78092380D01*
X88461904Y-46710476D02*
X88461904Y-46253333D01*
X89261904Y-46481904D02*
X88461904Y-46481904D01*
X88461904Y-46062857D02*
X89261904Y-45529523D01*
X88461904Y-45529523D02*
X89261904Y-46062857D01*
X89261904Y-44805714D02*
X89261904Y-45262857D01*
X89261904Y-45034285D02*
X88461904Y-45034285D01*
X88576190Y-45110476D01*
X88652380Y-45186666D01*
X88690476Y-45262857D01*
X93408619Y-78873333D02*
X93789571Y-78873333D01*
X93332428Y-79101904D02*
X93599095Y-78301904D01*
X93865761Y-79101904D01*
X94551476Y-79101904D02*
X94094333Y-79101904D01*
X94322904Y-79101904D02*
X94322904Y-78301904D01*
X94246714Y-78416190D01*
X94170523Y-78492380D01*
X94094333Y-78530476D01*
X94856238Y-78378095D02*
X94894333Y-78340000D01*
X94970523Y-78301904D01*
X95161000Y-78301904D01*
X95237190Y-78340000D01*
X95275285Y-78378095D01*
X95313380Y-78454285D01*
X95313380Y-78530476D01*
X95275285Y-78644761D01*
X94818142Y-79101904D01*
X95313380Y-79101904D01*
X93408619Y-83953333D02*
X93789571Y-83953333D01*
X93332428Y-84181904D02*
X93599095Y-83381904D01*
X93865761Y-84181904D01*
X94551476Y-84181904D02*
X94094333Y-84181904D01*
X94322904Y-84181904D02*
X94322904Y-83381904D01*
X94246714Y-83496190D01*
X94170523Y-83572380D01*
X94094333Y-83610476D01*
X95237190Y-83648571D02*
X95237190Y-84181904D01*
X95046714Y-83343809D02*
X94856238Y-83915238D01*
X95351476Y-83915238D01*
X86721904Y-46234285D02*
X86340952Y-46500952D01*
X86721904Y-46691428D02*
X85921904Y-46691428D01*
X85921904Y-46386666D01*
X85960000Y-46310476D01*
X85998095Y-46272380D01*
X86074285Y-46234285D01*
X86188571Y-46234285D01*
X86264761Y-46272380D01*
X86302857Y-46310476D01*
X86340952Y-46386666D01*
X86340952Y-46691428D01*
X85921904Y-45967619D02*
X86721904Y-45434285D01*
X85921904Y-45434285D02*
X86721904Y-45967619D01*
X85998095Y-45167619D02*
X85960000Y-45129523D01*
X85921904Y-45053333D01*
X85921904Y-44862857D01*
X85960000Y-44786666D01*
X85998095Y-44748571D01*
X86074285Y-44710476D01*
X86150476Y-44710476D01*
X86264761Y-44748571D01*
X86721904Y-45205714D01*
X86721904Y-44710476D01*
X83381904Y-46710476D02*
X83381904Y-46253333D01*
X84181904Y-46481904D02*
X83381904Y-46481904D01*
X83381904Y-46062857D02*
X84181904Y-45529523D01*
X83381904Y-45529523D02*
X84181904Y-46062857D01*
X83458095Y-45262857D02*
X83420000Y-45224761D01*
X83381904Y-45148571D01*
X83381904Y-44958095D01*
X83420000Y-44881904D01*
X83458095Y-44843809D01*
X83534285Y-44805714D01*
X83610476Y-44805714D01*
X83724761Y-44843809D01*
X84181904Y-45300952D01*
X84181904Y-44805714D01*
X91801904Y-46234285D02*
X91420952Y-46500952D01*
X91801904Y-46691428D02*
X91001904Y-46691428D01*
X91001904Y-46386666D01*
X91040000Y-46310476D01*
X91078095Y-46272380D01*
X91154285Y-46234285D01*
X91268571Y-46234285D01*
X91344761Y-46272380D01*
X91382857Y-46310476D01*
X91420952Y-46386666D01*
X91420952Y-46691428D01*
X91001904Y-45967619D02*
X91801904Y-45434285D01*
X91001904Y-45434285D02*
X91801904Y-45967619D01*
X91801904Y-44710476D02*
X91801904Y-45167619D01*
X91801904Y-44939047D02*
X91001904Y-44939047D01*
X91116190Y-45015238D01*
X91192380Y-45091428D01*
X91230476Y-45167619D01*
X79013095Y-61569523D02*
X78975000Y-61531428D01*
X78936904Y-61455238D01*
X78936904Y-61264761D01*
X78975000Y-61188571D01*
X79013095Y-61150476D01*
X79089285Y-61112380D01*
X79165476Y-61112380D01*
X79279761Y-61150476D01*
X79736904Y-61607619D01*
X79736904Y-61112380D01*
X78936904Y-60845714D02*
X78936904Y-60312380D01*
X79736904Y-60655238D01*
D25*
X81146666Y-41718666D02*
X80746666Y-41718666D01*
X80946666Y-41718666D02*
X80946666Y-41018666D01*
X80880000Y-41118666D01*
X80813333Y-41185333D01*
X80746666Y-41218666D01*
X81780000Y-41018666D02*
X81446666Y-41018666D01*
X81413333Y-41352000D01*
X81446666Y-41318666D01*
X81513333Y-41285333D01*
X81680000Y-41285333D01*
X81746666Y-41318666D01*
X81780000Y-41352000D01*
X81813333Y-41418666D01*
X81813333Y-41585333D01*
X81780000Y-41652000D01*
X81746666Y-41685333D01*
X81680000Y-41718666D01*
X81513333Y-41718666D01*
X81446666Y-41685333D01*
X81413333Y-41652000D01*
D18*
X71694523Y-49197380D02*
X70424523Y-49197380D01*
X70424523Y-48895000D01*
X70485000Y-48713571D01*
X70605952Y-48592619D01*
X70726904Y-48532142D01*
X70968809Y-48471666D01*
X71150238Y-48471666D01*
X71392142Y-48532142D01*
X71513095Y-48592619D01*
X71634047Y-48713571D01*
X71694523Y-48895000D01*
X71694523Y-49197380D01*
X71694523Y-47262142D02*
X71694523Y-47987857D01*
X71694523Y-47625000D02*
X70424523Y-47625000D01*
X70605952Y-47745952D01*
X70726904Y-47866904D01*
X70787380Y-47987857D01*
X58867523Y-49197380D02*
X57597523Y-49197380D01*
X57597523Y-48895000D01*
X57658000Y-48713571D01*
X57778952Y-48592619D01*
X57899904Y-48532142D01*
X58141809Y-48471666D01*
X58323238Y-48471666D01*
X58565142Y-48532142D01*
X58686095Y-48592619D01*
X58807047Y-48713571D01*
X58867523Y-48895000D01*
X58867523Y-49197380D01*
X57597523Y-47383095D02*
X57597523Y-47625000D01*
X57658000Y-47745952D01*
X57718476Y-47806428D01*
X57899904Y-47927380D01*
X58141809Y-47987857D01*
X58625619Y-47987857D01*
X58746571Y-47927380D01*
X58807047Y-47866904D01*
X58867523Y-47745952D01*
X58867523Y-47504047D01*
X58807047Y-47383095D01*
X58746571Y-47322619D01*
X58625619Y-47262142D01*
X58323238Y-47262142D01*
X58202285Y-47322619D01*
X58141809Y-47383095D01*
X58081333Y-47504047D01*
X58081333Y-47745952D01*
X58141809Y-47866904D01*
X58202285Y-47927380D01*
X58323238Y-47987857D01*
X56327523Y-49197380D02*
X55057523Y-49197380D01*
X55057523Y-48895000D01*
X55118000Y-48713571D01*
X55238952Y-48592619D01*
X55359904Y-48532142D01*
X55601809Y-48471666D01*
X55783238Y-48471666D01*
X56025142Y-48532142D01*
X56146095Y-48592619D01*
X56267047Y-48713571D01*
X56327523Y-48895000D01*
X56327523Y-49197380D01*
X55057523Y-48048333D02*
X55057523Y-47201666D01*
X56327523Y-47745952D01*
D16*
X58477142Y-50399904D02*
X58210476Y-50018952D01*
X58020000Y-50399904D02*
X58020000Y-49599904D01*
X58324761Y-49599904D01*
X58400952Y-49638000D01*
X58439047Y-49676095D01*
X58477142Y-49752285D01*
X58477142Y-49866571D01*
X58439047Y-49942761D01*
X58400952Y-49980857D01*
X58324761Y-50018952D01*
X58020000Y-50018952D01*
X58820000Y-50399904D02*
X58820000Y-49599904D01*
X55441904Y-56241904D02*
X55175238Y-55860952D01*
X54984761Y-56241904D02*
X54984761Y-55441904D01*
X55289523Y-55441904D01*
X55365714Y-55480000D01*
X55403809Y-55518095D01*
X55441904Y-55594285D01*
X55441904Y-55708571D01*
X55403809Y-55784761D01*
X55365714Y-55822857D01*
X55289523Y-55860952D01*
X54984761Y-55860952D01*
X55670476Y-55441904D02*
X56127619Y-55441904D01*
X55899047Y-56241904D02*
X55899047Y-55441904D01*
X56356190Y-56203809D02*
X56470476Y-56241904D01*
X56660952Y-56241904D01*
X56737142Y-56203809D01*
X56775238Y-56165714D01*
X56813333Y-56089523D01*
X56813333Y-56013333D01*
X56775238Y-55937142D01*
X56737142Y-55899047D01*
X56660952Y-55860952D01*
X56508571Y-55822857D01*
X56432380Y-55784761D01*
X56394285Y-55746666D01*
X56356190Y-55670476D01*
X56356190Y-55594285D01*
X56394285Y-55518095D01*
X56432380Y-55480000D01*
X56508571Y-55441904D01*
X56699047Y-55441904D01*
X56813333Y-55480000D01*
D24*
X47828079Y-88839523D02*
X47828079Y-89323333D01*
X48311888Y-89371714D01*
X48263507Y-89323333D01*
X48215126Y-89226571D01*
X48215126Y-88984666D01*
X48263507Y-88887904D01*
X48311888Y-88839523D01*
X48408650Y-88791142D01*
X48650555Y-88791142D01*
X48747317Y-88839523D01*
X48795698Y-88887904D01*
X48844079Y-88984666D01*
X48844079Y-89226571D01*
X48795698Y-89323333D01*
X48747317Y-89371714D01*
X47828079Y-88500857D02*
X48844079Y-88162190D01*
X47828079Y-87823523D01*
X50419000Y-88912095D02*
X50370619Y-89008857D01*
X50370619Y-89154000D01*
X50419000Y-89299142D01*
X50515761Y-89395904D01*
X50612523Y-89444285D01*
X50806047Y-89492666D01*
X50951190Y-89492666D01*
X51144714Y-89444285D01*
X51241476Y-89395904D01*
X51338238Y-89299142D01*
X51386619Y-89154000D01*
X51386619Y-89057238D01*
X51338238Y-88912095D01*
X51289857Y-88863714D01*
X50951190Y-88863714D01*
X50951190Y-89057238D01*
X51386619Y-88428285D02*
X50370619Y-88428285D01*
X51386619Y-87847714D01*
X50370619Y-87847714D01*
X51386619Y-87363904D02*
X50370619Y-87363904D01*
X50370619Y-87122000D01*
X50419000Y-86976857D01*
X50515761Y-86880095D01*
X50612523Y-86831714D01*
X50806047Y-86783333D01*
X50951190Y-86783333D01*
X51144714Y-86831714D01*
X51241476Y-86880095D01*
X51338238Y-86976857D01*
X51386619Y-87122000D01*
X51386619Y-87363904D01*
X52959000Y-88912095D02*
X52910619Y-89008857D01*
X52910619Y-89154000D01*
X52959000Y-89299142D01*
X53055761Y-89395904D01*
X53152523Y-89444285D01*
X53346047Y-89492666D01*
X53491190Y-89492666D01*
X53684714Y-89444285D01*
X53781476Y-89395904D01*
X53878238Y-89299142D01*
X53926619Y-89154000D01*
X53926619Y-89057238D01*
X53878238Y-88912095D01*
X53829857Y-88863714D01*
X53491190Y-88863714D01*
X53491190Y-89057238D01*
X53926619Y-88428285D02*
X52910619Y-88428285D01*
X53926619Y-87847714D01*
X52910619Y-87847714D01*
X53926619Y-87363904D02*
X52910619Y-87363904D01*
X52910619Y-87122000D01*
X52959000Y-86976857D01*
X53055761Y-86880095D01*
X53152523Y-86831714D01*
X53346047Y-86783333D01*
X53491190Y-86783333D01*
X53684714Y-86831714D01*
X53781476Y-86880095D01*
X53878238Y-86976857D01*
X53926619Y-87122000D01*
X53926619Y-87363904D01*
X55282979Y-89504761D02*
X56298979Y-89166095D01*
X55282979Y-88827428D01*
X56298979Y-88488761D02*
X55282979Y-88488761D01*
X56298979Y-88004952D02*
X55282979Y-88004952D01*
X56298979Y-87424380D01*
X55282979Y-87424380D01*
D26*
X47648222Y-86323714D02*
X47648222Y-85561714D01*
X47938508Y-85561714D01*
X48011080Y-85598000D01*
X48047365Y-85634285D01*
X48083651Y-85706857D01*
X48083651Y-85815714D01*
X48047365Y-85888285D01*
X48011080Y-85924571D01*
X47938508Y-85960857D01*
X47648222Y-85960857D01*
X48555365Y-85561714D02*
X48700508Y-85561714D01*
X48773080Y-85598000D01*
X48845651Y-85670571D01*
X48881937Y-85815714D01*
X48881937Y-86069714D01*
X48845651Y-86214857D01*
X48773080Y-86287428D01*
X48700508Y-86323714D01*
X48555365Y-86323714D01*
X48482794Y-86287428D01*
X48410222Y-86214857D01*
X48373937Y-86069714D01*
X48373937Y-85815714D01*
X48410222Y-85670571D01*
X48482794Y-85598000D01*
X48555365Y-85561714D01*
X49135937Y-85561714D02*
X49317365Y-86323714D01*
X49462508Y-85779428D01*
X49607651Y-86323714D01*
X49789080Y-85561714D01*
X50079365Y-85924571D02*
X50333365Y-85924571D01*
X50442222Y-86323714D02*
X50079365Y-86323714D01*
X50079365Y-85561714D01*
X50442222Y-85561714D01*
X51204222Y-86323714D02*
X50950222Y-85960857D01*
X50768794Y-86323714D02*
X50768794Y-85561714D01*
X51059080Y-85561714D01*
X51131651Y-85598000D01*
X51167937Y-85634285D01*
X51204222Y-85706857D01*
X51204222Y-85815714D01*
X51167937Y-85888285D01*
X51131651Y-85924571D01*
X51059080Y-85960857D01*
X50768794Y-85960857D01*
D18*
X61171666Y-89299142D02*
X61171666Y-88694380D01*
X61534523Y-89420095D02*
X60264523Y-88996761D01*
X61534523Y-88573428D01*
X60264523Y-87908190D02*
X60264523Y-87787238D01*
X60325000Y-87666285D01*
X60385476Y-87605809D01*
X60506428Y-87545333D01*
X60748333Y-87484857D01*
X61050714Y-87484857D01*
X61292619Y-87545333D01*
X61413571Y-87605809D01*
X61474047Y-87666285D01*
X61534523Y-87787238D01*
X61534523Y-87908190D01*
X61474047Y-88029142D01*
X61413571Y-88089619D01*
X61292619Y-88150095D01*
X61050714Y-88210571D01*
X60748333Y-88210571D01*
X60506428Y-88150095D01*
X60385476Y-88089619D01*
X60325000Y-88029142D01*
X60264523Y-87908190D01*
X63711666Y-89299142D02*
X63711666Y-88694380D01*
X64074523Y-89420095D02*
X62804523Y-88996761D01*
X64074523Y-88573428D01*
X64074523Y-87484857D02*
X64074523Y-88210571D01*
X64074523Y-87847714D02*
X62804523Y-87847714D01*
X62985952Y-87968666D01*
X63106904Y-88089619D01*
X63167380Y-88210571D01*
X66251666Y-89299142D02*
X66251666Y-88694380D01*
X66614523Y-89420095D02*
X65344523Y-88996761D01*
X66614523Y-88573428D01*
X65465476Y-88210571D02*
X65405000Y-88150095D01*
X65344523Y-88029142D01*
X65344523Y-87726761D01*
X65405000Y-87605809D01*
X65465476Y-87545333D01*
X65586428Y-87484857D01*
X65707380Y-87484857D01*
X65888809Y-87545333D01*
X66614523Y-88271047D01*
X66614523Y-87484857D01*
X68791666Y-89299142D02*
X68791666Y-88694380D01*
X69154523Y-89420095D02*
X67884523Y-88996761D01*
X69154523Y-88573428D01*
X67884523Y-88271047D02*
X67884523Y-87484857D01*
X68368333Y-87908190D01*
X68368333Y-87726761D01*
X68428809Y-87605809D01*
X68489285Y-87545333D01*
X68610238Y-87484857D01*
X68912619Y-87484857D01*
X69033571Y-87545333D01*
X69094047Y-87605809D01*
X69154523Y-87726761D01*
X69154523Y-88089619D01*
X69094047Y-88210571D01*
X69033571Y-88271047D01*
X71331666Y-89299142D02*
X71331666Y-88694380D01*
X71694523Y-89420095D02*
X70424523Y-88996761D01*
X71694523Y-88573428D01*
X70847857Y-87605809D02*
X71694523Y-87605809D01*
X70364047Y-87908190D02*
X71271190Y-88210571D01*
X71271190Y-87424380D01*
X73871666Y-89299142D02*
X73871666Y-88694380D01*
X74234523Y-89420095D02*
X72964523Y-88996761D01*
X74234523Y-88573428D01*
X72964523Y-87545333D02*
X72964523Y-88150095D01*
X73569285Y-88210571D01*
X73508809Y-88150095D01*
X73448333Y-88029142D01*
X73448333Y-87726761D01*
X73508809Y-87605809D01*
X73569285Y-87545333D01*
X73690238Y-87484857D01*
X73992619Y-87484857D01*
X74113571Y-87545333D01*
X74174047Y-87605809D01*
X74234523Y-87726761D01*
X74234523Y-88029142D01*
X74174047Y-88150095D01*
X74113571Y-88210571D01*
D26*
X66348428Y-86487000D02*
X66711285Y-86487000D01*
X66275857Y-86704714D02*
X66529857Y-85942714D01*
X66783857Y-86704714D01*
X67037857Y-86704714D02*
X67037857Y-85942714D01*
X67473285Y-86704714D01*
X67473285Y-85942714D01*
X67799857Y-86487000D02*
X68162714Y-86487000D01*
X67727285Y-86704714D02*
X67981285Y-85942714D01*
X68235285Y-86704714D01*
X68852142Y-86704714D02*
X68489285Y-86704714D01*
X68489285Y-85942714D01*
X69251285Y-85942714D02*
X69396428Y-85942714D01*
X69469000Y-85979000D01*
X69541571Y-86051571D01*
X69577857Y-86196714D01*
X69577857Y-86450714D01*
X69541571Y-86595857D01*
X69469000Y-86668428D01*
X69396428Y-86704714D01*
X69251285Y-86704714D01*
X69178714Y-86668428D01*
X69106142Y-86595857D01*
X69069857Y-86450714D01*
X69069857Y-86196714D01*
X69106142Y-86051571D01*
X69178714Y-85979000D01*
X69251285Y-85942714D01*
X70303571Y-85979000D02*
X70231000Y-85942714D01*
X70122142Y-85942714D01*
X70013285Y-85979000D01*
X69940714Y-86051571D01*
X69904428Y-86124142D01*
X69868142Y-86269285D01*
X69868142Y-86378142D01*
X69904428Y-86523285D01*
X69940714Y-86595857D01*
X70013285Y-86668428D01*
X70122142Y-86704714D01*
X70194714Y-86704714D01*
X70303571Y-86668428D01*
X70339857Y-86632142D01*
X70339857Y-86378142D01*
X70194714Y-86378142D01*
X71247000Y-86704714D02*
X71247000Y-85942714D01*
X71609857Y-86704714D02*
X71609857Y-85942714D01*
X72045285Y-86704714D01*
X72045285Y-85942714D01*
D18*
X74234523Y-49197380D02*
X72964523Y-49197380D01*
X72964523Y-48895000D01*
X73025000Y-48713571D01*
X73145952Y-48592619D01*
X73266904Y-48532142D01*
X73508809Y-48471666D01*
X73690238Y-48471666D01*
X73932142Y-48532142D01*
X74053095Y-48592619D01*
X74174047Y-48713571D01*
X74234523Y-48895000D01*
X74234523Y-49197380D01*
X72964523Y-47685476D02*
X72964523Y-47564523D01*
X73025000Y-47443571D01*
X73085476Y-47383095D01*
X73206428Y-47322619D01*
X73448333Y-47262142D01*
X73750714Y-47262142D01*
X73992619Y-47322619D01*
X74113571Y-47383095D01*
X74174047Y-47443571D01*
X74234523Y-47564523D01*
X74234523Y-47685476D01*
X74174047Y-47806428D01*
X74113571Y-47866904D01*
X73992619Y-47927380D01*
X73750714Y-47987857D01*
X73448333Y-47987857D01*
X73206428Y-47927380D01*
X73085476Y-47866904D01*
X73025000Y-47806428D01*
X72964523Y-47685476D01*
X69154523Y-49197380D02*
X67884523Y-49197380D01*
X67884523Y-48895000D01*
X67945000Y-48713571D01*
X68065952Y-48592619D01*
X68186904Y-48532142D01*
X68428809Y-48471666D01*
X68610238Y-48471666D01*
X68852142Y-48532142D01*
X68973095Y-48592619D01*
X69094047Y-48713571D01*
X69154523Y-48895000D01*
X69154523Y-49197380D01*
X68005476Y-47987857D02*
X67945000Y-47927380D01*
X67884523Y-47806428D01*
X67884523Y-47504047D01*
X67945000Y-47383095D01*
X68005476Y-47322619D01*
X68126428Y-47262142D01*
X68247380Y-47262142D01*
X68428809Y-47322619D01*
X69154523Y-48048333D01*
X69154523Y-47262142D01*
X66614523Y-49197380D02*
X65344523Y-49197380D01*
X65344523Y-48895000D01*
X65405000Y-48713571D01*
X65525952Y-48592619D01*
X65646904Y-48532142D01*
X65888809Y-48471666D01*
X66070238Y-48471666D01*
X66312142Y-48532142D01*
X66433095Y-48592619D01*
X66554047Y-48713571D01*
X66614523Y-48895000D01*
X66614523Y-49197380D01*
X65344523Y-48048333D02*
X65344523Y-47262142D01*
X65828333Y-47685476D01*
X65828333Y-47504047D01*
X65888809Y-47383095D01*
X65949285Y-47322619D01*
X66070238Y-47262142D01*
X66372619Y-47262142D01*
X66493571Y-47322619D01*
X66554047Y-47383095D01*
X66614523Y-47504047D01*
X66614523Y-47866904D01*
X66554047Y-47987857D01*
X66493571Y-48048333D01*
X64074523Y-49197380D02*
X62804523Y-49197380D01*
X62804523Y-48895000D01*
X62865000Y-48713571D01*
X62985952Y-48592619D01*
X63106904Y-48532142D01*
X63348809Y-48471666D01*
X63530238Y-48471666D01*
X63772142Y-48532142D01*
X63893095Y-48592619D01*
X64014047Y-48713571D01*
X64074523Y-48895000D01*
X64074523Y-49197380D01*
X63227857Y-47383095D02*
X64074523Y-47383095D01*
X62744047Y-47685476D02*
X63651190Y-47987857D01*
X63651190Y-47201666D01*
X61534523Y-49197380D02*
X60264523Y-49197380D01*
X60264523Y-48895000D01*
X60325000Y-48713571D01*
X60445952Y-48592619D01*
X60566904Y-48532142D01*
X60808809Y-48471666D01*
X60990238Y-48471666D01*
X61232142Y-48532142D01*
X61353095Y-48592619D01*
X61474047Y-48713571D01*
X61534523Y-48895000D01*
X61534523Y-49197380D01*
X60264523Y-47322619D02*
X60264523Y-47927380D01*
X60869285Y-47987857D01*
X60808809Y-47927380D01*
X60748333Y-47806428D01*
X60748333Y-47504047D01*
X60808809Y-47383095D01*
X60869285Y-47322619D01*
X60990238Y-47262142D01*
X61292619Y-47262142D01*
X61413571Y-47322619D01*
X61474047Y-47383095D01*
X61534523Y-47504047D01*
X61534523Y-47806428D01*
X61474047Y-47927380D01*
X61413571Y-47987857D01*
X52267523Y-49197380D02*
X50997523Y-49197380D01*
X50997523Y-48895000D01*
X51058000Y-48713571D01*
X51178952Y-48592619D01*
X51299904Y-48532142D01*
X51541809Y-48471666D01*
X51723238Y-48471666D01*
X51965142Y-48532142D01*
X52086095Y-48592619D01*
X52207047Y-48713571D01*
X52267523Y-48895000D01*
X52267523Y-49197380D01*
X51541809Y-47745952D02*
X51481333Y-47866904D01*
X51420857Y-47927380D01*
X51299904Y-47987857D01*
X51239428Y-47987857D01*
X51118476Y-47927380D01*
X51058000Y-47866904D01*
X50997523Y-47745952D01*
X50997523Y-47504047D01*
X51058000Y-47383095D01*
X51118476Y-47322619D01*
X51239428Y-47262142D01*
X51299904Y-47262142D01*
X51420857Y-47322619D01*
X51481333Y-47383095D01*
X51541809Y-47504047D01*
X51541809Y-47745952D01*
X51602285Y-47866904D01*
X51662761Y-47927380D01*
X51783714Y-47987857D01*
X52025619Y-47987857D01*
X52146571Y-47927380D01*
X52207047Y-47866904D01*
X52267523Y-47745952D01*
X52267523Y-47504047D01*
X52207047Y-47383095D01*
X52146571Y-47322619D01*
X52025619Y-47262142D01*
X51783714Y-47262142D01*
X51662761Y-47322619D01*
X51602285Y-47383095D01*
X51541809Y-47504047D01*
X49730063Y-49197380D02*
X48460063Y-49197380D01*
X48460063Y-48895000D01*
X48520540Y-48713571D01*
X48641492Y-48592619D01*
X48762444Y-48532142D01*
X49004349Y-48471666D01*
X49185778Y-48471666D01*
X49427682Y-48532142D01*
X49548635Y-48592619D01*
X49669587Y-48713571D01*
X49730063Y-48895000D01*
X49730063Y-49197380D01*
X49730063Y-47866904D02*
X49730063Y-47625000D01*
X49669587Y-47504047D01*
X49609111Y-47443571D01*
X49427682Y-47322619D01*
X49185778Y-47262142D01*
X48701968Y-47262142D01*
X48581016Y-47322619D01*
X48520540Y-47383095D01*
X48460063Y-47504047D01*
X48460063Y-47745952D01*
X48520540Y-47866904D01*
X48581016Y-47927380D01*
X48701968Y-47987857D01*
X49004349Y-47987857D01*
X49125301Y-47927380D01*
X49185778Y-47866904D01*
X49246254Y-47745952D01*
X49246254Y-47504047D01*
X49185778Y-47383095D01*
X49125301Y-47322619D01*
X49004349Y-47262142D01*
D24*
X46948159Y-49493714D02*
X45932159Y-49493714D01*
X45932159Y-49251809D01*
X45980540Y-49106666D01*
X46077301Y-49009904D01*
X46174063Y-48961523D01*
X46367587Y-48913142D01*
X46512730Y-48913142D01*
X46706254Y-48961523D01*
X46803016Y-49009904D01*
X46899778Y-49106666D01*
X46948159Y-49251809D01*
X46948159Y-49493714D01*
X46948159Y-47945523D02*
X46948159Y-48526095D01*
X46948159Y-48235809D02*
X45932159Y-48235809D01*
X46077301Y-48332571D01*
X46174063Y-48429333D01*
X46222444Y-48526095D01*
X45932159Y-47316571D02*
X45932159Y-47219809D01*
X45980540Y-47123047D01*
X46028920Y-47074666D01*
X46125682Y-47026285D01*
X46319206Y-46977904D01*
X46561111Y-46977904D01*
X46754635Y-47026285D01*
X46851397Y-47074666D01*
X46899778Y-47123047D01*
X46948159Y-47219809D01*
X46948159Y-47316571D01*
X46899778Y-47413333D01*
X46851397Y-47461714D01*
X46754635Y-47510095D01*
X46561111Y-47558476D01*
X46319206Y-47558476D01*
X46125682Y-47510095D01*
X46028920Y-47461714D01*
X45980540Y-47413333D01*
X45932159Y-47316571D01*
X44408159Y-49493714D02*
X43392159Y-49493714D01*
X43392159Y-49251809D01*
X43440540Y-49106666D01*
X43537301Y-49009904D01*
X43634063Y-48961523D01*
X43827587Y-48913142D01*
X43972730Y-48913142D01*
X44166254Y-48961523D01*
X44263016Y-49009904D01*
X44359778Y-49106666D01*
X44408159Y-49251809D01*
X44408159Y-49493714D01*
X44408159Y-47945523D02*
X44408159Y-48526095D01*
X44408159Y-48235809D02*
X43392159Y-48235809D01*
X43537301Y-48332571D01*
X43634063Y-48429333D01*
X43682444Y-48526095D01*
X44408159Y-46977904D02*
X44408159Y-47558476D01*
X44408159Y-47268190D02*
X43392159Y-47268190D01*
X43537301Y-47364952D01*
X43634063Y-47461714D01*
X43682444Y-47558476D01*
X41868159Y-49493714D02*
X40852159Y-49493714D01*
X40852159Y-49251809D01*
X40900540Y-49106666D01*
X40997301Y-49009904D01*
X41094063Y-48961523D01*
X41287587Y-48913142D01*
X41432730Y-48913142D01*
X41626254Y-48961523D01*
X41723016Y-49009904D01*
X41819778Y-49106666D01*
X41868159Y-49251809D01*
X41868159Y-49493714D01*
X41868159Y-47945523D02*
X41868159Y-48526095D01*
X41868159Y-48235809D02*
X40852159Y-48235809D01*
X40997301Y-48332571D01*
X41094063Y-48429333D01*
X41142444Y-48526095D01*
X40948920Y-47558476D02*
X40900540Y-47510095D01*
X40852159Y-47413333D01*
X40852159Y-47171428D01*
X40900540Y-47074666D01*
X40948920Y-47026285D01*
X41045682Y-46977904D01*
X41142444Y-46977904D01*
X41287587Y-47026285D01*
X41868159Y-47606857D01*
X41868159Y-46977904D01*
X39328159Y-49493714D02*
X38312159Y-49493714D01*
X38312159Y-49251809D01*
X38360540Y-49106666D01*
X38457301Y-49009904D01*
X38554063Y-48961523D01*
X38747587Y-48913142D01*
X38892730Y-48913142D01*
X39086254Y-48961523D01*
X39183016Y-49009904D01*
X39279778Y-49106666D01*
X39328159Y-49251809D01*
X39328159Y-49493714D01*
X39328159Y-47945523D02*
X39328159Y-48526095D01*
X39328159Y-48235809D02*
X38312159Y-48235809D01*
X38457301Y-48332571D01*
X38554063Y-48429333D01*
X38602444Y-48526095D01*
X38312159Y-47606857D02*
X38312159Y-46977904D01*
X38699206Y-47316571D01*
X38699206Y-47171428D01*
X38747587Y-47074666D01*
X38795968Y-47026285D01*
X38892730Y-46977904D01*
X39134635Y-46977904D01*
X39231397Y-47026285D01*
X39279778Y-47074666D01*
X39328159Y-47171428D01*
X39328159Y-47461714D01*
X39279778Y-47558476D01*
X39231397Y-47606857D01*
X35820540Y-49034095D02*
X35772159Y-49130857D01*
X35772159Y-49276000D01*
X35820540Y-49421142D01*
X35917301Y-49517904D01*
X36014063Y-49566285D01*
X36207587Y-49614666D01*
X36352730Y-49614666D01*
X36546254Y-49566285D01*
X36643016Y-49517904D01*
X36739778Y-49421142D01*
X36788159Y-49276000D01*
X36788159Y-49179238D01*
X36739778Y-49034095D01*
X36691397Y-48985714D01*
X36352730Y-48985714D01*
X36352730Y-49179238D01*
X36788159Y-48550285D02*
X35772159Y-48550285D01*
X36788159Y-47969714D01*
X35772159Y-47969714D01*
X36788159Y-47485904D02*
X35772159Y-47485904D01*
X35772159Y-47244000D01*
X35820540Y-47098857D01*
X35917301Y-47002095D01*
X36014063Y-46953714D01*
X36207587Y-46905333D01*
X36352730Y-46905333D01*
X36546254Y-46953714D01*
X36643016Y-47002095D01*
X36739778Y-47098857D01*
X36788159Y-47244000D01*
X36788159Y-47485904D01*
D26*
X34169540Y-49493714D02*
X34169540Y-49130857D01*
X34387254Y-49566285D02*
X33625254Y-49312285D01*
X34387254Y-49058285D01*
X34387254Y-48368857D02*
X34024397Y-48622857D01*
X34387254Y-48804285D02*
X33625254Y-48804285D01*
X33625254Y-48514000D01*
X33661540Y-48441428D01*
X33697825Y-48405142D01*
X33770397Y-48368857D01*
X33879254Y-48368857D01*
X33951825Y-48405142D01*
X33988111Y-48441428D01*
X34024397Y-48514000D01*
X34024397Y-48804285D01*
X33988111Y-48042285D02*
X33988111Y-47788285D01*
X34387254Y-47679428D02*
X34387254Y-48042285D01*
X33625254Y-48042285D01*
X33625254Y-47679428D01*
X33988111Y-47098857D02*
X33988111Y-47352857D01*
X34387254Y-47352857D02*
X33625254Y-47352857D01*
X33625254Y-46990000D01*
D18*
X76263500Y-89716428D02*
X76263500Y-89172142D01*
X76590071Y-89825285D02*
X75447071Y-89444285D01*
X76590071Y-89063285D01*
X75447071Y-88192428D02*
X75447071Y-88410142D01*
X75501500Y-88519000D01*
X75555928Y-88573428D01*
X75719214Y-88682285D01*
X75936928Y-88736714D01*
X76372357Y-88736714D01*
X76481214Y-88682285D01*
X76535642Y-88627857D01*
X76590071Y-88519000D01*
X76590071Y-88301285D01*
X76535642Y-88192428D01*
X76481214Y-88138000D01*
X76372357Y-88083571D01*
X76100214Y-88083571D01*
X75991357Y-88138000D01*
X75936928Y-88192428D01*
X75882500Y-88301285D01*
X75882500Y-88519000D01*
X75936928Y-88627857D01*
X75991357Y-88682285D01*
X76100214Y-88736714D01*
X79311500Y-89716428D02*
X79311500Y-89172142D01*
X79638071Y-89825285D02*
X78495071Y-89444285D01*
X79638071Y-89063285D01*
X78495071Y-88791142D02*
X78495071Y-88029142D01*
X79638071Y-88519000D01*
D16*
X79013095Y-48869523D02*
X78975000Y-48831428D01*
X78936904Y-48755238D01*
X78936904Y-48564761D01*
X78975000Y-48488571D01*
X79013095Y-48450476D01*
X79089285Y-48412380D01*
X79165476Y-48412380D01*
X79279761Y-48450476D01*
X79736904Y-48907619D01*
X79736904Y-48412380D01*
X79013095Y-48107619D02*
X78975000Y-48069523D01*
X78936904Y-47993333D01*
X78936904Y-47802857D01*
X78975000Y-47726666D01*
X79013095Y-47688571D01*
X79089285Y-47650476D01*
X79165476Y-47650476D01*
X79279761Y-47688571D01*
X79736904Y-48145714D01*
X79736904Y-47650476D01*
X79013095Y-51409523D02*
X78975000Y-51371428D01*
X78936904Y-51295238D01*
X78936904Y-51104761D01*
X78975000Y-51028571D01*
X79013095Y-50990476D01*
X79089285Y-50952380D01*
X79165476Y-50952380D01*
X79279761Y-50990476D01*
X79736904Y-51447619D01*
X79736904Y-50952380D01*
X78936904Y-50685714D02*
X78936904Y-50190476D01*
X79241666Y-50457142D01*
X79241666Y-50342857D01*
X79279761Y-50266666D01*
X79317857Y-50228571D01*
X79394047Y-50190476D01*
X79584523Y-50190476D01*
X79660714Y-50228571D01*
X79698809Y-50266666D01*
X79736904Y-50342857D01*
X79736904Y-50571428D01*
X79698809Y-50647619D01*
X79660714Y-50685714D01*
X79013095Y-56489523D02*
X78975000Y-56451428D01*
X78936904Y-56375238D01*
X78936904Y-56184761D01*
X78975000Y-56108571D01*
X79013095Y-56070476D01*
X79089285Y-56032380D01*
X79165476Y-56032380D01*
X79279761Y-56070476D01*
X79736904Y-56527619D01*
X79736904Y-56032380D01*
X78936904Y-55308571D02*
X78936904Y-55689523D01*
X79317857Y-55727619D01*
X79279761Y-55689523D01*
X79241666Y-55613333D01*
X79241666Y-55422857D01*
X79279761Y-55346666D01*
X79317857Y-55308571D01*
X79394047Y-55270476D01*
X79584523Y-55270476D01*
X79660714Y-55308571D01*
X79698809Y-55346666D01*
X79736904Y-55422857D01*
X79736904Y-55613333D01*
X79698809Y-55689523D01*
X79660714Y-55727619D01*
X79521095Y-59029523D02*
X79483000Y-58991428D01*
X79444904Y-58915238D01*
X79444904Y-58724761D01*
X79483000Y-58648571D01*
X79521095Y-58610476D01*
X79597285Y-58572380D01*
X79673476Y-58572380D01*
X79787761Y-58610476D01*
X80244904Y-59067619D01*
X80244904Y-58572380D01*
X79444904Y-57886666D02*
X79444904Y-58039047D01*
X79483000Y-58115238D01*
X79521095Y-58153333D01*
X79635380Y-58229523D01*
X79787761Y-58267619D01*
X80092523Y-58267619D01*
X80168714Y-58229523D01*
X80206809Y-58191428D01*
X80244904Y-58115238D01*
X80244904Y-57962857D01*
X80206809Y-57886666D01*
X80168714Y-57848571D01*
X80092523Y-57810476D01*
X79902047Y-57810476D01*
X79825857Y-57848571D01*
X79787761Y-57886666D01*
X79749666Y-57962857D01*
X79749666Y-58115238D01*
X79787761Y-58191428D01*
X79825857Y-58229523D01*
X79902047Y-58267619D01*
X79013095Y-64109523D02*
X78975000Y-64071428D01*
X78936904Y-63995238D01*
X78936904Y-63804761D01*
X78975000Y-63728571D01*
X79013095Y-63690476D01*
X79089285Y-63652380D01*
X79165476Y-63652380D01*
X79279761Y-63690476D01*
X79736904Y-64147619D01*
X79736904Y-63652380D01*
X79279761Y-63195238D02*
X79241666Y-63271428D01*
X79203571Y-63309523D01*
X79127380Y-63347619D01*
X79089285Y-63347619D01*
X79013095Y-63309523D01*
X78975000Y-63271428D01*
X78936904Y-63195238D01*
X78936904Y-63042857D01*
X78975000Y-62966666D01*
X79013095Y-62928571D01*
X79089285Y-62890476D01*
X79127380Y-62890476D01*
X79203571Y-62928571D01*
X79241666Y-62966666D01*
X79279761Y-63042857D01*
X79279761Y-63195238D01*
X79317857Y-63271428D01*
X79355952Y-63309523D01*
X79432142Y-63347619D01*
X79584523Y-63347619D01*
X79660714Y-63309523D01*
X79698809Y-63271428D01*
X79736904Y-63195238D01*
X79736904Y-63042857D01*
X79698809Y-62966666D01*
X79660714Y-62928571D01*
X79584523Y-62890476D01*
X79432142Y-62890476D01*
X79355952Y-62928571D01*
X79317857Y-62966666D01*
X79279761Y-63042857D01*
X79013095Y-66649523D02*
X78975000Y-66611428D01*
X78936904Y-66535238D01*
X78936904Y-66344761D01*
X78975000Y-66268571D01*
X79013095Y-66230476D01*
X79089285Y-66192380D01*
X79165476Y-66192380D01*
X79279761Y-66230476D01*
X79736904Y-66687619D01*
X79736904Y-66192380D01*
X79736904Y-65811428D02*
X79736904Y-65659047D01*
X79698809Y-65582857D01*
X79660714Y-65544761D01*
X79546428Y-65468571D01*
X79394047Y-65430476D01*
X79089285Y-65430476D01*
X79013095Y-65468571D01*
X78975000Y-65506666D01*
X78936904Y-65582857D01*
X78936904Y-65735238D01*
X78975000Y-65811428D01*
X79013095Y-65849523D01*
X79089285Y-65887619D01*
X79279761Y-65887619D01*
X79355952Y-65849523D01*
X79394047Y-65811428D01*
X79432142Y-65735238D01*
X79432142Y-65582857D01*
X79394047Y-65506666D01*
X79355952Y-65468571D01*
X79279761Y-65430476D01*
X78936904Y-81927619D02*
X78936904Y-81432380D01*
X79241666Y-81699047D01*
X79241666Y-81584761D01*
X79279761Y-81508571D01*
X79317857Y-81470476D01*
X79394047Y-81432380D01*
X79584523Y-81432380D01*
X79660714Y-81470476D01*
X79698809Y-81508571D01*
X79736904Y-81584761D01*
X79736904Y-81813333D01*
X79698809Y-81889523D01*
X79660714Y-81927619D01*
X78936904Y-80708571D02*
X78936904Y-81089523D01*
X79317857Y-81127619D01*
X79279761Y-81089523D01*
X79241666Y-81013333D01*
X79241666Y-80822857D01*
X79279761Y-80746666D01*
X79317857Y-80708571D01*
X79394047Y-80670476D01*
X79584523Y-80670476D01*
X79660714Y-80708571D01*
X79698809Y-80746666D01*
X79736904Y-80822857D01*
X79736904Y-81013333D01*
X79698809Y-81089523D01*
X79660714Y-81127619D01*
X78936904Y-84467619D02*
X78936904Y-83972380D01*
X79241666Y-84239047D01*
X79241666Y-84124761D01*
X79279761Y-84048571D01*
X79317857Y-84010476D01*
X79394047Y-83972380D01*
X79584523Y-83972380D01*
X79660714Y-84010476D01*
X79698809Y-84048571D01*
X79736904Y-84124761D01*
X79736904Y-84353333D01*
X79698809Y-84429523D01*
X79660714Y-84467619D01*
X78936904Y-83286666D02*
X78936904Y-83439047D01*
X78975000Y-83515238D01*
X79013095Y-83553333D01*
X79127380Y-83629523D01*
X79279761Y-83667619D01*
X79584523Y-83667619D01*
X79660714Y-83629523D01*
X79698809Y-83591428D01*
X79736904Y-83515238D01*
X79736904Y-83362857D01*
X79698809Y-83286666D01*
X79660714Y-83248571D01*
X79584523Y-83210476D01*
X79394047Y-83210476D01*
X79317857Y-83248571D01*
X79279761Y-83286666D01*
X79241666Y-83362857D01*
X79241666Y-83515238D01*
X79279761Y-83591428D01*
X79317857Y-83629523D01*
X79394047Y-83667619D01*
X87356904Y-49269523D02*
X86556904Y-49269523D01*
X86556904Y-48964761D01*
X86595000Y-48888571D01*
X86633095Y-48850476D01*
X86709285Y-48812380D01*
X86823571Y-48812380D01*
X86899761Y-48850476D01*
X86937857Y-48888571D01*
X86975952Y-48964761D01*
X86975952Y-49269523D01*
X87356904Y-48469523D02*
X86556904Y-48469523D01*
X86937857Y-48469523D02*
X86937857Y-48012380D01*
X87356904Y-48012380D02*
X86556904Y-48012380D01*
X86633095Y-47669523D02*
X86595000Y-47631428D01*
X86556904Y-47555238D01*
X86556904Y-47364761D01*
X86595000Y-47288571D01*
X86633095Y-47250476D01*
X86709285Y-47212380D01*
X86785476Y-47212380D01*
X86899761Y-47250476D01*
X87356904Y-47707619D01*
X87356904Y-47212380D01*
X85413904Y-51447619D02*
X85413904Y-50952380D01*
X85718666Y-51219047D01*
X85718666Y-51104761D01*
X85756761Y-51028571D01*
X85794857Y-50990476D01*
X85871047Y-50952380D01*
X86061523Y-50952380D01*
X86137714Y-50990476D01*
X86175809Y-51028571D01*
X86213904Y-51104761D01*
X86213904Y-51333333D01*
X86175809Y-51409523D01*
X86137714Y-51447619D01*
X86213904Y-50571428D02*
X86213904Y-50419047D01*
X86175809Y-50342857D01*
X86137714Y-50304761D01*
X86023428Y-50228571D01*
X85871047Y-50190476D01*
X85566285Y-50190476D01*
X85490095Y-50228571D01*
X85452000Y-50266666D01*
X85413904Y-50342857D01*
X85413904Y-50495238D01*
X85452000Y-50571428D01*
X85490095Y-50609523D01*
X85566285Y-50647619D01*
X85756761Y-50647619D01*
X85832952Y-50609523D01*
X85871047Y-50571428D01*
X85909142Y-50495238D01*
X85909142Y-50342857D01*
X85871047Y-50266666D01*
X85832952Y-50228571D01*
X85756761Y-50190476D01*
X85680571Y-53568571D02*
X86213904Y-53568571D01*
X85375809Y-53759047D02*
X85947238Y-53949523D01*
X85947238Y-53454285D01*
X85413904Y-52997142D02*
X85413904Y-52920952D01*
X85452000Y-52844761D01*
X85490095Y-52806666D01*
X85566285Y-52768571D01*
X85718666Y-52730476D01*
X85909142Y-52730476D01*
X86061523Y-52768571D01*
X86137714Y-52806666D01*
X86175809Y-52844761D01*
X86213904Y-52920952D01*
X86213904Y-52997142D01*
X86175809Y-53073333D01*
X86137714Y-53111428D01*
X86061523Y-53149523D01*
X85909142Y-53187619D01*
X85718666Y-53187619D01*
X85566285Y-53149523D01*
X85490095Y-53111428D01*
X85452000Y-53073333D01*
X85413904Y-52997142D01*
X85680571Y-56108571D02*
X86213904Y-56108571D01*
X85375809Y-56299047D02*
X85947238Y-56489523D01*
X85947238Y-55994285D01*
X86213904Y-55270476D02*
X86213904Y-55727619D01*
X86213904Y-55499047D02*
X85413904Y-55499047D01*
X85528190Y-55575238D01*
X85604380Y-55651428D01*
X85642476Y-55727619D01*
X85680571Y-58648571D02*
X86213904Y-58648571D01*
X85375809Y-58839047D02*
X85947238Y-59029523D01*
X85947238Y-58534285D01*
X85490095Y-58267619D02*
X85452000Y-58229523D01*
X85413904Y-58153333D01*
X85413904Y-57962857D01*
X85452000Y-57886666D01*
X85490095Y-57848571D01*
X85566285Y-57810476D01*
X85642476Y-57810476D01*
X85756761Y-57848571D01*
X86213904Y-58305714D01*
X86213904Y-57810476D01*
X85680571Y-61188571D02*
X86213904Y-61188571D01*
X85375809Y-61379047D02*
X85947238Y-61569523D01*
X85947238Y-61074285D01*
X85413904Y-60845714D02*
X85413904Y-60350476D01*
X85718666Y-60617142D01*
X85718666Y-60502857D01*
X85756761Y-60426666D01*
X85794857Y-60388571D01*
X85871047Y-60350476D01*
X86061523Y-60350476D01*
X86137714Y-60388571D01*
X86175809Y-60426666D01*
X86213904Y-60502857D01*
X86213904Y-60731428D01*
X86175809Y-60807619D01*
X86137714Y-60845714D01*
X85680571Y-63728571D02*
X86213904Y-63728571D01*
X85375809Y-63919047D02*
X85947238Y-64109523D01*
X85947238Y-63614285D01*
X85680571Y-62966666D02*
X86213904Y-62966666D01*
X85375809Y-63157142D02*
X85947238Y-63347619D01*
X85947238Y-62852380D01*
X85680571Y-66268571D02*
X86213904Y-66268571D01*
X85375809Y-66459047D02*
X85947238Y-66649523D01*
X85947238Y-66154285D01*
X85413904Y-65468571D02*
X85413904Y-65849523D01*
X85794857Y-65887619D01*
X85756761Y-65849523D01*
X85718666Y-65773333D01*
X85718666Y-65582857D01*
X85756761Y-65506666D01*
X85794857Y-65468571D01*
X85871047Y-65430476D01*
X86061523Y-65430476D01*
X86137714Y-65468571D01*
X86175809Y-65506666D01*
X86213904Y-65582857D01*
X86213904Y-65773333D01*
X86175809Y-65849523D01*
X86137714Y-65887619D01*
X85680571Y-71348571D02*
X86213904Y-71348571D01*
X85375809Y-71539047D02*
X85947238Y-71729523D01*
X85947238Y-71234285D01*
X85413904Y-71005714D02*
X85413904Y-70472380D01*
X86213904Y-70815238D01*
X85680571Y-76428571D02*
X86213904Y-76428571D01*
X85375809Y-76619047D02*
X85947238Y-76809523D01*
X85947238Y-76314285D01*
X86213904Y-75971428D02*
X86213904Y-75819047D01*
X86175809Y-75742857D01*
X86137714Y-75704761D01*
X86023428Y-75628571D01*
X85871047Y-75590476D01*
X85566285Y-75590476D01*
X85490095Y-75628571D01*
X85452000Y-75666666D01*
X85413904Y-75742857D01*
X85413904Y-75895238D01*
X85452000Y-75971428D01*
X85490095Y-76009523D01*
X85566285Y-76047619D01*
X85756761Y-76047619D01*
X85832952Y-76009523D01*
X85871047Y-75971428D01*
X85909142Y-75895238D01*
X85909142Y-75742857D01*
X85871047Y-75666666D01*
X85832952Y-75628571D01*
X85756761Y-75590476D01*
X85413904Y-81470476D02*
X85413904Y-81851428D01*
X85794857Y-81889523D01*
X85756761Y-81851428D01*
X85718666Y-81775238D01*
X85718666Y-81584761D01*
X85756761Y-81508571D01*
X85794857Y-81470476D01*
X85871047Y-81432380D01*
X86061523Y-81432380D01*
X86137714Y-81470476D01*
X86175809Y-81508571D01*
X86213904Y-81584761D01*
X86213904Y-81775238D01*
X86175809Y-81851428D01*
X86137714Y-81889523D01*
X86213904Y-80670476D02*
X86213904Y-81127619D01*
X86213904Y-80899047D02*
X85413904Y-80899047D01*
X85528190Y-80975238D01*
X85604380Y-81051428D01*
X85642476Y-81127619D01*
X85413904Y-86550476D02*
X85413904Y-86931428D01*
X85794857Y-86969523D01*
X85756761Y-86931428D01*
X85718666Y-86855238D01*
X85718666Y-86664761D01*
X85756761Y-86588571D01*
X85794857Y-86550476D01*
X85871047Y-86512380D01*
X86061523Y-86512380D01*
X86137714Y-86550476D01*
X86175809Y-86588571D01*
X86213904Y-86664761D01*
X86213904Y-86855238D01*
X86175809Y-86931428D01*
X86137714Y-86969523D01*
X85413904Y-86245714D02*
X85413904Y-85750476D01*
X85718666Y-86017142D01*
X85718666Y-85902857D01*
X85756761Y-85826666D01*
X85794857Y-85788571D01*
X85871047Y-85750476D01*
X86061523Y-85750476D01*
X86137714Y-85788571D01*
X86175809Y-85826666D01*
X86213904Y-85902857D01*
X86213904Y-86131428D01*
X86175809Y-86207619D01*
X86137714Y-86245714D01*
X87356904Y-84772380D02*
X86556904Y-84772380D01*
X86556904Y-84467619D01*
X86595000Y-84391428D01*
X86633095Y-84353333D01*
X86709285Y-84315238D01*
X86823571Y-84315238D01*
X86899761Y-84353333D01*
X86937857Y-84391428D01*
X86975952Y-84467619D01*
X86975952Y-84772380D01*
X86937857Y-83972380D02*
X86937857Y-83705714D01*
X87356904Y-83591428D02*
X87356904Y-83972380D01*
X86556904Y-83972380D01*
X86556904Y-83591428D01*
X86556904Y-82905714D02*
X86556904Y-83058095D01*
X86595000Y-83134285D01*
X86633095Y-83172380D01*
X86747380Y-83248571D01*
X86899761Y-83286666D01*
X87204523Y-83286666D01*
X87280714Y-83248571D01*
X87318809Y-83210476D01*
X87356904Y-83134285D01*
X87356904Y-82981904D01*
X87318809Y-82905714D01*
X87280714Y-82867619D01*
X87204523Y-82829523D01*
X87014047Y-82829523D01*
X86937857Y-82867619D01*
X86899761Y-82905714D01*
X86861666Y-82981904D01*
X86861666Y-83134285D01*
X86899761Y-83210476D01*
X86937857Y-83248571D01*
X87014047Y-83286666D01*
X87356904Y-87312380D02*
X86556904Y-87312380D01*
X86556904Y-87007619D01*
X86595000Y-86931428D01*
X86633095Y-86893333D01*
X86709285Y-86855238D01*
X86823571Y-86855238D01*
X86899761Y-86893333D01*
X86937857Y-86931428D01*
X86975952Y-87007619D01*
X86975952Y-87312380D01*
X86937857Y-86512380D02*
X86937857Y-86245714D01*
X87356904Y-86131428D02*
X87356904Y-86512380D01*
X86556904Y-86512380D01*
X86556904Y-86131428D01*
X86633095Y-85826666D02*
X86595000Y-85788571D01*
X86556904Y-85712380D01*
X86556904Y-85521904D01*
X86595000Y-85445714D01*
X86633095Y-85407619D01*
X86709285Y-85369523D01*
X86785476Y-85369523D01*
X86899761Y-85407619D01*
X87356904Y-85864761D01*
X87356904Y-85369523D01*
X87356904Y-56775238D02*
X86556904Y-56775238D01*
X86556904Y-56470476D01*
X86595000Y-56394285D01*
X86633095Y-56356190D01*
X86709285Y-56318095D01*
X86823571Y-56318095D01*
X86899761Y-56356190D01*
X86937857Y-56394285D01*
X86975952Y-56470476D01*
X86975952Y-56775238D01*
X86556904Y-55746666D02*
X87128333Y-55746666D01*
X87242619Y-55784761D01*
X87318809Y-55860952D01*
X87356904Y-55975238D01*
X87356904Y-56051428D01*
X86556904Y-55441904D02*
X86556904Y-54946666D01*
X86861666Y-55213333D01*
X86861666Y-55099047D01*
X86899761Y-55022857D01*
X86937857Y-54984761D01*
X87014047Y-54946666D01*
X87204523Y-54946666D01*
X87280714Y-54984761D01*
X87318809Y-55022857D01*
X87356904Y-55099047D01*
X87356904Y-55327619D01*
X87318809Y-55403809D01*
X87280714Y-55441904D01*
X87356904Y-61855238D02*
X86556904Y-61855238D01*
X86556904Y-61550476D01*
X86595000Y-61474285D01*
X86633095Y-61436190D01*
X86709285Y-61398095D01*
X86823571Y-61398095D01*
X86899761Y-61436190D01*
X86937857Y-61474285D01*
X86975952Y-61550476D01*
X86975952Y-61855238D01*
X86556904Y-60826666D02*
X87128333Y-60826666D01*
X87242619Y-60864761D01*
X87318809Y-60940952D01*
X87356904Y-61055238D01*
X87356904Y-61131428D01*
X86556904Y-60064761D02*
X86556904Y-60445714D01*
X86937857Y-60483809D01*
X86899761Y-60445714D01*
X86861666Y-60369523D01*
X86861666Y-60179047D01*
X86899761Y-60102857D01*
X86937857Y-60064761D01*
X87014047Y-60026666D01*
X87204523Y-60026666D01*
X87280714Y-60064761D01*
X87318809Y-60102857D01*
X87356904Y-60179047D01*
X87356904Y-60369523D01*
X87318809Y-60445714D01*
X87280714Y-60483809D01*
X87356904Y-64395238D02*
X86556904Y-64395238D01*
X86556904Y-64090476D01*
X86595000Y-64014285D01*
X86633095Y-63976190D01*
X86709285Y-63938095D01*
X86823571Y-63938095D01*
X86899761Y-63976190D01*
X86937857Y-64014285D01*
X86975952Y-64090476D01*
X86975952Y-64395238D01*
X86556904Y-63366666D02*
X87128333Y-63366666D01*
X87242619Y-63404761D01*
X87318809Y-63480952D01*
X87356904Y-63595238D01*
X87356904Y-63671428D01*
X86556904Y-62642857D02*
X86556904Y-62795238D01*
X86595000Y-62871428D01*
X86633095Y-62909523D01*
X86747380Y-62985714D01*
X86899761Y-63023809D01*
X87204523Y-63023809D01*
X87280714Y-62985714D01*
X87318809Y-62947619D01*
X87356904Y-62871428D01*
X87356904Y-62719047D01*
X87318809Y-62642857D01*
X87280714Y-62604761D01*
X87204523Y-62566666D01*
X87014047Y-62566666D01*
X86937857Y-62604761D01*
X86899761Y-62642857D01*
X86861666Y-62719047D01*
X86861666Y-62871428D01*
X86899761Y-62947619D01*
X86937857Y-62985714D01*
X87014047Y-63023809D01*
X87356904Y-69570476D02*
X86556904Y-69570476D01*
X86556904Y-69265714D01*
X86595000Y-69189523D01*
X86633095Y-69151428D01*
X86709285Y-69113333D01*
X86823571Y-69113333D01*
X86899761Y-69151428D01*
X86937857Y-69189523D01*
X86975952Y-69265714D01*
X86975952Y-69570476D01*
X87356904Y-68770476D02*
X86556904Y-68770476D01*
X86556904Y-68580000D01*
X86595000Y-68465714D01*
X86671190Y-68389523D01*
X86747380Y-68351428D01*
X86899761Y-68313333D01*
X87014047Y-68313333D01*
X87166428Y-68351428D01*
X87242619Y-68389523D01*
X87318809Y-68465714D01*
X87356904Y-68580000D01*
X87356904Y-68770476D01*
X86823571Y-67627619D02*
X87356904Y-67627619D01*
X86518809Y-67818095D02*
X87090238Y-68008571D01*
X87090238Y-67513333D01*
X87356904Y-77190476D02*
X86556904Y-77190476D01*
X86556904Y-76885714D01*
X86595000Y-76809523D01*
X86633095Y-76771428D01*
X86709285Y-76733333D01*
X86823571Y-76733333D01*
X86899761Y-76771428D01*
X86937857Y-76809523D01*
X86975952Y-76885714D01*
X86975952Y-77190476D01*
X86595000Y-75971428D02*
X86556904Y-76047619D01*
X86556904Y-76161904D01*
X86595000Y-76276190D01*
X86671190Y-76352380D01*
X86747380Y-76390476D01*
X86899761Y-76428571D01*
X87014047Y-76428571D01*
X87166428Y-76390476D01*
X87242619Y-76352380D01*
X87318809Y-76276190D01*
X87356904Y-76161904D01*
X87356904Y-76085714D01*
X87318809Y-75971428D01*
X87280714Y-75933333D01*
X87014047Y-75933333D01*
X87014047Y-76085714D01*
X86823571Y-75247619D02*
X87356904Y-75247619D01*
X86518809Y-75438095D02*
X87090238Y-75628571D01*
X87090238Y-75133333D01*
X87356904Y-82232380D02*
X86556904Y-82232380D01*
X86556904Y-81927619D01*
X86595000Y-81851428D01*
X86633095Y-81813333D01*
X86709285Y-81775238D01*
X86823571Y-81775238D01*
X86899761Y-81813333D01*
X86937857Y-81851428D01*
X86975952Y-81927619D01*
X86975952Y-82232380D01*
X86937857Y-81432380D02*
X86937857Y-81165714D01*
X87356904Y-81051428D02*
X87356904Y-81432380D01*
X86556904Y-81432380D01*
X86556904Y-81051428D01*
X86556904Y-80784761D02*
X86556904Y-80251428D01*
X87356904Y-80594285D01*
X78301904Y-46710476D02*
X78301904Y-46253333D01*
X79101904Y-46481904D02*
X78301904Y-46481904D01*
X78301904Y-46062857D02*
X79101904Y-45529523D01*
X78301904Y-45529523D02*
X79101904Y-46062857D01*
X78301904Y-45300952D02*
X78301904Y-44805714D01*
X78606666Y-45072380D01*
X78606666Y-44958095D01*
X78644761Y-44881904D01*
X78682857Y-44843809D01*
X78759047Y-44805714D01*
X78949523Y-44805714D01*
X79025714Y-44843809D01*
X79063809Y-44881904D01*
X79101904Y-44958095D01*
X79101904Y-45186666D01*
X79063809Y-45262857D01*
X79025714Y-45300952D01*
D25*
X78606666Y-41718666D02*
X78206666Y-41718666D01*
X78406666Y-41718666D02*
X78406666Y-41018666D01*
X78340000Y-41118666D01*
X78273333Y-41185333D01*
X78206666Y-41218666D01*
X79206666Y-41252000D02*
X79206666Y-41718666D01*
X79040000Y-40985333D02*
X78873333Y-41485333D01*
X79306666Y-41485333D01*
X83686666Y-41718666D02*
X83286666Y-41718666D01*
X83486666Y-41718666D02*
X83486666Y-41018666D01*
X83420000Y-41118666D01*
X83353333Y-41185333D01*
X83286666Y-41218666D01*
X84286666Y-41018666D02*
X84153333Y-41018666D01*
X84086666Y-41052000D01*
X84053333Y-41085333D01*
X83986666Y-41185333D01*
X83953333Y-41318666D01*
X83953333Y-41585333D01*
X83986666Y-41652000D01*
X84020000Y-41685333D01*
X84086666Y-41718666D01*
X84220000Y-41718666D01*
X84286666Y-41685333D01*
X84320000Y-41652000D01*
X84353333Y-41585333D01*
X84353333Y-41418666D01*
X84320000Y-41352000D01*
X84286666Y-41318666D01*
X84220000Y-41285333D01*
X84086666Y-41285333D01*
X84020000Y-41318666D01*
X83986666Y-41352000D01*
X83953333Y-41418666D01*
X86226666Y-41718666D02*
X85826666Y-41718666D01*
X86026666Y-41718666D02*
X86026666Y-41018666D01*
X85960000Y-41118666D01*
X85893333Y-41185333D01*
X85826666Y-41218666D01*
X86460000Y-41018666D02*
X86926666Y-41018666D01*
X86626666Y-41718666D01*
D16*
X81641904Y-46234285D02*
X81260952Y-46500952D01*
X81641904Y-46691428D02*
X80841904Y-46691428D01*
X80841904Y-46386666D01*
X80880000Y-46310476D01*
X80918095Y-46272380D01*
X80994285Y-46234285D01*
X81108571Y-46234285D01*
X81184761Y-46272380D01*
X81222857Y-46310476D01*
X81260952Y-46386666D01*
X81260952Y-46691428D01*
X80841904Y-45967619D02*
X81641904Y-45434285D01*
X80841904Y-45434285D02*
X81641904Y-45967619D01*
X80841904Y-45205714D02*
X80841904Y-44710476D01*
X81146666Y-44977142D01*
X81146666Y-44862857D01*
X81184761Y-44786666D01*
X81222857Y-44748571D01*
X81299047Y-44710476D01*
X81489523Y-44710476D01*
X81565714Y-44748571D01*
X81603809Y-44786666D01*
X81641904Y-44862857D01*
X81641904Y-45091428D01*
X81603809Y-45167619D01*
X81565714Y-45205714D01*
X97194666Y-81231904D02*
X97194666Y-80755714D01*
X97480380Y-81327142D02*
X96480380Y-80993809D01*
X97480380Y-80660476D01*
X97480380Y-80327142D02*
X96480380Y-80327142D01*
X97480380Y-79755714D01*
X96480380Y-79755714D01*
X97194666Y-79327142D02*
X97194666Y-78850952D01*
X97480380Y-79422380D02*
X96480380Y-79089047D01*
X97480380Y-78755714D01*
X97480380Y-77946190D02*
X97480380Y-78422380D01*
X96480380Y-78422380D01*
X96480380Y-77422380D02*
X96480380Y-77231904D01*
X96528000Y-77136666D01*
X96623238Y-77041428D01*
X96813714Y-76993809D01*
X97147047Y-76993809D01*
X97337523Y-77041428D01*
X97432761Y-77136666D01*
X97480380Y-77231904D01*
X97480380Y-77422380D01*
X97432761Y-77517619D01*
X97337523Y-77612857D01*
X97147047Y-77660476D01*
X96813714Y-77660476D01*
X96623238Y-77612857D01*
X96528000Y-77517619D01*
X96480380Y-77422380D01*
X96528000Y-76041428D02*
X96480380Y-76136666D01*
X96480380Y-76279523D01*
X96528000Y-76422380D01*
X96623238Y-76517619D01*
X96718476Y-76565238D01*
X96908952Y-76612857D01*
X97051809Y-76612857D01*
X97242285Y-76565238D01*
X97337523Y-76517619D01*
X97432761Y-76422380D01*
X97480380Y-76279523D01*
X97480380Y-76184285D01*
X97432761Y-76041428D01*
X97385142Y-75993809D01*
X97051809Y-75993809D01*
X97051809Y-76184285D01*
X97480380Y-74803333D02*
X96480380Y-74803333D01*
X97480380Y-74327142D02*
X96480380Y-74327142D01*
X97480380Y-73755714D01*
X96480380Y-73755714D01*
X91763809Y-89871428D02*
X91801904Y-89757142D01*
X91801904Y-89566666D01*
X91763809Y-89490476D01*
X91725714Y-89452380D01*
X91649523Y-89414285D01*
X91573333Y-89414285D01*
X91497142Y-89452380D01*
X91459047Y-89490476D01*
X91420952Y-89566666D01*
X91382857Y-89719047D01*
X91344761Y-89795238D01*
X91306666Y-89833333D01*
X91230476Y-89871428D01*
X91154285Y-89871428D01*
X91078095Y-89833333D01*
X91040000Y-89795238D01*
X91001904Y-89719047D01*
X91001904Y-89528571D01*
X91040000Y-89414285D01*
X91801904Y-89071428D02*
X91001904Y-89071428D01*
X91001904Y-88880952D01*
X91040000Y-88766666D01*
X91116190Y-88690476D01*
X91192380Y-88652380D01*
X91344761Y-88614285D01*
X91459047Y-88614285D01*
X91611428Y-88652380D01*
X91687619Y-88690476D01*
X91763809Y-88766666D01*
X91801904Y-88880952D01*
X91801904Y-89071428D01*
X91573333Y-88309523D02*
X91573333Y-87928571D01*
X91801904Y-88385714D02*
X91001904Y-88119047D01*
X91801904Y-87852380D01*
X85960000Y-89509523D02*
X85921904Y-89585714D01*
X85921904Y-89700000D01*
X85960000Y-89814285D01*
X86036190Y-89890476D01*
X86112380Y-89928571D01*
X86264761Y-89966666D01*
X86379047Y-89966666D01*
X86531428Y-89928571D01*
X86607619Y-89890476D01*
X86683809Y-89814285D01*
X86721904Y-89700000D01*
X86721904Y-89623809D01*
X86683809Y-89509523D01*
X86645714Y-89471428D01*
X86379047Y-89471428D01*
X86379047Y-89623809D01*
X86721904Y-89128571D02*
X85921904Y-89128571D01*
X86721904Y-88671428D01*
X85921904Y-88671428D01*
X86721904Y-88290476D02*
X85921904Y-88290476D01*
X85921904Y-88100000D01*
X85960000Y-87985714D01*
X86036190Y-87909523D01*
X86112380Y-87871428D01*
X86264761Y-87833333D01*
X86379047Y-87833333D01*
X86531428Y-87871428D01*
X86607619Y-87909523D01*
X86683809Y-87985714D01*
X86721904Y-88100000D01*
X86721904Y-88290476D01*
D24*
X45163619Y-89383809D02*
X45163619Y-88754857D01*
X45550666Y-89093523D01*
X45550666Y-88948380D01*
X45599047Y-88851619D01*
X45647428Y-88803238D01*
X45744190Y-88754857D01*
X45986095Y-88754857D01*
X46082857Y-88803238D01*
X46131238Y-88851619D01*
X46179619Y-88948380D01*
X46179619Y-89238666D01*
X46131238Y-89335428D01*
X46082857Y-89383809D01*
X46082857Y-88319428D02*
X46131238Y-88271047D01*
X46179619Y-88319428D01*
X46131238Y-88367809D01*
X46082857Y-88319428D01*
X46179619Y-88319428D01*
X45163619Y-87932380D02*
X45163619Y-87303428D01*
X45550666Y-87642095D01*
X45550666Y-87496952D01*
X45599047Y-87400190D01*
X45647428Y-87351809D01*
X45744190Y-87303428D01*
X45986095Y-87303428D01*
X46082857Y-87351809D01*
X46131238Y-87400190D01*
X46179619Y-87496952D01*
X46179619Y-87787238D01*
X46131238Y-87884000D01*
X46082857Y-87932380D01*
X45163619Y-87013142D02*
X46179619Y-86674476D01*
X45163619Y-86335809D01*
X43639619Y-88821380D02*
X43155809Y-89160047D01*
X43639619Y-89401952D02*
X42623619Y-89401952D01*
X42623619Y-89014904D01*
X42672000Y-88918142D01*
X42720380Y-88869761D01*
X42817142Y-88821380D01*
X42962285Y-88821380D01*
X43059047Y-88869761D01*
X43107428Y-88918142D01*
X43155809Y-89014904D01*
X43155809Y-89401952D01*
X43591238Y-88434333D02*
X43639619Y-88289190D01*
X43639619Y-88047285D01*
X43591238Y-87950523D01*
X43542857Y-87902142D01*
X43446095Y-87853761D01*
X43349333Y-87853761D01*
X43252571Y-87902142D01*
X43204190Y-87950523D01*
X43155809Y-88047285D01*
X43107428Y-88240809D01*
X43059047Y-88337571D01*
X43010666Y-88385952D01*
X42913904Y-88434333D01*
X42817142Y-88434333D01*
X42720380Y-88385952D01*
X42672000Y-88337571D01*
X42623619Y-88240809D01*
X42623619Y-87998904D01*
X42672000Y-87853761D01*
X42623619Y-87563476D02*
X42623619Y-86982904D01*
X43639619Y-87273190D02*
X42623619Y-87273190D01*
D16*
X94303809Y-45027619D02*
X94341904Y-44913333D01*
X94341904Y-44722857D01*
X94303809Y-44646666D01*
X94265714Y-44608571D01*
X94189523Y-44570476D01*
X94113333Y-44570476D01*
X94037142Y-44608571D01*
X93999047Y-44646666D01*
X93960952Y-44722857D01*
X93922857Y-44875238D01*
X93884761Y-44951428D01*
X93846666Y-44989523D01*
X93770476Y-45027619D01*
X93694285Y-45027619D01*
X93618095Y-44989523D01*
X93580000Y-44951428D01*
X93541904Y-44875238D01*
X93541904Y-44684761D01*
X93580000Y-44570476D01*
X93922857Y-44227619D02*
X93922857Y-43960952D01*
X94341904Y-43846666D02*
X94341904Y-44227619D01*
X93541904Y-44227619D01*
X93541904Y-43846666D01*
X94341904Y-43046666D02*
X93960952Y-43313333D01*
X94341904Y-43503809D02*
X93541904Y-43503809D01*
X93541904Y-43199047D01*
X93580000Y-43122857D01*
X93618095Y-43084761D01*
X93694285Y-43046666D01*
X93808571Y-43046666D01*
X93884761Y-43084761D01*
X93922857Y-43122857D01*
X93960952Y-43199047D01*
X93960952Y-43503809D01*
X94341904Y-42703809D02*
X93541904Y-42703809D01*
X94113333Y-42360952D02*
X94113333Y-41980000D01*
X94341904Y-42437142D02*
X93541904Y-42170476D01*
X94341904Y-41903809D01*
X94341904Y-41256190D02*
X94341904Y-41637142D01*
X93541904Y-41637142D01*
X54965714Y-50399904D02*
X54965714Y-49599904D01*
X55156190Y-49599904D01*
X55270476Y-49638000D01*
X55346666Y-49714190D01*
X55384761Y-49790380D01*
X55422857Y-49942761D01*
X55422857Y-50057047D01*
X55384761Y-50209428D01*
X55346666Y-50285619D01*
X55270476Y-50361809D01*
X55156190Y-50399904D01*
X54965714Y-50399904D01*
X55651428Y-49599904D02*
X56108571Y-49599904D01*
X55880000Y-50399904D02*
X55880000Y-49599904D01*
X56832380Y-50399904D02*
X56565714Y-50018952D01*
X56375238Y-50399904D02*
X56375238Y-49599904D01*
X56680000Y-49599904D01*
X56756190Y-49638000D01*
X56794285Y-49676095D01*
X56832380Y-49752285D01*
X56832380Y-49866571D01*
X56794285Y-49942761D01*
X56756190Y-49980857D01*
X56680000Y-50018952D01*
X56375238Y-50018952D01*
X59950476Y-50399904D02*
X59950476Y-49599904D01*
X60140952Y-49599904D01*
X60255238Y-49638000D01*
X60331428Y-49714190D01*
X60369523Y-49790380D01*
X60407619Y-49942761D01*
X60407619Y-50057047D01*
X60369523Y-50209428D01*
X60331428Y-50285619D01*
X60255238Y-50361809D01*
X60140952Y-50399904D01*
X59950476Y-50399904D01*
X61207619Y-50323714D02*
X61169523Y-50361809D01*
X61055238Y-50399904D01*
X60979047Y-50399904D01*
X60864761Y-50361809D01*
X60788571Y-50285619D01*
X60750476Y-50209428D01*
X60712380Y-50057047D01*
X60712380Y-49942761D01*
X60750476Y-49790380D01*
X60788571Y-49714190D01*
X60864761Y-49638000D01*
X60979047Y-49599904D01*
X61055238Y-49599904D01*
X61169523Y-49638000D01*
X61207619Y-49676095D01*
X61550476Y-50399904D02*
X61550476Y-49599904D01*
X61740952Y-49599904D01*
X61855238Y-49638000D01*
X61931428Y-49714190D01*
X61969523Y-49790380D01*
X62007619Y-49942761D01*
X62007619Y-50057047D01*
X61969523Y-50209428D01*
X61931428Y-50285619D01*
X61855238Y-50361809D01*
X61740952Y-50399904D01*
X61550476Y-50399904D01*
X57429523Y-56241904D02*
X57429523Y-55441904D01*
X57620000Y-55441904D01*
X57734285Y-55480000D01*
X57810476Y-55556190D01*
X57848571Y-55632380D01*
X57886666Y-55784761D01*
X57886666Y-55899047D01*
X57848571Y-56051428D01*
X57810476Y-56127619D01*
X57734285Y-56203809D01*
X57620000Y-56241904D01*
X57429523Y-56241904D01*
X58191428Y-56203809D02*
X58305714Y-56241904D01*
X58496190Y-56241904D01*
X58572380Y-56203809D01*
X58610476Y-56165714D01*
X58648571Y-56089523D01*
X58648571Y-56013333D01*
X58610476Y-55937142D01*
X58572380Y-55899047D01*
X58496190Y-55860952D01*
X58343809Y-55822857D01*
X58267619Y-55784761D01*
X58229523Y-55746666D01*
X58191428Y-55670476D01*
X58191428Y-55594285D01*
X58229523Y-55518095D01*
X58267619Y-55480000D01*
X58343809Y-55441904D01*
X58534285Y-55441904D01*
X58648571Y-55480000D01*
X59448571Y-56241904D02*
X59181904Y-55860952D01*
X58991428Y-56241904D02*
X58991428Y-55441904D01*
X59296190Y-55441904D01*
X59372380Y-55480000D01*
X59410476Y-55518095D01*
X59448571Y-55594285D01*
X59448571Y-55708571D01*
X59410476Y-55784761D01*
X59372380Y-55822857D01*
X59296190Y-55860952D01*
X58991428Y-55860952D01*
X60521904Y-56165714D02*
X60483809Y-56203809D01*
X60369523Y-56241904D01*
X60293333Y-56241904D01*
X60179047Y-56203809D01*
X60102857Y-56127619D01*
X60064761Y-56051428D01*
X60026666Y-55899047D01*
X60026666Y-55784761D01*
X60064761Y-55632380D01*
X60102857Y-55556190D01*
X60179047Y-55480000D01*
X60293333Y-55441904D01*
X60369523Y-55441904D01*
X60483809Y-55480000D01*
X60521904Y-55518095D01*
X60750476Y-55441904D02*
X61207619Y-55441904D01*
X60979047Y-56241904D02*
X60979047Y-55441904D01*
X61436190Y-56203809D02*
X61550476Y-56241904D01*
X61740952Y-56241904D01*
X61817142Y-56203809D01*
X61855238Y-56165714D01*
X61893333Y-56089523D01*
X61893333Y-56013333D01*
X61855238Y-55937142D01*
X61817142Y-55899047D01*
X61740952Y-55860952D01*
X61588571Y-55822857D01*
X61512380Y-55784761D01*
X61474285Y-55746666D01*
X61436190Y-55670476D01*
X61436190Y-55594285D01*
X61474285Y-55518095D01*
X61512380Y-55480000D01*
X61588571Y-55441904D01*
X61779047Y-55441904D01*
X61893333Y-55480000D01*
D18*
X62804523Y-54730952D02*
X63832619Y-54730952D01*
X63953571Y-54670476D01*
X64014047Y-54610000D01*
X64074523Y-54489047D01*
X64074523Y-54247142D01*
X64014047Y-54126190D01*
X63953571Y-54065714D01*
X63832619Y-54005238D01*
X62804523Y-54005238D01*
X63711666Y-53460952D02*
X63711666Y-52856190D01*
X64074523Y-53581904D02*
X62804523Y-53158571D01*
X64074523Y-52735238D01*
X64074523Y-51586190D02*
X63469761Y-52009523D01*
X64074523Y-52311904D02*
X62804523Y-52311904D01*
X62804523Y-51828095D01*
X62865000Y-51707142D01*
X62925476Y-51646666D01*
X63046428Y-51586190D01*
X63227857Y-51586190D01*
X63348809Y-51646666D01*
X63409285Y-51707142D01*
X63469761Y-51828095D01*
X63469761Y-52311904D01*
X62804523Y-51223333D02*
X62804523Y-50497619D01*
X64074523Y-50860476D02*
X62804523Y-50860476D01*
X73690238Y-71694523D02*
X73690238Y-70424523D01*
X74234523Y-71634047D02*
X74415952Y-71694523D01*
X74718333Y-71694523D01*
X74839285Y-71634047D01*
X74899761Y-71573571D01*
X74960238Y-71452619D01*
X74960238Y-71331666D01*
X74899761Y-71210714D01*
X74839285Y-71150238D01*
X74718333Y-71089761D01*
X74476428Y-71029285D01*
X74355476Y-70968809D01*
X74295000Y-70908333D01*
X74234523Y-70787380D01*
X74234523Y-70666428D01*
X74295000Y-70545476D01*
X74355476Y-70485000D01*
X74476428Y-70424523D01*
X74778809Y-70424523D01*
X74960238Y-70485000D01*
X75504523Y-71694523D02*
X75504523Y-70424523D01*
X75988333Y-70424523D01*
X76109285Y-70485000D01*
X76169761Y-70545476D01*
X76230238Y-70666428D01*
X76230238Y-70847857D01*
X76169761Y-70968809D01*
X76109285Y-71029285D01*
X75988333Y-71089761D01*
X75504523Y-71089761D01*
D26*
X60996285Y-86487000D02*
X61359142Y-86487000D01*
X60923714Y-86704714D02*
X61177714Y-85942714D01*
X61431714Y-86704714D01*
X62121142Y-86704714D02*
X61867142Y-86341857D01*
X61685714Y-86704714D02*
X61685714Y-85942714D01*
X61976000Y-85942714D01*
X62048571Y-85979000D01*
X62084857Y-86015285D01*
X62121142Y-86087857D01*
X62121142Y-86196714D01*
X62084857Y-86269285D01*
X62048571Y-86305571D01*
X61976000Y-86341857D01*
X61685714Y-86341857D01*
X62447714Y-86305571D02*
X62701714Y-86305571D01*
X62810571Y-86704714D02*
X62447714Y-86704714D01*
X62447714Y-85942714D01*
X62810571Y-85942714D01*
X63391142Y-86305571D02*
X63137142Y-86305571D01*
X63137142Y-86704714D02*
X63137142Y-85942714D01*
X63500000Y-85942714D01*
D16*
X49475140Y-68592604D02*
X50284664Y-68592604D01*
X50379902Y-68544985D01*
X50427521Y-68497366D01*
X50475140Y-68402128D01*
X50475140Y-68211652D01*
X50427521Y-68116414D01*
X50379902Y-68068795D01*
X50284664Y-68021176D01*
X49475140Y-68021176D01*
X49475140Y-67640223D02*
X49475140Y-67021176D01*
X49856093Y-67354509D01*
X49856093Y-67211652D01*
X49903712Y-67116414D01*
X49951331Y-67068795D01*
X50046569Y-67021176D01*
X50284664Y-67021176D01*
X50379902Y-67068795D01*
X50427521Y-67116414D01*
X50475140Y-67211652D01*
X50475140Y-67497366D01*
X50427521Y-67592604D01*
X50379902Y-67640223D01*
D18*
X51075166Y-83315023D02*
X51075166Y-84222166D01*
X51014690Y-84403595D01*
X50893738Y-84524547D01*
X50712309Y-84585023D01*
X50591357Y-84585023D01*
X52345166Y-84585023D02*
X51619452Y-84585023D01*
X51982309Y-84585023D02*
X51982309Y-83315023D01*
X51861357Y-83496452D01*
X51740404Y-83617404D01*
X51619452Y-83677880D01*
X24087666Y-87315523D02*
X24087666Y-88222666D01*
X24027190Y-88404095D01*
X23906238Y-88525047D01*
X23724809Y-88585523D01*
X23603857Y-88585523D01*
X24631952Y-87436476D02*
X24692428Y-87376000D01*
X24813380Y-87315523D01*
X25115761Y-87315523D01*
X25236714Y-87376000D01*
X25297190Y-87436476D01*
X25357666Y-87557428D01*
X25357666Y-87678380D01*
X25297190Y-87859809D01*
X24571476Y-88585523D01*
X25357666Y-88585523D01*
D16*
X60601695Y-68990180D02*
X60601695Y-69799704D01*
X60649314Y-69894942D01*
X60696933Y-69942561D01*
X60792171Y-69990180D01*
X60982647Y-69990180D01*
X61077885Y-69942561D01*
X61125504Y-69894942D01*
X61173123Y-69799704D01*
X61173123Y-68990180D01*
X62077885Y-69323514D02*
X62077885Y-69990180D01*
X61839790Y-68942561D02*
X61601695Y-69656847D01*
X62220742Y-69656847D01*
D20*
X93296666Y-46408166D02*
X92963333Y-46641500D01*
X93296666Y-46808166D02*
X92596666Y-46808166D01*
X92596666Y-46541500D01*
X92630000Y-46474833D01*
X92663333Y-46441500D01*
X92730000Y-46408166D01*
X92830000Y-46408166D01*
X92896666Y-46441500D01*
X92930000Y-46474833D01*
X92963333Y-46541500D01*
X92963333Y-46808166D01*
X92596666Y-46174833D02*
X92596666Y-45741500D01*
X92863333Y-45974833D01*
X92863333Y-45874833D01*
X92896666Y-45808166D01*
X92930000Y-45774833D01*
X92996666Y-45741500D01*
X93163333Y-45741500D01*
X93230000Y-45774833D01*
X93263333Y-45808166D01*
X93296666Y-45874833D01*
X93296666Y-46074833D01*
X93263333Y-46141500D01*
X93230000Y-46174833D01*
X41564733Y-72401866D02*
X41331400Y-72068533D01*
X41164733Y-72401866D02*
X41164733Y-71701866D01*
X41431400Y-71701866D01*
X41498066Y-71735200D01*
X41531400Y-71768533D01*
X41564733Y-71835200D01*
X41564733Y-71935200D01*
X41531400Y-72001866D01*
X41498066Y-72035200D01*
X41431400Y-72068533D01*
X41164733Y-72068533D01*
X41798066Y-71701866D02*
X42264733Y-71701866D01*
X41964733Y-72401866D01*
X98817866Y-48338566D02*
X98484533Y-48571900D01*
X98817866Y-48738566D02*
X98117866Y-48738566D01*
X98117866Y-48471900D01*
X98151200Y-48405233D01*
X98184533Y-48371900D01*
X98251200Y-48338566D01*
X98351200Y-48338566D01*
X98417866Y-48371900D01*
X98451200Y-48405233D01*
X98484533Y-48471900D01*
X98484533Y-48738566D01*
X98117866Y-47738566D02*
X98117866Y-47871900D01*
X98151200Y-47938566D01*
X98184533Y-47971900D01*
X98284533Y-48038566D01*
X98417866Y-48071900D01*
X98684533Y-48071900D01*
X98751200Y-48038566D01*
X98784533Y-48005233D01*
X98817866Y-47938566D01*
X98817866Y-47805233D01*
X98784533Y-47738566D01*
X98751200Y-47705233D01*
X98684533Y-47671900D01*
X98517866Y-47671900D01*
X98451200Y-47705233D01*
X98417866Y-47738566D01*
X98384533Y-47805233D01*
X98384533Y-47938566D01*
X98417866Y-48005233D01*
X98451200Y-48038566D01*
X98517866Y-48071900D01*
X43937866Y-64099266D02*
X43604533Y-64332600D01*
X43937866Y-64499266D02*
X43237866Y-64499266D01*
X43237866Y-64232600D01*
X43271200Y-64165933D01*
X43304533Y-64132600D01*
X43371200Y-64099266D01*
X43471200Y-64099266D01*
X43537866Y-64132600D01*
X43571200Y-64165933D01*
X43604533Y-64232600D01*
X43604533Y-64499266D01*
X43537866Y-63699266D02*
X43504533Y-63765933D01*
X43471200Y-63799266D01*
X43404533Y-63832600D01*
X43371200Y-63832600D01*
X43304533Y-63799266D01*
X43271200Y-63765933D01*
X43237866Y-63699266D01*
X43237866Y-63565933D01*
X43271200Y-63499266D01*
X43304533Y-63465933D01*
X43371200Y-63432600D01*
X43404533Y-63432600D01*
X43471200Y-63465933D01*
X43504533Y-63499266D01*
X43537866Y-63565933D01*
X43537866Y-63699266D01*
X43571200Y-63765933D01*
X43604533Y-63799266D01*
X43671200Y-63832600D01*
X43804533Y-63832600D01*
X43871200Y-63799266D01*
X43904533Y-63765933D01*
X43937866Y-63699266D01*
X43937866Y-63565933D01*
X43904533Y-63499266D01*
X43871200Y-63465933D01*
X43804533Y-63432600D01*
X43671200Y-63432600D01*
X43604533Y-63465933D01*
X43571200Y-63499266D01*
X43537866Y-63565933D01*
X91244000Y-59006666D02*
X91010666Y-58673333D01*
X90844000Y-59006666D02*
X90844000Y-58306666D01*
X91110666Y-58306666D01*
X91177333Y-58340000D01*
X91210666Y-58373333D01*
X91244000Y-58440000D01*
X91244000Y-58540000D01*
X91210666Y-58606666D01*
X91177333Y-58640000D01*
X91110666Y-58673333D01*
X90844000Y-58673333D01*
X91910666Y-59006666D02*
X91510666Y-59006666D01*
X91710666Y-59006666D02*
X91710666Y-58306666D01*
X91644000Y-58406666D01*
X91577333Y-58473333D01*
X91510666Y-58506666D01*
X92577333Y-59006666D02*
X92177333Y-59006666D01*
X92377333Y-59006666D02*
X92377333Y-58306666D01*
X92310666Y-58406666D01*
X92244000Y-58473333D01*
X92177333Y-58506666D01*
X91256700Y-63613466D02*
X91023366Y-63280133D01*
X90856700Y-63613466D02*
X90856700Y-62913466D01*
X91123366Y-62913466D01*
X91190033Y-62946800D01*
X91223366Y-62980133D01*
X91256700Y-63046800D01*
X91256700Y-63146800D01*
X91223366Y-63213466D01*
X91190033Y-63246800D01*
X91123366Y-63280133D01*
X90856700Y-63280133D01*
X91923366Y-63613466D02*
X91523366Y-63613466D01*
X91723366Y-63613466D02*
X91723366Y-62913466D01*
X91656700Y-63013466D01*
X91590033Y-63080133D01*
X91523366Y-63113466D01*
X92190033Y-62980133D02*
X92223366Y-62946800D01*
X92290033Y-62913466D01*
X92456700Y-62913466D01*
X92523366Y-62946800D01*
X92556700Y-62980133D01*
X92590033Y-63046800D01*
X92590033Y-63113466D01*
X92556700Y-63213466D01*
X92156700Y-63613466D01*
X92590033Y-63613466D01*
X91256700Y-64502466D02*
X91023366Y-64169133D01*
X90856700Y-64502466D02*
X90856700Y-63802466D01*
X91123366Y-63802466D01*
X91190033Y-63835800D01*
X91223366Y-63869133D01*
X91256700Y-63935800D01*
X91256700Y-64035800D01*
X91223366Y-64102466D01*
X91190033Y-64135800D01*
X91123366Y-64169133D01*
X90856700Y-64169133D01*
X91923366Y-64502466D02*
X91523366Y-64502466D01*
X91723366Y-64502466D02*
X91723366Y-63802466D01*
X91656700Y-63902466D01*
X91590033Y-63969133D01*
X91523366Y-64002466D01*
X92156700Y-63802466D02*
X92590033Y-63802466D01*
X92356700Y-64069133D01*
X92456700Y-64069133D01*
X92523366Y-64102466D01*
X92556700Y-64135800D01*
X92590033Y-64202466D01*
X92590033Y-64369133D01*
X92556700Y-64435800D01*
X92523366Y-64469133D01*
X92456700Y-64502466D01*
X92256700Y-64502466D01*
X92190033Y-64469133D01*
X92156700Y-64435800D01*
X40063000Y-88572266D02*
X39829666Y-88238933D01*
X39663000Y-88572266D02*
X39663000Y-87872266D01*
X39929666Y-87872266D01*
X39996333Y-87905600D01*
X40029666Y-87938933D01*
X40063000Y-88005600D01*
X40063000Y-88105600D01*
X40029666Y-88172266D01*
X39996333Y-88205600D01*
X39929666Y-88238933D01*
X39663000Y-88238933D01*
X40729666Y-88572266D02*
X40329666Y-88572266D01*
X40529666Y-88572266D02*
X40529666Y-87872266D01*
X40463000Y-87972266D01*
X40396333Y-88038933D01*
X40329666Y-88072266D01*
X41329666Y-88105600D02*
X41329666Y-88572266D01*
X41163000Y-87838933D02*
X40996333Y-88338933D01*
X41429666Y-88338933D01*
X39974100Y-91540766D02*
X39740766Y-91207433D01*
X39574100Y-91540766D02*
X39574100Y-90840766D01*
X39840766Y-90840766D01*
X39907433Y-90874100D01*
X39940766Y-90907433D01*
X39974100Y-90974100D01*
X39974100Y-91074100D01*
X39940766Y-91140766D01*
X39907433Y-91174100D01*
X39840766Y-91207433D01*
X39574100Y-91207433D01*
X40640766Y-91540766D02*
X40240766Y-91540766D01*
X40440766Y-91540766D02*
X40440766Y-90840766D01*
X40374100Y-90940766D01*
X40307433Y-91007433D01*
X40240766Y-91040766D01*
X41274100Y-90840766D02*
X40940766Y-90840766D01*
X40907433Y-91174100D01*
X40940766Y-91140766D01*
X41007433Y-91107433D01*
X41174100Y-91107433D01*
X41240766Y-91140766D01*
X41274100Y-91174100D01*
X41307433Y-91240766D01*
X41307433Y-91407433D01*
X41274100Y-91474100D01*
X41240766Y-91507433D01*
X41174100Y-91540766D01*
X41007433Y-91540766D01*
X40940766Y-91507433D01*
X40907433Y-91474100D01*
X37807066Y-64264366D02*
X37473733Y-64497700D01*
X37807066Y-64664366D02*
X37107066Y-64664366D01*
X37107066Y-64397700D01*
X37140400Y-64331033D01*
X37173733Y-64297700D01*
X37240400Y-64264366D01*
X37340400Y-64264366D01*
X37407066Y-64297700D01*
X37440400Y-64331033D01*
X37473733Y-64397700D01*
X37473733Y-64664366D01*
X37807066Y-63931033D02*
X37807066Y-63797700D01*
X37773733Y-63731033D01*
X37740400Y-63697700D01*
X37640400Y-63631033D01*
X37507066Y-63597700D01*
X37240400Y-63597700D01*
X37173733Y-63631033D01*
X37140400Y-63664366D01*
X37107066Y-63731033D01*
X37107066Y-63864366D01*
X37140400Y-63931033D01*
X37173733Y-63964366D01*
X37240400Y-63997700D01*
X37407066Y-63997700D01*
X37473733Y-63964366D01*
X37507066Y-63931033D01*
X37540400Y-63864366D01*
X37540400Y-63731033D01*
X37507066Y-63664366D01*
X37473733Y-63631033D01*
X37407066Y-63597700D01*
X36981566Y-64267500D02*
X36648233Y-64500833D01*
X36981566Y-64667500D02*
X36281566Y-64667500D01*
X36281566Y-64400833D01*
X36314900Y-64334166D01*
X36348233Y-64300833D01*
X36414900Y-64267500D01*
X36514900Y-64267500D01*
X36581566Y-64300833D01*
X36614900Y-64334166D01*
X36648233Y-64400833D01*
X36648233Y-64667500D01*
X36981566Y-63600833D02*
X36981566Y-64000833D01*
X36981566Y-63800833D02*
X36281566Y-63800833D01*
X36381566Y-63867500D01*
X36448233Y-63934166D01*
X36481566Y-64000833D01*
X36281566Y-63167500D02*
X36281566Y-63100833D01*
X36314900Y-63034166D01*
X36348233Y-63000833D01*
X36414900Y-62967500D01*
X36548233Y-62934166D01*
X36714900Y-62934166D01*
X36848233Y-62967500D01*
X36914900Y-63000833D01*
X36948233Y-63034166D01*
X36981566Y-63100833D01*
X36981566Y-63167500D01*
X36948233Y-63234166D01*
X36914900Y-63267500D01*
X36848233Y-63300833D01*
X36714900Y-63334166D01*
X36548233Y-63334166D01*
X36414900Y-63300833D01*
X36348233Y-63267500D01*
X36314900Y-63234166D01*
X36281566Y-63167500D01*
X36168766Y-64267500D02*
X35835433Y-64500833D01*
X36168766Y-64667500D02*
X35468766Y-64667500D01*
X35468766Y-64400833D01*
X35502100Y-64334166D01*
X35535433Y-64300833D01*
X35602100Y-64267500D01*
X35702100Y-64267500D01*
X35768766Y-64300833D01*
X35802100Y-64334166D01*
X35835433Y-64400833D01*
X35835433Y-64667500D01*
X35535433Y-64000833D02*
X35502100Y-63967500D01*
X35468766Y-63900833D01*
X35468766Y-63734166D01*
X35502100Y-63667500D01*
X35535433Y-63634166D01*
X35602100Y-63600833D01*
X35668766Y-63600833D01*
X35768766Y-63634166D01*
X36168766Y-64034166D01*
X36168766Y-63600833D01*
X35468766Y-63167500D02*
X35468766Y-63100833D01*
X35502100Y-63034166D01*
X35535433Y-63000833D01*
X35602100Y-62967500D01*
X35735433Y-62934166D01*
X35902100Y-62934166D01*
X36035433Y-62967500D01*
X36102100Y-63000833D01*
X36135433Y-63034166D01*
X36168766Y-63100833D01*
X36168766Y-63167500D01*
X36135433Y-63234166D01*
X36102100Y-63267500D01*
X36035433Y-63300833D01*
X35902100Y-63334166D01*
X35735433Y-63334166D01*
X35602100Y-63300833D01*
X35535433Y-63267500D01*
X35502100Y-63234166D01*
X35468766Y-63167500D01*
X49516466Y-71697000D02*
X49183133Y-71930333D01*
X49516466Y-72097000D02*
X48816466Y-72097000D01*
X48816466Y-71830333D01*
X48849800Y-71763666D01*
X48883133Y-71730333D01*
X48949800Y-71697000D01*
X49049800Y-71697000D01*
X49116466Y-71730333D01*
X49149800Y-71763666D01*
X49183133Y-71830333D01*
X49183133Y-72097000D01*
X48883133Y-71430333D02*
X48849800Y-71397000D01*
X48816466Y-71330333D01*
X48816466Y-71163666D01*
X48849800Y-71097000D01*
X48883133Y-71063666D01*
X48949800Y-71030333D01*
X49016466Y-71030333D01*
X49116466Y-71063666D01*
X49516466Y-71463666D01*
X49516466Y-71030333D01*
X49516466Y-70363666D02*
X49516466Y-70763666D01*
X49516466Y-70563666D02*
X48816466Y-70563666D01*
X48916466Y-70630333D01*
X48983133Y-70697000D01*
X49016466Y-70763666D01*
D16*
X50874633Y-77896980D02*
X50398442Y-77896980D01*
X50398442Y-76896980D01*
X51731776Y-77896980D02*
X51160347Y-77896980D01*
X51446061Y-77896980D02*
X51446061Y-76896980D01*
X51350823Y-77039838D01*
X51255585Y-77135076D01*
X51160347Y-77182695D01*
D20*
X45235033Y-73363900D02*
X45201700Y-73397233D01*
X45101700Y-73430566D01*
X45035033Y-73430566D01*
X44935033Y-73397233D01*
X44868366Y-73330566D01*
X44835033Y-73263900D01*
X44801700Y-73130566D01*
X44801700Y-73030566D01*
X44835033Y-72897233D01*
X44868366Y-72830566D01*
X44935033Y-72763900D01*
X45035033Y-72730566D01*
X45101700Y-72730566D01*
X45201700Y-72763900D01*
X45235033Y-72797233D01*
X45901700Y-73430566D02*
X45501700Y-73430566D01*
X45701700Y-73430566D02*
X45701700Y-72730566D01*
X45635033Y-72830566D01*
X45568366Y-72897233D01*
X45501700Y-72930566D01*
D16*
X42522000Y-62830828D02*
X42479142Y-62873685D01*
X42350571Y-62916542D01*
X42264857Y-62916542D01*
X42136285Y-62873685D01*
X42050571Y-62787971D01*
X42007714Y-62702257D01*
X41964857Y-62530828D01*
X41964857Y-62402257D01*
X42007714Y-62230828D01*
X42050571Y-62145114D01*
X42136285Y-62059400D01*
X42264857Y-62016542D01*
X42350571Y-62016542D01*
X42479142Y-62059400D01*
X42522000Y-62102257D01*
X43293428Y-62316542D02*
X43293428Y-62916542D01*
X43079142Y-61973685D02*
X42864857Y-62616542D01*
X43422000Y-62616542D01*
X50650000Y-80013928D02*
X50607142Y-80056785D01*
X50478571Y-80099642D01*
X50392857Y-80099642D01*
X50264285Y-80056785D01*
X50178571Y-79971071D01*
X50135714Y-79885357D01*
X50092857Y-79713928D01*
X50092857Y-79585357D01*
X50135714Y-79413928D01*
X50178571Y-79328214D01*
X50264285Y-79242500D01*
X50392857Y-79199642D01*
X50478571Y-79199642D01*
X50607142Y-79242500D01*
X50650000Y-79285357D01*
X51464285Y-79199642D02*
X51035714Y-79199642D01*
X50992857Y-79628214D01*
X51035714Y-79585357D01*
X51121428Y-79542500D01*
X51335714Y-79542500D01*
X51421428Y-79585357D01*
X51464285Y-79628214D01*
X51507142Y-79713928D01*
X51507142Y-79928214D01*
X51464285Y-80013928D01*
X51421428Y-80056785D01*
X51335714Y-80099642D01*
X51121428Y-80099642D01*
X51035714Y-80056785D01*
X50992857Y-80013928D01*
X40377228Y-68831600D02*
X40420085Y-68874457D01*
X40462942Y-69003028D01*
X40462942Y-69088742D01*
X40420085Y-69217314D01*
X40334371Y-69303028D01*
X40248657Y-69345885D01*
X40077228Y-69388742D01*
X39948657Y-69388742D01*
X39777228Y-69345885D01*
X39691514Y-69303028D01*
X39605800Y-69217314D01*
X39562942Y-69088742D01*
X39562942Y-69003028D01*
X39605800Y-68874457D01*
X39648657Y-68831600D01*
X39562942Y-68531600D02*
X39562942Y-67931600D01*
X40462942Y-68317314D01*
X36654600Y-51223028D02*
X36611742Y-51265885D01*
X36483171Y-51308742D01*
X36397457Y-51308742D01*
X36268885Y-51265885D01*
X36183171Y-51180171D01*
X36140314Y-51094457D01*
X36097457Y-50923028D01*
X36097457Y-50794457D01*
X36140314Y-50623028D01*
X36183171Y-50537314D01*
X36268885Y-50451600D01*
X36397457Y-50408742D01*
X36483171Y-50408742D01*
X36611742Y-50451600D01*
X36654600Y-50494457D01*
X37168885Y-50794457D02*
X37083171Y-50751600D01*
X37040314Y-50708742D01*
X36997457Y-50623028D01*
X36997457Y-50580171D01*
X37040314Y-50494457D01*
X37083171Y-50451600D01*
X37168885Y-50408742D01*
X37340314Y-50408742D01*
X37426028Y-50451600D01*
X37468885Y-50494457D01*
X37511742Y-50580171D01*
X37511742Y-50623028D01*
X37468885Y-50708742D01*
X37426028Y-50751600D01*
X37340314Y-50794457D01*
X37168885Y-50794457D01*
X37083171Y-50837314D01*
X37040314Y-50880171D01*
X36997457Y-50965885D01*
X36997457Y-51137314D01*
X37040314Y-51223028D01*
X37083171Y-51265885D01*
X37168885Y-51308742D01*
X37340314Y-51308742D01*
X37426028Y-51265885D01*
X37468885Y-51223028D01*
X37511742Y-51137314D01*
X37511742Y-50965885D01*
X37468885Y-50880171D01*
X37426028Y-50837314D01*
X37340314Y-50794457D01*
X32301728Y-58843028D02*
X32258871Y-58885885D01*
X32130300Y-58928742D01*
X32044585Y-58928742D01*
X31916014Y-58885885D01*
X31830300Y-58800171D01*
X31787442Y-58714457D01*
X31744585Y-58543028D01*
X31744585Y-58414457D01*
X31787442Y-58243028D01*
X31830300Y-58157314D01*
X31916014Y-58071600D01*
X32044585Y-58028742D01*
X32130300Y-58028742D01*
X32258871Y-58071600D01*
X32301728Y-58114457D01*
X33158871Y-58928742D02*
X32644585Y-58928742D01*
X32901728Y-58928742D02*
X32901728Y-58028742D01*
X32816014Y-58157314D01*
X32730300Y-58243028D01*
X32644585Y-58285885D01*
X33716014Y-58028742D02*
X33801728Y-58028742D01*
X33887442Y-58071600D01*
X33930300Y-58114457D01*
X33973157Y-58200171D01*
X34016014Y-58371600D01*
X34016014Y-58585885D01*
X33973157Y-58757314D01*
X33930300Y-58843028D01*
X33887442Y-58885885D01*
X33801728Y-58928742D01*
X33716014Y-58928742D01*
X33630300Y-58885885D01*
X33587442Y-58843028D01*
X33544585Y-58757314D01*
X33501728Y-58585885D01*
X33501728Y-58371600D01*
X33544585Y-58200171D01*
X33587442Y-58114457D01*
X33630300Y-58071600D01*
X33716014Y-58028742D01*
D20*
X51352514Y-82010214D02*
X51314419Y-82048309D01*
X51200133Y-82086404D01*
X51123942Y-82086404D01*
X51009657Y-82048309D01*
X50933466Y-81972119D01*
X50895371Y-81895928D01*
X50857276Y-81743547D01*
X50857276Y-81629261D01*
X50895371Y-81476880D01*
X50933466Y-81400690D01*
X51009657Y-81324500D01*
X51123942Y-81286404D01*
X51200133Y-81286404D01*
X51314419Y-81324500D01*
X51352514Y-81362595D01*
X52114419Y-82086404D02*
X51657276Y-82086404D01*
X51885847Y-82086404D02*
X51885847Y-81286404D01*
X51809657Y-81400690D01*
X51733466Y-81476880D01*
X51657276Y-81514976D01*
X52876323Y-82086404D02*
X52419180Y-82086404D01*
X52647752Y-82086404D02*
X52647752Y-81286404D01*
X52571561Y-81400690D01*
X52495371Y-81476880D01*
X52419180Y-81514976D01*
X43938000Y-60051100D02*
X43971333Y-60084433D01*
X44004666Y-60184433D01*
X44004666Y-60251100D01*
X43971333Y-60351100D01*
X43904666Y-60417766D01*
X43838000Y-60451100D01*
X43704666Y-60484433D01*
X43604666Y-60484433D01*
X43471333Y-60451100D01*
X43404666Y-60417766D01*
X43338000Y-60351100D01*
X43304666Y-60251100D01*
X43304666Y-60184433D01*
X43338000Y-60084433D01*
X43371333Y-60051100D01*
X44004666Y-59384433D02*
X44004666Y-59784433D01*
X44004666Y-59584433D02*
X43304666Y-59584433D01*
X43404666Y-59651100D01*
X43471333Y-59717766D01*
X43504666Y-59784433D01*
X43371333Y-59117766D02*
X43338000Y-59084433D01*
X43304666Y-59017766D01*
X43304666Y-58851100D01*
X43338000Y-58784433D01*
X43371333Y-58751100D01*
X43438000Y-58717766D01*
X43504666Y-58717766D01*
X43604666Y-58751100D01*
X44004666Y-59151100D01*
X44004666Y-58717766D01*
X41904500Y-51215100D02*
X41871166Y-51248433D01*
X41771166Y-51281766D01*
X41704500Y-51281766D01*
X41604500Y-51248433D01*
X41537833Y-51181766D01*
X41504500Y-51115100D01*
X41471166Y-50981766D01*
X41471166Y-50881766D01*
X41504500Y-50748433D01*
X41537833Y-50681766D01*
X41604500Y-50615100D01*
X41704500Y-50581766D01*
X41771166Y-50581766D01*
X41871166Y-50615100D01*
X41904500Y-50648433D01*
X42571166Y-51281766D02*
X42171166Y-51281766D01*
X42371166Y-51281766D02*
X42371166Y-50581766D01*
X42304500Y-50681766D01*
X42237833Y-50748433D01*
X42171166Y-50781766D01*
X42804500Y-50581766D02*
X43237833Y-50581766D01*
X43004500Y-50848433D01*
X43104500Y-50848433D01*
X43171166Y-50881766D01*
X43204500Y-50915100D01*
X43237833Y-50981766D01*
X43237833Y-51148433D01*
X43204500Y-51215100D01*
X43171166Y-51248433D01*
X43104500Y-51281766D01*
X42904500Y-51281766D01*
X42837833Y-51248433D01*
X42804500Y-51215100D01*
X60204414Y-84448614D02*
X60166319Y-84486709D01*
X60052033Y-84524804D01*
X59975842Y-84524804D01*
X59861557Y-84486709D01*
X59785366Y-84410519D01*
X59747271Y-84334328D01*
X59709176Y-84181947D01*
X59709176Y-84067661D01*
X59747271Y-83915280D01*
X59785366Y-83839090D01*
X59861557Y-83762900D01*
X59975842Y-83724804D01*
X60052033Y-83724804D01*
X60166319Y-83762900D01*
X60204414Y-83800995D01*
X60966319Y-84524804D02*
X60509176Y-84524804D01*
X60737747Y-84524804D02*
X60737747Y-83724804D01*
X60661557Y-83839090D01*
X60585366Y-83915280D01*
X60509176Y-83953376D01*
X61652033Y-83991471D02*
X61652033Y-84524804D01*
X61461557Y-83686709D02*
X61271080Y-84258138D01*
X61766319Y-84258138D01*
X29903000Y-92020200D02*
X29869666Y-92053533D01*
X29769666Y-92086866D01*
X29703000Y-92086866D01*
X29603000Y-92053533D01*
X29536333Y-91986866D01*
X29503000Y-91920200D01*
X29469666Y-91786866D01*
X29469666Y-91686866D01*
X29503000Y-91553533D01*
X29536333Y-91486866D01*
X29603000Y-91420200D01*
X29703000Y-91386866D01*
X29769666Y-91386866D01*
X29869666Y-91420200D01*
X29903000Y-91453533D01*
X30569666Y-92086866D02*
X30169666Y-92086866D01*
X30369666Y-92086866D02*
X30369666Y-91386866D01*
X30303000Y-91486866D01*
X30236333Y-91553533D01*
X30169666Y-91586866D01*
X31203000Y-91386866D02*
X30869666Y-91386866D01*
X30836333Y-91720200D01*
X30869666Y-91686866D01*
X30936333Y-91653533D01*
X31103000Y-91653533D01*
X31169666Y-91686866D01*
X31203000Y-91720200D01*
X31236333Y-91786866D01*
X31236333Y-91953533D01*
X31203000Y-92020200D01*
X31169666Y-92053533D01*
X31103000Y-92086866D01*
X30936333Y-92086866D01*
X30869666Y-92053533D01*
X30836333Y-92020200D01*
D18*
X36833023Y-84122380D02*
X35563023Y-84122380D01*
X35563023Y-83820000D01*
X35623500Y-83638571D01*
X35744452Y-83517619D01*
X35865404Y-83457142D01*
X36107309Y-83396666D01*
X36288738Y-83396666D01*
X36530642Y-83457142D01*
X36651595Y-83517619D01*
X36772547Y-83638571D01*
X36833023Y-83820000D01*
X36833023Y-84122380D01*
X35683976Y-82912857D02*
X35623500Y-82852380D01*
X35563023Y-82731428D01*
X35563023Y-82429047D01*
X35623500Y-82308095D01*
X35683976Y-82247619D01*
X35804928Y-82187142D01*
X35925880Y-82187142D01*
X36107309Y-82247619D01*
X36833023Y-82973333D01*
X36833023Y-82187142D01*
D16*
X32150133Y-56686457D02*
X31883466Y-56686457D01*
X31883466Y-57105504D02*
X31883466Y-56305504D01*
X32264419Y-56305504D01*
X32835847Y-56686457D02*
X32950133Y-56724552D01*
X32988228Y-56762647D01*
X33026323Y-56838838D01*
X33026323Y-56953123D01*
X32988228Y-57029314D01*
X32950133Y-57067409D01*
X32873942Y-57105504D01*
X32569180Y-57105504D01*
X32569180Y-56305504D01*
X32835847Y-56305504D01*
X32912038Y-56343600D01*
X32950133Y-56381695D01*
X32988228Y-56457885D01*
X32988228Y-56534076D01*
X32950133Y-56610266D01*
X32912038Y-56648361D01*
X32835847Y-56686457D01*
X32569180Y-56686457D01*
X33788228Y-57105504D02*
X33331085Y-57105504D01*
X33559657Y-57105504D02*
X33559657Y-56305504D01*
X33483466Y-56419790D01*
X33407276Y-56495980D01*
X33331085Y-56534076D01*
X40512214Y-72187500D02*
X40512214Y-72487500D01*
X40983642Y-72487500D02*
X40083642Y-72487500D01*
X40083642Y-72058928D01*
X40512214Y-71416071D02*
X40555071Y-71287500D01*
X40597928Y-71244642D01*
X40683642Y-71201785D01*
X40812214Y-71201785D01*
X40897928Y-71244642D01*
X40940785Y-71287500D01*
X40983642Y-71373214D01*
X40983642Y-71716071D01*
X40083642Y-71716071D01*
X40083642Y-71416071D01*
X40126500Y-71330357D01*
X40169357Y-71287500D01*
X40255071Y-71244642D01*
X40340785Y-71244642D01*
X40426500Y-71287500D01*
X40469357Y-71330357D01*
X40512214Y-71416071D01*
X40512214Y-71716071D01*
X40169357Y-70858928D02*
X40126500Y-70816071D01*
X40083642Y-70730357D01*
X40083642Y-70516071D01*
X40126500Y-70430357D01*
X40169357Y-70387500D01*
X40255071Y-70344642D01*
X40340785Y-70344642D01*
X40469357Y-70387500D01*
X40983642Y-70901785D01*
X40983642Y-70344642D01*
X36595133Y-75584057D02*
X36328466Y-75584057D01*
X36328466Y-76003104D02*
X36328466Y-75203104D01*
X36709419Y-75203104D01*
X37280847Y-75584057D02*
X37395133Y-75622152D01*
X37433228Y-75660247D01*
X37471323Y-75736438D01*
X37471323Y-75850723D01*
X37433228Y-75926914D01*
X37395133Y-75965009D01*
X37318942Y-76003104D01*
X37014180Y-76003104D01*
X37014180Y-75203104D01*
X37280847Y-75203104D01*
X37357038Y-75241200D01*
X37395133Y-75279295D01*
X37433228Y-75355485D01*
X37433228Y-75431676D01*
X37395133Y-75507866D01*
X37357038Y-75545961D01*
X37280847Y-75584057D01*
X37014180Y-75584057D01*
X37737990Y-75203104D02*
X38233228Y-75203104D01*
X37966561Y-75507866D01*
X38080847Y-75507866D01*
X38157038Y-75545961D01*
X38195133Y-75584057D01*
X38233228Y-75660247D01*
X38233228Y-75850723D01*
X38195133Y-75926914D01*
X38157038Y-75965009D01*
X38080847Y-76003104D01*
X37852276Y-76003104D01*
X37776085Y-75965009D01*
X37737990Y-75926914D01*
X35703800Y-60781414D02*
X35403800Y-60781414D01*
X35403800Y-61252842D02*
X35403800Y-60352842D01*
X35832371Y-60352842D01*
X36175228Y-60781414D02*
X36475228Y-60781414D01*
X36603800Y-61252842D02*
X36175228Y-61252842D01*
X36175228Y-60352842D01*
X36603800Y-60352842D01*
X36860942Y-60352842D02*
X37375228Y-60352842D01*
X37118085Y-61252842D02*
X37118085Y-60352842D01*
X37632371Y-60438557D02*
X37675228Y-60395700D01*
X37760942Y-60352842D01*
X37975228Y-60352842D01*
X38060942Y-60395700D01*
X38103800Y-60438557D01*
X38146657Y-60524271D01*
X38146657Y-60609985D01*
X38103800Y-60738557D01*
X37589514Y-61252842D01*
X38146657Y-61252842D01*
D24*
X28387523Y-72946985D02*
X27117523Y-72946985D01*
X28024666Y-72523652D01*
X27117523Y-72100319D01*
X28387523Y-72100319D01*
X28387523Y-71495557D02*
X27117523Y-71495557D01*
X28266571Y-70165080D02*
X28327047Y-70225557D01*
X28387523Y-70406985D01*
X28387523Y-70527938D01*
X28327047Y-70709366D01*
X28206095Y-70830319D01*
X28085142Y-70890795D01*
X27843238Y-70951271D01*
X27661809Y-70951271D01*
X27419904Y-70890795D01*
X27298952Y-70830319D01*
X27178000Y-70709366D01*
X27117523Y-70527938D01*
X27117523Y-70406985D01*
X27178000Y-70225557D01*
X27238476Y-70165080D01*
X28387523Y-68895080D02*
X27782761Y-69318414D01*
X28387523Y-69620795D02*
X27117523Y-69620795D01*
X27117523Y-69136985D01*
X27178000Y-69016033D01*
X27238476Y-68955557D01*
X27359428Y-68895080D01*
X27540857Y-68895080D01*
X27661809Y-68955557D01*
X27722285Y-69016033D01*
X27782761Y-69136985D01*
X27782761Y-69620795D01*
X27117523Y-68108890D02*
X27117523Y-67866985D01*
X27178000Y-67746033D01*
X27298952Y-67625080D01*
X27540857Y-67564604D01*
X27964190Y-67564604D01*
X28206095Y-67625080D01*
X28327047Y-67746033D01*
X28387523Y-67866985D01*
X28387523Y-68108890D01*
X28327047Y-68229842D01*
X28206095Y-68350795D01*
X27964190Y-68411271D01*
X27540857Y-68411271D01*
X27298952Y-68350795D01*
X27178000Y-68229842D01*
X27117523Y-68108890D01*
X28508476Y-67322700D02*
X28508476Y-66355080D01*
X28327047Y-66113176D02*
X28387523Y-65931747D01*
X28387523Y-65629366D01*
X28327047Y-65508414D01*
X28266571Y-65447938D01*
X28145619Y-65387461D01*
X28024666Y-65387461D01*
X27903714Y-65447938D01*
X27843238Y-65508414D01*
X27782761Y-65629366D01*
X27722285Y-65871271D01*
X27661809Y-65992223D01*
X27601333Y-66052700D01*
X27480380Y-66113176D01*
X27359428Y-66113176D01*
X27238476Y-66052700D01*
X27178000Y-65992223D01*
X27117523Y-65871271D01*
X27117523Y-65568890D01*
X27178000Y-65387461D01*
X28387523Y-64843176D02*
X27117523Y-64843176D01*
X27117523Y-64540795D01*
X27178000Y-64359366D01*
X27298952Y-64238414D01*
X27419904Y-64177938D01*
X27661809Y-64117461D01*
X27843238Y-64117461D01*
X28085142Y-64177938D01*
X28206095Y-64238414D01*
X28327047Y-64359366D01*
X28387523Y-64540795D01*
X28387523Y-64843176D01*
X28387523Y-62907938D02*
X28387523Y-63633652D01*
X28387523Y-63270795D02*
X27117523Y-63270795D01*
X27298952Y-63391747D01*
X27419904Y-63512700D01*
X27480380Y-63633652D01*
X58247038Y-84909780D02*
X58150276Y-84861400D01*
X58053514Y-84764638D01*
X57908371Y-84619495D01*
X57811609Y-84571114D01*
X57714847Y-84571114D01*
X57763228Y-84813019D02*
X57666466Y-84764638D01*
X57569704Y-84667876D01*
X57521323Y-84474352D01*
X57521323Y-84135685D01*
X57569704Y-83942161D01*
X57666466Y-83845400D01*
X57763228Y-83797019D01*
X57956752Y-83797019D01*
X58053514Y-83845400D01*
X58150276Y-83942161D01*
X58198657Y-84135685D01*
X58198657Y-84474352D01*
X58150276Y-84667876D01*
X58053514Y-84764638D01*
X57956752Y-84813019D01*
X57763228Y-84813019D01*
X59166276Y-84813019D02*
X58585704Y-84813019D01*
X58875990Y-84813019D02*
X58875990Y-83797019D01*
X58779228Y-83942161D01*
X58682466Y-84038923D01*
X58585704Y-84087304D01*
D16*
X46586000Y-72327242D02*
X46286000Y-71898671D01*
X46071714Y-72327242D02*
X46071714Y-71427242D01*
X46414571Y-71427242D01*
X46500285Y-71470100D01*
X46543142Y-71512957D01*
X46586000Y-71598671D01*
X46586000Y-71727242D01*
X46543142Y-71812957D01*
X46500285Y-71855814D01*
X46414571Y-71898671D01*
X46071714Y-71898671D01*
X47357428Y-71727242D02*
X47357428Y-72327242D01*
X47143142Y-71384385D02*
X46928857Y-72027242D01*
X47486000Y-72027242D01*
D10*
X39266880Y-76263404D02*
X40076404Y-76263404D01*
X40171642Y-76215785D01*
X40219261Y-76168166D01*
X40266880Y-76072928D01*
X40266880Y-75882452D01*
X40219261Y-75787214D01*
X40171642Y-75739595D01*
X40076404Y-75691976D01*
X39266880Y-75691976D01*
X40266880Y-74691976D02*
X40266880Y-75263404D01*
X40266880Y-74977690D02*
X39266880Y-74977690D01*
X39409738Y-75072928D01*
X39504976Y-75168166D01*
X39552595Y-75263404D01*
D16*
X34364680Y-57226104D02*
X35174204Y-57226104D01*
X35269442Y-57178485D01*
X35317061Y-57130866D01*
X35364680Y-57035628D01*
X35364680Y-56845152D01*
X35317061Y-56749914D01*
X35269442Y-56702295D01*
X35174204Y-56654676D01*
X34364680Y-56654676D01*
X34459919Y-56226104D02*
X34412300Y-56178485D01*
X34364680Y-56083247D01*
X34364680Y-55845152D01*
X34412300Y-55749914D01*
X34459919Y-55702295D01*
X34555157Y-55654676D01*
X34650395Y-55654676D01*
X34793252Y-55702295D01*
X35364680Y-56273723D01*
X35364680Y-55654676D01*
D18*
X35677928Y-59768619D02*
X35581166Y-59720238D01*
X35532785Y-59671857D01*
X35484404Y-59575095D01*
X35484404Y-59284809D01*
X35532785Y-59188047D01*
X35581166Y-59139666D01*
X35677928Y-59091285D01*
X35823071Y-59091285D01*
X35919833Y-59139666D01*
X35968214Y-59188047D01*
X36016595Y-59284809D01*
X36016595Y-59575095D01*
X35968214Y-59671857D01*
X35919833Y-59720238D01*
X35823071Y-59768619D01*
X35677928Y-59768619D01*
D16*
X44326276Y-64006480D02*
X44992942Y-65006480D01*
X44992942Y-64006480D02*
X44326276Y-65006480D01*
X45897704Y-65006480D02*
X45326276Y-65006480D01*
X45611990Y-65006480D02*
X45611990Y-64006480D01*
X45516752Y-64149338D01*
X45421514Y-64244576D01*
X45326276Y-64292195D01*
D20*
X62364200Y-58936700D02*
X62330866Y-58970033D01*
X62230866Y-59003366D01*
X62164200Y-59003366D01*
X62064200Y-58970033D01*
X61997533Y-58903366D01*
X61964200Y-58836700D01*
X61930866Y-58703366D01*
X61930866Y-58603366D01*
X61964200Y-58470033D01*
X61997533Y-58403366D01*
X62064200Y-58336700D01*
X62164200Y-58303366D01*
X62230866Y-58303366D01*
X62330866Y-58336700D01*
X62364200Y-58370033D01*
X63030866Y-59003366D02*
X62630866Y-59003366D01*
X62830866Y-59003366D02*
X62830866Y-58303366D01*
X62764200Y-58403366D01*
X62697533Y-58470033D01*
X62630866Y-58503366D01*
X63264200Y-58303366D02*
X63730866Y-58303366D01*
X63430866Y-59003366D01*
X71420800Y-72611400D02*
X71454133Y-72644733D01*
X71487466Y-72744733D01*
X71487466Y-72811400D01*
X71454133Y-72911400D01*
X71387466Y-72978066D01*
X71320800Y-73011400D01*
X71187466Y-73044733D01*
X71087466Y-73044733D01*
X70954133Y-73011400D01*
X70887466Y-72978066D01*
X70820800Y-72911400D01*
X70787466Y-72811400D01*
X70787466Y-72744733D01*
X70820800Y-72644733D01*
X70854133Y-72611400D01*
X71487466Y-71944733D02*
X71487466Y-72344733D01*
X71487466Y-72144733D02*
X70787466Y-72144733D01*
X70887466Y-72211400D01*
X70954133Y-72278066D01*
X70987466Y-72344733D01*
X71087466Y-71544733D02*
X71054133Y-71611400D01*
X71020800Y-71644733D01*
X70954133Y-71678066D01*
X70920800Y-71678066D01*
X70854133Y-71644733D01*
X70820800Y-71611400D01*
X70787466Y-71544733D01*
X70787466Y-71411400D01*
X70820800Y-71344733D01*
X70854133Y-71311400D01*
X70920800Y-71278066D01*
X70954133Y-71278066D01*
X71020800Y-71311400D01*
X71054133Y-71344733D01*
X71087466Y-71411400D01*
X71087466Y-71544733D01*
X71120800Y-71611400D01*
X71154133Y-71644733D01*
X71220800Y-71678066D01*
X71354133Y-71678066D01*
X71420800Y-71644733D01*
X71454133Y-71611400D01*
X71487466Y-71544733D01*
X71487466Y-71411400D01*
X71454133Y-71344733D01*
X71420800Y-71311400D01*
X71354133Y-71278066D01*
X71220800Y-71278066D01*
X71154133Y-71311400D01*
X71120800Y-71344733D01*
X71087466Y-71411400D01*
X54744200Y-58555700D02*
X54710866Y-58589033D01*
X54610866Y-58622366D01*
X54544200Y-58622366D01*
X54444200Y-58589033D01*
X54377533Y-58522366D01*
X54344200Y-58455700D01*
X54310866Y-58322366D01*
X54310866Y-58222366D01*
X54344200Y-58089033D01*
X54377533Y-58022366D01*
X54444200Y-57955700D01*
X54544200Y-57922366D01*
X54610866Y-57922366D01*
X54710866Y-57955700D01*
X54744200Y-57989033D01*
X55410866Y-58622366D02*
X55010866Y-58622366D01*
X55210866Y-58622366D02*
X55210866Y-57922366D01*
X55144200Y-58022366D01*
X55077533Y-58089033D01*
X55010866Y-58122366D01*
X55744200Y-58622366D02*
X55877533Y-58622366D01*
X55944200Y-58589033D01*
X55977533Y-58555700D01*
X56044200Y-58455700D01*
X56077533Y-58322366D01*
X56077533Y-58055700D01*
X56044200Y-57989033D01*
X56010866Y-57955700D01*
X55944200Y-57922366D01*
X55810866Y-57922366D01*
X55744200Y-57955700D01*
X55710866Y-57989033D01*
X55677533Y-58055700D01*
X55677533Y-58222366D01*
X55710866Y-58289033D01*
X55744200Y-58322366D01*
X55810866Y-58355700D01*
X55944200Y-58355700D01*
X56010866Y-58322366D01*
X56044200Y-58289033D01*
X56077533Y-58222366D01*
X53334500Y-77939200D02*
X53301166Y-77972533D01*
X53201166Y-78005866D01*
X53134500Y-78005866D01*
X53034500Y-77972533D01*
X52967833Y-77905866D01*
X52934500Y-77839200D01*
X52901166Y-77705866D01*
X52901166Y-77605866D01*
X52934500Y-77472533D01*
X52967833Y-77405866D01*
X53034500Y-77339200D01*
X53134500Y-77305866D01*
X53201166Y-77305866D01*
X53301166Y-77339200D01*
X53334500Y-77372533D01*
X53601166Y-77372533D02*
X53634500Y-77339200D01*
X53701166Y-77305866D01*
X53867833Y-77305866D01*
X53934500Y-77339200D01*
X53967833Y-77372533D01*
X54001166Y-77439200D01*
X54001166Y-77505866D01*
X53967833Y-77605866D01*
X53567833Y-78005866D01*
X54001166Y-78005866D01*
X54434500Y-77305866D02*
X54501166Y-77305866D01*
X54567833Y-77339200D01*
X54601166Y-77372533D01*
X54634500Y-77439200D01*
X54667833Y-77572533D01*
X54667833Y-77739200D01*
X54634500Y-77872533D01*
X54601166Y-77939200D01*
X54567833Y-77972533D01*
X54501166Y-78005866D01*
X54434500Y-78005866D01*
X54367833Y-77972533D01*
X54334500Y-77939200D01*
X54301166Y-77872533D01*
X54267833Y-77739200D01*
X54267833Y-77572533D01*
X54301166Y-77439200D01*
X54334500Y-77372533D01*
X54367833Y-77339200D01*
X54434500Y-77305866D01*
X52256500Y-65994700D02*
X52289833Y-66028033D01*
X52323166Y-66128033D01*
X52323166Y-66194700D01*
X52289833Y-66294700D01*
X52223166Y-66361366D01*
X52156500Y-66394700D01*
X52023166Y-66428033D01*
X51923166Y-66428033D01*
X51789833Y-66394700D01*
X51723166Y-66361366D01*
X51656500Y-66294700D01*
X51623166Y-66194700D01*
X51623166Y-66128033D01*
X51656500Y-66028033D01*
X51689833Y-65994700D01*
X51689833Y-65728033D02*
X51656500Y-65694700D01*
X51623166Y-65628033D01*
X51623166Y-65461366D01*
X51656500Y-65394700D01*
X51689833Y-65361366D01*
X51756500Y-65328033D01*
X51823166Y-65328033D01*
X51923166Y-65361366D01*
X52323166Y-65761366D01*
X52323166Y-65328033D01*
X52323166Y-64661366D02*
X52323166Y-65061366D01*
X52323166Y-64861366D02*
X51623166Y-64861366D01*
X51723166Y-64928033D01*
X51789833Y-64994700D01*
X51823166Y-65061366D01*
D16*
X92166300Y-52073928D02*
X92123442Y-52116785D01*
X91994871Y-52159642D01*
X91909157Y-52159642D01*
X91780585Y-52116785D01*
X91694871Y-52031071D01*
X91652014Y-51945357D01*
X91609157Y-51773928D01*
X91609157Y-51645357D01*
X91652014Y-51473928D01*
X91694871Y-51388214D01*
X91780585Y-51302500D01*
X91909157Y-51259642D01*
X91994871Y-51259642D01*
X92123442Y-51302500D01*
X92166300Y-51345357D01*
X92594871Y-52159642D02*
X92766300Y-52159642D01*
X92852014Y-52116785D01*
X92894871Y-52073928D01*
X92980585Y-51945357D01*
X93023442Y-51773928D01*
X93023442Y-51431071D01*
X92980585Y-51345357D01*
X92937728Y-51302500D01*
X92852014Y-51259642D01*
X92680585Y-51259642D01*
X92594871Y-51302500D01*
X92552014Y-51345357D01*
X92509157Y-51431071D01*
X92509157Y-51645357D01*
X92552014Y-51731071D01*
X92594871Y-51773928D01*
X92680585Y-51816785D01*
X92852014Y-51816785D01*
X92937728Y-51773928D01*
X92980585Y-51731071D01*
X93023442Y-51645357D01*
M02*
